<?xml version="1.0" encoding="UTF-8" standalone="no"?>
<!DOCTYPE svg PUBLIC "-//W3C//DTD SVG 1.1//EN"
 "http://www.w3.org/Graphics/SVG/1.1/DTD/svg11.dtd">
<!-- Generated by graphviz version 2.40.1 (20161225.0304)
 -->
<!-- Title: largeRelationshipsDiagram Pages: 1 -->
<svg width="473pt" height="1802pt"
 viewBox="0.00 0.00 473.00 1802.00" xmlns="http://www.w3.org/2000/svg" xmlns:xlink="http://www.w3.org/1999/xlink">
<g id="graph0" class="graph" transform="scale(1 1) rotate(0) translate(4 1798)">
<title>largeRelationshipsDiagram</title>
<polygon fill="#ffffff" stroke="transparent" points="-4,4 -4,-1798 469,-1798 469,4 -4,4"/>
<!-- MINIAPP_DETAILS -->
<g id="node1" class="node">
<title>MINIAPP_DETAILS</title>
<g id="a_node1"><a xlink:href="../../tables/MINIAPP_DETAILS.html" xlink:title="MINIAPP_DETAILS" target="_top">
<polygon fill="#ffffff" stroke="transparent" points="8,-34 8,-274 167,-274 167,-34 8,-34"/>
<polygon fill="#f5f5f5" stroke="transparent" points="8.5,-251 8.5,-274 167.5,-274 167.5,-251 8.5,-251"/>
<polygon fill="none" stroke="#000000" points="8.5,-251 8.5,-274 167.5,-274 167.5,-251 8.5,-251"/>
<text text-anchor="start" x="13.5" y="-259.6" font-family="Helvetica,sans-Serif" font-weight="bold" font-size="11.00" fill="#000000">MINIAPP_DETAILS</text>
<text text-anchor="start" x="133.0219" y="-259.1" font-family="Helvetica,sans-Serif" font-size="11.00" fill="#000000">[table]</text>
<polygon fill="none" stroke="#000000" points="8.5,-229 8.5,-251 167.5,-251 167.5,-229 8.5,-229"/>
<image xlink:href="../../images/primaryKeys.png" width="11px" height="12px" preserveAspectRatio="xMinYMin meet" x="13.5" y="-246"/>
<text text-anchor="start" x="36.5" y="-236.1" font-family="Helvetica,sans-Serif" font-size="11.00" fill="#000000">ID</text>
<polygon fill="none" stroke="#000000" points="8.5,-207 8.5,-229 167.5,-229 167.5,-207 8.5,-207"/>
<text text-anchor="start" x="36.5" y="-214.1" font-family="Helvetica,sans-Serif" font-size="11.00" fill="#000000">DELETED</text>
<polygon fill="none" stroke="#000000" points="8.5,-185 8.5,-207 167.5,-207 167.5,-185 8.5,-185"/>
<text text-anchor="start" x="36.5" y="-192.1" font-family="Helvetica,sans-Serif" font-size="11.00" fill="#000000">CUSTOMER_ID</text>
<polygon fill="none" stroke="#000000" points="8.5,-163 8.5,-185 167.5,-185 167.5,-163 8.5,-163"/>
<text text-anchor="start" x="36.5" y="-170.1" font-family="Helvetica,sans-Serif" font-size="11.00" fill="#000000">NAME</text>
<polygon fill="none" stroke="#000000" points="8.5,-141 8.5,-163 167.5,-163 167.5,-141 8.5,-141"/>
<text text-anchor="start" x="36.5" y="-148.1" font-family="Helvetica,sans-Serif" font-size="11.00" fill="#000000">DESCRIPTION</text>
<polygon fill="none" stroke="#000000" points="8.5,-119 8.5,-141 167.5,-141 167.5,-119 8.5,-119"/>
<text text-anchor="start" x="36.5" y="-126.1" font-family="Helvetica,sans-Serif" font-size="11.00" fill="#000000">ICON_URL</text>
<polygon fill="none" stroke="#000000" points="8.5,-97 8.5,-119 167.5,-119 167.5,-97 8.5,-97"/>
<text text-anchor="start" x="36.5" y="-104.1" font-family="Helvetica,sans-Serif" font-size="11.00" fill="#000000">VERSION</text>
<polygon fill="none" stroke="#000000" points="8.5,-75 8.5,-97 167.5,-97 167.5,-75 8.5,-75"/>
<text text-anchor="start" x="36.5" y="-82.1" font-family="Helvetica,sans-Serif" font-size="11.00" fill="#000000">APPLICATION_KEY</text>
<polygon fill="none" stroke="#000000" points="8.5,-53 8.5,-75 167.5,-75 167.5,-53 8.5,-53"/>
<text text-anchor="start" x="36.5" y="-60.1" font-family="Helvetica,sans-Serif" font-size="11.00" fill="#000000">TAGGING</text>
<polygon fill="#ffffff" stroke="transparent" points="8.5,-34 8.5,-53 64.5,-53 64.5,-34 8.5,-34"/>
<polygon fill="none" stroke="#000000" points="8.5,-34 8.5,-53 64.5,-53 64.5,-34 8.5,-34"/>
<text text-anchor="start" x="11.5" y="-40.1" font-family="Helvetica,sans-Serif" font-size="11.00" fill="#000000"> &#160;</text>
<polygon fill="#ffffff" stroke="transparent" points="64.5,-34 64.5,-53 124.5,-53 124.5,-34 64.5,-34"/>
<polygon fill="none" stroke="#000000" points="64.5,-34 64.5,-53 124.5,-53 124.5,-34 64.5,-34"/>
<text text-anchor="start" x="89.1105" y="-40.1" font-family="Helvetica,sans-Serif" font-size="11.00" fill="#000000">0 rows</text>
<polygon fill="#ffffff" stroke="transparent" points="124.5,-34 124.5,-53 167.5,-53 167.5,-34 124.5,-34"/>
<polygon fill="none" stroke="#000000" points="124.5,-34 124.5,-53 167.5,-53 167.5,-34 124.5,-34"/>
<text text-anchor="start" x="148.9053" y="-40.1" font-family="Helvetica,sans-Serif" font-size="11.00" fill="#000000">2 &gt;</text>
</a>
</g>
</g>
<!-- HOSTING_DETAILS_AUD -->
<g id="node2" class="node">
<title>HOSTING_DETAILS_AUD</title>
<g id="a_node2"><a xlink:href="../../tables/HOSTING_DETAILS_AUD.html" xlink:title="HOSTING_DETAILS_AUD" target="_top">
<polygon fill="#ffffff" stroke="transparent" points="238,-1462 238,-1790 435,-1790 435,-1462 238,-1462"/>
<polygon fill="#f5f5f5" stroke="transparent" points="238.5,-1767 238.5,-1790 435.5,-1790 435.5,-1767 238.5,-1767"/>
<polygon fill="none" stroke="#000000" points="238.5,-1767 238.5,-1790 435.5,-1790 435.5,-1767 238.5,-1767"/>
<text text-anchor="start" x="243.5" y="-1775.6" font-family="Helvetica,sans-Serif" font-weight="bold" font-size="11.00" fill="#000000">HOSTING_DETAILS_AUD</text>
<text text-anchor="start" x="401.0219" y="-1775.1" font-family="Helvetica,sans-Serif" font-size="11.00" fill="#000000">[table]</text>
<polygon fill="none" stroke="#000000" points="238.5,-1745 238.5,-1767 435.5,-1767 435.5,-1745 238.5,-1745"/>
<image xlink:href="../../images/primaryKeys.png" width="11px" height="12px" preserveAspectRatio="xMinYMin meet" x="243.5" y="-1762"/>
<text text-anchor="start" x="267.5" y="-1752.1" font-family="Helvetica,sans-Serif" font-size="11.00" fill="#000000">id</text>
<polygon fill="none" stroke="#000000" points="238.5,-1723 238.5,-1745 435.5,-1745 435.5,-1723 238.5,-1723"/>
<image xlink:href="../../images/primaryKeys.png" width="11px" height="12px" preserveAspectRatio="xMinYMin meet" x="243.5" y="-1740"/>
<text text-anchor="start" x="267.5" y="-1730.1" font-family="Helvetica,sans-Serif" font-size="11.00" fill="#000000">REV</text>
<polygon fill="none" stroke="#000000" points="238.5,-1701 238.5,-1723 435.5,-1723 435.5,-1701 238.5,-1701"/>
<text text-anchor="start" x="267.5" y="-1708.1" font-family="Helvetica,sans-Serif" font-size="11.00" fill="#000000">REVTYPE</text>
<polygon fill="none" stroke="#000000" points="238.5,-1679 238.5,-1701 435.5,-1701 435.5,-1679 238.5,-1679"/>
<text text-anchor="start" x="267.5" y="-1686.1" font-family="Helvetica,sans-Serif" font-size="11.00" fill="#000000">CREATED_TIME</text>
<polygon fill="none" stroke="#000000" points="238.5,-1657 238.5,-1679 435.5,-1679 435.5,-1657 238.5,-1657"/>
<text text-anchor="start" x="267.5" y="-1664.1" font-family="Helvetica,sans-Serif" font-size="11.00" fill="#000000">MODIFIED_TIME</text>
<polygon fill="none" stroke="#000000" points="238.5,-1635 238.5,-1657 435.5,-1657 435.5,-1635 238.5,-1635"/>
<text text-anchor="start" x="267.5" y="-1642.1" font-family="Helvetica,sans-Serif" font-size="11.00" fill="#000000">CUSTOMER_ID</text>
<polygon fill="none" stroke="#000000" points="238.5,-1613 238.5,-1635 435.5,-1635 435.5,-1613 238.5,-1613"/>
<text text-anchor="start" x="267.5" y="-1620.1" font-family="Helvetica,sans-Serif" font-size="11.00" fill="#000000">deleted</text>
<polygon fill="none" stroke="#000000" points="238.5,-1591 238.5,-1613 435.5,-1613 435.5,-1591 238.5,-1591"/>
<text text-anchor="start" x="267.5" y="-1598.1" font-family="Helvetica,sans-Serif" font-size="11.00" fill="#000000">domain</text>
<polygon fill="none" stroke="#000000" points="238.5,-1569 238.5,-1591 435.5,-1591 435.5,-1569 238.5,-1569"/>
<text text-anchor="start" x="267.5" y="-1576.1" font-family="Helvetica,sans-Serif" font-size="11.00" fill="#000000">environment</text>
<polygon fill="none" stroke="#000000" points="238.5,-1547 238.5,-1569 435.5,-1569 435.5,-1547 238.5,-1547"/>
<text text-anchor="start" x="267.5" y="-1554.1" font-family="Helvetica,sans-Serif" font-size="11.00" fill="#000000">SSL_CERTIFICATE</text>
<polygon fill="none" stroke="#000000" points="238.5,-1525 238.5,-1547 435.5,-1547 435.5,-1525 238.5,-1525"/>
<text text-anchor="start" x="267.5" y="-1532.1" font-family="Helvetica,sans-Serif" font-size="11.00" fill="#000000">CREATOR</text>
<polygon fill="none" stroke="#000000" points="238.5,-1503 238.5,-1525 435.5,-1525 435.5,-1503 238.5,-1503"/>
<text text-anchor="start" x="267.5" y="-1510.1" font-family="Helvetica,sans-Serif" font-size="11.00" fill="#000000">LAST_MODIFIER</text>
<polygon fill="none" stroke="#000000" points="238.5,-1481 238.5,-1503 435.5,-1503 435.5,-1481 238.5,-1481"/>
<text text-anchor="start" x="267.5" y="-1488.1" font-family="Helvetica,sans-Serif" font-size="11.00" fill="#000000">APP_ID</text>
<polygon fill="#ffffff" stroke="transparent" points="238.5,-1462 238.5,-1481 322.5,-1481 322.5,-1462 238.5,-1462"/>
<polygon fill="none" stroke="#000000" points="238.5,-1462 238.5,-1481 322.5,-1481 322.5,-1462 238.5,-1462"/>
<text text-anchor="start" x="241.5" y="-1468.1" font-family="Helvetica,sans-Serif" font-size="11.00" fill="#000000">&lt; 1</text>
<polygon fill="#ffffff" stroke="transparent" points="322.5,-1462 322.5,-1481 391.5,-1481 391.5,-1462 322.5,-1462"/>
<polygon fill="none" stroke="#000000" points="322.5,-1462 322.5,-1481 391.5,-1481 391.5,-1462 322.5,-1462"/>
<text text-anchor="start" x="356.1105" y="-1468.1" font-family="Helvetica,sans-Serif" font-size="11.00" fill="#000000">0 rows</text>
<polygon fill="#ffffff" stroke="transparent" points="391.5,-1462 391.5,-1481 435.5,-1481 435.5,-1462 391.5,-1462"/>
<polygon fill="none" stroke="#000000" points="391.5,-1462 391.5,-1481 435.5,-1481 435.5,-1462 391.5,-1462"/>
<text text-anchor="start" x="426.3862" y="-1468.1" font-family="Helvetica,sans-Serif" font-size="11.00" fill="#000000"> &#160;</text>
</a>
</g>
</g>
<!-- REVINFO -->
<g id="node5" class="node">
<title>REVINFO</title>
<g id="a_node5"><a xlink:href="../../tables/REVINFO.html" xlink:title="REVINFO" target="_top">
<polygon fill="#ffffff" stroke="transparent" points="38.5,-1136 38.5,-1222 136.5,-1222 136.5,-1136 38.5,-1136"/>
<polygon fill="#f5f5f5" stroke="transparent" points="38.5,-1199 38.5,-1222 136.5,-1222 136.5,-1199 38.5,-1199"/>
<polygon fill="none" stroke="#000000" points="38.5,-1199 38.5,-1222 136.5,-1222 136.5,-1199 38.5,-1199"/>
<text text-anchor="start" x="43.5" y="-1207.6" font-family="Helvetica,sans-Serif" font-weight="bold" font-size="11.00" fill="#000000">REVINFO</text>
<text text-anchor="start" x="102.0219" y="-1207.1" font-family="Helvetica,sans-Serif" font-size="11.00" fill="#000000">[table]</text>
<polygon fill="none" stroke="#000000" points="38.5,-1177 38.5,-1199 136.5,-1199 136.5,-1177 38.5,-1177"/>
<image xlink:href="../../images/primaryKeys.png" width="11px" height="12px" preserveAspectRatio="xMinYMin meet" x="43.5" y="-1194"/>
<text text-anchor="start" x="61.5" y="-1184.1" font-family="Helvetica,sans-Serif" font-size="11.00" fill="#000000">REV</text>
<polygon fill="none" stroke="#000000" points="38.5,-1155 38.5,-1177 136.5,-1177 136.5,-1155 38.5,-1155"/>
<text text-anchor="start" x="61.5" y="-1162.1" font-family="Helvetica,sans-Serif" font-size="11.00" fill="#000000">REVTSTMP</text>
<polygon fill="#ffffff" stroke="transparent" points="38.5,-1136 38.5,-1155 63.5,-1155 63.5,-1136 38.5,-1136"/>
<polygon fill="none" stroke="#000000" points="38.5,-1136 38.5,-1155 63.5,-1155 63.5,-1136 38.5,-1136"/>
<text text-anchor="start" x="41.5" y="-1142.1" font-family="Helvetica,sans-Serif" font-size="11.00" fill="#000000"> &#160;</text>
<polygon fill="#ffffff" stroke="transparent" points="63.5,-1136 63.5,-1155 108.5,-1155 108.5,-1136 63.5,-1136"/>
<polygon fill="none" stroke="#000000" points="63.5,-1136 63.5,-1155 108.5,-1155 108.5,-1136 63.5,-1136"/>
<text text-anchor="start" x="73.1105" y="-1142.1" font-family="Helvetica,sans-Serif" font-size="11.00" fill="#000000">0 rows</text>
<polygon fill="#ffffff" stroke="transparent" points="108.5,-1136 108.5,-1155 136.5,-1155 136.5,-1136 108.5,-1136"/>
<polygon fill="none" stroke="#000000" points="108.5,-1136 108.5,-1155 136.5,-1155 136.5,-1136 108.5,-1136"/>
<text text-anchor="start" x="117.9053" y="-1142.1" font-family="Helvetica,sans-Serif" font-size="11.00" fill="#000000">4 &gt;</text>
</a>
</g>
</g>
<!-- HOSTING_DETAILS_AUD&#45;&gt;REVINFO -->
<g id="edge2" class="edge">
<title>HOSTING_DETAILS_AUD:w&#45;&gt;REVINFO:e</title>
<path fill="none" stroke="#000000" d="M224.33,-1731.1925C126.7609,-1689.1073 254.7492,-1188 136.5,-1188"/>
<polygon fill="#000000" stroke="#000000" points="230.6525,-1732.4451 237.8003,-1737.5314 234.5763,-1733.2226 238.5,-1734 238.5,-1734 238.5,-1734 234.5763,-1733.2226 239.1997,-1730.4686 230.6525,-1732.4451 230.6525,-1732.4451"/>
<ellipse fill="none" stroke="#000000" cx="227.5136" cy="-1731.8232" rx="3.2" ry="3.2"/>
</g>
<!-- MINIAPP_BUILD_DETAILS -->
<g id="node3" class="node">
<title>MINIAPP_BUILD_DETAILS</title>
<g id="a_node3"><a xlink:href="../../tables/MINIAPP_BUILD_DETAILS.html" xlink:title="MINIAPP_BUILD_DETAILS" target="_top">
<polygon fill="#ffffff" stroke="transparent" points="233.5,-242 233.5,-460 439.5,-460 439.5,-242 233.5,-242"/>
<polygon fill="#f5f5f5" stroke="transparent" points="233.5,-437 233.5,-460 439.5,-460 439.5,-437 233.5,-437"/>
<polygon fill="none" stroke="#000000" points="233.5,-437 233.5,-460 439.5,-460 439.5,-437 233.5,-437"/>
<text text-anchor="start" x="238.5" y="-445.6" font-family="Helvetica,sans-Serif" font-weight="bold" font-size="11.00" fill="#000000">MINIAPP_BUILD_DETAILS</text>
<text text-anchor="start" x="405.0219" y="-445.1" font-family="Helvetica,sans-Serif" font-size="11.00" fill="#000000">[table]</text>
<polygon fill="none" stroke="#000000" points="233.5,-415 233.5,-437 439.5,-437 439.5,-415 233.5,-415"/>
<image xlink:href="../../images/primaryKeys.png" width="11px" height="12px" preserveAspectRatio="xMinYMin meet" x="238.5" y="-432"/>
<text text-anchor="start" x="262.5" y="-422.1" font-family="Helvetica,sans-Serif" font-size="11.00" fill="#000000">ID</text>
<polygon fill="none" stroke="#000000" points="233.5,-393 233.5,-415 439.5,-415 439.5,-393 233.5,-393"/>
<text text-anchor="start" x="262.5" y="-400.1" font-family="Helvetica,sans-Serif" font-size="11.00" fill="#000000">DELETED</text>
<polygon fill="none" stroke="#000000" points="233.5,-371 233.5,-393 439.5,-393 439.5,-371 233.5,-371"/>
<text text-anchor="start" x="262.5" y="-378.1" font-family="Helvetica,sans-Serif" font-size="11.00" fill="#000000">CUSTOMER_ID</text>
<polygon fill="#ffffff" stroke="transparent" points="233.5,-349 233.5,-371 439.5,-371 439.5,-349 233.5,-349"/>
<polygon fill="none" stroke="#000000" points="233.5,-349 233.5,-371 439.5,-371 439.5,-349 233.5,-349"/>
<image xlink:href="../../images/foreignKeys.png" width="11px" height="12px" preserveAspectRatio="xMinYMin meet" x="238.5" y="-366"/>
<text text-anchor="start" x="262.5" y="-356.1" font-family="Helvetica,sans-Serif" font-size="11.00" fill="#000000">APP_ID</text>
<polygon fill="none" stroke="#000000" points="233.5,-327 233.5,-349 439.5,-349 439.5,-327 233.5,-327"/>
<text text-anchor="start" x="262.5" y="-334.1" font-family="Helvetica,sans-Serif" font-size="11.00" fill="#000000">SOURCE_CODE_URL</text>
<polygon fill="none" stroke="#000000" points="233.5,-305 233.5,-327 439.5,-327 439.5,-305 233.5,-305"/>
<text text-anchor="start" x="262.5" y="-312.1" font-family="Helvetica,sans-Serif" font-size="11.00" fill="#000000">COMPILED_FILE_URL</text>
<polygon fill="none" stroke="#000000" points="233.5,-283 233.5,-305 439.5,-305 439.5,-283 233.5,-283"/>
<text text-anchor="start" x="262.5" y="-290.1" font-family="Helvetica,sans-Serif" font-size="11.00" fill="#000000">SOURCE_CODE_PATH</text>
<polygon fill="none" stroke="#000000" points="233.5,-261 233.5,-283 439.5,-283 439.5,-261 233.5,-261"/>
<text text-anchor="start" x="262.5" y="-268.1" font-family="Helvetica,sans-Serif" font-size="11.00" fill="#000000">STATUS</text>
<polygon fill="#ffffff" stroke="transparent" points="233.5,-242 233.5,-261 321.5,-261 321.5,-242 233.5,-242"/>
<polygon fill="none" stroke="#000000" points="233.5,-242 233.5,-261 321.5,-261 321.5,-242 233.5,-242"/>
<text text-anchor="start" x="236.5" y="-248.1" font-family="Helvetica,sans-Serif" font-size="11.00" fill="#000000">&lt; 1</text>
<polygon fill="#ffffff" stroke="transparent" points="321.5,-242 321.5,-261 393.5,-261 393.5,-242 321.5,-242"/>
<polygon fill="none" stroke="#000000" points="321.5,-242 321.5,-261 393.5,-261 393.5,-242 321.5,-242"/>
<text text-anchor="start" x="358.1105" y="-248.1" font-family="Helvetica,sans-Serif" font-size="11.00" fill="#000000">0 rows</text>
<polygon fill="#ffffff" stroke="transparent" points="393.5,-242 393.5,-261 439.5,-261 439.5,-242 393.5,-242"/>
<polygon fill="none" stroke="#000000" points="393.5,-242 393.5,-261 439.5,-261 439.5,-242 393.5,-242"/>
<text text-anchor="start" x="430.3862" y="-248.1" font-family="Helvetica,sans-Serif" font-size="11.00" fill="#000000"> &#160;</text>
</a>
</g>
</g>
<!-- MINIAPP_BUILD_DETAILS&#45;&gt;MINIAPP_DETAILS -->
<g id="edge3" class="edge">
<title>MINIAPP_BUILD_DETAILS:w&#45;&gt;MINIAPP_DETAILS:e</title>
<path fill="none" stroke="#000000" d="M219.2633,-357.0337C182.0578,-338.5547 222.6614,-240 167.5,-240"/>
<polygon fill="#000000" stroke="#000000" points="225.6682,-358.3682 232.7657,-363.5243 229.5841,-359.1841 233.5,-360 233.5,-360 233.5,-360 229.5841,-359.1841 234.2343,-356.4757 225.6682,-358.3682 225.6682,-358.3682"/>
<ellipse fill="none" stroke="#000000" cx="222.5355" cy="-357.7154" rx="3.2" ry="3.2"/>
</g>
<!-- MINIAPP_DETAILS_AUD -->
<g id="node4" class="node">
<title>MINIAPP_DETAILS_AUD</title>
<g id="a_node4"><a xlink:href="../../tables/MINIAPP_DETAILS_AUD.html" xlink:title="MINIAPP_DETAILS_AUD" target="_top">
<polygon fill="#ffffff" stroke="transparent" points="239.5,-1069 239.5,-1441 433.5,-1441 433.5,-1069 239.5,-1069"/>
<polygon fill="#f5f5f5" stroke="transparent" points="239.5,-1418 239.5,-1441 433.5,-1441 433.5,-1418 239.5,-1418"/>
<polygon fill="none" stroke="#000000" points="239.5,-1418 239.5,-1441 433.5,-1441 433.5,-1418 239.5,-1418"/>
<text text-anchor="start" x="244.5" y="-1426.6" font-family="Helvetica,sans-Serif" font-weight="bold" font-size="11.00" fill="#000000">MINIAPP_DETAILS_AUD</text>
<text text-anchor="start" x="399.0219" y="-1426.1" font-family="Helvetica,sans-Serif" font-size="11.00" fill="#000000">[table]</text>
<polygon fill="none" stroke="#000000" points="239.5,-1396 239.5,-1418 433.5,-1418 433.5,-1396 239.5,-1396"/>
<image xlink:href="../../images/primaryKeys.png" width="11px" height="12px" preserveAspectRatio="xMinYMin meet" x="244.5" y="-1413"/>
<text text-anchor="start" x="268.5" y="-1403.1" font-family="Helvetica,sans-Serif" font-size="11.00" fill="#000000">id</text>
<polygon fill="none" stroke="#000000" points="239.5,-1374 239.5,-1396 433.5,-1396 433.5,-1374 239.5,-1374"/>
<image xlink:href="../../images/primaryKeys.png" width="11px" height="12px" preserveAspectRatio="xMinYMin meet" x="244.5" y="-1391"/>
<text text-anchor="start" x="268.5" y="-1381.1" font-family="Helvetica,sans-Serif" font-size="11.00" fill="#000000">REV</text>
<polygon fill="none" stroke="#000000" points="239.5,-1352 239.5,-1374 433.5,-1374 433.5,-1352 239.5,-1352"/>
<text text-anchor="start" x="268.5" y="-1359.1" font-family="Helvetica,sans-Serif" font-size="11.00" fill="#000000">REVTYPE</text>
<polygon fill="none" stroke="#000000" points="239.5,-1330 239.5,-1352 433.5,-1352 433.5,-1330 239.5,-1330"/>
<text text-anchor="start" x="268.5" y="-1337.1" font-family="Helvetica,sans-Serif" font-size="11.00" fill="#000000">CREATED_TIME</text>
<polygon fill="none" stroke="#000000" points="239.5,-1308 239.5,-1330 433.5,-1330 433.5,-1308 239.5,-1308"/>
<text text-anchor="start" x="268.5" y="-1315.1" font-family="Helvetica,sans-Serif" font-size="11.00" fill="#000000">MODIFIED_TIME</text>
<polygon fill="none" stroke="#000000" points="239.5,-1286 239.5,-1308 433.5,-1308 433.5,-1286 239.5,-1286"/>
<text text-anchor="start" x="268.5" y="-1293.1" font-family="Helvetica,sans-Serif" font-size="11.00" fill="#000000">APPLICATION_KEY</text>
<polygon fill="none" stroke="#000000" points="239.5,-1264 239.5,-1286 433.5,-1286 433.5,-1264 239.5,-1264"/>
<text text-anchor="start" x="268.5" y="-1271.1" font-family="Helvetica,sans-Serif" font-size="11.00" fill="#000000">CUSTOMER_ID</text>
<polygon fill="none" stroke="#000000" points="239.5,-1242 239.5,-1264 433.5,-1264 433.5,-1242 239.5,-1242"/>
<text text-anchor="start" x="268.5" y="-1249.1" font-family="Helvetica,sans-Serif" font-size="11.00" fill="#000000">deleted</text>
<polygon fill="none" stroke="#000000" points="239.5,-1220 239.5,-1242 433.5,-1242 433.5,-1220 239.5,-1220"/>
<text text-anchor="start" x="268.5" y="-1227.1" font-family="Helvetica,sans-Serif" font-size="11.00" fill="#000000">description</text>
<polygon fill="none" stroke="#000000" points="239.5,-1198 239.5,-1220 433.5,-1220 433.5,-1198 239.5,-1198"/>
<text text-anchor="start" x="268.5" y="-1205.1" font-family="Helvetica,sans-Serif" font-size="11.00" fill="#000000">ICON_URL</text>
<polygon fill="none" stroke="#000000" points="239.5,-1176 239.5,-1198 433.5,-1198 433.5,-1176 239.5,-1176"/>
<text text-anchor="start" x="268.5" y="-1183.1" font-family="Helvetica,sans-Serif" font-size="11.00" fill="#000000">name</text>
<polygon fill="none" stroke="#000000" points="239.5,-1154 239.5,-1176 433.5,-1176 433.5,-1154 239.5,-1154"/>
<text text-anchor="start" x="268.5" y="-1161.1" font-family="Helvetica,sans-Serif" font-size="11.00" fill="#000000">tagging</text>
<polygon fill="none" stroke="#000000" points="239.5,-1132 239.5,-1154 433.5,-1154 433.5,-1132 239.5,-1132"/>
<text text-anchor="start" x="268.5" y="-1139.1" font-family="Helvetica,sans-Serif" font-size="11.00" fill="#000000">version</text>
<polygon fill="none" stroke="#000000" points="239.5,-1110 239.5,-1132 433.5,-1132 433.5,-1110 239.5,-1110"/>
<text text-anchor="start" x="268.5" y="-1117.1" font-family="Helvetica,sans-Serif" font-size="11.00" fill="#000000">CREATOR</text>
<polygon fill="none" stroke="#000000" points="239.5,-1088 239.5,-1110 433.5,-1110 433.5,-1088 239.5,-1088"/>
<text text-anchor="start" x="268.5" y="-1095.1" font-family="Helvetica,sans-Serif" font-size="11.00" fill="#000000">LAST_MODIFIER</text>
<polygon fill="#ffffff" stroke="transparent" points="239.5,-1069 239.5,-1088 321.5,-1088 321.5,-1069 239.5,-1069"/>
<polygon fill="none" stroke="#000000" points="239.5,-1069 239.5,-1088 321.5,-1088 321.5,-1069 239.5,-1069"/>
<text text-anchor="start" x="242.5" y="-1075.1" font-family="Helvetica,sans-Serif" font-size="11.00" fill="#000000">&lt; 1</text>
<polygon fill="#ffffff" stroke="transparent" points="321.5,-1069 321.5,-1088 390.5,-1088 390.5,-1069 321.5,-1069"/>
<polygon fill="none" stroke="#000000" points="321.5,-1069 321.5,-1088 390.5,-1088 390.5,-1069 321.5,-1069"/>
<text text-anchor="start" x="355.1105" y="-1075.1" font-family="Helvetica,sans-Serif" font-size="11.00" fill="#000000">0 rows</text>
<polygon fill="#ffffff" stroke="transparent" points="390.5,-1069 390.5,-1088 433.5,-1088 433.5,-1069 390.5,-1069"/>
<polygon fill="none" stroke="#000000" points="390.5,-1069 390.5,-1088 433.5,-1088 433.5,-1069 390.5,-1069"/>
<text text-anchor="start" x="424.3862" y="-1075.1" font-family="Helvetica,sans-Serif" font-size="11.00" fill="#000000"> &#160;</text>
</a>
</g>
</g>
<!-- MINIAPP_DETAILS_AUD&#45;&gt;REVINFO -->
<g id="edge5" class="edge">
<title>MINIAPP_DETAILS_AUD:w&#45;&gt;REVINFO:e</title>
<path fill="none" stroke="#000000" d="M224.9625,-1383.2969C150.4679,-1364.0423 229.8975,-1188 136.5,-1188"/>
<polygon fill="#000000" stroke="#000000" points="231.5543,-1384.0691 239.0811,-1388.5755 235.5272,-1384.5346 239.5,-1385 239.5,-1385 239.5,-1385 235.5272,-1384.5346 239.9189,-1381.4245 231.5543,-1384.0691 231.5543,-1384.0691"/>
<ellipse fill="none" stroke="#000000" cx="228.3761" cy="-1383.6968" rx="3.2" ry="3.2"/>
</g>
<!-- User_AUD -->
<g id="node6" class="node">
<title>User_AUD</title>
<g id="a_node6"><a xlink:href="../../tables/User_AUD.html" xlink:title="User_AUD" target="_top">
<polygon fill="#ffffff" stroke="transparent" points="284.5,-852 284.5,-1048 388.5,-1048 388.5,-852 284.5,-852"/>
<polygon fill="#f5f5f5" stroke="transparent" points="284.5,-1025 284.5,-1048 388.5,-1048 388.5,-1025 284.5,-1025"/>
<polygon fill="none" stroke="#000000" points="284.5,-1025 284.5,-1048 388.5,-1048 388.5,-1025 284.5,-1025"/>
<text text-anchor="start" x="289.5" y="-1033.6" font-family="Helvetica,sans-Serif" font-weight="bold" font-size="11.00" fill="#000000">User_AUD</text>
<text text-anchor="start" x="354.0219" y="-1033.1" font-family="Helvetica,sans-Serif" font-size="11.00" fill="#000000">[table]</text>
<polygon fill="none" stroke="#000000" points="284.5,-1003 284.5,-1025 388.5,-1025 388.5,-1003 284.5,-1003"/>
<image xlink:href="../../images/primaryKeys.png" width="11px" height="12px" preserveAspectRatio="xMinYMin meet" x="289.5" y="-1020"/>
<text text-anchor="start" x="304.5" y="-1010.1" font-family="Helvetica,sans-Serif" font-size="11.00" fill="#000000">userid_pk</text>
<polygon fill="none" stroke="#000000" points="284.5,-981 284.5,-1003 388.5,-1003 388.5,-981 284.5,-981"/>
<image xlink:href="../../images/primaryKeys.png" width="11px" height="12px" preserveAspectRatio="xMinYMin meet" x="289.5" y="-998"/>
<text text-anchor="start" x="304.5" y="-988.1" font-family="Helvetica,sans-Serif" font-size="11.00" fill="#000000">REV</text>
<polygon fill="none" stroke="#000000" points="284.5,-959 284.5,-981 388.5,-981 388.5,-959 284.5,-959"/>
<text text-anchor="start" x="304.5" y="-966.1" font-family="Helvetica,sans-Serif" font-size="11.00" fill="#000000">REVTYPE</text>
<polygon fill="none" stroke="#000000" points="284.5,-937 284.5,-959 388.5,-959 388.5,-937 284.5,-937"/>
<text text-anchor="start" x="304.5" y="-944.1" font-family="Helvetica,sans-Serif" font-size="11.00" fill="#000000">firstname</text>
<polygon fill="none" stroke="#000000" points="284.5,-915 284.5,-937 388.5,-937 388.5,-915 284.5,-915"/>
<text text-anchor="start" x="304.5" y="-922.1" font-family="Helvetica,sans-Serif" font-size="11.00" fill="#000000">lastname</text>
<polygon fill="none" stroke="#000000" points="284.5,-893 284.5,-915 388.5,-915 388.5,-893 284.5,-893"/>
<text text-anchor="start" x="304.5" y="-900.1" font-family="Helvetica,sans-Serif" font-size="11.00" fill="#000000">middlename</text>
<polygon fill="none" stroke="#000000" points="284.5,-871 284.5,-893 388.5,-893 388.5,-871 284.5,-871"/>
<text text-anchor="start" x="304.5" y="-878.1" font-family="Helvetica,sans-Serif" font-size="11.00" fill="#000000">username</text>
<polygon fill="#ffffff" stroke="transparent" points="284.5,-852 284.5,-871 321.5,-871 321.5,-852 284.5,-852"/>
<polygon fill="none" stroke="#000000" points="284.5,-852 284.5,-871 321.5,-871 321.5,-852 284.5,-852"/>
<text text-anchor="start" x="287.5" y="-858.1" font-family="Helvetica,sans-Serif" font-size="11.00" fill="#000000">&lt; 1</text>
<polygon fill="#ffffff" stroke="transparent" points="321.5,-852 321.5,-871 367.5,-871 367.5,-852 321.5,-852"/>
<polygon fill="none" stroke="#000000" points="321.5,-852 321.5,-871 367.5,-871 367.5,-852 321.5,-852"/>
<text text-anchor="start" x="332.1105" y="-858.1" font-family="Helvetica,sans-Serif" font-size="11.00" fill="#000000">0 rows</text>
<polygon fill="#ffffff" stroke="transparent" points="367.5,-852 367.5,-871 388.5,-871 388.5,-852 367.5,-852"/>
<polygon fill="none" stroke="#000000" points="367.5,-852 367.5,-871 388.5,-871 388.5,-852 367.5,-852"/>
<text text-anchor="start" x="379.3862" y="-858.1" font-family="Helvetica,sans-Serif" font-size="11.00" fill="#000000"> &#160;</text>
</a>
</g>
</g>
<!-- User_AUD&#45;&gt;REVINFO -->
<g id="edge6" class="edge">
<title>User_AUD:w&#45;&gt;REVINFO:e</title>
<path fill="none" stroke="#000000" d="M269.8202,-993.3494C238.2217,-999.7562 232.9409,-1028.0824 208,-1059 166.8428,-1110.0198 202.051,-1188 136.5,-1188"/>
<polygon fill="#000000" stroke="#000000" points="276.5336,-992.7323 284.8295,-995.5849 280.5168,-992.3662 284.5,-992 284.5,-992 284.5,-992 280.5168,-992.3662 284.1705,-988.4151 276.5336,-992.7323 276.5336,-992.7323"/>
<ellipse fill="none" stroke="#000000" cx="273.347" cy="-993.0253" rx="3.2" ry="3.2"/>
</g>
<!-- MINIAPP_BUILD_DETAILS_AUD -->
<g id="node7" class="node">
<title>MINIAPP_BUILD_DETAILS_AUD</title>
<g id="a_node7"><a xlink:href="../../tables/MINIAPP_BUILD_DETAILS_AUD.html" xlink:title="MINIAPP_BUILD_DETAILS_AUD" target="_top">
<polygon fill="#ffffff" stroke="transparent" points="216,-481 216,-831 457,-831 457,-481 216,-481"/>
<polygon fill="#f5f5f5" stroke="transparent" points="216.5,-808 216.5,-831 457.5,-831 457.5,-808 216.5,-808"/>
<polygon fill="none" stroke="#000000" points="216.5,-808 216.5,-831 457.5,-831 457.5,-808 216.5,-808"/>
<text text-anchor="start" x="221.5" y="-816.6" font-family="Helvetica,sans-Serif" font-weight="bold" font-size="11.00" fill="#000000">MINIAPP_BUILD_DETAILS_AUD</text>
<text text-anchor="start" x="423.0219" y="-816.1" font-family="Helvetica,sans-Serif" font-size="11.00" fill="#000000">[table]</text>
<polygon fill="none" stroke="#000000" points="216.5,-786 216.5,-808 457.5,-808 457.5,-786 216.5,-786"/>
<image xlink:href="../../images/primaryKeys.png" width="11px" height="12px" preserveAspectRatio="xMinYMin meet" x="221.5" y="-803"/>
<text text-anchor="start" x="245.5" y="-793.1" font-family="Helvetica,sans-Serif" font-size="11.00" fill="#000000">id</text>
<polygon fill="none" stroke="#000000" points="216.5,-764 216.5,-786 457.5,-786 457.5,-764 216.5,-764"/>
<image xlink:href="../../images/primaryKeys.png" width="11px" height="12px" preserveAspectRatio="xMinYMin meet" x="221.5" y="-781"/>
<text text-anchor="start" x="245.5" y="-771.1" font-family="Helvetica,sans-Serif" font-size="11.00" fill="#000000">REV</text>
<polygon fill="none" stroke="#000000" points="216.5,-742 216.5,-764 457.5,-764 457.5,-742 216.5,-742"/>
<text text-anchor="start" x="245.5" y="-749.1" font-family="Helvetica,sans-Serif" font-size="11.00" fill="#000000">REVTYPE</text>
<polygon fill="none" stroke="#000000" points="216.5,-720 216.5,-742 457.5,-742 457.5,-720 216.5,-720"/>
<text text-anchor="start" x="245.5" y="-727.1" font-family="Helvetica,sans-Serif" font-size="11.00" fill="#000000">CREATED_TIME</text>
<polygon fill="none" stroke="#000000" points="216.5,-698 216.5,-720 457.5,-720 457.5,-698 216.5,-698"/>
<text text-anchor="start" x="245.5" y="-705.1" font-family="Helvetica,sans-Serif" font-size="11.00" fill="#000000">MODIFIED_TIME</text>
<polygon fill="none" stroke="#000000" points="216.5,-676 216.5,-698 457.5,-698 457.5,-676 216.5,-676"/>
<text text-anchor="start" x="245.5" y="-683.1" font-family="Helvetica,sans-Serif" font-size="11.00" fill="#000000">COMPILED_FILE_URL</text>
<polygon fill="none" stroke="#000000" points="216.5,-654 216.5,-676 457.5,-676 457.5,-654 216.5,-654"/>
<text text-anchor="start" x="245.5" y="-661.1" font-family="Helvetica,sans-Serif" font-size="11.00" fill="#000000">CUSTOMER_ID</text>
<polygon fill="none" stroke="#000000" points="216.5,-632 216.5,-654 457.5,-654 457.5,-632 216.5,-632"/>
<text text-anchor="start" x="245.5" y="-639.1" font-family="Helvetica,sans-Serif" font-size="11.00" fill="#000000">deleted</text>
<polygon fill="none" stroke="#000000" points="216.5,-610 216.5,-632 457.5,-632 457.5,-610 216.5,-610"/>
<text text-anchor="start" x="245.5" y="-617.1" font-family="Helvetica,sans-Serif" font-size="11.00" fill="#000000">SOURCE_CODE_PATH</text>
<polygon fill="none" stroke="#000000" points="216.5,-588 216.5,-610 457.5,-610 457.5,-588 216.5,-588"/>
<text text-anchor="start" x="245.5" y="-595.1" font-family="Helvetica,sans-Serif" font-size="11.00" fill="#000000">SOURCE_CODE_URL</text>
<polygon fill="none" stroke="#000000" points="216.5,-566 216.5,-588 457.5,-588 457.5,-566 216.5,-566"/>
<text text-anchor="start" x="245.5" y="-573.1" font-family="Helvetica,sans-Serif" font-size="11.00" fill="#000000">STATUS</text>
<polygon fill="none" stroke="#000000" points="216.5,-544 216.5,-566 457.5,-566 457.5,-544 216.5,-544"/>
<text text-anchor="start" x="245.5" y="-551.1" font-family="Helvetica,sans-Serif" font-size="11.00" fill="#000000">CREATOR</text>
<polygon fill="none" stroke="#000000" points="216.5,-522 216.5,-544 457.5,-544 457.5,-522 216.5,-522"/>
<text text-anchor="start" x="245.5" y="-529.1" font-family="Helvetica,sans-Serif" font-size="11.00" fill="#000000">LAST_MODIFIER</text>
<polygon fill="none" stroke="#000000" points="216.5,-500 216.5,-522 457.5,-522 457.5,-500 216.5,-500"/>
<text text-anchor="start" x="245.5" y="-507.1" font-family="Helvetica,sans-Serif" font-size="11.00" fill="#000000">APP_ID</text>
<polygon fill="#ffffff" stroke="transparent" points="216.5,-481 216.5,-500 322.5,-500 322.5,-481 216.5,-481"/>
<polygon fill="none" stroke="#000000" points="216.5,-481 216.5,-500 322.5,-500 322.5,-481 216.5,-481"/>
<text text-anchor="start" x="219.5" y="-487.1" font-family="Helvetica,sans-Serif" font-size="11.00" fill="#000000">&lt; 1</text>
<polygon fill="#ffffff" stroke="transparent" points="322.5,-481 322.5,-500 402.5,-500 402.5,-481 322.5,-481"/>
<polygon fill="none" stroke="#000000" points="322.5,-481 322.5,-500 402.5,-500 402.5,-481 322.5,-481"/>
<text text-anchor="start" x="367.1105" y="-487.1" font-family="Helvetica,sans-Serif" font-size="11.00" fill="#000000">0 rows</text>
<polygon fill="#ffffff" stroke="transparent" points="402.5,-481 402.5,-500 457.5,-500 457.5,-481 402.5,-481"/>
<polygon fill="none" stroke="#000000" points="402.5,-481 402.5,-500 457.5,-500 457.5,-481 402.5,-481"/>
<text text-anchor="start" x="448.3862" y="-487.1" font-family="Helvetica,sans-Serif" font-size="11.00" fill="#000000"> &#160;</text>
</a>
</g>
</g>
<!-- MINIAPP_BUILD_DETAILS_AUD&#45;&gt;REVINFO -->
<g id="edge4" class="edge">
<title>MINIAPP_BUILD_DETAILS_AUD:w&#45;&gt;REVINFO:e</title>
<path fill="none" stroke="#000000" d="M201.7503,-775.975C45.7955,-798.0613 318.1725,-1188 136.5,-1188"/>
<polygon fill="#000000" stroke="#000000" points="208.5174,-775.5277 216.7375,-778.5922 212.5087,-775.2639 216.5,-775 216.5,-775 216.5,-775 212.5087,-775.2639 216.2625,-771.4078 208.5174,-775.5277 208.5174,-775.5277"/>
<ellipse fill="none" stroke="#000000" cx="205.3244" cy="-775.7388" rx="3.2" ry="3.2"/>
</g>
<!-- HOSTING_DETAILS -->
<g id="node8" class="node">
<title>HOSTING_DETAILS</title>
<g id="a_node8"><a xlink:href="../../tables/HOSTING_DETAILS.html" xlink:title="HOSTING_DETAILS" target="_top">
<polygon fill="#ffffff" stroke="transparent" points="255.5,-25 255.5,-221 417.5,-221 417.5,-25 255.5,-25"/>
<polygon fill="#f5f5f5" stroke="transparent" points="255.5,-198 255.5,-221 417.5,-221 417.5,-198 255.5,-198"/>
<polygon fill="none" stroke="#000000" points="255.5,-198 255.5,-221 417.5,-221 417.5,-198 255.5,-198"/>
<text text-anchor="start" x="260.5" y="-206.6" font-family="Helvetica,sans-Serif" font-weight="bold" font-size="11.00" fill="#000000">HOSTING_DETAILS</text>
<text text-anchor="start" x="383.0219" y="-206.1" font-family="Helvetica,sans-Serif" font-size="11.00" fill="#000000">[table]</text>
<polygon fill="none" stroke="#000000" points="255.5,-176 255.5,-198 417.5,-198 417.5,-176 255.5,-176"/>
<image xlink:href="../../images/primaryKeys.png" width="11px" height="12px" preserveAspectRatio="xMinYMin meet" x="260.5" y="-193"/>
<text text-anchor="start" x="284.5" y="-183.1" font-family="Helvetica,sans-Serif" font-size="11.00" fill="#000000">ID</text>
<polygon fill="none" stroke="#000000" points="255.5,-154 255.5,-176 417.5,-176 417.5,-154 255.5,-154"/>
<text text-anchor="start" x="284.5" y="-161.1" font-family="Helvetica,sans-Serif" font-size="11.00" fill="#000000">DELETED</text>
<polygon fill="none" stroke="#000000" points="255.5,-132 255.5,-154 417.5,-154 417.5,-132 255.5,-132"/>
<text text-anchor="start" x="284.5" y="-139.1" font-family="Helvetica,sans-Serif" font-size="11.00" fill="#000000">CUSTOMER_ID</text>
<polygon fill="#ffffff" stroke="transparent" points="255.5,-110 255.5,-132 417.5,-132 417.5,-110 255.5,-110"/>
<polygon fill="none" stroke="#000000" points="255.5,-110 255.5,-132 417.5,-132 417.5,-110 255.5,-110"/>
<image xlink:href="../../images/foreignKeys.png" width="11px" height="12px" preserveAspectRatio="xMinYMin meet" x="260.5" y="-127"/>
<text text-anchor="start" x="284.5" y="-117.1" font-family="Helvetica,sans-Serif" font-size="11.00" fill="#000000">APP_ID</text>
<polygon fill="none" stroke="#000000" points="255.5,-88 255.5,-110 417.5,-110 417.5,-88 255.5,-88"/>
<text text-anchor="start" x="284.5" y="-95.1" font-family="Helvetica,sans-Serif" font-size="11.00" fill="#000000">ENVIRONMENT</text>
<polygon fill="none" stroke="#000000" points="255.5,-66 255.5,-88 417.5,-88 417.5,-66 255.5,-66"/>
<text text-anchor="start" x="284.5" y="-73.1" font-family="Helvetica,sans-Serif" font-size="11.00" fill="#000000">DOMAIN</text>
<polygon fill="none" stroke="#000000" points="255.5,-44 255.5,-66 417.5,-66 417.5,-44 255.5,-44"/>
<text text-anchor="start" x="284.5" y="-51.1" font-family="Helvetica,sans-Serif" font-size="11.00" fill="#000000">SSL_CERTIFICATE</text>
<polygon fill="#ffffff" stroke="transparent" points="255.5,-25 255.5,-44 321.5,-44 321.5,-25 255.5,-25"/>
<polygon fill="none" stroke="#000000" points="255.5,-25 255.5,-44 321.5,-44 321.5,-25 255.5,-25"/>
<text text-anchor="start" x="258.5" y="-31.1" font-family="Helvetica,sans-Serif" font-size="11.00" fill="#000000">&lt; 1</text>
<polygon fill="#ffffff" stroke="transparent" points="321.5,-25 321.5,-44 382.5,-44 382.5,-25 321.5,-25"/>
<polygon fill="none" stroke="#000000" points="321.5,-25 321.5,-44 382.5,-44 382.5,-25 321.5,-25"/>
<text text-anchor="start" x="347.1105" y="-31.1" font-family="Helvetica,sans-Serif" font-size="11.00" fill="#000000">0 rows</text>
<polygon fill="#ffffff" stroke="transparent" points="382.5,-25 382.5,-44 417.5,-44 417.5,-25 382.5,-25"/>
<polygon fill="none" stroke="#000000" points="382.5,-25 382.5,-44 417.5,-44 417.5,-25 382.5,-25"/>
<text text-anchor="start" x="408.3862" y="-31.1" font-family="Helvetica,sans-Serif" font-size="11.00" fill="#000000"> &#160;</text>
</a>
</g>
</g>
<!-- HOSTING_DETAILS&#45;&gt;MINIAPP_DETAILS -->
<g id="edge1" class="edge">
<title>HOSTING_DETAILS:w&#45;&gt;MINIAPP_DETAILS:e</title>
<path fill="none" stroke="#000000" d="M241.1108,-123.3771C196.266,-140.1489 227.7548,-240 167.5,-240"/>
<polygon fill="#000000" stroke="#000000" points="247.607,-122.304 256.0868,-124.5519 251.5535,-121.652 255.5,-121 255.5,-121 255.5,-121 251.5535,-121.652 254.9132,-117.4481 247.607,-122.304 247.607,-122.304"/>
<ellipse fill="none" stroke="#000000" cx="244.4498" cy="-122.8255" rx="3.2" ry="3.2"/>
</g>
</g>
</svg>
