<?xml version="1.0" encoding="UTF-8" standalone="no"?>
<!DOCTYPE svg PUBLIC "-//W3C//DTD SVG 1.1//EN"
 "http://www.w3.org/Graphics/SVG/1.1/DTD/svg11.dtd">
<!-- Generated by graphviz version 2.40.1 (20161225.0304)
 -->
<!-- Title: compactRelationshipsDiagram Pages: 1 -->
<svg width="473pt" height="772pt"
 viewBox="0.00 0.00 473.00 772.00" xmlns="http://www.w3.org/2000/svg" xmlns:xlink="http://www.w3.org/1999/xlink">
<g id="graph0" class="graph" transform="scale(1 1) rotate(0) translate(4 768)">
<title>compactRelationshipsDiagram</title>
<polygon fill="#ffffff" stroke="transparent" points="-4,4 -4,-768 469,-768 469,4 -4,4"/>
<!-- MINIAPP_DETAILS -->
<g id="node1" class="node">
<title>MINIAPP_DETAILS</title>
<g id="a_node1"><a xlink:href="../../tables/MINIAPP_DETAILS.html" xlink:title="MINIAPP_DETAILS" target="_top">
<polygon fill="#ffffff" stroke="transparent" points="8,-88 8,-171 167,-171 167,-88 8,-88"/>
<polygon fill="#f5f5f5" stroke="transparent" points="8.5,-147.5 8.5,-170.5 167.5,-170.5 167.5,-147.5 8.5,-147.5"/>
<polygon fill="none" stroke="#000000" points="8.5,-147.5 8.5,-170.5 167.5,-170.5 167.5,-147.5 8.5,-147.5"/>
<text text-anchor="start" x="13.5" y="-156.1" font-family="Helvetica,sans-Serif" font-weight="bold" font-size="11.00" fill="#000000">MINIAPP_DETAILS</text>
<text text-anchor="start" x="133.0219" y="-155.6" font-family="Helvetica,sans-Serif" font-size="11.00" fill="#000000">[table]</text>
<polygon fill="none" stroke="#000000" points="8.5,-125.5 8.5,-147.5 167.5,-147.5 167.5,-125.5 8.5,-125.5"/>
<image xlink:href="../../images/primaryKeys.png" width="11px" height="12px" preserveAspectRatio="xMinYMin meet" x="13.5" y="-142.5"/>
<text text-anchor="start" x="36.5" y="-132.6" font-family="Helvetica,sans-Serif" font-size="11.00" fill="#000000">ID</text>
<polygon fill="none" stroke="#000000" points="8.5,-106.5 8.5,-125.5 167.5,-125.5 167.5,-106.5 8.5,-106.5"/>
<text text-anchor="start" x="11.5" y="-112.6" font-family="Helvetica,sans-Serif" font-size="11.00" fill="#000000">...</text>
<polygon fill="#ffffff" stroke="transparent" points="8.5,-87.5 8.5,-106.5 64.5,-106.5 64.5,-87.5 8.5,-87.5"/>
<polygon fill="none" stroke="#000000" points="8.5,-87.5 8.5,-106.5 64.5,-106.5 64.5,-87.5 8.5,-87.5"/>
<text text-anchor="start" x="11.5" y="-93.6" font-family="Helvetica,sans-Serif" font-size="11.00" fill="#000000"> &#160;</text>
<polygon fill="#ffffff" stroke="transparent" points="64.5,-87.5 64.5,-106.5 124.5,-106.5 124.5,-87.5 64.5,-87.5"/>
<polygon fill="none" stroke="#000000" points="64.5,-87.5 64.5,-106.5 124.5,-106.5 124.5,-87.5 64.5,-87.5"/>
<text text-anchor="start" x="89.1105" y="-93.6" font-family="Helvetica,sans-Serif" font-size="11.00" fill="#000000">0 rows</text>
<polygon fill="#ffffff" stroke="transparent" points="124.5,-87.5 124.5,-106.5 167.5,-106.5 167.5,-87.5 124.5,-87.5"/>
<polygon fill="none" stroke="#000000" points="124.5,-87.5 124.5,-106.5 167.5,-106.5 167.5,-87.5 124.5,-87.5"/>
<text text-anchor="start" x="148.9053" y="-93.6" font-family="Helvetica,sans-Serif" font-size="11.00" fill="#000000">2 &gt;</text>
</a>
</g>
</g>
<!-- HOSTING_DETAILS_AUD -->
<g id="node2" class="node">
<title>HOSTING_DETAILS_AUD</title>
<g id="a_node2"><a xlink:href="../../tables/HOSTING_DETAILS_AUD.html" xlink:title="HOSTING_DETAILS_AUD" target="_top">
<polygon fill="#ffffff" stroke="transparent" points="238,-655 238,-760 435,-760 435,-655 238,-655"/>
<polygon fill="#f5f5f5" stroke="transparent" points="238.5,-736.5 238.5,-759.5 435.5,-759.5 435.5,-736.5 238.5,-736.5"/>
<polygon fill="none" stroke="#000000" points="238.5,-736.5 238.5,-759.5 435.5,-759.5 435.5,-736.5 238.5,-736.5"/>
<text text-anchor="start" x="243.5" y="-745.1" font-family="Helvetica,sans-Serif" font-weight="bold" font-size="11.00" fill="#000000">HOSTING_DETAILS_AUD</text>
<text text-anchor="start" x="401.0219" y="-744.6" font-family="Helvetica,sans-Serif" font-size="11.00" fill="#000000">[table]</text>
<polygon fill="none" stroke="#000000" points="238.5,-714.5 238.5,-736.5 435.5,-736.5 435.5,-714.5 238.5,-714.5"/>
<image xlink:href="../../images/primaryKeys.png" width="11px" height="12px" preserveAspectRatio="xMinYMin meet" x="243.5" y="-731.5"/>
<text text-anchor="start" x="267.5" y="-721.6" font-family="Helvetica,sans-Serif" font-size="11.00" fill="#000000">id</text>
<polygon fill="none" stroke="#000000" points="238.5,-692.5 238.5,-714.5 435.5,-714.5 435.5,-692.5 238.5,-692.5"/>
<image xlink:href="../../images/primaryKeys.png" width="11px" height="12px" preserveAspectRatio="xMinYMin meet" x="243.5" y="-709.5"/>
<text text-anchor="start" x="267.5" y="-699.6" font-family="Helvetica,sans-Serif" font-size="11.00" fill="#000000">REV</text>
<polygon fill="none" stroke="#000000" points="238.5,-673.5 238.5,-692.5 435.5,-692.5 435.5,-673.5 238.5,-673.5"/>
<text text-anchor="start" x="241.5" y="-679.6" font-family="Helvetica,sans-Serif" font-size="11.00" fill="#000000">...</text>
<polygon fill="#ffffff" stroke="transparent" points="238.5,-654.5 238.5,-673.5 322.5,-673.5 322.5,-654.5 238.5,-654.5"/>
<polygon fill="none" stroke="#000000" points="238.5,-654.5 238.5,-673.5 322.5,-673.5 322.5,-654.5 238.5,-654.5"/>
<text text-anchor="start" x="241.5" y="-660.6" font-family="Helvetica,sans-Serif" font-size="11.00" fill="#000000">&lt; 1</text>
<polygon fill="#ffffff" stroke="transparent" points="322.5,-654.5 322.5,-673.5 391.5,-673.5 391.5,-654.5 322.5,-654.5"/>
<polygon fill="none" stroke="#000000" points="322.5,-654.5 322.5,-673.5 391.5,-673.5 391.5,-654.5 322.5,-654.5"/>
<text text-anchor="start" x="356.1105" y="-660.6" font-family="Helvetica,sans-Serif" font-size="11.00" fill="#000000">0 rows</text>
<polygon fill="#ffffff" stroke="transparent" points="391.5,-654.5 391.5,-673.5 435.5,-673.5 435.5,-654.5 391.5,-654.5"/>
<polygon fill="none" stroke="#000000" points="391.5,-654.5 391.5,-673.5 435.5,-673.5 435.5,-654.5 391.5,-654.5"/>
<text text-anchor="start" x="426.3862" y="-660.6" font-family="Helvetica,sans-Serif" font-size="11.00" fill="#000000"> &#160;</text>
</a>
</g>
</g>
<!-- REVINFO -->
<g id="node5" class="node">
<title>REVINFO</title>
<g id="a_node5"><a xlink:href="../../tables/REVINFO.html" xlink:title="REVINFO" target="_top">
<polygon fill="#ffffff" stroke="transparent" points="38.5,-466 38.5,-549 136.5,-549 136.5,-466 38.5,-466"/>
<polygon fill="#f5f5f5" stroke="transparent" points="38.5,-525.5 38.5,-548.5 136.5,-548.5 136.5,-525.5 38.5,-525.5"/>
<polygon fill="none" stroke="#000000" points="38.5,-525.5 38.5,-548.5 136.5,-548.5 136.5,-525.5 38.5,-525.5"/>
<text text-anchor="start" x="43.5" y="-534.1" font-family="Helvetica,sans-Serif" font-weight="bold" font-size="11.00" fill="#000000">REVINFO</text>
<text text-anchor="start" x="102.0219" y="-533.6" font-family="Helvetica,sans-Serif" font-size="11.00" fill="#000000">[table]</text>
<polygon fill="none" stroke="#000000" points="38.5,-503.5 38.5,-525.5 136.5,-525.5 136.5,-503.5 38.5,-503.5"/>
<image xlink:href="../../images/primaryKeys.png" width="11px" height="12px" preserveAspectRatio="xMinYMin meet" x="43.5" y="-520.5"/>
<text text-anchor="start" x="61.5" y="-510.6" font-family="Helvetica,sans-Serif" font-size="11.00" fill="#000000">REV</text>
<polygon fill="none" stroke="#000000" points="38.5,-484.5 38.5,-503.5 136.5,-503.5 136.5,-484.5 38.5,-484.5"/>
<text text-anchor="start" x="41.5" y="-490.6" font-family="Helvetica,sans-Serif" font-size="11.00" fill="#000000">...</text>
<polygon fill="#ffffff" stroke="transparent" points="38.5,-465.5 38.5,-484.5 63.5,-484.5 63.5,-465.5 38.5,-465.5"/>
<polygon fill="none" stroke="#000000" points="38.5,-465.5 38.5,-484.5 63.5,-484.5 63.5,-465.5 38.5,-465.5"/>
<text text-anchor="start" x="41.5" y="-471.6" font-family="Helvetica,sans-Serif" font-size="11.00" fill="#000000"> &#160;</text>
<polygon fill="#ffffff" stroke="transparent" points="63.5,-465.5 63.5,-484.5 108.5,-484.5 108.5,-465.5 63.5,-465.5"/>
<polygon fill="none" stroke="#000000" points="63.5,-465.5 63.5,-484.5 108.5,-484.5 108.5,-465.5 63.5,-465.5"/>
<text text-anchor="start" x="73.1105" y="-471.6" font-family="Helvetica,sans-Serif" font-size="11.00" fill="#000000">0 rows</text>
<polygon fill="#ffffff" stroke="transparent" points="108.5,-465.5 108.5,-484.5 136.5,-484.5 136.5,-465.5 108.5,-465.5"/>
<polygon fill="none" stroke="#000000" points="108.5,-465.5 108.5,-484.5 136.5,-484.5 136.5,-465.5 108.5,-465.5"/>
<text text-anchor="start" x="117.9053" y="-471.6" font-family="Helvetica,sans-Serif" font-size="11.00" fill="#000000">4 &gt;</text>
</a>
</g>
</g>
<!-- HOSTING_DETAILS_AUD&#45;&gt;REVINFO -->
<g id="edge2" class="edge">
<title>HOSTING_DETAILS_AUD:w&#45;&gt;REVINFO:e</title>
<path fill="none" stroke="#000000" d="M223.9879,-701.7497C152.5276,-682.6962 226.5457,-514.5 136.5,-514.5"/>
<polygon fill="#000000" stroke="#000000" points="230.5576,-702.542 238.0689,-707.0741 234.5288,-703.021 238.5,-703.5 238.5,-703.5 238.5,-703.5 234.5288,-703.021 238.9311,-699.9259 230.5576,-702.542 230.5576,-702.542"/>
<ellipse fill="none" stroke="#000000" cx="227.3806" cy="-702.1588" rx="3.2" ry="3.2"/>
</g>
<!-- MINIAPP_BUILD_DETAILS -->
<g id="node3" class="node">
<title>MINIAPP_BUILD_DETAILS</title>
<g id="a_node3"><a xlink:href="../../tables/MINIAPP_BUILD_DETAILS.html" xlink:title="MINIAPP_BUILD_DETAILS" target="_top">
<polygon fill="#ffffff" stroke="transparent" points="233.5,-151 233.5,-256 439.5,-256 439.5,-151 233.5,-151"/>
<polygon fill="#f5f5f5" stroke="transparent" points="233.5,-232.5 233.5,-255.5 439.5,-255.5 439.5,-232.5 233.5,-232.5"/>
<polygon fill="none" stroke="#000000" points="233.5,-232.5 233.5,-255.5 439.5,-255.5 439.5,-232.5 233.5,-232.5"/>
<text text-anchor="start" x="238.5" y="-241.1" font-family="Helvetica,sans-Serif" font-weight="bold" font-size="11.00" fill="#000000">MINIAPP_BUILD_DETAILS</text>
<text text-anchor="start" x="405.0219" y="-240.6" font-family="Helvetica,sans-Serif" font-size="11.00" fill="#000000">[table]</text>
<polygon fill="none" stroke="#000000" points="233.5,-210.5 233.5,-232.5 439.5,-232.5 439.5,-210.5 233.5,-210.5"/>
<image xlink:href="../../images/primaryKeys.png" width="11px" height="12px" preserveAspectRatio="xMinYMin meet" x="238.5" y="-227.5"/>
<text text-anchor="start" x="262.5" y="-217.6" font-family="Helvetica,sans-Serif" font-size="11.00" fill="#000000">ID</text>
<polygon fill="#ffffff" stroke="transparent" points="233.5,-188.5 233.5,-210.5 439.5,-210.5 439.5,-188.5 233.5,-188.5"/>
<polygon fill="none" stroke="#000000" points="233.5,-188.5 233.5,-210.5 439.5,-210.5 439.5,-188.5 233.5,-188.5"/>
<image xlink:href="../../images/foreignKeys.png" width="11px" height="12px" preserveAspectRatio="xMinYMin meet" x="238.5" y="-205.5"/>
<text text-anchor="start" x="262.5" y="-195.6" font-family="Helvetica,sans-Serif" font-size="11.00" fill="#000000">APP_ID</text>
<polygon fill="none" stroke="#000000" points="233.5,-169.5 233.5,-188.5 439.5,-188.5 439.5,-169.5 233.5,-169.5"/>
<text text-anchor="start" x="236.5" y="-175.6" font-family="Helvetica,sans-Serif" font-size="11.00" fill="#000000">...</text>
<polygon fill="#ffffff" stroke="transparent" points="233.5,-150.5 233.5,-169.5 321.5,-169.5 321.5,-150.5 233.5,-150.5"/>
<polygon fill="none" stroke="#000000" points="233.5,-150.5 233.5,-169.5 321.5,-169.5 321.5,-150.5 233.5,-150.5"/>
<text text-anchor="start" x="236.5" y="-156.6" font-family="Helvetica,sans-Serif" font-size="11.00" fill="#000000">&lt; 1</text>
<polygon fill="#ffffff" stroke="transparent" points="321.5,-150.5 321.5,-169.5 393.5,-169.5 393.5,-150.5 321.5,-150.5"/>
<polygon fill="none" stroke="#000000" points="321.5,-150.5 321.5,-169.5 393.5,-169.5 393.5,-150.5 321.5,-150.5"/>
<text text-anchor="start" x="358.1105" y="-156.6" font-family="Helvetica,sans-Serif" font-size="11.00" fill="#000000">0 rows</text>
<polygon fill="#ffffff" stroke="transparent" points="393.5,-150.5 393.5,-169.5 439.5,-169.5 439.5,-150.5 393.5,-150.5"/>
<polygon fill="none" stroke="#000000" points="393.5,-150.5 393.5,-169.5 439.5,-169.5 439.5,-150.5 393.5,-150.5"/>
<text text-anchor="start" x="430.3862" y="-156.6" font-family="Helvetica,sans-Serif" font-size="11.00" fill="#000000"> &#160;</text>
</a>
</g>
</g>
<!-- MINIAPP_BUILD_DETAILS&#45;&gt;MINIAPP_DETAILS -->
<g id="edge3" class="edge">
<title>MINIAPP_BUILD_DETAILS:w&#45;&gt;MINIAPP_DETAILS:e</title>
<path fill="none" stroke="#000000" d="M219.3845,-196.1128C196.0955,-183.0271 202.3492,-136.5 167.5,-136.5"/>
<polygon fill="#000000" stroke="#000000" points="225.7208,-197.6333 232.66,-203.0006 229.6104,-198.5666 233.5,-199.5 233.5,-199.5 233.5,-199.5 229.6104,-198.5666 234.34,-195.9994 225.7208,-197.6333 225.7208,-197.6333"/>
<ellipse fill="none" stroke="#000000" cx="222.6092" cy="-196.8866" rx="3.2" ry="3.2"/>
</g>
<!-- MINIAPP_DETAILS_AUD -->
<g id="node4" class="node">
<title>MINIAPP_DETAILS_AUD</title>
<g id="a_node4"><a xlink:href="../../tables/MINIAPP_DETAILS_AUD.html" xlink:title="MINIAPP_DETAILS_AUD" target="_top">
<polygon fill="#ffffff" stroke="transparent" points="239.5,-529 239.5,-634 433.5,-634 433.5,-529 239.5,-529"/>
<polygon fill="#f5f5f5" stroke="transparent" points="239.5,-610.5 239.5,-633.5 433.5,-633.5 433.5,-610.5 239.5,-610.5"/>
<polygon fill="none" stroke="#000000" points="239.5,-610.5 239.5,-633.5 433.5,-633.5 433.5,-610.5 239.5,-610.5"/>
<text text-anchor="start" x="244.5" y="-619.1" font-family="Helvetica,sans-Serif" font-weight="bold" font-size="11.00" fill="#000000">MINIAPP_DETAILS_AUD</text>
<text text-anchor="start" x="399.0219" y="-618.6" font-family="Helvetica,sans-Serif" font-size="11.00" fill="#000000">[table]</text>
<polygon fill="none" stroke="#000000" points="239.5,-588.5 239.5,-610.5 433.5,-610.5 433.5,-588.5 239.5,-588.5"/>
<image xlink:href="../../images/primaryKeys.png" width="11px" height="12px" preserveAspectRatio="xMinYMin meet" x="244.5" y="-605.5"/>
<text text-anchor="start" x="268.5" y="-595.6" font-family="Helvetica,sans-Serif" font-size="11.00" fill="#000000">id</text>
<polygon fill="none" stroke="#000000" points="239.5,-566.5 239.5,-588.5 433.5,-588.5 433.5,-566.5 239.5,-566.5"/>
<image xlink:href="../../images/primaryKeys.png" width="11px" height="12px" preserveAspectRatio="xMinYMin meet" x="244.5" y="-583.5"/>
<text text-anchor="start" x="268.5" y="-573.6" font-family="Helvetica,sans-Serif" font-size="11.00" fill="#000000">REV</text>
<polygon fill="none" stroke="#000000" points="239.5,-547.5 239.5,-566.5 433.5,-566.5 433.5,-547.5 239.5,-547.5"/>
<text text-anchor="start" x="242.5" y="-553.6" font-family="Helvetica,sans-Serif" font-size="11.00" fill="#000000">...</text>
<polygon fill="#ffffff" stroke="transparent" points="239.5,-528.5 239.5,-547.5 321.5,-547.5 321.5,-528.5 239.5,-528.5"/>
<polygon fill="none" stroke="#000000" points="239.5,-528.5 239.5,-547.5 321.5,-547.5 321.5,-528.5 239.5,-528.5"/>
<text text-anchor="start" x="242.5" y="-534.6" font-family="Helvetica,sans-Serif" font-size="11.00" fill="#000000">&lt; 1</text>
<polygon fill="#ffffff" stroke="transparent" points="321.5,-528.5 321.5,-547.5 390.5,-547.5 390.5,-528.5 321.5,-528.5"/>
<polygon fill="none" stroke="#000000" points="321.5,-528.5 321.5,-547.5 390.5,-547.5 390.5,-528.5 321.5,-528.5"/>
<text text-anchor="start" x="355.1105" y="-534.6" font-family="Helvetica,sans-Serif" font-size="11.00" fill="#000000">0 rows</text>
<polygon fill="#ffffff" stroke="transparent" points="390.5,-528.5 390.5,-547.5 433.5,-547.5 433.5,-528.5 390.5,-528.5"/>
<polygon fill="none" stroke="#000000" points="390.5,-528.5 390.5,-547.5 433.5,-547.5 433.5,-528.5 390.5,-528.5"/>
<text text-anchor="start" x="424.3862" y="-534.6" font-family="Helvetica,sans-Serif" font-size="11.00" fill="#000000"> &#160;</text>
</a>
</g>
</g>
<!-- MINIAPP_DETAILS_AUD&#45;&gt;REVINFO -->
<g id="edge5" class="edge">
<title>MINIAPP_DETAILS_AUD:w&#45;&gt;REVINFO:e</title>
<path fill="none" stroke="#000000" d="M225.0757,-575.7493C186.1241,-565.5743 184.8167,-514.5 136.5,-514.5"/>
<polygon fill="#000000" stroke="#000000" points="231.5583,-576.536 239.0662,-581.0738 235.5291,-577.018 239.5,-577.5 239.5,-577.5 239.5,-577.5 235.5291,-577.018 239.9338,-573.9262 231.5583,-576.536 231.5583,-576.536"/>
<ellipse fill="none" stroke="#000000" cx="228.3816" cy="-576.1504" rx="3.2" ry="3.2"/>
</g>
<!-- User_AUD -->
<g id="node6" class="node">
<title>User_AUD</title>
<g id="a_node6"><a xlink:href="../../tables/User_AUD.html" xlink:title="User_AUD" target="_top">
<polygon fill="#ffffff" stroke="transparent" points="284.5,-403 284.5,-508 388.5,-508 388.5,-403 284.5,-403"/>
<polygon fill="#f5f5f5" stroke="transparent" points="284.5,-484.5 284.5,-507.5 388.5,-507.5 388.5,-484.5 284.5,-484.5"/>
<polygon fill="none" stroke="#000000" points="284.5,-484.5 284.5,-507.5 388.5,-507.5 388.5,-484.5 284.5,-484.5"/>
<text text-anchor="start" x="289.5" y="-493.1" font-family="Helvetica,sans-Serif" font-weight="bold" font-size="11.00" fill="#000000">User_AUD</text>
<text text-anchor="start" x="354.0219" y="-492.6" font-family="Helvetica,sans-Serif" font-size="11.00" fill="#000000">[table]</text>
<polygon fill="none" stroke="#000000" points="284.5,-462.5 284.5,-484.5 388.5,-484.5 388.5,-462.5 284.5,-462.5"/>
<image xlink:href="../../images/primaryKeys.png" width="11px" height="12px" preserveAspectRatio="xMinYMin meet" x="289.5" y="-479.5"/>
<text text-anchor="start" x="304.5" y="-469.6" font-family="Helvetica,sans-Serif" font-size="11.00" fill="#000000">userid_pk</text>
<polygon fill="none" stroke="#000000" points="284.5,-440.5 284.5,-462.5 388.5,-462.5 388.5,-440.5 284.5,-440.5"/>
<image xlink:href="../../images/primaryKeys.png" width="11px" height="12px" preserveAspectRatio="xMinYMin meet" x="289.5" y="-457.5"/>
<text text-anchor="start" x="304.5" y="-447.6" font-family="Helvetica,sans-Serif" font-size="11.00" fill="#000000">REV</text>
<polygon fill="none" stroke="#000000" points="284.5,-421.5 284.5,-440.5 388.5,-440.5 388.5,-421.5 284.5,-421.5"/>
<text text-anchor="start" x="287.5" y="-427.6" font-family="Helvetica,sans-Serif" font-size="11.00" fill="#000000">...</text>
<polygon fill="#ffffff" stroke="transparent" points="284.5,-402.5 284.5,-421.5 321.5,-421.5 321.5,-402.5 284.5,-402.5"/>
<polygon fill="none" stroke="#000000" points="284.5,-402.5 284.5,-421.5 321.5,-421.5 321.5,-402.5 284.5,-402.5"/>
<text text-anchor="start" x="287.5" y="-408.6" font-family="Helvetica,sans-Serif" font-size="11.00" fill="#000000">&lt; 1</text>
<polygon fill="#ffffff" stroke="transparent" points="321.5,-402.5 321.5,-421.5 367.5,-421.5 367.5,-402.5 321.5,-402.5"/>
<polygon fill="none" stroke="#000000" points="321.5,-402.5 321.5,-421.5 367.5,-421.5 367.5,-402.5 321.5,-402.5"/>
<text text-anchor="start" x="332.1105" y="-408.6" font-family="Helvetica,sans-Serif" font-size="11.00" fill="#000000">0 rows</text>
<polygon fill="#ffffff" stroke="transparent" points="367.5,-402.5 367.5,-421.5 388.5,-421.5 388.5,-402.5 367.5,-402.5"/>
<polygon fill="none" stroke="#000000" points="367.5,-402.5 367.5,-421.5 388.5,-421.5 388.5,-402.5 367.5,-402.5"/>
<text text-anchor="start" x="379.3862" y="-408.6" font-family="Helvetica,sans-Serif" font-size="11.00" fill="#000000"> &#160;</text>
</a>
</g>
</g>
<!-- User_AUD&#45;&gt;REVINFO -->
<g id="edge6" class="edge">
<title>User_AUD:w&#45;&gt;REVINFO:e</title>
<path fill="none" stroke="#000000" d="M269.9925,-452.4395C211.9379,-460.2765 202.8231,-514.5 136.5,-514.5"/>
<polygon fill="#000000" stroke="#000000" points="276.5167,-452.017 284.7327,-455.0925 280.5084,-451.7585 284.5,-451.5 284.5,-451.5 284.5,-451.5 280.5084,-451.7585 284.2673,-447.9075 276.5167,-452.017 276.5167,-452.017"/>
<ellipse fill="none" stroke="#000000" cx="273.3234" cy="-452.2238" rx="3.2" ry="3.2"/>
</g>
<!-- MINIAPP_BUILD_DETAILS_AUD -->
<g id="node7" class="node">
<title>MINIAPP_BUILD_DETAILS_AUD</title>
<g id="a_node7"><a xlink:href="../../tables/MINIAPP_BUILD_DETAILS_AUD.html" xlink:title="MINIAPP_BUILD_DETAILS_AUD" target="_top">
<polygon fill="#ffffff" stroke="transparent" points="216,-277 216,-382 457,-382 457,-277 216,-277"/>
<polygon fill="#f5f5f5" stroke="transparent" points="216.5,-358.5 216.5,-381.5 457.5,-381.5 457.5,-358.5 216.5,-358.5"/>
<polygon fill="none" stroke="#000000" points="216.5,-358.5 216.5,-381.5 457.5,-381.5 457.5,-358.5 216.5,-358.5"/>
<text text-anchor="start" x="221.5" y="-367.1" font-family="Helvetica,sans-Serif" font-weight="bold" font-size="11.00" fill="#000000">MINIAPP_BUILD_DETAILS_AUD</text>
<text text-anchor="start" x="423.0219" y="-366.6" font-family="Helvetica,sans-Serif" font-size="11.00" fill="#000000">[table]</text>
<polygon fill="none" stroke="#000000" points="216.5,-336.5 216.5,-358.5 457.5,-358.5 457.5,-336.5 216.5,-336.5"/>
<image xlink:href="../../images/primaryKeys.png" width="11px" height="12px" preserveAspectRatio="xMinYMin meet" x="221.5" y="-353.5"/>
<text text-anchor="start" x="245.5" y="-343.6" font-family="Helvetica,sans-Serif" font-size="11.00" fill="#000000">id</text>
<polygon fill="none" stroke="#000000" points="216.5,-314.5 216.5,-336.5 457.5,-336.5 457.5,-314.5 216.5,-314.5"/>
<image xlink:href="../../images/primaryKeys.png" width="11px" height="12px" preserveAspectRatio="xMinYMin meet" x="221.5" y="-331.5"/>
<text text-anchor="start" x="245.5" y="-321.6" font-family="Helvetica,sans-Serif" font-size="11.00" fill="#000000">REV</text>
<polygon fill="none" stroke="#000000" points="216.5,-295.5 216.5,-314.5 457.5,-314.5 457.5,-295.5 216.5,-295.5"/>
<text text-anchor="start" x="219.5" y="-301.6" font-family="Helvetica,sans-Serif" font-size="11.00" fill="#000000">...</text>
<polygon fill="#ffffff" stroke="transparent" points="216.5,-276.5 216.5,-295.5 322.5,-295.5 322.5,-276.5 216.5,-276.5"/>
<polygon fill="none" stroke="#000000" points="216.5,-276.5 216.5,-295.5 322.5,-295.5 322.5,-276.5 216.5,-276.5"/>
<text text-anchor="start" x="219.5" y="-282.6" font-family="Helvetica,sans-Serif" font-size="11.00" fill="#000000">&lt; 1</text>
<polygon fill="#ffffff" stroke="transparent" points="322.5,-276.5 322.5,-295.5 402.5,-295.5 402.5,-276.5 322.5,-276.5"/>
<polygon fill="none" stroke="#000000" points="322.5,-276.5 322.5,-295.5 402.5,-295.5 402.5,-276.5 322.5,-276.5"/>
<text text-anchor="start" x="367.1105" y="-282.6" font-family="Helvetica,sans-Serif" font-size="11.00" fill="#000000">0 rows</text>
<polygon fill="#ffffff" stroke="transparent" points="402.5,-276.5 402.5,-295.5 457.5,-295.5 457.5,-276.5 402.5,-276.5"/>
<polygon fill="none" stroke="#000000" points="402.5,-276.5 402.5,-295.5 457.5,-295.5 457.5,-276.5 402.5,-276.5"/>
<text text-anchor="start" x="448.3862" y="-282.6" font-family="Helvetica,sans-Serif" font-size="11.00" fill="#000000"> &#160;</text>
</a>
</g>
</g>
<!-- MINIAPP_BUILD_DETAILS_AUD&#45;&gt;REVINFO -->
<g id="edge4" class="edge">
<title>MINIAPP_BUILD_DETAILS_AUD:w&#45;&gt;REVINFO:e</title>
<path fill="none" stroke="#000000" d="M201.9753,-327.4947C136.9787,-347.6939 222.1923,-514.5 136.5,-514.5"/>
<polygon fill="#000000" stroke="#000000" points="208.5744,-326.5885 216.9898,-329.0665 212.5372,-326.0442 216.5,-325.5 216.5,-325.5 216.5,-325.5 212.5372,-326.0442 216.0102,-321.9335 208.5744,-326.5885 208.5744,-326.5885"/>
<ellipse fill="none" stroke="#000000" cx="205.4041" cy="-327.0239" rx="3.2" ry="3.2"/>
</g>
<!-- HOSTING_DETAILS -->
<g id="node8" class="node">
<title>HOSTING_DETAILS</title>
<g id="a_node8"><a xlink:href="../../tables/HOSTING_DETAILS.html" xlink:title="HOSTING_DETAILS" target="_top">
<polygon fill="#ffffff" stroke="transparent" points="255.5,-25 255.5,-130 417.5,-130 417.5,-25 255.5,-25"/>
<polygon fill="#f5f5f5" stroke="transparent" points="255.5,-106.5 255.5,-129.5 417.5,-129.5 417.5,-106.5 255.5,-106.5"/>
<polygon fill="none" stroke="#000000" points="255.5,-106.5 255.5,-129.5 417.5,-129.5 417.5,-106.5 255.5,-106.5"/>
<text text-anchor="start" x="260.5" y="-115.1" font-family="Helvetica,sans-Serif" font-weight="bold" font-size="11.00" fill="#000000">HOSTING_DETAILS</text>
<text text-anchor="start" x="383.0219" y="-114.6" font-family="Helvetica,sans-Serif" font-size="11.00" fill="#000000">[table]</text>
<polygon fill="none" stroke="#000000" points="255.5,-84.5 255.5,-106.5 417.5,-106.5 417.5,-84.5 255.5,-84.5"/>
<image xlink:href="../../images/primaryKeys.png" width="11px" height="12px" preserveAspectRatio="xMinYMin meet" x="260.5" y="-101.5"/>
<text text-anchor="start" x="284.5" y="-91.6" font-family="Helvetica,sans-Serif" font-size="11.00" fill="#000000">ID</text>
<polygon fill="#ffffff" stroke="transparent" points="255.5,-62.5 255.5,-84.5 417.5,-84.5 417.5,-62.5 255.5,-62.5"/>
<polygon fill="none" stroke="#000000" points="255.5,-62.5 255.5,-84.5 417.5,-84.5 417.5,-62.5 255.5,-62.5"/>
<image xlink:href="../../images/foreignKeys.png" width="11px" height="12px" preserveAspectRatio="xMinYMin meet" x="260.5" y="-79.5"/>
<text text-anchor="start" x="284.5" y="-69.6" font-family="Helvetica,sans-Serif" font-size="11.00" fill="#000000">APP_ID</text>
<polygon fill="none" stroke="#000000" points="255.5,-43.5 255.5,-62.5 417.5,-62.5 417.5,-43.5 255.5,-43.5"/>
<text text-anchor="start" x="258.5" y="-49.6" font-family="Helvetica,sans-Serif" font-size="11.00" fill="#000000">...</text>
<polygon fill="#ffffff" stroke="transparent" points="255.5,-24.5 255.5,-43.5 321.5,-43.5 321.5,-24.5 255.5,-24.5"/>
<polygon fill="none" stroke="#000000" points="255.5,-24.5 255.5,-43.5 321.5,-43.5 321.5,-24.5 255.5,-24.5"/>
<text text-anchor="start" x="258.5" y="-30.6" font-family="Helvetica,sans-Serif" font-size="11.00" fill="#000000">&lt; 1</text>
<polygon fill="#ffffff" stroke="transparent" points="321.5,-24.5 321.5,-43.5 382.5,-43.5 382.5,-24.5 321.5,-24.5"/>
<polygon fill="none" stroke="#000000" points="321.5,-24.5 321.5,-43.5 382.5,-43.5 382.5,-24.5 321.5,-24.5"/>
<text text-anchor="start" x="347.1105" y="-30.6" font-family="Helvetica,sans-Serif" font-size="11.00" fill="#000000">0 rows</text>
<polygon fill="#ffffff" stroke="transparent" points="382.5,-24.5 382.5,-43.5 417.5,-43.5 417.5,-24.5 382.5,-24.5"/>
<polygon fill="none" stroke="#000000" points="382.5,-24.5 382.5,-43.5 417.5,-43.5 417.5,-24.5 382.5,-24.5"/>
<text text-anchor="start" x="408.3862" y="-30.6" font-family="Helvetica,sans-Serif" font-size="11.00" fill="#000000"> &#160;</text>
</a>
</g>
</g>
<!-- HOSTING_DETAILS&#45;&gt;MINIAPP_DETAILS -->
<g id="edge1" class="edge">
<title>HOSTING_DETAILS:w&#45;&gt;MINIAPP_DETAILS:e</title>
<path fill="none" stroke="#000000" d="M241.1571,-75.7422C208.5349,-86.965 210.1518,-136.5 167.5,-136.5"/>
<polygon fill="#000000" stroke="#000000" points="247.596,-74.7357 256.056,-77.0568 251.548,-74.1178 255.5,-73.5 255.5,-73.5 255.5,-73.5 251.548,-74.1178 254.944,-69.9432 247.596,-74.7357 247.596,-74.7357"/>
<ellipse fill="none" stroke="#000000" cx="244.4344" cy="-75.2299" rx="3.2" ry="3.2"/>
</g>
</g>
</svg>
