<?xml version="1.0" encoding="UTF-8" standalone="no"?>
<!DOCTYPE svg PUBLIC "-//W3C//DTD SVG 1.1//EN"
 "http://www.w3.org/Graphics/SVG/1.1/DTD/svg11.dtd">
<!-- Generated by graphviz version 2.40.1 (20161225.0304)
 -->
<!-- Title: orphans Pages: 1 -->
<svg width="280pt" height="1164pt"
 viewBox="0.00 0.00 280.00 1164.00" xmlns="http://www.w3.org/2000/svg" xmlns:xlink="http://www.w3.org/1999/xlink">
<g id="graph0" class="graph" transform="scale(1 1) rotate(0) translate(4 1160)">
<title>orphans</title>
<polygon fill="#ffffff" stroke="transparent" points="-4,4 -4,-1160 276,-1160 276,4 -4,4"/>
<!-- RESOURCE_FIELD_AUDIT -->
<g id="node1" class="node">
<title>RESOURCE_FIELD_AUDIT</title>
<g id="a_node1"><a xlink:href="../../tables/RESOURCE_FIELD_AUDIT.html" xlink:title="RESOURCE_FIELD_AUDIT" target="_top">
<polygon fill="#ffffff" stroke="transparent" points="8,-4 8,-644 264,-644 264,-4 8,-4"/>
<polygon fill="#f5f5f5" stroke="transparent" points="10,-619 10,-642 262,-642 262,-619 10,-619"/>
<polygon fill="none" stroke="#000000" points="10,-619 10,-642 262,-642 262,-619 10,-619"/>
<text text-anchor="start" x="15" y="-627.6" font-family="Helvetica,sans-Serif" font-weight="bold" font-size="11.00" fill="#000000">RESOURCE_FIELD_AUDIT</text>
<text text-anchor="start" x="227.0437" y="-627.1" font-family="Helvetica,sans-Serif" font-size="11.00" fill="#000000">[table]</text>
<polygon fill="none" stroke="#000000" points="10,-597 10,-619 195,-619 195,-597 10,-597"/>
<image xlink:href="../../images/primaryKeys.png" width="11px" height="12px" preserveAspectRatio="xMinYMin meet" x="15" y="-614"/>
<text text-anchor="start" x="30" y="-604.1" font-family="Helvetica,sans-Serif" font-size="11.00" fill="#000000">ID</text>
<polygon fill="none" stroke="#000000" points="195,-597 195,-619 262,-619 262,-597 195,-597"/>
<text text-anchor="start" x="198" y="-604.7" font-family="Helvetica,sans-Serif" font-size="11.00" fill="#000000">int[10]</text>
<polygon fill="none" stroke="#000000" points="10,-575 10,-597 195,-597 195,-575 10,-575"/>
<text text-anchor="start" x="30" y="-582.1" font-family="Helvetica,sans-Serif" font-size="11.00" fill="#000000">CREATED_TIME</text>
<polygon fill="none" stroke="#000000" points="195,-575 195,-597 262,-597 262,-575 195,-575"/>
<text text-anchor="start" x="198" y="-582.7" font-family="Helvetica,sans-Serif" font-size="11.00" fill="#000000">datetime[26]</text>
<polygon fill="none" stroke="#000000" points="10,-553 10,-575 195,-575 195,-553 10,-553"/>
<text text-anchor="start" x="30" y="-560.1" font-family="Helvetica,sans-Serif" font-size="11.00" fill="#000000">CREATOR_FK</text>
<polygon fill="none" stroke="#000000" points="195,-553 195,-575 262,-575 262,-553 195,-553"/>
<text text-anchor="start" x="198" y="-560.7" font-family="Helvetica,sans-Serif" font-size="11.00" fill="#000000">int[10]</text>
<polygon fill="none" stroke="#000000" points="10,-531 10,-553 195,-553 195,-531 10,-531"/>
<text text-anchor="start" x="30" y="-538.1" font-family="Helvetica,sans-Serif" font-size="11.00" fill="#000000">CREATOR_NAME</text>
<polygon fill="none" stroke="#000000" points="195,-531 195,-553 262,-553 262,-531 195,-531"/>
<text text-anchor="start" x="197.9365" y="-538.7" font-family="Helvetica,sans-Serif" font-size="11.00" fill="#000000">varchar[100]</text>
<polygon fill="none" stroke="#000000" points="10,-509 10,-531 195,-531 195,-509 10,-509"/>
<text text-anchor="start" x="30" y="-516.1" font-family="Helvetica,sans-Serif" font-size="11.00" fill="#000000">MODIFIER_FK</text>
<polygon fill="none" stroke="#000000" points="195,-509 195,-531 262,-531 262,-509 195,-509"/>
<text text-anchor="start" x="198" y="-516.7" font-family="Helvetica,sans-Serif" font-size="11.00" fill="#000000">int[10]</text>
<polygon fill="none" stroke="#000000" points="10,-487 10,-509 195,-509 195,-487 10,-487"/>
<text text-anchor="start" x="30" y="-494.1" font-family="Helvetica,sans-Serif" font-size="11.00" fill="#000000">MODIFIER_NAME</text>
<polygon fill="none" stroke="#000000" points="195,-487 195,-509 262,-509 262,-487 195,-487"/>
<text text-anchor="start" x="197.9365" y="-494.7" font-family="Helvetica,sans-Serif" font-size="11.00" fill="#000000">varchar[100]</text>
<polygon fill="none" stroke="#000000" points="10,-465 10,-487 195,-487 195,-465 10,-465"/>
<text text-anchor="start" x="30" y="-472.1" font-family="Helvetica,sans-Serif" font-size="11.00" fill="#000000">MODIFIED_TIME</text>
<polygon fill="none" stroke="#000000" points="195,-465 195,-487 262,-487 262,-465 195,-465"/>
<text text-anchor="start" x="198" y="-472.7" font-family="Helvetica,sans-Serif" font-size="11.00" fill="#000000">datetime[26]</text>
<polygon fill="none" stroke="#000000" points="10,-443 10,-465 195,-465 195,-443 10,-443"/>
<text text-anchor="start" x="30" y="-450.1" font-family="Helvetica,sans-Serif" font-size="11.00" fill="#000000">USER_NAME</text>
<polygon fill="none" stroke="#000000" points="195,-443 195,-465 262,-465 262,-443 195,-443"/>
<text text-anchor="start" x="197.9365" y="-450.7" font-family="Helvetica,sans-Serif" font-size="11.00" fill="#000000">varchar[100]</text>
<polygon fill="none" stroke="#000000" points="10,-421 10,-443 195,-443 195,-421 10,-421"/>
<text text-anchor="start" x="30" y="-428.1" font-family="Helvetica,sans-Serif" font-size="11.00" fill="#000000">ACTION</text>
<polygon fill="none" stroke="#000000" points="195,-421 195,-443 262,-443 262,-421 195,-421"/>
<text text-anchor="start" x="197.9365" y="-428.7" font-family="Helvetica,sans-Serif" font-size="11.00" fill="#000000">varchar[255]</text>
<polygon fill="none" stroke="#000000" points="10,-399 10,-421 195,-421 195,-399 10,-399"/>
<text text-anchor="start" x="30" y="-406.1" font-family="Helvetica,sans-Serif" font-size="11.00" fill="#000000">APPLICATION_NAME</text>
<polygon fill="none" stroke="#000000" points="195,-399 195,-421 262,-421 262,-399 195,-399"/>
<text text-anchor="start" x="197.9365" y="-406.7" font-family="Helvetica,sans-Serif" font-size="11.00" fill="#000000">varchar[255]</text>
<polygon fill="none" stroke="#000000" points="10,-377 10,-399 195,-399 195,-377 10,-377"/>
<text text-anchor="start" x="30" y="-384.1" font-family="Helvetica,sans-Serif" font-size="11.00" fill="#000000">COLUMN_NAME</text>
<polygon fill="none" stroke="#000000" points="195,-377 195,-399 262,-399 262,-377 195,-377"/>
<text text-anchor="start" x="197.9365" y="-384.7" font-family="Helvetica,sans-Serif" font-size="11.00" fill="#000000">varchar[255]</text>
<polygon fill="none" stroke="#000000" points="10,-355 10,-377 195,-377 195,-355 10,-355"/>
<text text-anchor="start" x="30" y="-362.1" font-family="Helvetica,sans-Serif" font-size="11.00" fill="#000000">ENTITY_ID</text>
<polygon fill="none" stroke="#000000" points="195,-355 195,-377 262,-377 262,-355 195,-355"/>
<text text-anchor="start" x="197.9365" y="-362.7" font-family="Helvetica,sans-Serif" font-size="11.00" fill="#000000">varchar[255]</text>
<polygon fill="none" stroke="#000000" points="10,-333 10,-355 195,-355 195,-333 10,-333"/>
<text text-anchor="start" x="30" y="-340.1" font-family="Helvetica,sans-Serif" font-size="11.00" fill="#000000">ENTITY_NAME</text>
<polygon fill="none" stroke="#000000" points="195,-333 195,-355 262,-355 262,-333 195,-333"/>
<text text-anchor="start" x="197.9365" y="-340.7" font-family="Helvetica,sans-Serif" font-size="11.00" fill="#000000">varchar[255]</text>
<polygon fill="none" stroke="#000000" points="10,-311 10,-333 195,-333 195,-311 10,-311"/>
<text text-anchor="start" x="30" y="-318.1" font-family="Helvetica,sans-Serif" font-size="11.00" fill="#000000">ENTITY_TYPE</text>
<polygon fill="none" stroke="#000000" points="195,-311 195,-333 262,-333 262,-311 195,-311"/>
<text text-anchor="start" x="197.9365" y="-318.7" font-family="Helvetica,sans-Serif" font-size="11.00" fill="#000000">varchar[255]</text>
<polygon fill="none" stroke="#000000" points="10,-289 10,-311 195,-311 195,-289 10,-289"/>
<text text-anchor="start" x="30" y="-296.1" font-family="Helvetica,sans-Serif" font-size="11.00" fill="#000000">FIELD_KEY</text>
<polygon fill="none" stroke="#000000" points="195,-289 195,-311 262,-311 262,-289 195,-289"/>
<text text-anchor="start" x="197.9365" y="-296.7" font-family="Helvetica,sans-Serif" font-size="11.00" fill="#000000">varchar[255]</text>
<polygon fill="none" stroke="#000000" points="10,-267 10,-289 195,-289 195,-267 10,-267"/>
<text text-anchor="start" x="30" y="-274.1" font-family="Helvetica,sans-Serif" font-size="11.00" fill="#000000">FIELD_TYPE</text>
<polygon fill="none" stroke="#000000" points="195,-267 195,-289 262,-289 262,-267 195,-267"/>
<text text-anchor="start" x="197.9365" y="-274.7" font-family="Helvetica,sans-Serif" font-size="11.00" fill="#000000">varchar[255]</text>
<polygon fill="none" stroke="#000000" points="10,-245 10,-267 195,-267 195,-245 10,-245"/>
<text text-anchor="start" x="30" y="-252.1" font-family="Helvetica,sans-Serif" font-size="11.00" fill="#000000">IDENTIFIER1</text>
<polygon fill="none" stroke="#000000" points="195,-245 195,-267 262,-267 262,-245 195,-245"/>
<text text-anchor="start" x="197.9365" y="-252.7" font-family="Helvetica,sans-Serif" font-size="11.00" fill="#000000">varchar[255]</text>
<polygon fill="none" stroke="#000000" points="10,-223 10,-245 195,-245 195,-223 10,-223"/>
<text text-anchor="start" x="30" y="-230.1" font-family="Helvetica,sans-Serif" font-size="11.00" fill="#000000">IDENTIFIER2</text>
<polygon fill="none" stroke="#000000" points="195,-223 195,-245 262,-245 262,-223 195,-223"/>
<text text-anchor="start" x="197.9365" y="-230.7" font-family="Helvetica,sans-Serif" font-size="11.00" fill="#000000">varchar[255]</text>
<polygon fill="none" stroke="#000000" points="10,-201 10,-223 195,-223 195,-201 10,-201"/>
<text text-anchor="start" x="30" y="-208.1" font-family="Helvetica,sans-Serif" font-size="11.00" fill="#000000">IDENTIFIER3</text>
<polygon fill="none" stroke="#000000" points="195,-201 195,-223 262,-223 262,-201 195,-201"/>
<text text-anchor="start" x="197.9365" y="-208.7" font-family="Helvetica,sans-Serif" font-size="11.00" fill="#000000">varchar[255]</text>
<polygon fill="none" stroke="#000000" points="10,-179 10,-201 195,-201 195,-179 10,-179"/>
<text text-anchor="start" x="30" y="-186.1" font-family="Helvetica,sans-Serif" font-size="11.00" fill="#000000">IDENTIFIER4</text>
<polygon fill="none" stroke="#000000" points="195,-179 195,-201 262,-201 262,-179 195,-179"/>
<text text-anchor="start" x="197.9365" y="-186.7" font-family="Helvetica,sans-Serif" font-size="11.00" fill="#000000">varchar[255]</text>
<polygon fill="none" stroke="#000000" points="10,-157 10,-179 195,-179 195,-157 10,-157"/>
<text text-anchor="start" x="30" y="-164.1" font-family="Helvetica,sans-Serif" font-size="11.00" fill="#000000">LABEL</text>
<polygon fill="none" stroke="#000000" points="195,-157 195,-179 262,-179 262,-157 195,-157"/>
<text text-anchor="start" x="197.9365" y="-164.7" font-family="Helvetica,sans-Serif" font-size="11.00" fill="#000000">varchar[255]</text>
<polygon fill="none" stroke="#000000" points="10,-135 10,-157 195,-157 195,-135 10,-135"/>
<text text-anchor="start" x="30" y="-142.1" font-family="Helvetica,sans-Serif" font-size="11.00" fill="#000000">NEW_VALUE</text>
<polygon fill="none" stroke="#000000" points="195,-135 195,-157 262,-157 262,-135 195,-135"/>
<text text-anchor="start" x="197.9365" y="-142.7" font-family="Helvetica,sans-Serif" font-size="11.00" fill="#000000">varchar[255]</text>
<polygon fill="none" stroke="#000000" points="10,-113 10,-135 195,-135 195,-113 10,-113"/>
<text text-anchor="start" x="30" y="-120.1" font-family="Helvetica,sans-Serif" font-size="11.00" fill="#000000">OLD_VALUE</text>
<polygon fill="none" stroke="#000000" points="195,-113 195,-135 262,-135 262,-113 195,-113"/>
<text text-anchor="start" x="197.9365" y="-120.7" font-family="Helvetica,sans-Serif" font-size="11.00" fill="#000000">varchar[255]</text>
<polygon fill="none" stroke="#000000" points="10,-91 10,-113 195,-113 195,-91 10,-91"/>
<text text-anchor="start" x="30" y="-98.1" font-family="Helvetica,sans-Serif" font-size="11.00" fill="#000000">RESOURCE_NAME</text>
<polygon fill="none" stroke="#000000" points="195,-91 195,-113 262,-113 262,-91 195,-91"/>
<text text-anchor="start" x="197.9365" y="-98.7" font-family="Helvetica,sans-Serif" font-size="11.00" fill="#000000">varchar[255]</text>
<polygon fill="none" stroke="#000000" points="10,-69 10,-91 195,-91 195,-69 10,-69"/>
<text text-anchor="start" x="30" y="-76.1" font-family="Helvetica,sans-Serif" font-size="11.00" fill="#000000">SEQUENCE</text>
<polygon fill="none" stroke="#000000" points="195,-69 195,-91 262,-91 262,-69 195,-69"/>
<text text-anchor="start" x="197.9365" y="-76.7" font-family="Helvetica,sans-Serif" font-size="11.00" fill="#000000">varchar[255]</text>
<polygon fill="none" stroke="#000000" points="10,-47 10,-69 195,-69 195,-47 10,-47"/>
<text text-anchor="start" x="30" y="-54.1" font-family="Helvetica,sans-Serif" font-size="11.00" fill="#000000">TASK_CODE</text>
<polygon fill="none" stroke="#000000" points="195,-47 195,-69 262,-69 262,-47 195,-47"/>
<text text-anchor="start" x="197.9365" y="-54.7" font-family="Helvetica,sans-Serif" font-size="11.00" fill="#000000">varchar[255]</text>
<polygon fill="none" stroke="#000000" points="10,-25 10,-47 195,-47 195,-25 10,-25"/>
<text text-anchor="start" x="30" y="-32.1" font-family="Helvetica,sans-Serif" font-size="11.00" fill="#000000">VIEW_ID</text>
<polygon fill="none" stroke="#000000" points="195,-25 195,-47 262,-47 262,-25 195,-25"/>
<text text-anchor="start" x="197.9365" y="-32.7" font-family="Helvetica,sans-Serif" font-size="11.00" fill="#000000">varchar[255]</text>
<polygon fill="#ffffff" stroke="transparent" points="10,-6 10,-25 94,-25 94,-6 10,-6"/>
<polygon fill="none" stroke="#000000" points="10,-6 10,-25 94,-25 94,-6 10,-6"/>
<text text-anchor="start" x="13" y="-12.1" font-family="Helvetica,sans-Serif" font-size="11.00" fill="#000000">&lt; 0</text>
<polygon fill="#ffffff" stroke="transparent" points="94,-6 94,-25 195,-25 195,-6 94,-6"/>
<polygon fill="none" stroke="#000000" points="94,-6 94,-25 195,-25 195,-6 94,-6"/>
<text text-anchor="start" x="159.6105" y="-12.1" font-family="Helvetica,sans-Serif" font-size="11.00" fill="#000000">0 rows</text>
<polygon fill="#ffffff" stroke="transparent" points="195,-6 195,-25 262,-25 262,-6 195,-6"/>
<polygon fill="none" stroke="#000000" points="195,-6 195,-25 262,-25 262,-6 195,-6"/>
<text text-anchor="start" x="243.4053" y="-12.1" font-family="Helvetica,sans-Serif" font-size="11.00" fill="#000000">0 &gt;</text>
<polygon fill="none" stroke="#000000" stroke-width="2" points="9,-5 9,-643 263,-643 263,-5 9,-5"/>
</a>
</g>
</g>
<!-- RESOURCE_JSON_AUDIT -->
<g id="node2" class="node">
<title>RESOURCE_JSON_AUDIT</title>
<g id="a_node2"><a xlink:href="../../tables/RESOURCE_JSON_AUDIT.html" xlink:title="RESOURCE_JSON_AUDIT" target="_top">
<polygon fill="#ffffff" stroke="transparent" points="10.5,-665 10.5,-975 261.5,-975 261.5,-665 10.5,-665"/>
<polygon fill="#f5f5f5" stroke="transparent" points="13,-950 13,-973 260,-973 260,-950 13,-950"/>
<polygon fill="none" stroke="#000000" points="13,-950 13,-973 260,-973 260,-950 13,-950"/>
<text text-anchor="start" x="18" y="-958.6" font-family="Helvetica,sans-Serif" font-weight="bold" font-size="11.00" fill="#000000">RESOURCE_JSON_AUDIT</text>
<text text-anchor="start" x="225.0437" y="-958.1" font-family="Helvetica,sans-Serif" font-size="11.00" fill="#000000">[table]</text>
<polygon fill="none" stroke="#000000" points="13,-928 13,-950 193,-950 193,-928 13,-928"/>
<image xlink:href="../../images/primaryKeys.png" width="11px" height="12px" preserveAspectRatio="xMinYMin meet" x="18" y="-945"/>
<text text-anchor="start" x="33" y="-935.1" font-family="Helvetica,sans-Serif" font-size="11.00" fill="#000000">ID</text>
<polygon fill="none" stroke="#000000" points="193,-928 193,-950 260,-950 260,-928 193,-928"/>
<text text-anchor="start" x="196" y="-935.7" font-family="Helvetica,sans-Serif" font-size="11.00" fill="#000000">int[10]</text>
<polygon fill="none" stroke="#000000" points="13,-906 13,-928 193,-928 193,-906 13,-906"/>
<text text-anchor="start" x="33" y="-913.1" font-family="Helvetica,sans-Serif" font-size="11.00" fill="#000000">CREATED_TIME</text>
<polygon fill="none" stroke="#000000" points="193,-906 193,-928 260,-928 260,-906 193,-906"/>
<text text-anchor="start" x="196" y="-913.7" font-family="Helvetica,sans-Serif" font-size="11.00" fill="#000000">datetime[26]</text>
<polygon fill="none" stroke="#000000" points="13,-884 13,-906 193,-906 193,-884 13,-884"/>
<text text-anchor="start" x="33" y="-891.1" font-family="Helvetica,sans-Serif" font-size="11.00" fill="#000000">CREATOR_FK</text>
<polygon fill="none" stroke="#000000" points="193,-884 193,-906 260,-906 260,-884 193,-884"/>
<text text-anchor="start" x="196" y="-891.7" font-family="Helvetica,sans-Serif" font-size="11.00" fill="#000000">int[10]</text>
<polygon fill="none" stroke="#000000" points="13,-862 13,-884 193,-884 193,-862 13,-862"/>
<text text-anchor="start" x="33" y="-869.1" font-family="Helvetica,sans-Serif" font-size="11.00" fill="#000000">CREATOR_NAME</text>
<polygon fill="none" stroke="#000000" points="193,-862 193,-884 260,-884 260,-862 193,-862"/>
<text text-anchor="start" x="195.9365" y="-869.7" font-family="Helvetica,sans-Serif" font-size="11.00" fill="#000000">varchar[100]</text>
<polygon fill="none" stroke="#000000" points="13,-840 13,-862 193,-862 193,-840 13,-840"/>
<text text-anchor="start" x="33" y="-847.1" font-family="Helvetica,sans-Serif" font-size="11.00" fill="#000000">MODIFIER_FK</text>
<polygon fill="none" stroke="#000000" points="193,-840 193,-862 260,-862 260,-840 193,-840"/>
<text text-anchor="start" x="196" y="-847.7" font-family="Helvetica,sans-Serif" font-size="11.00" fill="#000000">int[10]</text>
<polygon fill="none" stroke="#000000" points="13,-818 13,-840 193,-840 193,-818 13,-818"/>
<text text-anchor="start" x="33" y="-825.1" font-family="Helvetica,sans-Serif" font-size="11.00" fill="#000000">MODIFIER_NAME</text>
<polygon fill="none" stroke="#000000" points="193,-818 193,-840 260,-840 260,-818 193,-818"/>
<text text-anchor="start" x="195.9365" y="-825.7" font-family="Helvetica,sans-Serif" font-size="11.00" fill="#000000">varchar[100]</text>
<polygon fill="none" stroke="#000000" points="13,-796 13,-818 193,-818 193,-796 13,-796"/>
<text text-anchor="start" x="33" y="-803.1" font-family="Helvetica,sans-Serif" font-size="11.00" fill="#000000">MODIFIED_TIME</text>
<polygon fill="none" stroke="#000000" points="193,-796 193,-818 260,-818 260,-796 193,-796"/>
<text text-anchor="start" x="196" y="-803.7" font-family="Helvetica,sans-Serif" font-size="11.00" fill="#000000">datetime[26]</text>
<polygon fill="none" stroke="#000000" points="13,-774 13,-796 193,-796 193,-774 13,-774"/>
<text text-anchor="start" x="33" y="-781.1" font-family="Helvetica,sans-Serif" font-size="11.00" fill="#000000">USER_NAME</text>
<polygon fill="none" stroke="#000000" points="193,-774 193,-796 260,-796 260,-774 193,-774"/>
<text text-anchor="start" x="195.9365" y="-781.7" font-family="Helvetica,sans-Serif" font-size="11.00" fill="#000000">varchar[100]</text>
<polygon fill="none" stroke="#000000" points="13,-752 13,-774 193,-774 193,-752 13,-752"/>
<text text-anchor="start" x="33" y="-759.1" font-family="Helvetica,sans-Serif" font-size="11.00" fill="#000000">ACTION_TYPE</text>
<polygon fill="none" stroke="#000000" points="193,-752 193,-774 260,-774 260,-752 193,-752"/>
<text text-anchor="start" x="195.9365" y="-759.7" font-family="Helvetica,sans-Serif" font-size="11.00" fill="#000000">varchar[255]</text>
<polygon fill="none" stroke="#000000" points="13,-730 13,-752 193,-752 193,-730 13,-730"/>
<text text-anchor="start" x="33" y="-737.1" font-family="Helvetica,sans-Serif" font-size="11.00" fill="#000000">CONTEXT_JSON</text>
<polygon fill="none" stroke="#000000" points="193,-730 193,-752 260,-752 260,-730 193,-730"/>
<text text-anchor="start" x="195.9365" y="-737.7" font-family="Helvetica,sans-Serif" font-size="11.00" fill="#000000">varchar[255]</text>
<polygon fill="none" stroke="#000000" points="13,-708 13,-730 193,-730 193,-708 13,-708"/>
<text text-anchor="start" x="33" y="-715.1" font-family="Helvetica,sans-Serif" font-size="11.00" fill="#000000">PROCESS</text>
<polygon fill="none" stroke="#000000" points="193,-708 193,-730 260,-730 260,-708 193,-708"/>
<text text-anchor="start" x="196" y="-715.7" font-family="Helvetica,sans-Serif" font-size="11.00" fill="#000000">bit[1]</text>
<polygon fill="none" stroke="#000000" points="13,-686 13,-708 193,-708 193,-686 13,-686"/>
<text text-anchor="start" x="33" y="-693.1" font-family="Helvetica,sans-Serif" font-size="11.00" fill="#000000">VIEW_ID</text>
<polygon fill="none" stroke="#000000" points="193,-686 193,-708 260,-708 260,-686 193,-686"/>
<text text-anchor="start" x="196" y="-693.7" font-family="Helvetica,sans-Serif" font-size="11.00" fill="#000000">varchar[50]</text>
<polygon fill="#ffffff" stroke="transparent" points="13,-667 13,-686 94,-686 94,-667 13,-667"/>
<polygon fill="none" stroke="#000000" points="13,-667 13,-686 94,-686 94,-667 13,-667"/>
<text text-anchor="start" x="16" y="-673.1" font-family="Helvetica,sans-Serif" font-size="11.00" fill="#000000">&lt; 0</text>
<polygon fill="#ffffff" stroke="transparent" points="94,-667 94,-686 193,-686 193,-667 94,-667"/>
<polygon fill="none" stroke="#000000" points="94,-667 94,-686 193,-686 193,-667 94,-667"/>
<text text-anchor="start" x="157.6105" y="-673.1" font-family="Helvetica,sans-Serif" font-size="11.00" fill="#000000">0 rows</text>
<polygon fill="#ffffff" stroke="transparent" points="193,-667 193,-686 260,-686 260,-667 193,-667"/>
<polygon fill="none" stroke="#000000" points="193,-667 193,-686 260,-686 260,-667 193,-667"/>
<text text-anchor="start" x="241.4053" y="-673.1" font-family="Helvetica,sans-Serif" font-size="11.00" fill="#000000">0 &gt;</text>
<polygon fill="none" stroke="#000000" stroke-width="2" points="11.5,-666 11.5,-974 260.5,-974 260.5,-666 11.5,-666"/>
</a>
</g>
</g>
<!-- User -->
<g id="node3" class="node">
<title>User</title>
<g id="a_node3"><a xlink:href="../../tables/User.html" xlink:title="User" target="_top">
<polygon fill="#ffffff" stroke="transparent" points="48.5,-996 48.5,-1152 223.5,-1152 223.5,-996 48.5,-996"/>
<polygon fill="#f5f5f5" stroke="transparent" points="51,-1127 51,-1150 222,-1150 222,-1127 51,-1127"/>
<polygon fill="none" stroke="#000000" points="51,-1127 51,-1150 222,-1150 222,-1127 51,-1127"/>
<text text-anchor="start" x="56" y="-1135.6" font-family="Helvetica,sans-Serif" font-weight="bold" font-size="11.00" fill="#000000">User</text>
<text text-anchor="start" x="187.0437" y="-1135.1" font-family="Helvetica,sans-Serif" font-size="11.00" fill="#000000">[table]</text>
<polygon fill="none" stroke="#000000" points="51,-1105 51,-1127 155,-1127 155,-1105 51,-1105"/>
<image xlink:href="../../images/primaryKeys.png" width="11px" height="12px" preserveAspectRatio="xMinYMin meet" x="56" y="-1122"/>
<text text-anchor="start" x="71" y="-1112.1" font-family="Helvetica,sans-Serif" font-size="11.00" fill="#000000">userid_pk</text>
<polygon fill="none" stroke="#000000" points="155,-1105 155,-1127 222,-1127 222,-1105 155,-1105"/>
<text text-anchor="start" x="158" y="-1112.7" font-family="Helvetica,sans-Serif" font-size="11.00" fill="#000000">int[10]</text>
<polygon fill="none" stroke="#000000" points="51,-1083 51,-1105 155,-1105 155,-1083 51,-1083"/>
<text text-anchor="start" x="71" y="-1090.1" font-family="Helvetica,sans-Serif" font-size="11.00" fill="#000000">firstname</text>
<polygon fill="none" stroke="#000000" points="155,-1083 155,-1105 222,-1105 222,-1083 155,-1083"/>
<text text-anchor="start" x="158" y="-1090.7" font-family="Helvetica,sans-Serif" font-size="11.00" fill="#000000">varchar[50]</text>
<polygon fill="none" stroke="#000000" points="51,-1061 51,-1083 155,-1083 155,-1061 51,-1061"/>
<text text-anchor="start" x="71" y="-1068.1" font-family="Helvetica,sans-Serif" font-size="11.00" fill="#000000">lastname</text>
<polygon fill="none" stroke="#000000" points="155,-1061 155,-1083 222,-1083 222,-1061 155,-1061"/>
<text text-anchor="start" x="158" y="-1068.7" font-family="Helvetica,sans-Serif" font-size="11.00" fill="#000000">varchar[50]</text>
<polygon fill="none" stroke="#000000" points="51,-1039 51,-1061 155,-1061 155,-1039 51,-1039"/>
<text text-anchor="start" x="71" y="-1046.1" font-family="Helvetica,sans-Serif" font-size="11.00" fill="#000000">middlename</text>
<polygon fill="none" stroke="#000000" points="155,-1039 155,-1061 222,-1061 222,-1039 155,-1039"/>
<text text-anchor="start" x="158" y="-1046.7" font-family="Helvetica,sans-Serif" font-size="11.00" fill="#000000">varchar[50]</text>
<polygon fill="none" stroke="#000000" points="51,-1017 51,-1039 155,-1039 155,-1017 51,-1017"/>
<text text-anchor="start" x="71" y="-1024.1" font-family="Helvetica,sans-Serif" font-size="11.00" fill="#000000">username</text>
<polygon fill="none" stroke="#000000" points="155,-1017 155,-1039 222,-1039 222,-1017 155,-1017"/>
<text text-anchor="start" x="157.9365" y="-1024.7" font-family="Helvetica,sans-Serif" font-size="11.00" fill="#000000">varchar[100]</text>
<polygon fill="#ffffff" stroke="transparent" points="51,-998 51,-1017 94,-1017 94,-998 51,-998"/>
<polygon fill="none" stroke="#000000" points="51,-998 51,-1017 94,-1017 94,-998 51,-998"/>
<text text-anchor="start" x="54" y="-1004.1" font-family="Helvetica,sans-Serif" font-size="11.00" fill="#000000">&lt; 0</text>
<polygon fill="#ffffff" stroke="transparent" points="94,-998 94,-1017 155,-1017 155,-998 94,-998"/>
<polygon fill="none" stroke="#000000" points="94,-998 94,-1017 155,-1017 155,-998 94,-998"/>
<text text-anchor="start" x="119.6105" y="-1004.1" font-family="Helvetica,sans-Serif" font-size="11.00" fill="#000000">0 rows</text>
<polygon fill="#ffffff" stroke="transparent" points="155,-998 155,-1017 222,-1017 222,-998 155,-998"/>
<polygon fill="none" stroke="#000000" points="155,-998 155,-1017 222,-1017 222,-998 155,-998"/>
<text text-anchor="start" x="203.4053" y="-1004.1" font-family="Helvetica,sans-Serif" font-size="11.00" fill="#000000">0 &gt;</text>
<polygon fill="none" stroke="#000000" stroke-width="2" points="49.5,-997 49.5,-1151 222.5,-1151 222.5,-997 49.5,-997"/>
</a>
</g>
</g>
</g>
</svg>
