<?xml version="1.0" encoding="UTF-8" standalone="no"?>
<!DOCTYPE svg PUBLIC "-//W3C//DTD SVG 1.1//EN"
 "http://www.w3.org/Graphics/SVG/1.1/DTD/svg11.dtd">
<!-- Generated by graphviz version 2.40.1 (20161225.0304)
 -->
<!-- Title: oneDegreeRelationshipsDiagram Pages: 1 -->
<svg width="491pt" height="237pt"
 viewBox="0.00 0.00 491.00 237.00" xmlns="http://www.w3.org/2000/svg" xmlns:xlink="http://www.w3.org/1999/xlink">
<g id="graph0" class="graph" transform="scale(1 1) rotate(0) translate(4 233)">
<title>oneDegreeRelationshipsDiagram</title>
<polygon fill="#ffffff" stroke="transparent" points="-4,4 -4,-233 487,-233 487,4 -4,4"/>
<!-- HOSTING_DETAILS -->
<g id="node1" class="node">
<title>HOSTING_DETAILS</title>
<g id="a_node1"><a xlink:href="../../tables/HOSTING_DETAILS.html" xlink:title="HOSTING_DETAILS" target="_top">
<polygon fill="#ffffff" stroke="transparent" points="216,-25 216,-225 475,-225 475,-25 216,-25"/>
<polygon fill="#f5f5f5" stroke="transparent" points="218.5,-200 218.5,-223 473.5,-223 473.5,-200 218.5,-200"/>
<polygon fill="none" stroke="#000000" points="218.5,-200 218.5,-223 473.5,-223 473.5,-200 218.5,-200"/>
<text text-anchor="start" x="223.5" y="-208.6" font-family="Helvetica,sans-Serif" font-weight="bold" font-size="11.00" fill="#000000">HOSTING_DETAILS</text>
<text text-anchor="start" x="438.5437" y="-208.1" font-family="Helvetica,sans-Serif" font-size="11.00" fill="#000000">[table]</text>
<polygon fill="none" stroke="#000000" points="218.5,-178 218.5,-200 362.5,-200 362.5,-178 218.5,-178"/>
<image xlink:href="../../images/primaryKeys.png" width="11px" height="12px" preserveAspectRatio="xMinYMin meet" x="223.5" y="-195"/>
<text text-anchor="start" x="238.5" y="-185.1" font-family="Helvetica,sans-Serif" font-size="11.00" fill="#000000">ID</text>
<polygon fill="none" stroke="#000000" points="362.5,-178 362.5,-200 473.5,-200 473.5,-178 362.5,-178"/>
<text text-anchor="start" x="365.5" y="-185.7" font-family="Helvetica,sans-Serif" font-size="11.00" fill="#000000">int[10]</text>
<polygon fill="none" stroke="#000000" points="218.5,-156 218.5,-178 362.5,-178 362.5,-156 218.5,-156"/>
<text text-anchor="start" x="238.5" y="-163.1" font-family="Helvetica,sans-Serif" font-size="11.00" fill="#000000">DELETED</text>
<polygon fill="none" stroke="#000000" points="362.5,-156 362.5,-178 473.5,-178 473.5,-156 362.5,-156"/>
<text text-anchor="start" x="365.5" y="-163.7" font-family="Helvetica,sans-Serif" font-size="11.00" fill="#000000">bit[1]</text>
<polygon fill="none" stroke="#000000" points="218.5,-134 218.5,-156 362.5,-156 362.5,-134 218.5,-134"/>
<text text-anchor="start" x="238.5" y="-141.1" font-family="Helvetica,sans-Serif" font-size="11.00" fill="#000000">CUSTOMER_ID</text>
<polygon fill="none" stroke="#000000" points="362.5,-134 362.5,-156 473.5,-156 473.5,-134 362.5,-134"/>
<text text-anchor="start" x="365.5" y="-141.7" font-family="Helvetica,sans-Serif" font-size="11.00" fill="#000000">int[10]</text>
<polygon fill="#ffffff" stroke="transparent" points="218.5,-112 218.5,-134 362.5,-134 362.5,-112 218.5,-112"/>
<polygon fill="none" stroke="#000000" points="218.5,-112 218.5,-134 362.5,-134 362.5,-112 218.5,-112"/>
<image xlink:href="../../images/foreignKeys.png" width="11px" height="12px" preserveAspectRatio="xMinYMin meet" x="223.5" y="-129"/>
<text text-anchor="start" x="238.5" y="-119.1" font-family="Helvetica,sans-Serif" font-size="11.00" fill="#000000">APP_ID</text>
<polygon fill="none" stroke="#000000" points="362.5,-112 362.5,-134 473.5,-134 473.5,-112 362.5,-112"/>
<text text-anchor="start" x="365.5" y="-119.7" font-family="Helvetica,sans-Serif" font-size="11.00" fill="#000000">int[10]</text>
<polygon fill="none" stroke="#000000" points="218.5,-90 218.5,-112 362.5,-112 362.5,-90 218.5,-90"/>
<text text-anchor="start" x="238.5" y="-97.1" font-family="Helvetica,sans-Serif" font-size="11.00" fill="#000000">ENVIRONMENT</text>
<polygon fill="none" stroke="#000000" points="362.5,-90 362.5,-112 473.5,-112 473.5,-90 362.5,-90"/>
<text text-anchor="start" x="365.5" y="-97.7" font-family="Helvetica,sans-Serif" font-size="11.00" fill="#000000">varchar[50]</text>
<polygon fill="none" stroke="#000000" points="218.5,-68 218.5,-90 362.5,-90 362.5,-68 218.5,-68"/>
<text text-anchor="start" x="238.5" y="-75.1" font-family="Helvetica,sans-Serif" font-size="11.00" fill="#000000">DOMAIN</text>
<polygon fill="none" stroke="#000000" points="362.5,-68 362.5,-90 473.5,-90 473.5,-68 362.5,-68"/>
<text text-anchor="start" x="365.5" y="-75.7" font-family="Helvetica,sans-Serif" font-size="11.00" fill="#000000">varchar[255]</text>
<polygon fill="none" stroke="#000000" points="218.5,-46 218.5,-68 362.5,-68 362.5,-46 218.5,-46"/>
<text text-anchor="start" x="238.5" y="-53.1" font-family="Helvetica,sans-Serif" font-size="11.00" fill="#000000">SSL_CERTIFICATE</text>
<polygon fill="none" stroke="#000000" points="362.5,-46 362.5,-68 473.5,-68 473.5,-46 362.5,-46"/>
<text text-anchor="start" x="365.1115" y="-53.7" font-family="Helvetica,sans-Serif" font-size="11.00" fill="#000000">longtext[2147483647]</text>
<polygon fill="#ffffff" stroke="transparent" points="218.5,-27 218.5,-46 281.5,-46 281.5,-27 218.5,-27"/>
<polygon fill="none" stroke="#000000" points="218.5,-27 218.5,-46 281.5,-46 281.5,-27 218.5,-27"/>
<text text-anchor="start" x="221.5" y="-33.1" font-family="Helvetica,sans-Serif" font-size="11.00" fill="#000000">&lt; 1</text>
<polygon fill="#ffffff" stroke="transparent" points="281.5,-27 281.5,-46 362.5,-46 362.5,-27 281.5,-27"/>
<polygon fill="none" stroke="#000000" points="281.5,-27 281.5,-46 362.5,-46 362.5,-27 281.5,-27"/>
<text text-anchor="start" x="327.1105" y="-33.1" font-family="Helvetica,sans-Serif" font-size="11.00" fill="#000000">0 rows</text>
<polygon fill="#ffffff" stroke="transparent" points="362.5,-27 362.5,-46 473.5,-46 473.5,-27 362.5,-27"/>
<polygon fill="none" stroke="#000000" points="362.5,-27 362.5,-46 473.5,-46 473.5,-27 362.5,-27"/>
<text text-anchor="start" x="454.9053" y="-33.1" font-family="Helvetica,sans-Serif" font-size="11.00" fill="#000000">0 &gt;</text>
<polygon fill="none" stroke="#000000" stroke-width="2" points="217,-26 217,-224 474,-224 474,-26 217,-26"/>
</a>
</g>
</g>
<!-- MINIAPP_DETAILS -->
<g id="node2" class="node">
<title>MINIAPP_DETAILS</title>
<g id="a_node2"><a xlink:href="../../tables/MINIAPP_DETAILS.html" xlink:title="MINIAPP_DETAILS" target="_top">
<polygon fill="#ffffff" stroke="transparent" points="8,-74.5 8,-157.5 167,-157.5 167,-74.5 8,-74.5"/>
<polygon fill="#f5f5f5" stroke="transparent" points="8.5,-134 8.5,-157 167.5,-157 167.5,-134 8.5,-134"/>
<polygon fill="none" stroke="#000000" points="8.5,-134 8.5,-157 167.5,-157 167.5,-134 8.5,-134"/>
<text text-anchor="start" x="13.5" y="-142.6" font-family="Helvetica,sans-Serif" font-weight="bold" font-size="11.00" fill="#000000">MINIAPP_DETAILS</text>
<text text-anchor="start" x="133.0219" y="-142.1" font-family="Helvetica,sans-Serif" font-size="11.00" fill="#000000">[table]</text>
<polygon fill="none" stroke="#000000" points="8.5,-112 8.5,-134 167.5,-134 167.5,-112 8.5,-112"/>
<image xlink:href="../../images/primaryKeys.png" width="11px" height="12px" preserveAspectRatio="xMinYMin meet" x="13.5" y="-129"/>
<text text-anchor="start" x="36.5" y="-119.1" font-family="Helvetica,sans-Serif" font-size="11.00" fill="#000000">ID</text>
<polygon fill="none" stroke="#000000" points="8.5,-93 8.5,-112 167.5,-112 167.5,-93 8.5,-93"/>
<text text-anchor="start" x="11.5" y="-99.1" font-family="Helvetica,sans-Serif" font-size="11.00" fill="#000000">...</text>
<polygon fill="#ffffff" stroke="transparent" points="8.5,-74 8.5,-93 64.5,-93 64.5,-74 8.5,-74"/>
<polygon fill="none" stroke="#000000" points="8.5,-74 8.5,-93 64.5,-93 64.5,-74 8.5,-74"/>
<text text-anchor="start" x="11.5" y="-80.1" font-family="Helvetica,sans-Serif" font-size="11.00" fill="#000000"> &#160;</text>
<polygon fill="#ffffff" stroke="transparent" points="64.5,-74 64.5,-93 124.5,-93 124.5,-74 64.5,-74"/>
<polygon fill="none" stroke="#000000" points="64.5,-74 64.5,-93 124.5,-93 124.5,-74 64.5,-74"/>
<text text-anchor="start" x="89.1105" y="-80.1" font-family="Helvetica,sans-Serif" font-size="11.00" fill="#000000">0 rows</text>
<polygon fill="#ffffff" stroke="transparent" points="124.5,-74 124.5,-93 167.5,-93 167.5,-74 124.5,-74"/>
<polygon fill="none" stroke="#000000" points="124.5,-74 124.5,-93 167.5,-93 167.5,-74 124.5,-74"/>
<text text-anchor="start" x="148.9053" y="-80.1" font-family="Helvetica,sans-Serif" font-size="11.00" fill="#000000">2 &gt;</text>
</a>
</g>
</g>
<!-- HOSTING_DETAILS&#45;&gt;MINIAPP_DETAILS -->
<g id="edge1" class="edge">
<title>HOSTING_DETAILS:w&#45;&gt;MINIAPP_DETAILS:e</title>
<path fill="none" stroke="#000000" d="M203.776,-123C191.7815,-123 184.3229,-123 167.5,-123"/>
<polygon fill="#000000" stroke="#000000" points="210.5,-123.0001 218.5,-126.6 214.5,-123 218.5,-123 218.5,-123 218.5,-123 214.5,-123 218.5,-119.4 210.5,-123.0001 210.5,-123.0001"/>
<ellipse fill="none" stroke="#000000" cx="207.3" cy="-123.0001" rx="3.2" ry="3.2"/>
</g>
</g>
</svg>
