<?xml version="1.0" encoding="UTF-8" standalone="no"?>
<!DOCTYPE svg PUBLIC "-//W3C//DTD SVG 1.1//EN"
 "http://www.w3.org/Graphics/SVG/1.1/DTD/svg11.dtd">
<!-- Generated by graphviz version 2.40.1 (20161225.0304)
 -->
<!-- Title: twoDegreesRelationshipsDiagram Pages: 1 -->
<svg width="491pt" height="320pt"
 viewBox="0.00 0.00 491.00 319.50" xmlns="http://www.w3.org/2000/svg" xmlns:xlink="http://www.w3.org/1999/xlink">
<g id="graph0" class="graph" transform="scale(1 1) rotate(0) translate(4 315.5)">
<title>twoDegreesRelationshipsDiagram</title>
<polygon fill="#ffffff" stroke="transparent" points="-4,4 -4,-315.5 487,-315.5 487,4 -4,4"/>
<!-- HOSTING_DETAILS -->
<g id="node1" class="node">
<title>HOSTING_DETAILS</title>
<g id="a_node1"><a xlink:href="../../tables/HOSTING_DETAILS.html" xlink:title="HOSTING_DETAILS" target="_top">
<polygon fill="#ffffff" stroke="transparent" points="216,-107.5 216,-307.5 475,-307.5 475,-107.5 216,-107.5"/>
<polygon fill="#f5f5f5" stroke="transparent" points="218.5,-282.5 218.5,-305.5 473.5,-305.5 473.5,-282.5 218.5,-282.5"/>
<polygon fill="none" stroke="#000000" points="218.5,-282.5 218.5,-305.5 473.5,-305.5 473.5,-282.5 218.5,-282.5"/>
<text text-anchor="start" x="223.5" y="-291.1" font-family="Helvetica,sans-Serif" font-weight="bold" font-size="11.00" fill="#000000">HOSTING_DETAILS</text>
<text text-anchor="start" x="438.5437" y="-290.6" font-family="Helvetica,sans-Serif" font-size="11.00" fill="#000000">[table]</text>
<polygon fill="none" stroke="#000000" points="218.5,-260.5 218.5,-282.5 362.5,-282.5 362.5,-260.5 218.5,-260.5"/>
<image xlink:href="../../images/primaryKeys.png" width="11px" height="12px" preserveAspectRatio="xMinYMin meet" x="223.5" y="-277.5"/>
<text text-anchor="start" x="238.5" y="-267.6" font-family="Helvetica,sans-Serif" font-size="11.00" fill="#000000">ID</text>
<polygon fill="none" stroke="#000000" points="362.5,-260.5 362.5,-282.5 473.5,-282.5 473.5,-260.5 362.5,-260.5"/>
<text text-anchor="start" x="365.5" y="-268.2" font-family="Helvetica,sans-Serif" font-size="11.00" fill="#000000">int[10]</text>
<polygon fill="none" stroke="#000000" points="218.5,-238.5 218.5,-260.5 362.5,-260.5 362.5,-238.5 218.5,-238.5"/>
<text text-anchor="start" x="238.5" y="-245.6" font-family="Helvetica,sans-Serif" font-size="11.00" fill="#000000">DELETED</text>
<polygon fill="none" stroke="#000000" points="362.5,-238.5 362.5,-260.5 473.5,-260.5 473.5,-238.5 362.5,-238.5"/>
<text text-anchor="start" x="365.5" y="-246.2" font-family="Helvetica,sans-Serif" font-size="11.00" fill="#000000">bit[1]</text>
<polygon fill="none" stroke="#000000" points="218.5,-216.5 218.5,-238.5 362.5,-238.5 362.5,-216.5 218.5,-216.5"/>
<text text-anchor="start" x="238.5" y="-223.6" font-family="Helvetica,sans-Serif" font-size="11.00" fill="#000000">CUSTOMER_ID</text>
<polygon fill="none" stroke="#000000" points="362.5,-216.5 362.5,-238.5 473.5,-238.5 473.5,-216.5 362.5,-216.5"/>
<text text-anchor="start" x="365.5" y="-224.2" font-family="Helvetica,sans-Serif" font-size="11.00" fill="#000000">int[10]</text>
<polygon fill="#ffffff" stroke="transparent" points="218.5,-194.5 218.5,-216.5 362.5,-216.5 362.5,-194.5 218.5,-194.5"/>
<polygon fill="none" stroke="#000000" points="218.5,-194.5 218.5,-216.5 362.5,-216.5 362.5,-194.5 218.5,-194.5"/>
<image xlink:href="../../images/foreignKeys.png" width="11px" height="12px" preserveAspectRatio="xMinYMin meet" x="223.5" y="-211.5"/>
<text text-anchor="start" x="238.5" y="-201.6" font-family="Helvetica,sans-Serif" font-size="11.00" fill="#000000">APP_ID</text>
<polygon fill="none" stroke="#000000" points="362.5,-194.5 362.5,-216.5 473.5,-216.5 473.5,-194.5 362.5,-194.5"/>
<text text-anchor="start" x="365.5" y="-202.2" font-family="Helvetica,sans-Serif" font-size="11.00" fill="#000000">int[10]</text>
<polygon fill="none" stroke="#000000" points="218.5,-172.5 218.5,-194.5 362.5,-194.5 362.5,-172.5 218.5,-172.5"/>
<text text-anchor="start" x="238.5" y="-179.6" font-family="Helvetica,sans-Serif" font-size="11.00" fill="#000000">ENVIRONMENT</text>
<polygon fill="none" stroke="#000000" points="362.5,-172.5 362.5,-194.5 473.5,-194.5 473.5,-172.5 362.5,-172.5"/>
<text text-anchor="start" x="365.5" y="-180.2" font-family="Helvetica,sans-Serif" font-size="11.00" fill="#000000">varchar[50]</text>
<polygon fill="none" stroke="#000000" points="218.5,-150.5 218.5,-172.5 362.5,-172.5 362.5,-150.5 218.5,-150.5"/>
<text text-anchor="start" x="238.5" y="-157.6" font-family="Helvetica,sans-Serif" font-size="11.00" fill="#000000">DOMAIN</text>
<polygon fill="none" stroke="#000000" points="362.5,-150.5 362.5,-172.5 473.5,-172.5 473.5,-150.5 362.5,-150.5"/>
<text text-anchor="start" x="365.5" y="-158.2" font-family="Helvetica,sans-Serif" font-size="11.00" fill="#000000">varchar[255]</text>
<polygon fill="none" stroke="#000000" points="218.5,-128.5 218.5,-150.5 362.5,-150.5 362.5,-128.5 218.5,-128.5"/>
<text text-anchor="start" x="238.5" y="-135.6" font-family="Helvetica,sans-Serif" font-size="11.00" fill="#000000">SSL_CERTIFICATE</text>
<polygon fill="none" stroke="#000000" points="362.5,-128.5 362.5,-150.5 473.5,-150.5 473.5,-128.5 362.5,-128.5"/>
<text text-anchor="start" x="365.1115" y="-136.2" font-family="Helvetica,sans-Serif" font-size="11.00" fill="#000000">longtext[2147483647]</text>
<polygon fill="#ffffff" stroke="transparent" points="218.5,-109.5 218.5,-128.5 281.5,-128.5 281.5,-109.5 218.5,-109.5"/>
<polygon fill="none" stroke="#000000" points="218.5,-109.5 218.5,-128.5 281.5,-128.5 281.5,-109.5 218.5,-109.5"/>
<text text-anchor="start" x="221.5" y="-115.6" font-family="Helvetica,sans-Serif" font-size="11.00" fill="#000000">&lt; 1</text>
<polygon fill="#ffffff" stroke="transparent" points="281.5,-109.5 281.5,-128.5 362.5,-128.5 362.5,-109.5 281.5,-109.5"/>
<polygon fill="none" stroke="#000000" points="281.5,-109.5 281.5,-128.5 362.5,-128.5 362.5,-109.5 281.5,-109.5"/>
<text text-anchor="start" x="327.1105" y="-115.6" font-family="Helvetica,sans-Serif" font-size="11.00" fill="#000000">0 rows</text>
<polygon fill="#ffffff" stroke="transparent" points="362.5,-109.5 362.5,-128.5 473.5,-128.5 473.5,-109.5 362.5,-109.5"/>
<polygon fill="none" stroke="#000000" points="362.5,-109.5 362.5,-128.5 473.5,-128.5 473.5,-109.5 362.5,-109.5"/>
<text text-anchor="start" x="454.9053" y="-115.6" font-family="Helvetica,sans-Serif" font-size="11.00" fill="#000000">0 &gt;</text>
<polygon fill="none" stroke="#000000" stroke-width="2" points="217,-108.5 217,-306.5 474,-306.5 474,-108.5 217,-108.5"/>
</a>
</g>
</g>
<!-- MINIAPP_DETAILS -->
<g id="node2" class="node">
<title>MINIAPP_DETAILS</title>
<g id="a_node2"><a xlink:href="../../tables/MINIAPP_DETAILS.html" xlink:title="MINIAPP_DETAILS" target="_top">
<polygon fill="#ffffff" stroke="transparent" points="8,-80 8,-163 167,-163 167,-80 8,-80"/>
<polygon fill="#f5f5f5" stroke="transparent" points="8.5,-139.5 8.5,-162.5 167.5,-162.5 167.5,-139.5 8.5,-139.5"/>
<polygon fill="none" stroke="#000000" points="8.5,-139.5 8.5,-162.5 167.5,-162.5 167.5,-139.5 8.5,-139.5"/>
<text text-anchor="start" x="13.5" y="-148.1" font-family="Helvetica,sans-Serif" font-weight="bold" font-size="11.00" fill="#000000">MINIAPP_DETAILS</text>
<text text-anchor="start" x="133.0219" y="-147.6" font-family="Helvetica,sans-Serif" font-size="11.00" fill="#000000">[table]</text>
<polygon fill="none" stroke="#000000" points="8.5,-117.5 8.5,-139.5 167.5,-139.5 167.5,-117.5 8.5,-117.5"/>
<image xlink:href="../../images/primaryKeys.png" width="11px" height="12px" preserveAspectRatio="xMinYMin meet" x="13.5" y="-134.5"/>
<text text-anchor="start" x="36.5" y="-124.6" font-family="Helvetica,sans-Serif" font-size="11.00" fill="#000000">ID</text>
<polygon fill="none" stroke="#000000" points="8.5,-98.5 8.5,-117.5 167.5,-117.5 167.5,-98.5 8.5,-98.5"/>
<text text-anchor="start" x="11.5" y="-104.6" font-family="Helvetica,sans-Serif" font-size="11.00" fill="#000000">...</text>
<polygon fill="#ffffff" stroke="transparent" points="8.5,-79.5 8.5,-98.5 64.5,-98.5 64.5,-79.5 8.5,-79.5"/>
<polygon fill="none" stroke="#000000" points="8.5,-79.5 8.5,-98.5 64.5,-98.5 64.5,-79.5 8.5,-79.5"/>
<text text-anchor="start" x="11.5" y="-85.6" font-family="Helvetica,sans-Serif" font-size="11.00" fill="#000000"> &#160;</text>
<polygon fill="#ffffff" stroke="transparent" points="64.5,-79.5 64.5,-98.5 124.5,-98.5 124.5,-79.5 64.5,-79.5"/>
<polygon fill="none" stroke="#000000" points="64.5,-79.5 64.5,-98.5 124.5,-98.5 124.5,-79.5 64.5,-79.5"/>
<text text-anchor="start" x="89.1105" y="-85.6" font-family="Helvetica,sans-Serif" font-size="11.00" fill="#000000">0 rows</text>
<polygon fill="#ffffff" stroke="transparent" points="124.5,-79.5 124.5,-98.5 167.5,-98.5 167.5,-79.5 124.5,-79.5"/>
<polygon fill="none" stroke="#000000" points="124.5,-79.5 124.5,-98.5 167.5,-98.5 167.5,-79.5 124.5,-79.5"/>
<text text-anchor="start" x="148.9053" y="-85.6" font-family="Helvetica,sans-Serif" font-size="11.00" fill="#000000">2 &gt;</text>
</a>
</g>
</g>
<!-- HOSTING_DETAILS&#45;&gt;MINIAPP_DETAILS -->
<g id="edge1" class="edge">
<title>HOSTING_DETAILS:w&#45;&gt;MINIAPP_DETAILS:e</title>
<path fill="none" stroke="#000000" d="M204.5177,-200.9139C185.094,-184.3372 202.4549,-128.5 167.5,-128.5"/>
<polygon fill="#000000" stroke="#000000" points="210.8984,-203.0067 217.378,-208.9207 214.6992,-204.2534 218.5,-205.5 218.5,-205.5 218.5,-205.5 214.6992,-204.2534 219.622,-202.0793 210.8984,-203.0067 210.8984,-203.0067"/>
<ellipse fill="none" stroke="#000000" cx="207.8578" cy="-202.0094" rx="3.2" ry="3.2"/>
</g>
<!-- MINIAPP_BUILD_DETAILS -->
<g id="node3" class="node">
<title>MINIAPP_BUILD_DETAILS</title>
<g id="a_node3"><a xlink:href="../../tables/MINIAPP_BUILD_DETAILS.html" xlink:title="MINIAPP_BUILD_DETAILS" target="_top">
<polygon fill="#ffffff" stroke="transparent" points="242.5,-25 242.5,-86 448.5,-86 448.5,-25 242.5,-25"/>
<polygon fill="#f5f5f5" stroke="transparent" points="242.5,-62.5 242.5,-85.5 448.5,-85.5 448.5,-62.5 242.5,-62.5"/>
<polygon fill="none" stroke="#000000" points="242.5,-62.5 242.5,-85.5 448.5,-85.5 448.5,-62.5 242.5,-62.5"/>
<text text-anchor="start" x="247.5" y="-71.1" font-family="Helvetica,sans-Serif" font-weight="bold" font-size="11.00" fill="#000000">MINIAPP_BUILD_DETAILS</text>
<text text-anchor="start" x="414.0219" y="-70.6" font-family="Helvetica,sans-Serif" font-size="11.00" fill="#000000">[table]</text>
<polygon fill="none" stroke="#000000" points="242.5,-43.5 242.5,-62.5 448.5,-62.5 448.5,-43.5 242.5,-43.5"/>
<text text-anchor="start" x="245.5" y="-49.6" font-family="Helvetica,sans-Serif" font-size="11.00" fill="#000000">...</text>
<polygon fill="#ffffff" stroke="transparent" points="242.5,-24.5 242.5,-43.5 330.5,-43.5 330.5,-24.5 242.5,-24.5"/>
<polygon fill="none" stroke="#000000" points="242.5,-24.5 242.5,-43.5 330.5,-43.5 330.5,-24.5 242.5,-24.5"/>
<text text-anchor="start" x="245.5" y="-30.6" font-family="Helvetica,sans-Serif" font-size="11.00" fill="#000000">&lt; 1</text>
<polygon fill="#ffffff" stroke="transparent" points="330.5,-24.5 330.5,-43.5 402.5,-43.5 402.5,-24.5 330.5,-24.5"/>
<polygon fill="none" stroke="#000000" points="330.5,-24.5 330.5,-43.5 402.5,-43.5 402.5,-24.5 330.5,-24.5"/>
<text text-anchor="start" x="367.1105" y="-30.6" font-family="Helvetica,sans-Serif" font-size="11.00" fill="#000000">0 rows</text>
<polygon fill="#ffffff" stroke="transparent" points="402.5,-24.5 402.5,-43.5 448.5,-43.5 448.5,-24.5 402.5,-24.5"/>
<polygon fill="none" stroke="#000000" points="402.5,-24.5 402.5,-43.5 448.5,-43.5 448.5,-24.5 402.5,-24.5"/>
<text text-anchor="start" x="439.3862" y="-30.6" font-family="Helvetica,sans-Serif" font-size="11.00" fill="#000000"> &#160;</text>
</a>
</g>
</g>
<!-- MINIAPP_BUILD_DETAILS&#45;&gt;MINIAPP_DETAILS -->
<g id="edge2" class="edge">
<title>MINIAPP_BUILD_DETAILS:w&#45;&gt;MINIAPP_DETAILS:e</title>
<path fill="none" stroke="#000000" d="M228.3749,-55.3865C198.7859,-69.2688 209.3945,-128.5 167.5,-128.5"/>
<polygon fill="#000000" stroke="#000000" points="234.662,-54.1018 243.2208,-56.0271 238.581,-53.3009 242.5,-52.5 242.5,-52.5 242.5,-52.5 238.581,-53.3009 241.7792,-48.9729 234.662,-54.1018 234.662,-54.1018"/>
<ellipse fill="none" stroke="#000000" cx="231.5268" cy="-54.7425" rx="3.2" ry="3.2"/>
</g>
</g>
</svg>
