<?xml version="1.0" encoding="UTF-8" standalone="no"?>
<!DOCTYPE svg PUBLIC "-//W3C//DTD SVG 1.1//EN"
 "http://www.w3.org/Graphics/SVG/1.1/DTD/svg11.dtd">
<!-- Generated by graphviz version 2.40.1 (20161225.0304)
 -->
<!-- Title: twoDegreesRelationshipsDiagram Pages: 1 -->
<svg width="465pt" height="616pt"
 viewBox="0.00 0.00 465.00 615.50" xmlns="http://www.w3.org/2000/svg" xmlns:xlink="http://www.w3.org/1999/xlink">
<g id="graph0" class="graph" transform="scale(1 1) rotate(0) translate(4 611.5)">
<title>twoDegreesRelationshipsDiagram</title>
<polygon fill="#ffffff" stroke="transparent" points="-4,4 -4,-611.5 461,-611.5 461,4 -4,4"/>
<!-- HOSTING_DETAILS_AUD -->
<g id="node1" class="node">
<title>HOSTING_DETAILS_AUD</title>
<g id="a_node1"><a xlink:href="../../tables/HOSTING_DETAILS_AUD.html" xlink:title="HOSTING_DETAILS_AUD" target="_top">
<polygon fill="#ffffff" stroke="transparent" points="155,-271.5 155,-603.5 449,-603.5 449,-271.5 155,-271.5"/>
<polygon fill="#f5f5f5" stroke="transparent" points="157,-578.5 157,-601.5 447,-601.5 447,-578.5 157,-578.5"/>
<polygon fill="none" stroke="#000000" points="157,-578.5 157,-601.5 447,-601.5 447,-578.5 157,-578.5"/>
<text text-anchor="start" x="162" y="-587.1" font-family="Helvetica,sans-Serif" font-weight="bold" font-size="11.00" fill="#000000">HOSTING_DETAILS_AUD</text>
<text text-anchor="start" x="412.0437" y="-586.6" font-family="Helvetica,sans-Serif" font-size="11.00" fill="#000000">[table]</text>
<polygon fill="none" stroke="#000000" points="157,-556.5 157,-578.5 336,-578.5 336,-556.5 157,-556.5"/>
<image xlink:href="../../images/primaryKeys.png" width="11px" height="12px" preserveAspectRatio="xMinYMin meet" x="162" y="-573.5"/>
<text text-anchor="start" x="177" y="-563.6" font-family="Helvetica,sans-Serif" font-size="11.00" fill="#000000">id</text>
<polygon fill="none" stroke="#000000" points="336,-556.5 336,-578.5 447,-578.5 447,-556.5 336,-556.5"/>
<text text-anchor="start" x="339" y="-564.2" font-family="Helvetica,sans-Serif" font-size="11.00" fill="#000000">int[10]</text>
<polygon fill="none" stroke="#000000" points="157,-534.5 157,-556.5 336,-556.5 336,-534.5 157,-534.5"/>
<image xlink:href="../../images/primaryKeys.png" width="11px" height="12px" preserveAspectRatio="xMinYMin meet" x="162" y="-551.5"/>
<text text-anchor="start" x="177" y="-541.6" font-family="Helvetica,sans-Serif" font-size="11.00" fill="#000000">REV</text>
<polygon fill="none" stroke="#000000" points="336,-534.5 336,-556.5 447,-556.5 447,-534.5 336,-534.5"/>
<text text-anchor="start" x="339" y="-542.2" font-family="Helvetica,sans-Serif" font-size="11.00" fill="#000000">int[10]</text>
<polygon fill="none" stroke="#000000" points="157,-512.5 157,-534.5 336,-534.5 336,-512.5 157,-512.5"/>
<text text-anchor="start" x="177" y="-519.6" font-family="Helvetica,sans-Serif" font-size="11.00" fill="#000000">REVTYPE</text>
<polygon fill="none" stroke="#000000" points="336,-512.5 336,-534.5 447,-534.5 447,-512.5 336,-512.5"/>
<text text-anchor="start" x="339" y="-520.2" font-family="Helvetica,sans-Serif" font-size="11.00" fill="#000000">tinyint[3]</text>
<polygon fill="none" stroke="#000000" points="157,-490.5 157,-512.5 336,-512.5 336,-490.5 157,-490.5"/>
<text text-anchor="start" x="177" y="-497.6" font-family="Helvetica,sans-Serif" font-size="11.00" fill="#000000">CREATED_TIME</text>
<polygon fill="none" stroke="#000000" points="336,-490.5 336,-512.5 447,-512.5 447,-490.5 336,-490.5"/>
<text text-anchor="start" x="339" y="-498.2" font-family="Helvetica,sans-Serif" font-size="11.00" fill="#000000">datetime[26]</text>
<polygon fill="none" stroke="#000000" points="157,-468.5 157,-490.5 336,-490.5 336,-468.5 157,-468.5"/>
<text text-anchor="start" x="177" y="-475.6" font-family="Helvetica,sans-Serif" font-size="11.00" fill="#000000">MODIFIED_TIME</text>
<polygon fill="none" stroke="#000000" points="336,-468.5 336,-490.5 447,-490.5 447,-468.5 336,-468.5"/>
<text text-anchor="start" x="339" y="-476.2" font-family="Helvetica,sans-Serif" font-size="11.00" fill="#000000">datetime[26]</text>
<polygon fill="none" stroke="#000000" points="157,-446.5 157,-468.5 336,-468.5 336,-446.5 157,-446.5"/>
<text text-anchor="start" x="177" y="-453.6" font-family="Helvetica,sans-Serif" font-size="11.00" fill="#000000">CUSTOMER_ID</text>
<polygon fill="none" stroke="#000000" points="336,-446.5 336,-468.5 447,-468.5 447,-446.5 336,-446.5"/>
<text text-anchor="start" x="339" y="-454.2" font-family="Helvetica,sans-Serif" font-size="11.00" fill="#000000">int[10]</text>
<polygon fill="none" stroke="#000000" points="157,-424.5 157,-446.5 336,-446.5 336,-424.5 157,-424.5"/>
<text text-anchor="start" x="177" y="-431.6" font-family="Helvetica,sans-Serif" font-size="11.00" fill="#000000">deleted</text>
<polygon fill="none" stroke="#000000" points="336,-424.5 336,-446.5 447,-446.5 447,-424.5 336,-424.5"/>
<text text-anchor="start" x="339" y="-432.2" font-family="Helvetica,sans-Serif" font-size="11.00" fill="#000000">bit[1]</text>
<polygon fill="none" stroke="#000000" points="157,-402.5 157,-424.5 336,-424.5 336,-402.5 157,-402.5"/>
<text text-anchor="start" x="177" y="-409.6" font-family="Helvetica,sans-Serif" font-size="11.00" fill="#000000">domain</text>
<polygon fill="none" stroke="#000000" points="336,-402.5 336,-424.5 447,-424.5 447,-402.5 336,-402.5"/>
<text text-anchor="start" x="339" y="-410.2" font-family="Helvetica,sans-Serif" font-size="11.00" fill="#000000">varchar[255]</text>
<polygon fill="none" stroke="#000000" points="157,-380.5 157,-402.5 336,-402.5 336,-380.5 157,-380.5"/>
<text text-anchor="start" x="177" y="-387.6" font-family="Helvetica,sans-Serif" font-size="11.00" fill="#000000">environment</text>
<polygon fill="none" stroke="#000000" points="336,-380.5 336,-402.5 447,-402.5 447,-380.5 336,-380.5"/>
<text text-anchor="start" x="339" y="-388.2" font-family="Helvetica,sans-Serif" font-size="11.00" fill="#000000">varchar[50]</text>
<polygon fill="none" stroke="#000000" points="157,-358.5 157,-380.5 336,-380.5 336,-358.5 157,-358.5"/>
<text text-anchor="start" x="177" y="-365.6" font-family="Helvetica,sans-Serif" font-size="11.00" fill="#000000">SSL_CERTIFICATE</text>
<polygon fill="none" stroke="#000000" points="336,-358.5 336,-380.5 447,-380.5 447,-358.5 336,-358.5"/>
<text text-anchor="start" x="338.6115" y="-366.2" font-family="Helvetica,sans-Serif" font-size="11.00" fill="#000000">longtext[2147483647]</text>
<polygon fill="none" stroke="#000000" points="157,-336.5 157,-358.5 336,-358.5 336,-336.5 157,-336.5"/>
<text text-anchor="start" x="177" y="-343.6" font-family="Helvetica,sans-Serif" font-size="11.00" fill="#000000">CREATOR</text>
<polygon fill="none" stroke="#000000" points="336,-336.5 336,-358.5 447,-358.5 447,-336.5 336,-336.5"/>
<text text-anchor="start" x="339" y="-344.2" font-family="Helvetica,sans-Serif" font-size="11.00" fill="#000000">int[10]</text>
<polygon fill="none" stroke="#000000" points="157,-314.5 157,-336.5 336,-336.5 336,-314.5 157,-314.5"/>
<text text-anchor="start" x="177" y="-321.6" font-family="Helvetica,sans-Serif" font-size="11.00" fill="#000000">LAST_MODIFIER</text>
<polygon fill="none" stroke="#000000" points="336,-314.5 336,-336.5 447,-336.5 447,-314.5 336,-314.5"/>
<text text-anchor="start" x="339" y="-322.2" font-family="Helvetica,sans-Serif" font-size="11.00" fill="#000000">int[10]</text>
<polygon fill="none" stroke="#000000" points="157,-292.5 157,-314.5 336,-314.5 336,-292.5 157,-292.5"/>
<text text-anchor="start" x="177" y="-299.6" font-family="Helvetica,sans-Serif" font-size="11.00" fill="#000000">APP_ID</text>
<polygon fill="none" stroke="#000000" points="336,-292.5 336,-314.5 447,-314.5 447,-292.5 336,-292.5"/>
<text text-anchor="start" x="339" y="-300.2" font-family="Helvetica,sans-Serif" font-size="11.00" fill="#000000">int[10]</text>
<polygon fill="#ffffff" stroke="transparent" points="157,-273.5 157,-292.5 238,-292.5 238,-273.5 157,-273.5"/>
<polygon fill="none" stroke="#000000" points="157,-273.5 157,-292.5 238,-292.5 238,-273.5 157,-273.5"/>
<text text-anchor="start" x="160" y="-279.6" font-family="Helvetica,sans-Serif" font-size="11.00" fill="#000000">&lt; 1</text>
<polygon fill="#ffffff" stroke="transparent" points="238,-273.5 238,-292.5 336,-292.5 336,-273.5 238,-273.5"/>
<polygon fill="none" stroke="#000000" points="238,-273.5 238,-292.5 336,-292.5 336,-273.5 238,-273.5"/>
<text text-anchor="start" x="300.6105" y="-279.6" font-family="Helvetica,sans-Serif" font-size="11.00" fill="#000000">0 rows</text>
<polygon fill="#ffffff" stroke="transparent" points="336,-273.5 336,-292.5 447,-292.5 447,-273.5 336,-273.5"/>
<polygon fill="none" stroke="#000000" points="336,-273.5 336,-292.5 447,-292.5 447,-273.5 336,-273.5"/>
<text text-anchor="start" x="428.4053" y="-279.6" font-family="Helvetica,sans-Serif" font-size="11.00" fill="#000000">0 &gt;</text>
<polygon fill="none" stroke="#000000" stroke-width="2" points="156,-272.5 156,-602.5 448,-602.5 448,-272.5 156,-272.5"/>
</a>
</g>
</g>
<!-- REVINFO -->
<g id="node2" class="node">
<title>REVINFO</title>
<g id="a_node2"><a xlink:href="../../tables/REVINFO.html" xlink:title="REVINFO" target="_top">
<polygon fill="#ffffff" stroke="transparent" points="8,-127 8,-210 106,-210 106,-127 8,-127"/>
<polygon fill="#f5f5f5" stroke="transparent" points="8,-186.5 8,-209.5 106,-209.5 106,-186.5 8,-186.5"/>
<polygon fill="none" stroke="#000000" points="8,-186.5 8,-209.5 106,-209.5 106,-186.5 8,-186.5"/>
<text text-anchor="start" x="13" y="-195.1" font-family="Helvetica,sans-Serif" font-weight="bold" font-size="11.00" fill="#000000">REVINFO</text>
<text text-anchor="start" x="71.5219" y="-194.6" font-family="Helvetica,sans-Serif" font-size="11.00" fill="#000000">[table]</text>
<polygon fill="none" stroke="#000000" points="8,-164.5 8,-186.5 106,-186.5 106,-164.5 8,-164.5"/>
<image xlink:href="../../images/primaryKeys.png" width="11px" height="12px" preserveAspectRatio="xMinYMin meet" x="13" y="-181.5"/>
<text text-anchor="start" x="31" y="-171.6" font-family="Helvetica,sans-Serif" font-size="11.00" fill="#000000">REV</text>
<polygon fill="none" stroke="#000000" points="8,-145.5 8,-164.5 106,-164.5 106,-145.5 8,-145.5"/>
<text text-anchor="start" x="11" y="-151.6" font-family="Helvetica,sans-Serif" font-size="11.00" fill="#000000">...</text>
<polygon fill="#ffffff" stroke="transparent" points="8,-126.5 8,-145.5 33,-145.5 33,-126.5 8,-126.5"/>
<polygon fill="none" stroke="#000000" points="8,-126.5 8,-145.5 33,-145.5 33,-126.5 8,-126.5"/>
<text text-anchor="start" x="11" y="-132.6" font-family="Helvetica,sans-Serif" font-size="11.00" fill="#000000"> &#160;</text>
<polygon fill="#ffffff" stroke="transparent" points="33,-126.5 33,-145.5 78,-145.5 78,-126.5 33,-126.5"/>
<polygon fill="none" stroke="#000000" points="33,-126.5 33,-145.5 78,-145.5 78,-126.5 33,-126.5"/>
<text text-anchor="start" x="42.6105" y="-132.6" font-family="Helvetica,sans-Serif" font-size="11.00" fill="#000000">0 rows</text>
<polygon fill="#ffffff" stroke="transparent" points="78,-126.5 78,-145.5 106,-145.5 106,-126.5 78,-126.5"/>
<polygon fill="none" stroke="#000000" points="78,-126.5 78,-145.5 106,-145.5 106,-126.5 78,-126.5"/>
<text text-anchor="start" x="87.4053" y="-132.6" font-family="Helvetica,sans-Serif" font-size="11.00" fill="#000000">4 &gt;</text>
</a>
</g>
</g>
<!-- HOSTING_DETAILS_AUD&#45;&gt;REVINFO -->
<g id="edge1" class="edge">
<title>HOSTING_DETAILS_AUD:w&#45;&gt;REVINFO:e</title>
<path fill="none" stroke="#000000" d="M142.9684,-540.8218C88.4006,-497.991 183.4879,-175.5 106,-175.5"/>
<polygon fill="#000000" stroke="#000000" points="149.4107,-542.9697 155.8614,-548.9152 153.2053,-544.2348 157,-545.5 157,-545.5 157,-545.5 153.2053,-544.2348 158.1386,-542.0848 149.4107,-542.9697 149.4107,-542.9697"/>
<ellipse fill="none" stroke="#000000" cx="146.375" cy="-541.9575" rx="3.2" ry="3.2"/>
</g>
<!-- MINIAPP_BUILD_DETAILS_AUD -->
<g id="node3" class="node">
<title>MINIAPP_BUILD_DETAILS_AUD</title>
<g id="a_node3"><a xlink:href="../../tables/MINIAPP_BUILD_DETAILS_AUD.html" xlink:title="MINIAPP_BUILD_DETAILS_AUD" target="_top">
<polygon fill="#ffffff" stroke="transparent" points="181.5,-189 181.5,-250 422.5,-250 422.5,-189 181.5,-189"/>
<polygon fill="#f5f5f5" stroke="transparent" points="182,-226.5 182,-249.5 423,-249.5 423,-226.5 182,-226.5"/>
<polygon fill="none" stroke="#000000" points="182,-226.5 182,-249.5 423,-249.5 423,-226.5 182,-226.5"/>
<text text-anchor="start" x="187" y="-235.1" font-family="Helvetica,sans-Serif" font-weight="bold" font-size="11.00" fill="#000000">MINIAPP_BUILD_DETAILS_AUD</text>
<text text-anchor="start" x="388.5219" y="-234.6" font-family="Helvetica,sans-Serif" font-size="11.00" fill="#000000">[table]</text>
<polygon fill="none" stroke="#000000" points="182,-207.5 182,-226.5 423,-226.5 423,-207.5 182,-207.5"/>
<text text-anchor="start" x="185" y="-213.6" font-family="Helvetica,sans-Serif" font-size="11.00" fill="#000000">...</text>
<polygon fill="#ffffff" stroke="transparent" points="182,-188.5 182,-207.5 288,-207.5 288,-188.5 182,-188.5"/>
<polygon fill="none" stroke="#000000" points="182,-188.5 182,-207.5 288,-207.5 288,-188.5 182,-188.5"/>
<text text-anchor="start" x="185" y="-194.6" font-family="Helvetica,sans-Serif" font-size="11.00" fill="#000000">&lt; 1</text>
<polygon fill="#ffffff" stroke="transparent" points="288,-188.5 288,-207.5 368,-207.5 368,-188.5 288,-188.5"/>
<polygon fill="none" stroke="#000000" points="288,-188.5 288,-207.5 368,-207.5 368,-188.5 288,-188.5"/>
<text text-anchor="start" x="332.6105" y="-194.6" font-family="Helvetica,sans-Serif" font-size="11.00" fill="#000000">0 rows</text>
<polygon fill="#ffffff" stroke="transparent" points="368,-188.5 368,-207.5 423,-207.5 423,-188.5 368,-188.5"/>
<polygon fill="none" stroke="#000000" points="368,-188.5 368,-207.5 423,-207.5 423,-188.5 368,-188.5"/>
<text text-anchor="start" x="413.8862" y="-194.6" font-family="Helvetica,sans-Serif" font-size="11.00" fill="#000000"> &#160;</text>
</a>
</g>
</g>
<!-- MINIAPP_BUILD_DETAILS_AUD&#45;&gt;REVINFO -->
<g id="edge2" class="edge">
<title>MINIAPP_BUILD_DETAILS_AUD:w&#45;&gt;REVINFO:e</title>
<path fill="none" stroke="#000000" d="M167.5753,-214.1782C143.0223,-205.5049 138.8325,-175.5 106,-175.5"/>
<polygon fill="#000000" stroke="#000000" points="174.1017,-215.2286 181.4279,-220.0543 178.0508,-215.8643 182,-216.5 182,-216.5 182,-216.5 178.0508,-215.8643 182.5721,-212.9457 174.1017,-215.2286 174.1017,-215.2286"/>
<ellipse fill="none" stroke="#000000" cx="170.9423" cy="-214.7201" rx="3.2" ry="3.2"/>
</g>
<!-- MINIAPP_DETAILS_AUD -->
<g id="node4" class="node">
<title>MINIAPP_DETAILS_AUD</title>
<g id="a_node4"><a xlink:href="../../tables/MINIAPP_DETAILS_AUD.html" xlink:title="MINIAPP_DETAILS_AUD" target="_top">
<polygon fill="#ffffff" stroke="transparent" points="205,-107 205,-168 399,-168 399,-107 205,-107"/>
<polygon fill="#f5f5f5" stroke="transparent" points="205,-144.5 205,-167.5 399,-167.5 399,-144.5 205,-144.5"/>
<polygon fill="none" stroke="#000000" points="205,-144.5 205,-167.5 399,-167.5 399,-144.5 205,-144.5"/>
<text text-anchor="start" x="210" y="-153.1" font-family="Helvetica,sans-Serif" font-weight="bold" font-size="11.00" fill="#000000">MINIAPP_DETAILS_AUD</text>
<text text-anchor="start" x="364.5219" y="-152.6" font-family="Helvetica,sans-Serif" font-size="11.00" fill="#000000">[table]</text>
<polygon fill="none" stroke="#000000" points="205,-125.5 205,-144.5 399,-144.5 399,-125.5 205,-125.5"/>
<text text-anchor="start" x="208" y="-131.6" font-family="Helvetica,sans-Serif" font-size="11.00" fill="#000000">...</text>
<polygon fill="#ffffff" stroke="transparent" points="205,-106.5 205,-125.5 287,-125.5 287,-106.5 205,-106.5"/>
<polygon fill="none" stroke="#000000" points="205,-106.5 205,-125.5 287,-125.5 287,-106.5 205,-106.5"/>
<text text-anchor="start" x="208" y="-112.6" font-family="Helvetica,sans-Serif" font-size="11.00" fill="#000000">&lt; 1</text>
<polygon fill="#ffffff" stroke="transparent" points="287,-106.5 287,-125.5 356,-125.5 356,-106.5 287,-106.5"/>
<polygon fill="none" stroke="#000000" points="287,-106.5 287,-125.5 356,-125.5 356,-106.5 287,-106.5"/>
<text text-anchor="start" x="320.6105" y="-112.6" font-family="Helvetica,sans-Serif" font-size="11.00" fill="#000000">0 rows</text>
<polygon fill="#ffffff" stroke="transparent" points="356,-106.5 356,-125.5 399,-125.5 399,-106.5 356,-106.5"/>
<polygon fill="none" stroke="#000000" points="356,-106.5 356,-125.5 399,-125.5 399,-106.5 356,-106.5"/>
<text text-anchor="start" x="389.8862" y="-112.6" font-family="Helvetica,sans-Serif" font-size="11.00" fill="#000000"> &#160;</text>
</a>
</g>
</g>
<!-- MINIAPP_DETAILS_AUD&#45;&gt;REVINFO -->
<g id="edge3" class="edge">
<title>MINIAPP_DETAILS_AUD:w&#45;&gt;REVINFO:e</title>
<path fill="none" stroke="#000000" d="M190.3767,-135.9592C155.9629,-143.2629 148.2291,-175.5 106,-175.5"/>
<polygon fill="#000000" stroke="#000000" points="197.0395,-135.2944 205.3575,-138.0822 201.0198,-134.8972 205,-134.5 205,-134.5 205,-134.5 201.0198,-134.8972 204.6425,-130.9178 197.0395,-135.2944 197.0395,-135.2944"/>
<ellipse fill="none" stroke="#000000" cx="193.8553" cy="-135.6122" rx="3.2" ry="3.2"/>
</g>
<!-- User_AUD -->
<g id="node5" class="node">
<title>User_AUD</title>
<g id="a_node5"><a xlink:href="../../tables/User_AUD.html" xlink:title="User_AUD" target="_top">
<polygon fill="#ffffff" stroke="transparent" points="250,-25 250,-86 354,-86 354,-25 250,-25"/>
<polygon fill="#f5f5f5" stroke="transparent" points="250,-62.5 250,-85.5 354,-85.5 354,-62.5 250,-62.5"/>
<polygon fill="none" stroke="#000000" points="250,-62.5 250,-85.5 354,-85.5 354,-62.5 250,-62.5"/>
<text text-anchor="start" x="255" y="-71.1" font-family="Helvetica,sans-Serif" font-weight="bold" font-size="11.00" fill="#000000">User_AUD</text>
<text text-anchor="start" x="319.5219" y="-70.6" font-family="Helvetica,sans-Serif" font-size="11.00" fill="#000000">[table]</text>
<polygon fill="none" stroke="#000000" points="250,-43.5 250,-62.5 354,-62.5 354,-43.5 250,-43.5"/>
<text text-anchor="start" x="253" y="-49.6" font-family="Helvetica,sans-Serif" font-size="11.00" fill="#000000">...</text>
<polygon fill="#ffffff" stroke="transparent" points="250,-24.5 250,-43.5 287,-43.5 287,-24.5 250,-24.5"/>
<polygon fill="none" stroke="#000000" points="250,-24.5 250,-43.5 287,-43.5 287,-24.5 250,-24.5"/>
<text text-anchor="start" x="253" y="-30.6" font-family="Helvetica,sans-Serif" font-size="11.00" fill="#000000">&lt; 1</text>
<polygon fill="#ffffff" stroke="transparent" points="287,-24.5 287,-43.5 333,-43.5 333,-24.5 287,-24.5"/>
<polygon fill="none" stroke="#000000" points="287,-24.5 287,-43.5 333,-43.5 333,-24.5 287,-24.5"/>
<text text-anchor="start" x="297.6105" y="-30.6" font-family="Helvetica,sans-Serif" font-size="11.00" fill="#000000">0 rows</text>
<polygon fill="#ffffff" stroke="transparent" points="333,-24.5 333,-43.5 354,-43.5 354,-24.5 333,-24.5"/>
<polygon fill="none" stroke="#000000" points="333,-24.5 333,-43.5 354,-43.5 354,-24.5 333,-24.5"/>
<text text-anchor="start" x="344.8862" y="-30.6" font-family="Helvetica,sans-Serif" font-size="11.00" fill="#000000"> &#160;</text>
</a>
</g>
</g>
<!-- User_AUD&#45;&gt;REVINFO -->
<g id="edge4" class="edge">
<title>User_AUD:w&#45;&gt;REVINFO:e</title>
<path fill="none" stroke="#000000" d="M235.545,-52.8412C196.5457,-54.8544 179.7168,-66.1494 147,-96.5 117.9992,-123.4034 145.5581,-175.5 106,-175.5"/>
<polygon fill="#000000" stroke="#000000" points="242.0022,-52.6888 250.085,-56.099 246.0011,-52.5944 250,-52.5 250,-52.5 250,-52.5 246.0011,-52.5944 249.915,-48.901 242.0022,-52.6888 242.0022,-52.6888"/>
<ellipse fill="none" stroke="#000000" cx="238.8031" cy="-52.7643" rx="3.2" ry="3.2"/>
</g>
</g>
</svg>
