<?xml version="1.0" encoding="UTF-8" standalone="no"?>
<!DOCTYPE svg PUBLIC "-//W3C//DTD SVG 1.1//EN"
 "http://www.w3.org/Graphics/SVG/1.1/DTD/svg11.dtd">
<!-- Generated by graphviz version 2.40.1 (20161225.0304)
 -->
<!-- Title: oneDegreeRelationshipsDiagram Pages: 1 -->
<svg width="465pt" height="369pt"
 viewBox="0.00 0.00 465.00 369.00" xmlns="http://www.w3.org/2000/svg" xmlns:xlink="http://www.w3.org/1999/xlink">
<g id="graph0" class="graph" transform="scale(1 1) rotate(0) translate(4 365)">
<title>oneDegreeRelationshipsDiagram</title>
<polygon fill="#ffffff" stroke="transparent" points="-4,4 -4,-365 461,-365 461,4 -4,4"/>
<!-- HOSTING_DETAILS_AUD -->
<g id="node1" class="node">
<title>HOSTING_DETAILS_AUD</title>
<g id="a_node1"><a xlink:href="../../tables/HOSTING_DETAILS_AUD.html" xlink:title="HOSTING_DETAILS_AUD" target="_top">
<polygon fill="#ffffff" stroke="transparent" points="155,-25 155,-357 449,-357 449,-25 155,-25"/>
<polygon fill="#f5f5f5" stroke="transparent" points="157,-332 157,-355 447,-355 447,-332 157,-332"/>
<polygon fill="none" stroke="#000000" points="157,-332 157,-355 447,-355 447,-332 157,-332"/>
<text text-anchor="start" x="162" y="-340.6" font-family="Helvetica,sans-Serif" font-weight="bold" font-size="11.00" fill="#000000">HOSTING_DETAILS_AUD</text>
<text text-anchor="start" x="412.0437" y="-340.1" font-family="Helvetica,sans-Serif" font-size="11.00" fill="#000000">[table]</text>
<polygon fill="none" stroke="#000000" points="157,-310 157,-332 336,-332 336,-310 157,-310"/>
<image xlink:href="../../images/primaryKeys.png" width="11px" height="12px" preserveAspectRatio="xMinYMin meet" x="162" y="-327"/>
<text text-anchor="start" x="177" y="-317.1" font-family="Helvetica,sans-Serif" font-size="11.00" fill="#000000">id</text>
<polygon fill="none" stroke="#000000" points="336,-310 336,-332 447,-332 447,-310 336,-310"/>
<text text-anchor="start" x="339" y="-317.7" font-family="Helvetica,sans-Serif" font-size="11.00" fill="#000000">int[10]</text>
<polygon fill="none" stroke="#000000" points="157,-288 157,-310 336,-310 336,-288 157,-288"/>
<image xlink:href="../../images/primaryKeys.png" width="11px" height="12px" preserveAspectRatio="xMinYMin meet" x="162" y="-305"/>
<text text-anchor="start" x="177" y="-295.1" font-family="Helvetica,sans-Serif" font-size="11.00" fill="#000000">REV</text>
<polygon fill="none" stroke="#000000" points="336,-288 336,-310 447,-310 447,-288 336,-288"/>
<text text-anchor="start" x="339" y="-295.7" font-family="Helvetica,sans-Serif" font-size="11.00" fill="#000000">int[10]</text>
<polygon fill="none" stroke="#000000" points="157,-266 157,-288 336,-288 336,-266 157,-266"/>
<text text-anchor="start" x="177" y="-273.1" font-family="Helvetica,sans-Serif" font-size="11.00" fill="#000000">REVTYPE</text>
<polygon fill="none" stroke="#000000" points="336,-266 336,-288 447,-288 447,-266 336,-266"/>
<text text-anchor="start" x="339" y="-273.7" font-family="Helvetica,sans-Serif" font-size="11.00" fill="#000000">tinyint[3]</text>
<polygon fill="none" stroke="#000000" points="157,-244 157,-266 336,-266 336,-244 157,-244"/>
<text text-anchor="start" x="177" y="-251.1" font-family="Helvetica,sans-Serif" font-size="11.00" fill="#000000">CREATED_TIME</text>
<polygon fill="none" stroke="#000000" points="336,-244 336,-266 447,-266 447,-244 336,-244"/>
<text text-anchor="start" x="339" y="-251.7" font-family="Helvetica,sans-Serif" font-size="11.00" fill="#000000">datetime[26]</text>
<polygon fill="none" stroke="#000000" points="157,-222 157,-244 336,-244 336,-222 157,-222"/>
<text text-anchor="start" x="177" y="-229.1" font-family="Helvetica,sans-Serif" font-size="11.00" fill="#000000">MODIFIED_TIME</text>
<polygon fill="none" stroke="#000000" points="336,-222 336,-244 447,-244 447,-222 336,-222"/>
<text text-anchor="start" x="339" y="-229.7" font-family="Helvetica,sans-Serif" font-size="11.00" fill="#000000">datetime[26]</text>
<polygon fill="none" stroke="#000000" points="157,-200 157,-222 336,-222 336,-200 157,-200"/>
<text text-anchor="start" x="177" y="-207.1" font-family="Helvetica,sans-Serif" font-size="11.00" fill="#000000">CUSTOMER_ID</text>
<polygon fill="none" stroke="#000000" points="336,-200 336,-222 447,-222 447,-200 336,-200"/>
<text text-anchor="start" x="339" y="-207.7" font-family="Helvetica,sans-Serif" font-size="11.00" fill="#000000">int[10]</text>
<polygon fill="none" stroke="#000000" points="157,-178 157,-200 336,-200 336,-178 157,-178"/>
<text text-anchor="start" x="177" y="-185.1" font-family="Helvetica,sans-Serif" font-size="11.00" fill="#000000">deleted</text>
<polygon fill="none" stroke="#000000" points="336,-178 336,-200 447,-200 447,-178 336,-178"/>
<text text-anchor="start" x="339" y="-185.7" font-family="Helvetica,sans-Serif" font-size="11.00" fill="#000000">bit[1]</text>
<polygon fill="none" stroke="#000000" points="157,-156 157,-178 336,-178 336,-156 157,-156"/>
<text text-anchor="start" x="177" y="-163.1" font-family="Helvetica,sans-Serif" font-size="11.00" fill="#000000">domain</text>
<polygon fill="none" stroke="#000000" points="336,-156 336,-178 447,-178 447,-156 336,-156"/>
<text text-anchor="start" x="339" y="-163.7" font-family="Helvetica,sans-Serif" font-size="11.00" fill="#000000">varchar[255]</text>
<polygon fill="none" stroke="#000000" points="157,-134 157,-156 336,-156 336,-134 157,-134"/>
<text text-anchor="start" x="177" y="-141.1" font-family="Helvetica,sans-Serif" font-size="11.00" fill="#000000">environment</text>
<polygon fill="none" stroke="#000000" points="336,-134 336,-156 447,-156 447,-134 336,-134"/>
<text text-anchor="start" x="339" y="-141.7" font-family="Helvetica,sans-Serif" font-size="11.00" fill="#000000">varchar[50]</text>
<polygon fill="none" stroke="#000000" points="157,-112 157,-134 336,-134 336,-112 157,-112"/>
<text text-anchor="start" x="177" y="-119.1" font-family="Helvetica,sans-Serif" font-size="11.00" fill="#000000">SSL_CERTIFICATE</text>
<polygon fill="none" stroke="#000000" points="336,-112 336,-134 447,-134 447,-112 336,-112"/>
<text text-anchor="start" x="338.6115" y="-119.7" font-family="Helvetica,sans-Serif" font-size="11.00" fill="#000000">longtext[2147483647]</text>
<polygon fill="none" stroke="#000000" points="157,-90 157,-112 336,-112 336,-90 157,-90"/>
<text text-anchor="start" x="177" y="-97.1" font-family="Helvetica,sans-Serif" font-size="11.00" fill="#000000">CREATOR</text>
<polygon fill="none" stroke="#000000" points="336,-90 336,-112 447,-112 447,-90 336,-90"/>
<text text-anchor="start" x="339" y="-97.7" font-family="Helvetica,sans-Serif" font-size="11.00" fill="#000000">int[10]</text>
<polygon fill="none" stroke="#000000" points="157,-68 157,-90 336,-90 336,-68 157,-68"/>
<text text-anchor="start" x="177" y="-75.1" font-family="Helvetica,sans-Serif" font-size="11.00" fill="#000000">LAST_MODIFIER</text>
<polygon fill="none" stroke="#000000" points="336,-68 336,-90 447,-90 447,-68 336,-68"/>
<text text-anchor="start" x="339" y="-75.7" font-family="Helvetica,sans-Serif" font-size="11.00" fill="#000000">int[10]</text>
<polygon fill="none" stroke="#000000" points="157,-46 157,-68 336,-68 336,-46 157,-46"/>
<text text-anchor="start" x="177" y="-53.1" font-family="Helvetica,sans-Serif" font-size="11.00" fill="#000000">APP_ID</text>
<polygon fill="none" stroke="#000000" points="336,-46 336,-68 447,-68 447,-46 336,-46"/>
<text text-anchor="start" x="339" y="-53.7" font-family="Helvetica,sans-Serif" font-size="11.00" fill="#000000">int[10]</text>
<polygon fill="#ffffff" stroke="transparent" points="157,-27 157,-46 238,-46 238,-27 157,-27"/>
<polygon fill="none" stroke="#000000" points="157,-27 157,-46 238,-46 238,-27 157,-27"/>
<text text-anchor="start" x="160" y="-33.1" font-family="Helvetica,sans-Serif" font-size="11.00" fill="#000000">&lt; 1</text>
<polygon fill="#ffffff" stroke="transparent" points="238,-27 238,-46 336,-46 336,-27 238,-27"/>
<polygon fill="none" stroke="#000000" points="238,-27 238,-46 336,-46 336,-27 238,-27"/>
<text text-anchor="start" x="300.6105" y="-33.1" font-family="Helvetica,sans-Serif" font-size="11.00" fill="#000000">0 rows</text>
<polygon fill="#ffffff" stroke="transparent" points="336,-27 336,-46 447,-46 447,-27 336,-27"/>
<polygon fill="none" stroke="#000000" points="336,-27 336,-46 447,-46 447,-27 336,-27"/>
<text text-anchor="start" x="428.4053" y="-33.1" font-family="Helvetica,sans-Serif" font-size="11.00" fill="#000000">0 &gt;</text>
<polygon fill="none" stroke="#000000" stroke-width="2" points="156,-26 156,-356 448,-356 448,-26 156,-26"/>
</a>
</g>
</g>
<!-- REVINFO -->
<g id="node2" class="node">
<title>REVINFO</title>
<g id="a_node2"><a xlink:href="../../tables/REVINFO.html" xlink:title="REVINFO" target="_top">
<polygon fill="#ffffff" stroke="transparent" points="8,-250.5 8,-333.5 106,-333.5 106,-250.5 8,-250.5"/>
<polygon fill="#f5f5f5" stroke="transparent" points="8,-310 8,-333 106,-333 106,-310 8,-310"/>
<polygon fill="none" stroke="#000000" points="8,-310 8,-333 106,-333 106,-310 8,-310"/>
<text text-anchor="start" x="13" y="-318.6" font-family="Helvetica,sans-Serif" font-weight="bold" font-size="11.00" fill="#000000">REVINFO</text>
<text text-anchor="start" x="71.5219" y="-318.1" font-family="Helvetica,sans-Serif" font-size="11.00" fill="#000000">[table]</text>
<polygon fill="none" stroke="#000000" points="8,-288 8,-310 106,-310 106,-288 8,-288"/>
<image xlink:href="../../images/primaryKeys.png" width="11px" height="12px" preserveAspectRatio="xMinYMin meet" x="13" y="-305"/>
<text text-anchor="start" x="31" y="-295.1" font-family="Helvetica,sans-Serif" font-size="11.00" fill="#000000">REV</text>
<polygon fill="none" stroke="#000000" points="8,-269 8,-288 106,-288 106,-269 8,-269"/>
<text text-anchor="start" x="11" y="-275.1" font-family="Helvetica,sans-Serif" font-size="11.00" fill="#000000">...</text>
<polygon fill="#ffffff" stroke="transparent" points="8,-250 8,-269 33,-269 33,-250 8,-250"/>
<polygon fill="none" stroke="#000000" points="8,-250 8,-269 33,-269 33,-250 8,-250"/>
<text text-anchor="start" x="11" y="-256.1" font-family="Helvetica,sans-Serif" font-size="11.00" fill="#000000"> &#160;</text>
<polygon fill="#ffffff" stroke="transparent" points="33,-250 33,-269 78,-269 78,-250 33,-250"/>
<polygon fill="none" stroke="#000000" points="33,-250 33,-269 78,-269 78,-250 33,-250"/>
<text text-anchor="start" x="42.6105" y="-256.1" font-family="Helvetica,sans-Serif" font-size="11.00" fill="#000000">0 rows</text>
<polygon fill="#ffffff" stroke="transparent" points="78,-250 78,-269 106,-269 106,-250 78,-250"/>
<polygon fill="none" stroke="#000000" points="78,-250 78,-269 106,-269 106,-250 78,-250"/>
<text text-anchor="start" x="87.4053" y="-256.1" font-family="Helvetica,sans-Serif" font-size="11.00" fill="#000000">4 &gt;</text>
</a>
</g>
</g>
<!-- HOSTING_DETAILS_AUD&#45;&gt;REVINFO -->
<g id="edge1" class="edge">
<title>HOSTING_DETAILS_AUD:w&#45;&gt;REVINFO:e</title>
<path fill="none" stroke="#000000" d="M142.276,-299C130.2815,-299 122.8229,-299 106,-299"/>
<polygon fill="#000000" stroke="#000000" points="149,-299.0001 157,-302.6 153,-299 157,-299 157,-299 157,-299 153,-299 157,-295.4 149,-299.0001 149,-299.0001"/>
<ellipse fill="none" stroke="#000000" cx="145.8" cy="-299.0001" rx="3.2" ry="3.2"/>
</g>
</g>
</svg>
