<?xml version="1.0" encoding="UTF-8" standalone="no"?>
<!DOCTYPE svg PUBLIC "-//W3C//DTD SVG 1.1//EN"
 "http://www.w3.org/Graphics/SVG/1.1/DTD/svg11.dtd">
<!-- Generated by graphviz version 2.40.1 (20161225.0304)
 -->
<!-- Title: twoDegreesRelationshipsDiagram Pages: 1 -->
<svg width="491pt" height="342pt"
 viewBox="0.00 0.00 491.00 341.50" xmlns="http://www.w3.org/2000/svg" xmlns:xlink="http://www.w3.org/1999/xlink">
<g id="graph0" class="graph" transform="scale(1 1) rotate(0) translate(4 337.5)">
<title>twoDegreesRelationshipsDiagram</title>
<polygon fill="#ffffff" stroke="transparent" points="-4,4 -4,-337.5 487,-337.5 487,4 -4,4"/>
<!-- HOSTING_DETAILS -->
<g id="node1" class="node">
<title>HOSTING_DETAILS</title>
<g id="a_node1"><a xlink:href="../../tables/HOSTING_DETAILS.html" xlink:title="HOSTING_DETAILS" target="_top">
<polygon fill="#ffffff" stroke="transparent" points="264.5,-268.5 264.5,-329.5 426.5,-329.5 426.5,-268.5 264.5,-268.5"/>
<polygon fill="#f5f5f5" stroke="transparent" points="264.5,-306 264.5,-329 426.5,-329 426.5,-306 264.5,-306"/>
<polygon fill="none" stroke="#000000" points="264.5,-306 264.5,-329 426.5,-329 426.5,-306 264.5,-306"/>
<text text-anchor="start" x="269.5" y="-314.6" font-family="Helvetica,sans-Serif" font-weight="bold" font-size="11.00" fill="#000000">HOSTING_DETAILS</text>
<text text-anchor="start" x="392.0219" y="-314.1" font-family="Helvetica,sans-Serif" font-size="11.00" fill="#000000">[table]</text>
<polygon fill="none" stroke="#000000" points="264.5,-287 264.5,-306 426.5,-306 426.5,-287 264.5,-287"/>
<text text-anchor="start" x="267.5" y="-293.1" font-family="Helvetica,sans-Serif" font-size="11.00" fill="#000000">...</text>
<polygon fill="#ffffff" stroke="transparent" points="264.5,-268 264.5,-287 330.5,-287 330.5,-268 264.5,-268"/>
<polygon fill="none" stroke="#000000" points="264.5,-268 264.5,-287 330.5,-287 330.5,-268 264.5,-268"/>
<text text-anchor="start" x="267.5" y="-274.1" font-family="Helvetica,sans-Serif" font-size="11.00" fill="#000000">&lt; 1</text>
<polygon fill="#ffffff" stroke="transparent" points="330.5,-268 330.5,-287 391.5,-287 391.5,-268 330.5,-268"/>
<polygon fill="none" stroke="#000000" points="330.5,-268 330.5,-287 391.5,-287 391.5,-268 330.5,-268"/>
<text text-anchor="start" x="356.1105" y="-274.1" font-family="Helvetica,sans-Serif" font-size="11.00" fill="#000000">0 rows</text>
<polygon fill="#ffffff" stroke="transparent" points="391.5,-268 391.5,-287 426.5,-287 426.5,-268 391.5,-268"/>
<polygon fill="none" stroke="#000000" points="391.5,-268 391.5,-287 426.5,-287 426.5,-268 391.5,-268"/>
<text text-anchor="start" x="417.3862" y="-274.1" font-family="Helvetica,sans-Serif" font-size="11.00" fill="#000000"> &#160;</text>
</a>
</g>
</g>
<!-- MINIAPP_DETAILS -->
<g id="node2" class="node">
<title>MINIAPP_DETAILS</title>
<g id="a_node2"><a xlink:href="../../tables/MINIAPP_DETAILS.html" xlink:title="MINIAPP_DETAILS" target="_top">
<polygon fill="#ffffff" stroke="transparent" points="8,-171.5 8,-254.5 167,-254.5 167,-171.5 8,-171.5"/>
<polygon fill="#f5f5f5" stroke="transparent" points="8.5,-231 8.5,-254 167.5,-254 167.5,-231 8.5,-231"/>
<polygon fill="none" stroke="#000000" points="8.5,-231 8.5,-254 167.5,-254 167.5,-231 8.5,-231"/>
<text text-anchor="start" x="13.5" y="-239.6" font-family="Helvetica,sans-Serif" font-weight="bold" font-size="11.00" fill="#000000">MINIAPP_DETAILS</text>
<text text-anchor="start" x="133.0219" y="-239.1" font-family="Helvetica,sans-Serif" font-size="11.00" fill="#000000">[table]</text>
<polygon fill="none" stroke="#000000" points="8.5,-209 8.5,-231 167.5,-231 167.5,-209 8.5,-209"/>
<image xlink:href="../../images/primaryKeys.png" width="11px" height="12px" preserveAspectRatio="xMinYMin meet" x="13.5" y="-226"/>
<text text-anchor="start" x="36.5" y="-216.1" font-family="Helvetica,sans-Serif" font-size="11.00" fill="#000000">ID</text>
<polygon fill="none" stroke="#000000" points="8.5,-190 8.5,-209 167.5,-209 167.5,-190 8.5,-190"/>
<text text-anchor="start" x="11.5" y="-196.1" font-family="Helvetica,sans-Serif" font-size="11.00" fill="#000000">...</text>
<polygon fill="#ffffff" stroke="transparent" points="8.5,-171 8.5,-190 64.5,-190 64.5,-171 8.5,-171"/>
<polygon fill="none" stroke="#000000" points="8.5,-171 8.5,-190 64.5,-190 64.5,-171 8.5,-171"/>
<text text-anchor="start" x="11.5" y="-177.1" font-family="Helvetica,sans-Serif" font-size="11.00" fill="#000000"> &#160;</text>
<polygon fill="#ffffff" stroke="transparent" points="64.5,-171 64.5,-190 124.5,-190 124.5,-171 64.5,-171"/>
<polygon fill="none" stroke="#000000" points="64.5,-171 64.5,-190 124.5,-190 124.5,-171 64.5,-171"/>
<text text-anchor="start" x="89.1105" y="-177.1" font-family="Helvetica,sans-Serif" font-size="11.00" fill="#000000">0 rows</text>
<polygon fill="#ffffff" stroke="transparent" points="124.5,-171 124.5,-190 167.5,-190 167.5,-171 124.5,-171"/>
<polygon fill="none" stroke="#000000" points="124.5,-171 124.5,-190 167.5,-190 167.5,-171 124.5,-171"/>
<text text-anchor="start" x="148.9053" y="-177.1" font-family="Helvetica,sans-Serif" font-size="11.00" fill="#000000">2 &gt;</text>
</a>
</g>
</g>
<!-- HOSTING_DETAILS&#45;&gt;MINIAPP_DETAILS -->
<g id="edge1" class="edge">
<title>HOSTING_DETAILS:w&#45;&gt;MINIAPP_DETAILS:e</title>
<path fill="none" stroke="#000000" d="M250.0765,-294.1093C232.5321,-288.8321 227.2295,-273.3231 208,-258 188.6965,-242.6179 192.1827,-220 167.5,-220"/>
<polygon fill="#000000" stroke="#000000" points="256.5679,-294.9602 264.0321,-299.5695 260.5339,-295.4801 264.5,-296 264.5,-296 264.5,-296 260.5339,-295.4801 264.9679,-292.4305 256.5679,-294.9602 256.5679,-294.9602"/>
<ellipse fill="none" stroke="#000000" cx="253.395" cy="-294.5442" rx="3.2" ry="3.2"/>
</g>
<!-- MINIAPP_BUILD_DETAILS -->
<g id="node3" class="node">
<title>MINIAPP_BUILD_DETAILS</title>
<g id="a_node3"><a xlink:href="../../tables/MINIAPP_BUILD_DETAILS.html" xlink:title="MINIAPP_BUILD_DETAILS" target="_top">
<polygon fill="#ffffff" stroke="transparent" points="216,-25 216,-247 475,-247 475,-25 216,-25"/>
<polygon fill="#f5f5f5" stroke="transparent" points="218.5,-222 218.5,-245 473.5,-245 473.5,-222 218.5,-222"/>
<polygon fill="none" stroke="#000000" points="218.5,-222 218.5,-245 473.5,-245 473.5,-222 218.5,-222"/>
<text text-anchor="start" x="223.5" y="-230.6" font-family="Helvetica,sans-Serif" font-weight="bold" font-size="11.00" fill="#000000">MINIAPP_BUILD_DETAILS</text>
<text text-anchor="start" x="438.5437" y="-230.1" font-family="Helvetica,sans-Serif" font-size="11.00" fill="#000000">[table]</text>
<polygon fill="none" stroke="#000000" points="218.5,-200 218.5,-222 406.5,-222 406.5,-200 218.5,-200"/>
<image xlink:href="../../images/primaryKeys.png" width="11px" height="12px" preserveAspectRatio="xMinYMin meet" x="223.5" y="-217"/>
<text text-anchor="start" x="238.5" y="-207.1" font-family="Helvetica,sans-Serif" font-size="11.00" fill="#000000">ID</text>
<polygon fill="none" stroke="#000000" points="406.5,-200 406.5,-222 473.5,-222 473.5,-200 406.5,-200"/>
<text text-anchor="start" x="409.5" y="-207.7" font-family="Helvetica,sans-Serif" font-size="11.00" fill="#000000">int[10]</text>
<polygon fill="none" stroke="#000000" points="218.5,-178 218.5,-200 406.5,-200 406.5,-178 218.5,-178"/>
<text text-anchor="start" x="238.5" y="-185.1" font-family="Helvetica,sans-Serif" font-size="11.00" fill="#000000">DELETED</text>
<polygon fill="none" stroke="#000000" points="406.5,-178 406.5,-200 473.5,-200 473.5,-178 406.5,-178"/>
<text text-anchor="start" x="409.5" y="-185.7" font-family="Helvetica,sans-Serif" font-size="11.00" fill="#000000">bit[1]</text>
<polygon fill="none" stroke="#000000" points="218.5,-156 218.5,-178 406.5,-178 406.5,-156 218.5,-156"/>
<text text-anchor="start" x="238.5" y="-163.1" font-family="Helvetica,sans-Serif" font-size="11.00" fill="#000000">CUSTOMER_ID</text>
<polygon fill="none" stroke="#000000" points="406.5,-156 406.5,-178 473.5,-178 473.5,-156 406.5,-156"/>
<text text-anchor="start" x="409.5" y="-163.7" font-family="Helvetica,sans-Serif" font-size="11.00" fill="#000000">int[10]</text>
<polygon fill="#ffffff" stroke="transparent" points="218.5,-134 218.5,-156 406.5,-156 406.5,-134 218.5,-134"/>
<polygon fill="none" stroke="#000000" points="218.5,-134 218.5,-156 406.5,-156 406.5,-134 218.5,-134"/>
<image xlink:href="../../images/foreignKeys.png" width="11px" height="12px" preserveAspectRatio="xMinYMin meet" x="223.5" y="-151"/>
<text text-anchor="start" x="238.5" y="-141.1" font-family="Helvetica,sans-Serif" font-size="11.00" fill="#000000">APP_ID</text>
<polygon fill="none" stroke="#000000" points="406.5,-134 406.5,-156 473.5,-156 473.5,-134 406.5,-134"/>
<text text-anchor="start" x="409.5" y="-141.7" font-family="Helvetica,sans-Serif" font-size="11.00" fill="#000000">int[10]</text>
<polygon fill="none" stroke="#000000" points="218.5,-112 218.5,-134 406.5,-134 406.5,-112 218.5,-112"/>
<text text-anchor="start" x="238.5" y="-119.1" font-family="Helvetica,sans-Serif" font-size="11.00" fill="#000000">SOURCE_CODE_URL</text>
<polygon fill="none" stroke="#000000" points="406.5,-112 406.5,-134 473.5,-134 473.5,-112 406.5,-112"/>
<text text-anchor="start" x="409.4365" y="-119.7" font-family="Helvetica,sans-Serif" font-size="11.00" fill="#000000">varchar[255]</text>
<polygon fill="none" stroke="#000000" points="218.5,-90 218.5,-112 406.5,-112 406.5,-90 218.5,-90"/>
<text text-anchor="start" x="238.5" y="-97.1" font-family="Helvetica,sans-Serif" font-size="11.00" fill="#000000">COMPILED_FILE_URL</text>
<polygon fill="none" stroke="#000000" points="406.5,-90 406.5,-112 473.5,-112 473.5,-90 406.5,-90"/>
<text text-anchor="start" x="409.4365" y="-97.7" font-family="Helvetica,sans-Serif" font-size="11.00" fill="#000000">varchar[255]</text>
<polygon fill="none" stroke="#000000" points="218.5,-68 218.5,-90 406.5,-90 406.5,-68 218.5,-68"/>
<text text-anchor="start" x="238.5" y="-75.1" font-family="Helvetica,sans-Serif" font-size="11.00" fill="#000000">SOURCE_CODE_PATH</text>
<polygon fill="none" stroke="#000000" points="406.5,-68 406.5,-90 473.5,-90 473.5,-68 406.5,-68"/>
<text text-anchor="start" x="409.4365" y="-75.7" font-family="Helvetica,sans-Serif" font-size="11.00" fill="#000000">varchar[255]</text>
<polygon fill="none" stroke="#000000" points="218.5,-46 218.5,-68 406.5,-68 406.5,-46 218.5,-46"/>
<text text-anchor="start" x="238.5" y="-53.1" font-family="Helvetica,sans-Serif" font-size="11.00" fill="#000000">STATUS</text>
<polygon fill="none" stroke="#000000" points="406.5,-46 406.5,-68 473.5,-68 473.5,-46 406.5,-46"/>
<text text-anchor="start" x="409.5" y="-53.7" font-family="Helvetica,sans-Serif" font-size="11.00" fill="#000000">enum[4]</text>
<polygon fill="#ffffff" stroke="transparent" points="218.5,-27 218.5,-46 303.5,-46 303.5,-27 218.5,-27"/>
<polygon fill="none" stroke="#000000" points="218.5,-27 218.5,-46 303.5,-46 303.5,-27 218.5,-27"/>
<text text-anchor="start" x="221.5" y="-33.1" font-family="Helvetica,sans-Serif" font-size="11.00" fill="#000000">&lt; 1</text>
<polygon fill="#ffffff" stroke="transparent" points="303.5,-27 303.5,-46 406.5,-46 406.5,-27 303.5,-27"/>
<polygon fill="none" stroke="#000000" points="303.5,-27 303.5,-46 406.5,-46 406.5,-27 303.5,-27"/>
<text text-anchor="start" x="371.1105" y="-33.1" font-family="Helvetica,sans-Serif" font-size="11.00" fill="#000000">0 rows</text>
<polygon fill="#ffffff" stroke="transparent" points="406.5,-27 406.5,-46 473.5,-46 473.5,-27 406.5,-27"/>
<polygon fill="none" stroke="#000000" points="406.5,-27 406.5,-46 473.5,-46 473.5,-27 406.5,-27"/>
<text text-anchor="start" x="454.9053" y="-33.1" font-family="Helvetica,sans-Serif" font-size="11.00" fill="#000000">0 &gt;</text>
<polygon fill="none" stroke="#000000" stroke-width="2" points="217,-26 217,-246 474,-246 474,-26 217,-26"/>
</a>
</g>
</g>
<!-- MINIAPP_BUILD_DETAILS&#45;&gt;MINIAPP_DETAILS -->
<g id="edge2" class="edge">
<title>MINIAPP_BUILD_DETAILS:w&#45;&gt;MINIAPP_DETAILS:e</title>
<path fill="none" stroke="#000000" d="M204.7145,-149.467C185.4427,-165.6131 201.8264,-220 167.5,-220"/>
<polygon fill="#000000" stroke="#000000" points="210.8896,-147.4661 219.6097,-148.4247 214.6948,-146.233 218.5,-145 218.5,-145 218.5,-145 214.6948,-146.233 217.3903,-141.5753 210.8896,-147.4661 210.8896,-147.4661"/>
<ellipse fill="none" stroke="#000000" cx="207.8454" cy="-148.4525" rx="3.2" ry="3.2"/>
</g>
</g>
</svg>
