<?xml version="1.0" encoding="UTF-8" standalone="no"?>
<!DOCTYPE svg PUBLIC "-//W3C//DTD SVG 1.1//EN"
 "http://www.w3.org/Graphics/SVG/1.1/DTD/svg11.dtd">
<!-- Generated by graphviz version 2.40.1 (20161225.0304)
 -->
<!-- Title: oneDegreeRelationshipsDiagram Pages: 1 -->
<svg width="465pt" height="391pt"
 viewBox="0.00 0.00 465.00 391.00" xmlns="http://www.w3.org/2000/svg" xmlns:xlink="http://www.w3.org/1999/xlink">
<g id="graph0" class="graph" transform="scale(1 1) rotate(0) translate(4 387)">
<title>oneDegreeRelationshipsDiagram</title>
<polygon fill="#ffffff" stroke="transparent" points="-4,4 -4,-387 461,-387 461,4 -4,4"/>
<!-- MINIAPP_BUILD_DETAILS_AUD -->
<g id="node1" class="node">
<title>MINIAPP_BUILD_DETAILS_AUD</title>
<g id="a_node1"><a xlink:href="../../tables/MINIAPP_BUILD_DETAILS_AUD.html" xlink:title="MINIAPP_BUILD_DETAILS_AUD" target="_top">
<polygon fill="#ffffff" stroke="transparent" points="155,-25 155,-379 449,-379 449,-25 155,-25"/>
<polygon fill="#f5f5f5" stroke="transparent" points="157,-354 157,-377 447,-377 447,-354 157,-354"/>
<polygon fill="none" stroke="#000000" points="157,-354 157,-377 447,-377 447,-354 157,-354"/>
<text text-anchor="start" x="162" y="-362.6" font-family="Helvetica,sans-Serif" font-weight="bold" font-size="11.00" fill="#000000">MINIAPP_BUILD_DETAILS_AUD</text>
<text text-anchor="start" x="412.0437" y="-362.1" font-family="Helvetica,sans-Serif" font-size="11.00" fill="#000000">[table]</text>
<polygon fill="none" stroke="#000000" points="157,-332 157,-354 380,-354 380,-332 157,-332"/>
<image xlink:href="../../images/primaryKeys.png" width="11px" height="12px" preserveAspectRatio="xMinYMin meet" x="162" y="-349"/>
<text text-anchor="start" x="177" y="-339.1" font-family="Helvetica,sans-Serif" font-size="11.00" fill="#000000">id</text>
<polygon fill="none" stroke="#000000" points="380,-332 380,-354 447,-354 447,-332 380,-332"/>
<text text-anchor="start" x="383" y="-339.7" font-family="Helvetica,sans-Serif" font-size="11.00" fill="#000000">int[10]</text>
<polygon fill="none" stroke="#000000" points="157,-310 157,-332 380,-332 380,-310 157,-310"/>
<image xlink:href="../../images/primaryKeys.png" width="11px" height="12px" preserveAspectRatio="xMinYMin meet" x="162" y="-327"/>
<text text-anchor="start" x="177" y="-317.1" font-family="Helvetica,sans-Serif" font-size="11.00" fill="#000000">REV</text>
<polygon fill="none" stroke="#000000" points="380,-310 380,-332 447,-332 447,-310 380,-310"/>
<text text-anchor="start" x="383" y="-317.7" font-family="Helvetica,sans-Serif" font-size="11.00" fill="#000000">int[10]</text>
<polygon fill="none" stroke="#000000" points="157,-288 157,-310 380,-310 380,-288 157,-288"/>
<text text-anchor="start" x="177" y="-295.1" font-family="Helvetica,sans-Serif" font-size="11.00" fill="#000000">REVTYPE</text>
<polygon fill="none" stroke="#000000" points="380,-288 380,-310 447,-310 447,-288 380,-288"/>
<text text-anchor="start" x="383" y="-295.7" font-family="Helvetica,sans-Serif" font-size="11.00" fill="#000000">tinyint[3]</text>
<polygon fill="none" stroke="#000000" points="157,-266 157,-288 380,-288 380,-266 157,-266"/>
<text text-anchor="start" x="177" y="-273.1" font-family="Helvetica,sans-Serif" font-size="11.00" fill="#000000">CREATED_TIME</text>
<polygon fill="none" stroke="#000000" points="380,-266 380,-288 447,-288 447,-266 380,-266"/>
<text text-anchor="start" x="383" y="-273.7" font-family="Helvetica,sans-Serif" font-size="11.00" fill="#000000">datetime[26]</text>
<polygon fill="none" stroke="#000000" points="157,-244 157,-266 380,-266 380,-244 157,-244"/>
<text text-anchor="start" x="177" y="-251.1" font-family="Helvetica,sans-Serif" font-size="11.00" fill="#000000">MODIFIED_TIME</text>
<polygon fill="none" stroke="#000000" points="380,-244 380,-266 447,-266 447,-244 380,-244"/>
<text text-anchor="start" x="383" y="-251.7" font-family="Helvetica,sans-Serif" font-size="11.00" fill="#000000">datetime[26]</text>
<polygon fill="none" stroke="#000000" points="157,-222 157,-244 380,-244 380,-222 157,-222"/>
<text text-anchor="start" x="177" y="-229.1" font-family="Helvetica,sans-Serif" font-size="11.00" fill="#000000">COMPILED_FILE_URL</text>
<polygon fill="none" stroke="#000000" points="380,-222 380,-244 447,-244 447,-222 380,-222"/>
<text text-anchor="start" x="382.9365" y="-229.7" font-family="Helvetica,sans-Serif" font-size="11.00" fill="#000000">varchar[255]</text>
<polygon fill="none" stroke="#000000" points="157,-200 157,-222 380,-222 380,-200 157,-200"/>
<text text-anchor="start" x="177" y="-207.1" font-family="Helvetica,sans-Serif" font-size="11.00" fill="#000000">CUSTOMER_ID</text>
<polygon fill="none" stroke="#000000" points="380,-200 380,-222 447,-222 447,-200 380,-200"/>
<text text-anchor="start" x="383" y="-207.7" font-family="Helvetica,sans-Serif" font-size="11.00" fill="#000000">int[10]</text>
<polygon fill="none" stroke="#000000" points="157,-178 157,-200 380,-200 380,-178 157,-178"/>
<text text-anchor="start" x="177" y="-185.1" font-family="Helvetica,sans-Serif" font-size="11.00" fill="#000000">deleted</text>
<polygon fill="none" stroke="#000000" points="380,-178 380,-200 447,-200 447,-178 380,-178"/>
<text text-anchor="start" x="383" y="-185.7" font-family="Helvetica,sans-Serif" font-size="11.00" fill="#000000">bit[1]</text>
<polygon fill="none" stroke="#000000" points="157,-156 157,-178 380,-178 380,-156 157,-156"/>
<text text-anchor="start" x="177" y="-163.1" font-family="Helvetica,sans-Serif" font-size="11.00" fill="#000000">SOURCE_CODE_PATH</text>
<polygon fill="none" stroke="#000000" points="380,-156 380,-178 447,-178 447,-156 380,-156"/>
<text text-anchor="start" x="382.9365" y="-163.7" font-family="Helvetica,sans-Serif" font-size="11.00" fill="#000000">varchar[255]</text>
<polygon fill="none" stroke="#000000" points="157,-134 157,-156 380,-156 380,-134 157,-134"/>
<text text-anchor="start" x="177" y="-141.1" font-family="Helvetica,sans-Serif" font-size="11.00" fill="#000000">SOURCE_CODE_URL</text>
<polygon fill="none" stroke="#000000" points="380,-134 380,-156 447,-156 447,-134 380,-134"/>
<text text-anchor="start" x="382.9365" y="-141.7" font-family="Helvetica,sans-Serif" font-size="11.00" fill="#000000">varchar[255]</text>
<polygon fill="none" stroke="#000000" points="157,-112 157,-134 380,-134 380,-112 157,-112"/>
<text text-anchor="start" x="177" y="-119.1" font-family="Helvetica,sans-Serif" font-size="11.00" fill="#000000">STATUS</text>
<polygon fill="none" stroke="#000000" points="380,-112 380,-134 447,-134 447,-112 380,-112"/>
<text text-anchor="start" x="383" y="-119.7" font-family="Helvetica,sans-Serif" font-size="11.00" fill="#000000">enum[4]</text>
<polygon fill="none" stroke="#000000" points="157,-90 157,-112 380,-112 380,-90 157,-90"/>
<text text-anchor="start" x="177" y="-97.1" font-family="Helvetica,sans-Serif" font-size="11.00" fill="#000000">CREATOR</text>
<polygon fill="none" stroke="#000000" points="380,-90 380,-112 447,-112 447,-90 380,-90"/>
<text text-anchor="start" x="383" y="-97.7" font-family="Helvetica,sans-Serif" font-size="11.00" fill="#000000">int[10]</text>
<polygon fill="none" stroke="#000000" points="157,-68 157,-90 380,-90 380,-68 157,-68"/>
<text text-anchor="start" x="177" y="-75.1" font-family="Helvetica,sans-Serif" font-size="11.00" fill="#000000">LAST_MODIFIER</text>
<polygon fill="none" stroke="#000000" points="380,-68 380,-90 447,-90 447,-68 380,-68"/>
<text text-anchor="start" x="383" y="-75.7" font-family="Helvetica,sans-Serif" font-size="11.00" fill="#000000">int[10]</text>
<polygon fill="none" stroke="#000000" points="157,-46 157,-68 380,-68 380,-46 157,-46"/>
<text text-anchor="start" x="177" y="-53.1" font-family="Helvetica,sans-Serif" font-size="11.00" fill="#000000">APP_ID</text>
<polygon fill="none" stroke="#000000" points="380,-46 380,-68 447,-68 447,-46 380,-46"/>
<text text-anchor="start" x="383" y="-53.7" font-family="Helvetica,sans-Serif" font-size="11.00" fill="#000000">int[10]</text>
<polygon fill="#ffffff" stroke="transparent" points="157,-27 157,-46 260,-46 260,-27 157,-27"/>
<polygon fill="none" stroke="#000000" points="157,-27 157,-46 260,-46 260,-27 157,-27"/>
<text text-anchor="start" x="160" y="-33.1" font-family="Helvetica,sans-Serif" font-size="11.00" fill="#000000">&lt; 1</text>
<polygon fill="#ffffff" stroke="transparent" points="260,-27 260,-46 380,-46 380,-27 260,-27"/>
<polygon fill="none" stroke="#000000" points="260,-27 260,-46 380,-46 380,-27 260,-27"/>
<text text-anchor="start" x="344.6105" y="-33.1" font-family="Helvetica,sans-Serif" font-size="11.00" fill="#000000">0 rows</text>
<polygon fill="#ffffff" stroke="transparent" points="380,-27 380,-46 447,-46 447,-27 380,-27"/>
<polygon fill="none" stroke="#000000" points="380,-27 380,-46 447,-46 447,-27 380,-27"/>
<text text-anchor="start" x="428.4053" y="-33.1" font-family="Helvetica,sans-Serif" font-size="11.00" fill="#000000">0 &gt;</text>
<polygon fill="none" stroke="#000000" stroke-width="2" points="156,-26 156,-378 448,-378 448,-26 156,-26"/>
</a>
</g>
</g>
<!-- REVINFO -->
<g id="node2" class="node">
<title>REVINFO</title>
<g id="a_node2"><a xlink:href="../../tables/REVINFO.html" xlink:title="REVINFO" target="_top">
<polygon fill="#ffffff" stroke="transparent" points="8,-272.5 8,-355.5 106,-355.5 106,-272.5 8,-272.5"/>
<polygon fill="#f5f5f5" stroke="transparent" points="8,-332 8,-355 106,-355 106,-332 8,-332"/>
<polygon fill="none" stroke="#000000" points="8,-332 8,-355 106,-355 106,-332 8,-332"/>
<text text-anchor="start" x="13" y="-340.6" font-family="Helvetica,sans-Serif" font-weight="bold" font-size="11.00" fill="#000000">REVINFO</text>
<text text-anchor="start" x="71.5219" y="-340.1" font-family="Helvetica,sans-Serif" font-size="11.00" fill="#000000">[table]</text>
<polygon fill="none" stroke="#000000" points="8,-310 8,-332 106,-332 106,-310 8,-310"/>
<image xlink:href="../../images/primaryKeys.png" width="11px" height="12px" preserveAspectRatio="xMinYMin meet" x="13" y="-327"/>
<text text-anchor="start" x="31" y="-317.1" font-family="Helvetica,sans-Serif" font-size="11.00" fill="#000000">REV</text>
<polygon fill="none" stroke="#000000" points="8,-291 8,-310 106,-310 106,-291 8,-291"/>
<text text-anchor="start" x="11" y="-297.1" font-family="Helvetica,sans-Serif" font-size="11.00" fill="#000000">...</text>
<polygon fill="#ffffff" stroke="transparent" points="8,-272 8,-291 33,-291 33,-272 8,-272"/>
<polygon fill="none" stroke="#000000" points="8,-272 8,-291 33,-291 33,-272 8,-272"/>
<text text-anchor="start" x="11" y="-278.1" font-family="Helvetica,sans-Serif" font-size="11.00" fill="#000000"> &#160;</text>
<polygon fill="#ffffff" stroke="transparent" points="33,-272 33,-291 78,-291 78,-272 33,-272"/>
<polygon fill="none" stroke="#000000" points="33,-272 33,-291 78,-291 78,-272 33,-272"/>
<text text-anchor="start" x="42.6105" y="-278.1" font-family="Helvetica,sans-Serif" font-size="11.00" fill="#000000">0 rows</text>
<polygon fill="#ffffff" stroke="transparent" points="78,-272 78,-291 106,-291 106,-272 78,-272"/>
<polygon fill="none" stroke="#000000" points="78,-272 78,-291 106,-291 106,-272 78,-272"/>
<text text-anchor="start" x="87.4053" y="-278.1" font-family="Helvetica,sans-Serif" font-size="11.00" fill="#000000">4 &gt;</text>
</a>
</g>
</g>
<!-- MINIAPP_BUILD_DETAILS_AUD&#45;&gt;REVINFO -->
<g id="edge1" class="edge">
<title>MINIAPP_BUILD_DETAILS_AUD:w&#45;&gt;REVINFO:e</title>
<path fill="none" stroke="#000000" d="M142.276,-321C130.2815,-321 122.8229,-321 106,-321"/>
<polygon fill="#000000" stroke="#000000" points="149,-321.0001 157,-324.6 153,-321 157,-321 157,-321 157,-321 153,-321 157,-317.4 149,-321.0001 149,-321.0001"/>
<ellipse fill="none" stroke="#000000" cx="145.8" cy="-321.0001" rx="3.2" ry="3.2"/>
</g>
</g>
</svg>
