<?xml version="1.0" encoding="UTF-8" standalone="no"?>
<!DOCTYPE svg PUBLIC "-//W3C//DTD SVG 1.1//EN"
 "http://www.w3.org/Graphics/SVG/1.1/DTD/svg11.dtd">
<!-- Generated by graphviz version 2.40.1 (20161225.0304)
 -->
<!-- Title: twoDegreesRelationshipsDiagram Pages: 1 -->
<svg width="465pt" height="638pt"
 viewBox="0.00 0.00 465.00 638.00" xmlns="http://www.w3.org/2000/svg" xmlns:xlink="http://www.w3.org/1999/xlink">
<g id="graph0" class="graph" transform="scale(1 1) rotate(0) translate(4 634)">
<title>twoDegreesRelationshipsDiagram</title>
<polygon fill="#ffffff" stroke="transparent" points="-4,4 -4,-634 461,-634 461,4 -4,4"/>
<!-- HOSTING_DETAILS_AUD -->
<g id="node1" class="node">
<title>HOSTING_DETAILS_AUD</title>
<g id="a_node1"><a xlink:href="../../tables/HOSTING_DETAILS_AUD.html" xlink:title="HOSTING_DETAILS_AUD" target="_top">
<polygon fill="#ffffff" stroke="transparent" points="203.5,-565 203.5,-626 400.5,-626 400.5,-565 203.5,-565"/>
<polygon fill="#f5f5f5" stroke="transparent" points="204,-602.5 204,-625.5 401,-625.5 401,-602.5 204,-602.5"/>
<polygon fill="none" stroke="#000000" points="204,-602.5 204,-625.5 401,-625.5 401,-602.5 204,-602.5"/>
<text text-anchor="start" x="209" y="-611.1" font-family="Helvetica,sans-Serif" font-weight="bold" font-size="11.00" fill="#000000">HOSTING_DETAILS_AUD</text>
<text text-anchor="start" x="366.5219" y="-610.6" font-family="Helvetica,sans-Serif" font-size="11.00" fill="#000000">[table]</text>
<polygon fill="none" stroke="#000000" points="204,-583.5 204,-602.5 401,-602.5 401,-583.5 204,-583.5"/>
<text text-anchor="start" x="207" y="-589.6" font-family="Helvetica,sans-Serif" font-size="11.00" fill="#000000">...</text>
<polygon fill="#ffffff" stroke="transparent" points="204,-564.5 204,-583.5 288,-583.5 288,-564.5 204,-564.5"/>
<polygon fill="none" stroke="#000000" points="204,-564.5 204,-583.5 288,-583.5 288,-564.5 204,-564.5"/>
<text text-anchor="start" x="207" y="-570.6" font-family="Helvetica,sans-Serif" font-size="11.00" fill="#000000">&lt; 1</text>
<polygon fill="#ffffff" stroke="transparent" points="288,-564.5 288,-583.5 357,-583.5 357,-564.5 288,-564.5"/>
<polygon fill="none" stroke="#000000" points="288,-564.5 288,-583.5 357,-583.5 357,-564.5 288,-564.5"/>
<text text-anchor="start" x="321.6105" y="-570.6" font-family="Helvetica,sans-Serif" font-size="11.00" fill="#000000">0 rows</text>
<polygon fill="#ffffff" stroke="transparent" points="357,-564.5 357,-583.5 401,-583.5 401,-564.5 357,-564.5"/>
<polygon fill="none" stroke="#000000" points="357,-564.5 357,-583.5 401,-583.5 401,-564.5 357,-564.5"/>
<text text-anchor="start" x="391.8862" y="-570.6" font-family="Helvetica,sans-Serif" font-size="11.00" fill="#000000"> &#160;</text>
</a>
</g>
</g>
<!-- REVINFO -->
<g id="node2" class="node">
<title>REVINFO</title>
<g id="a_node2"><a xlink:href="../../tables/REVINFO.html" xlink:title="REVINFO" target="_top">
<polygon fill="#ffffff" stroke="transparent" points="8,-261 8,-344 106,-344 106,-261 8,-261"/>
<polygon fill="#f5f5f5" stroke="transparent" points="8,-320.5 8,-343.5 106,-343.5 106,-320.5 8,-320.5"/>
<polygon fill="none" stroke="#000000" points="8,-320.5 8,-343.5 106,-343.5 106,-320.5 8,-320.5"/>
<text text-anchor="start" x="13" y="-329.1" font-family="Helvetica,sans-Serif" font-weight="bold" font-size="11.00" fill="#000000">REVINFO</text>
<text text-anchor="start" x="71.5219" y="-328.6" font-family="Helvetica,sans-Serif" font-size="11.00" fill="#000000">[table]</text>
<polygon fill="none" stroke="#000000" points="8,-298.5 8,-320.5 106,-320.5 106,-298.5 8,-298.5"/>
<image xlink:href="../../images/primaryKeys.png" width="11px" height="12px" preserveAspectRatio="xMinYMin meet" x="13" y="-315.5"/>
<text text-anchor="start" x="31" y="-305.6" font-family="Helvetica,sans-Serif" font-size="11.00" fill="#000000">REV</text>
<polygon fill="none" stroke="#000000" points="8,-279.5 8,-298.5 106,-298.5 106,-279.5 8,-279.5"/>
<text text-anchor="start" x="11" y="-285.6" font-family="Helvetica,sans-Serif" font-size="11.00" fill="#000000">...</text>
<polygon fill="#ffffff" stroke="transparent" points="8,-260.5 8,-279.5 33,-279.5 33,-260.5 8,-260.5"/>
<polygon fill="none" stroke="#000000" points="8,-260.5 8,-279.5 33,-279.5 33,-260.5 8,-260.5"/>
<text text-anchor="start" x="11" y="-266.6" font-family="Helvetica,sans-Serif" font-size="11.00" fill="#000000"> &#160;</text>
<polygon fill="#ffffff" stroke="transparent" points="33,-260.5 33,-279.5 78,-279.5 78,-260.5 33,-260.5"/>
<polygon fill="none" stroke="#000000" points="33,-260.5 33,-279.5 78,-279.5 78,-260.5 33,-260.5"/>
<text text-anchor="start" x="42.6105" y="-266.6" font-family="Helvetica,sans-Serif" font-size="11.00" fill="#000000">0 rows</text>
<polygon fill="#ffffff" stroke="transparent" points="78,-260.5 78,-279.5 106,-279.5 106,-260.5 78,-260.5"/>
<polygon fill="none" stroke="#000000" points="78,-260.5 78,-279.5 106,-279.5 106,-260.5 78,-260.5"/>
<text text-anchor="start" x="87.4053" y="-266.6" font-family="Helvetica,sans-Serif" font-size="11.00" fill="#000000">4 &gt;</text>
</a>
</g>
</g>
<!-- HOSTING_DETAILS_AUD&#45;&gt;REVINFO -->
<g id="edge1" class="edge">
<title>HOSTING_DETAILS_AUD:w&#45;&gt;REVINFO:e</title>
<path fill="none" stroke="#000000" d="M189.4101,-591.2913C169.744,-587.6064 160.5682,-575.4691 147,-554.5 117.0118,-508.1544 161.2015,-309.5 106,-309.5"/>
<polygon fill="#000000" stroke="#000000" points="196.0273,-591.8394 203.7027,-596.0877 200.0137,-592.1697 204,-592.5 204,-592.5 204,-592.5 200.0137,-592.1697 204.2973,-588.9123 196.0273,-591.8394 196.0273,-591.8394"/>
<ellipse fill="none" stroke="#000000" cx="192.8382" cy="-591.5752" rx="3.2" ry="3.2"/>
</g>
<!-- MINIAPP_BUILD_DETAILS_AUD -->
<g id="node3" class="node">
<title>MINIAPP_BUILD_DETAILS_AUD</title>
<g id="a_node3"><a xlink:href="../../tables/MINIAPP_BUILD_DETAILS_AUD.html" xlink:title="MINIAPP_BUILD_DETAILS_AUD" target="_top">
<polygon fill="#ffffff" stroke="transparent" points="155,-189.5 155,-543.5 449,-543.5 449,-189.5 155,-189.5"/>
<polygon fill="#f5f5f5" stroke="transparent" points="157,-518.5 157,-541.5 447,-541.5 447,-518.5 157,-518.5"/>
<polygon fill="none" stroke="#000000" points="157,-518.5 157,-541.5 447,-541.5 447,-518.5 157,-518.5"/>
<text text-anchor="start" x="162" y="-527.1" font-family="Helvetica,sans-Serif" font-weight="bold" font-size="11.00" fill="#000000">MINIAPP_BUILD_DETAILS_AUD</text>
<text text-anchor="start" x="412.0437" y="-526.6" font-family="Helvetica,sans-Serif" font-size="11.00" fill="#000000">[table]</text>
<polygon fill="none" stroke="#000000" points="157,-496.5 157,-518.5 380,-518.5 380,-496.5 157,-496.5"/>
<image xlink:href="../../images/primaryKeys.png" width="11px" height="12px" preserveAspectRatio="xMinYMin meet" x="162" y="-513.5"/>
<text text-anchor="start" x="177" y="-503.6" font-family="Helvetica,sans-Serif" font-size="11.00" fill="#000000">id</text>
<polygon fill="none" stroke="#000000" points="380,-496.5 380,-518.5 447,-518.5 447,-496.5 380,-496.5"/>
<text text-anchor="start" x="383" y="-504.2" font-family="Helvetica,sans-Serif" font-size="11.00" fill="#000000">int[10]</text>
<polygon fill="none" stroke="#000000" points="157,-474.5 157,-496.5 380,-496.5 380,-474.5 157,-474.5"/>
<image xlink:href="../../images/primaryKeys.png" width="11px" height="12px" preserveAspectRatio="xMinYMin meet" x="162" y="-491.5"/>
<text text-anchor="start" x="177" y="-481.6" font-family="Helvetica,sans-Serif" font-size="11.00" fill="#000000">REV</text>
<polygon fill="none" stroke="#000000" points="380,-474.5 380,-496.5 447,-496.5 447,-474.5 380,-474.5"/>
<text text-anchor="start" x="383" y="-482.2" font-family="Helvetica,sans-Serif" font-size="11.00" fill="#000000">int[10]</text>
<polygon fill="none" stroke="#000000" points="157,-452.5 157,-474.5 380,-474.5 380,-452.5 157,-452.5"/>
<text text-anchor="start" x="177" y="-459.6" font-family="Helvetica,sans-Serif" font-size="11.00" fill="#000000">REVTYPE</text>
<polygon fill="none" stroke="#000000" points="380,-452.5 380,-474.5 447,-474.5 447,-452.5 380,-452.5"/>
<text text-anchor="start" x="383" y="-460.2" font-family="Helvetica,sans-Serif" font-size="11.00" fill="#000000">tinyint[3]</text>
<polygon fill="none" stroke="#000000" points="157,-430.5 157,-452.5 380,-452.5 380,-430.5 157,-430.5"/>
<text text-anchor="start" x="177" y="-437.6" font-family="Helvetica,sans-Serif" font-size="11.00" fill="#000000">CREATED_TIME</text>
<polygon fill="none" stroke="#000000" points="380,-430.5 380,-452.5 447,-452.5 447,-430.5 380,-430.5"/>
<text text-anchor="start" x="383" y="-438.2" font-family="Helvetica,sans-Serif" font-size="11.00" fill="#000000">datetime[26]</text>
<polygon fill="none" stroke="#000000" points="157,-408.5 157,-430.5 380,-430.5 380,-408.5 157,-408.5"/>
<text text-anchor="start" x="177" y="-415.6" font-family="Helvetica,sans-Serif" font-size="11.00" fill="#000000">MODIFIED_TIME</text>
<polygon fill="none" stroke="#000000" points="380,-408.5 380,-430.5 447,-430.5 447,-408.5 380,-408.5"/>
<text text-anchor="start" x="383" y="-416.2" font-family="Helvetica,sans-Serif" font-size="11.00" fill="#000000">datetime[26]</text>
<polygon fill="none" stroke="#000000" points="157,-386.5 157,-408.5 380,-408.5 380,-386.5 157,-386.5"/>
<text text-anchor="start" x="177" y="-393.6" font-family="Helvetica,sans-Serif" font-size="11.00" fill="#000000">COMPILED_FILE_URL</text>
<polygon fill="none" stroke="#000000" points="380,-386.5 380,-408.5 447,-408.5 447,-386.5 380,-386.5"/>
<text text-anchor="start" x="382.9365" y="-394.2" font-family="Helvetica,sans-Serif" font-size="11.00" fill="#000000">varchar[255]</text>
<polygon fill="none" stroke="#000000" points="157,-364.5 157,-386.5 380,-386.5 380,-364.5 157,-364.5"/>
<text text-anchor="start" x="177" y="-371.6" font-family="Helvetica,sans-Serif" font-size="11.00" fill="#000000">CUSTOMER_ID</text>
<polygon fill="none" stroke="#000000" points="380,-364.5 380,-386.5 447,-386.5 447,-364.5 380,-364.5"/>
<text text-anchor="start" x="383" y="-372.2" font-family="Helvetica,sans-Serif" font-size="11.00" fill="#000000">int[10]</text>
<polygon fill="none" stroke="#000000" points="157,-342.5 157,-364.5 380,-364.5 380,-342.5 157,-342.5"/>
<text text-anchor="start" x="177" y="-349.6" font-family="Helvetica,sans-Serif" font-size="11.00" fill="#000000">deleted</text>
<polygon fill="none" stroke="#000000" points="380,-342.5 380,-364.5 447,-364.5 447,-342.5 380,-342.5"/>
<text text-anchor="start" x="383" y="-350.2" font-family="Helvetica,sans-Serif" font-size="11.00" fill="#000000">bit[1]</text>
<polygon fill="none" stroke="#000000" points="157,-320.5 157,-342.5 380,-342.5 380,-320.5 157,-320.5"/>
<text text-anchor="start" x="177" y="-327.6" font-family="Helvetica,sans-Serif" font-size="11.00" fill="#000000">SOURCE_CODE_PATH</text>
<polygon fill="none" stroke="#000000" points="380,-320.5 380,-342.5 447,-342.5 447,-320.5 380,-320.5"/>
<text text-anchor="start" x="382.9365" y="-328.2" font-family="Helvetica,sans-Serif" font-size="11.00" fill="#000000">varchar[255]</text>
<polygon fill="none" stroke="#000000" points="157,-298.5 157,-320.5 380,-320.5 380,-298.5 157,-298.5"/>
<text text-anchor="start" x="177" y="-305.6" font-family="Helvetica,sans-Serif" font-size="11.00" fill="#000000">SOURCE_CODE_URL</text>
<polygon fill="none" stroke="#000000" points="380,-298.5 380,-320.5 447,-320.5 447,-298.5 380,-298.5"/>
<text text-anchor="start" x="382.9365" y="-306.2" font-family="Helvetica,sans-Serif" font-size="11.00" fill="#000000">varchar[255]</text>
<polygon fill="none" stroke="#000000" points="157,-276.5 157,-298.5 380,-298.5 380,-276.5 157,-276.5"/>
<text text-anchor="start" x="177" y="-283.6" font-family="Helvetica,sans-Serif" font-size="11.00" fill="#000000">STATUS</text>
<polygon fill="none" stroke="#000000" points="380,-276.5 380,-298.5 447,-298.5 447,-276.5 380,-276.5"/>
<text text-anchor="start" x="383" y="-284.2" font-family="Helvetica,sans-Serif" font-size="11.00" fill="#000000">enum[4]</text>
<polygon fill="none" stroke="#000000" points="157,-254.5 157,-276.5 380,-276.5 380,-254.5 157,-254.5"/>
<text text-anchor="start" x="177" y="-261.6" font-family="Helvetica,sans-Serif" font-size="11.00" fill="#000000">CREATOR</text>
<polygon fill="none" stroke="#000000" points="380,-254.5 380,-276.5 447,-276.5 447,-254.5 380,-254.5"/>
<text text-anchor="start" x="383" y="-262.2" font-family="Helvetica,sans-Serif" font-size="11.00" fill="#000000">int[10]</text>
<polygon fill="none" stroke="#000000" points="157,-232.5 157,-254.5 380,-254.5 380,-232.5 157,-232.5"/>
<text text-anchor="start" x="177" y="-239.6" font-family="Helvetica,sans-Serif" font-size="11.00" fill="#000000">LAST_MODIFIER</text>
<polygon fill="none" stroke="#000000" points="380,-232.5 380,-254.5 447,-254.5 447,-232.5 380,-232.5"/>
<text text-anchor="start" x="383" y="-240.2" font-family="Helvetica,sans-Serif" font-size="11.00" fill="#000000">int[10]</text>
<polygon fill="none" stroke="#000000" points="157,-210.5 157,-232.5 380,-232.5 380,-210.5 157,-210.5"/>
<text text-anchor="start" x="177" y="-217.6" font-family="Helvetica,sans-Serif" font-size="11.00" fill="#000000">APP_ID</text>
<polygon fill="none" stroke="#000000" points="380,-210.5 380,-232.5 447,-232.5 447,-210.5 380,-210.5"/>
<text text-anchor="start" x="383" y="-218.2" font-family="Helvetica,sans-Serif" font-size="11.00" fill="#000000">int[10]</text>
<polygon fill="#ffffff" stroke="transparent" points="157,-191.5 157,-210.5 260,-210.5 260,-191.5 157,-191.5"/>
<polygon fill="none" stroke="#000000" points="157,-191.5 157,-210.5 260,-210.5 260,-191.5 157,-191.5"/>
<text text-anchor="start" x="160" y="-197.6" font-family="Helvetica,sans-Serif" font-size="11.00" fill="#000000">&lt; 1</text>
<polygon fill="#ffffff" stroke="transparent" points="260,-191.5 260,-210.5 380,-210.5 380,-191.5 260,-191.5"/>
<polygon fill="none" stroke="#000000" points="260,-191.5 260,-210.5 380,-210.5 380,-191.5 260,-191.5"/>
<text text-anchor="start" x="344.6105" y="-197.6" font-family="Helvetica,sans-Serif" font-size="11.00" fill="#000000">0 rows</text>
<polygon fill="#ffffff" stroke="transparent" points="380,-191.5 380,-210.5 447,-210.5 447,-191.5 380,-191.5"/>
<polygon fill="none" stroke="#000000" points="380,-191.5 380,-210.5 447,-210.5 447,-191.5 380,-191.5"/>
<text text-anchor="start" x="428.4053" y="-197.6" font-family="Helvetica,sans-Serif" font-size="11.00" fill="#000000">0 &gt;</text>
<polygon fill="none" stroke="#000000" stroke-width="2" points="156,-190.5 156,-542.5 448,-542.5 448,-190.5 156,-190.5"/>
</a>
</g>
</g>
<!-- MINIAPP_BUILD_DETAILS_AUD&#45;&gt;REVINFO -->
<g id="edge2" class="edge">
<title>MINIAPP_BUILD_DETAILS_AUD:w&#45;&gt;REVINFO:e</title>
<path fill="none" stroke="#000000" d="M142.5541,-483.012C90.3373,-461.6201 181.7139,-309.5 106,-309.5"/>
<polygon fill="#000000" stroke="#000000" points="149.1161,-484.1421 156.389,-489.0478 153.058,-484.8211 157,-485.5 157,-485.5 157,-485.5 153.058,-484.8211 157.611,-481.9522 149.1161,-484.1421 149.1161,-484.1421"/>
<ellipse fill="none" stroke="#000000" cx="145.9625" cy="-483.599" rx="3.2" ry="3.2"/>
</g>
<!-- MINIAPP_DETAILS_AUD -->
<g id="node4" class="node">
<title>MINIAPP_DETAILS_AUD</title>
<g id="a_node4"><a xlink:href="../../tables/MINIAPP_DETAILS_AUD.html" xlink:title="MINIAPP_DETAILS_AUD" target="_top">
<polygon fill="#ffffff" stroke="transparent" points="205,-107 205,-168 399,-168 399,-107 205,-107"/>
<polygon fill="#f5f5f5" stroke="transparent" points="205,-144.5 205,-167.5 399,-167.5 399,-144.5 205,-144.5"/>
<polygon fill="none" stroke="#000000" points="205,-144.5 205,-167.5 399,-167.5 399,-144.5 205,-144.5"/>
<text text-anchor="start" x="210" y="-153.1" font-family="Helvetica,sans-Serif" font-weight="bold" font-size="11.00" fill="#000000">MINIAPP_DETAILS_AUD</text>
<text text-anchor="start" x="364.5219" y="-152.6" font-family="Helvetica,sans-Serif" font-size="11.00" fill="#000000">[table]</text>
<polygon fill="none" stroke="#000000" points="205,-125.5 205,-144.5 399,-144.5 399,-125.5 205,-125.5"/>
<text text-anchor="start" x="208" y="-131.6" font-family="Helvetica,sans-Serif" font-size="11.00" fill="#000000">...</text>
<polygon fill="#ffffff" stroke="transparent" points="205,-106.5 205,-125.5 287,-125.5 287,-106.5 205,-106.5"/>
<polygon fill="none" stroke="#000000" points="205,-106.5 205,-125.5 287,-125.5 287,-106.5 205,-106.5"/>
<text text-anchor="start" x="208" y="-112.6" font-family="Helvetica,sans-Serif" font-size="11.00" fill="#000000">&lt; 1</text>
<polygon fill="#ffffff" stroke="transparent" points="287,-106.5 287,-125.5 356,-125.5 356,-106.5 287,-106.5"/>
<polygon fill="none" stroke="#000000" points="287,-106.5 287,-125.5 356,-125.5 356,-106.5 287,-106.5"/>
<text text-anchor="start" x="320.6105" y="-112.6" font-family="Helvetica,sans-Serif" font-size="11.00" fill="#000000">0 rows</text>
<polygon fill="#ffffff" stroke="transparent" points="356,-106.5 356,-125.5 399,-125.5 399,-106.5 356,-106.5"/>
<polygon fill="none" stroke="#000000" points="356,-106.5 356,-125.5 399,-125.5 399,-106.5 356,-106.5"/>
<text text-anchor="start" x="389.8862" y="-112.6" font-family="Helvetica,sans-Serif" font-size="11.00" fill="#000000"> &#160;</text>
</a>
</g>
</g>
<!-- MINIAPP_DETAILS_AUD&#45;&gt;REVINFO -->
<g id="edge3" class="edge">
<title>MINIAPP_DETAILS_AUD:w&#45;&gt;REVINFO:e</title>
<path fill="none" stroke="#000000" d="M190.572,-135.9967C169.7764,-140.8636 162.5118,-157.2221 147,-179.5 112.3819,-229.2183 166.5832,-309.5 106,-309.5"/>
<polygon fill="#000000" stroke="#000000" points="197.0427,-135.3255 205.3715,-138.0808 201.0213,-134.9128 205,-134.5 205,-134.5 205,-134.5 201.0213,-134.9128 204.6285,-130.9192 197.0427,-135.3255 197.0427,-135.3255"/>
<ellipse fill="none" stroke="#000000" cx="193.8598" cy="-135.6557" rx="3.2" ry="3.2"/>
</g>
<!-- User_AUD -->
<g id="node5" class="node">
<title>User_AUD</title>
<g id="a_node5"><a xlink:href="../../tables/User_AUD.html" xlink:title="User_AUD" target="_top">
<polygon fill="#ffffff" stroke="transparent" points="250,-25 250,-86 354,-86 354,-25 250,-25"/>
<polygon fill="#f5f5f5" stroke="transparent" points="250,-62.5 250,-85.5 354,-85.5 354,-62.5 250,-62.5"/>
<polygon fill="none" stroke="#000000" points="250,-62.5 250,-85.5 354,-85.5 354,-62.5 250,-62.5"/>
<text text-anchor="start" x="255" y="-71.1" font-family="Helvetica,sans-Serif" font-weight="bold" font-size="11.00" fill="#000000">User_AUD</text>
<text text-anchor="start" x="319.5219" y="-70.6" font-family="Helvetica,sans-Serif" font-size="11.00" fill="#000000">[table]</text>
<polygon fill="none" stroke="#000000" points="250,-43.5 250,-62.5 354,-62.5 354,-43.5 250,-43.5"/>
<text text-anchor="start" x="253" y="-49.6" font-family="Helvetica,sans-Serif" font-size="11.00" fill="#000000">...</text>
<polygon fill="#ffffff" stroke="transparent" points="250,-24.5 250,-43.5 287,-43.5 287,-24.5 250,-24.5"/>
<polygon fill="none" stroke="#000000" points="250,-24.5 250,-43.5 287,-43.5 287,-24.5 250,-24.5"/>
<text text-anchor="start" x="253" y="-30.6" font-family="Helvetica,sans-Serif" font-size="11.00" fill="#000000">&lt; 1</text>
<polygon fill="#ffffff" stroke="transparent" points="287,-24.5 287,-43.5 333,-43.5 333,-24.5 287,-24.5"/>
<polygon fill="none" stroke="#000000" points="287,-24.5 287,-43.5 333,-43.5 333,-24.5 287,-24.5"/>
<text text-anchor="start" x="297.6105" y="-30.6" font-family="Helvetica,sans-Serif" font-size="11.00" fill="#000000">0 rows</text>
<polygon fill="#ffffff" stroke="transparent" points="333,-24.5 333,-43.5 354,-43.5 354,-24.5 333,-24.5"/>
<polygon fill="none" stroke="#000000" points="333,-24.5 333,-43.5 354,-43.5 354,-24.5 333,-24.5"/>
<text text-anchor="start" x="344.8862" y="-30.6" font-family="Helvetica,sans-Serif" font-size="11.00" fill="#000000"> &#160;</text>
</a>
</g>
</g>
<!-- User_AUD&#45;&gt;REVINFO -->
<g id="edge4" class="edge">
<title>User_AUD:w&#45;&gt;REVINFO:e</title>
<path fill="none" stroke="#000000" d="M235.3938,-52.7001C195.5718,-53.9458 175.0131,-61.7607 147,-96.5 86.4851,-171.5451 202.4045,-309.5 106,-309.5"/>
<polygon fill="#000000" stroke="#000000" points="242.0008,-52.6096 250.0493,-56.0997 246.0004,-52.5548 250,-52.5 250,-52.5 250,-52.5 246.0004,-52.5548 249.9507,-48.9003 242.0008,-52.6096 242.0008,-52.6096"/>
<ellipse fill="none" stroke="#000000" cx="238.8011" cy="-52.6535" rx="3.2" ry="3.2"/>
</g>
</g>
</svg>
