<?xml version="1.0" encoding="UTF-8" standalone="no"?>
<!DOCTYPE svg PUBLIC "-//W3C//DTD SVG 1.1//EN"
 "http://www.w3.org/Graphics/SVG/1.1/DTD/svg11.dtd">
<!-- Generated by graphviz version 2.40.1 (20161225.0304)
 -->
<!-- Title: oneDegreeRelationshipsDiagram Pages: 1 -->
<svg width="491pt" height="259pt"
 viewBox="0.00 0.00 491.00 259.00" xmlns="http://www.w3.org/2000/svg" xmlns:xlink="http://www.w3.org/1999/xlink">
<g id="graph0" class="graph" transform="scale(1 1) rotate(0) translate(4 255)">
<title>oneDegreeRelationshipsDiagram</title>
<polygon fill="#ffffff" stroke="transparent" points="-4,4 -4,-255 487,-255 487,4 -4,4"/>
<!-- MINIAPP_BUILD_DETAILS -->
<g id="node1" class="node">
<title>MINIAPP_BUILD_DETAILS</title>
<g id="a_node1"><a xlink:href="../../tables/MINIAPP_BUILD_DETAILS.html" xlink:title="MINIAPP_BUILD_DETAILS" target="_top">
<polygon fill="#ffffff" stroke="transparent" points="216,-25 216,-247 475,-247 475,-25 216,-25"/>
<polygon fill="#f5f5f5" stroke="transparent" points="218.5,-222 218.5,-245 473.5,-245 473.5,-222 218.5,-222"/>
<polygon fill="none" stroke="#000000" points="218.5,-222 218.5,-245 473.5,-245 473.5,-222 218.5,-222"/>
<text text-anchor="start" x="223.5" y="-230.6" font-family="Helvetica,sans-Serif" font-weight="bold" font-size="11.00" fill="#000000">MINIAPP_BUILD_DETAILS</text>
<text text-anchor="start" x="438.5437" y="-230.1" font-family="Helvetica,sans-Serif" font-size="11.00" fill="#000000">[table]</text>
<polygon fill="none" stroke="#000000" points="218.5,-200 218.5,-222 406.5,-222 406.5,-200 218.5,-200"/>
<image xlink:href="../../images/primaryKeys.png" width="11px" height="12px" preserveAspectRatio="xMinYMin meet" x="223.5" y="-217"/>
<text text-anchor="start" x="238.5" y="-207.1" font-family="Helvetica,sans-Serif" font-size="11.00" fill="#000000">ID</text>
<polygon fill="none" stroke="#000000" points="406.5,-200 406.5,-222 473.5,-222 473.5,-200 406.5,-200"/>
<text text-anchor="start" x="409.5" y="-207.7" font-family="Helvetica,sans-Serif" font-size="11.00" fill="#000000">int[10]</text>
<polygon fill="none" stroke="#000000" points="218.5,-178 218.5,-200 406.5,-200 406.5,-178 218.5,-178"/>
<text text-anchor="start" x="238.5" y="-185.1" font-family="Helvetica,sans-Serif" font-size="11.00" fill="#000000">DELETED</text>
<polygon fill="none" stroke="#000000" points="406.5,-178 406.5,-200 473.5,-200 473.5,-178 406.5,-178"/>
<text text-anchor="start" x="409.5" y="-185.7" font-family="Helvetica,sans-Serif" font-size="11.00" fill="#000000">bit[1]</text>
<polygon fill="none" stroke="#000000" points="218.5,-156 218.5,-178 406.5,-178 406.5,-156 218.5,-156"/>
<text text-anchor="start" x="238.5" y="-163.1" font-family="Helvetica,sans-Serif" font-size="11.00" fill="#000000">CUSTOMER_ID</text>
<polygon fill="none" stroke="#000000" points="406.5,-156 406.5,-178 473.5,-178 473.5,-156 406.5,-156"/>
<text text-anchor="start" x="409.5" y="-163.7" font-family="Helvetica,sans-Serif" font-size="11.00" fill="#000000">int[10]</text>
<polygon fill="#ffffff" stroke="transparent" points="218.5,-134 218.5,-156 406.5,-156 406.5,-134 218.5,-134"/>
<polygon fill="none" stroke="#000000" points="218.5,-134 218.5,-156 406.5,-156 406.5,-134 218.5,-134"/>
<image xlink:href="../../images/foreignKeys.png" width="11px" height="12px" preserveAspectRatio="xMinYMin meet" x="223.5" y="-151"/>
<text text-anchor="start" x="238.5" y="-141.1" font-family="Helvetica,sans-Serif" font-size="11.00" fill="#000000">APP_ID</text>
<polygon fill="none" stroke="#000000" points="406.5,-134 406.5,-156 473.5,-156 473.5,-134 406.5,-134"/>
<text text-anchor="start" x="409.5" y="-141.7" font-family="Helvetica,sans-Serif" font-size="11.00" fill="#000000">int[10]</text>
<polygon fill="none" stroke="#000000" points="218.5,-112 218.5,-134 406.5,-134 406.5,-112 218.5,-112"/>
<text text-anchor="start" x="238.5" y="-119.1" font-family="Helvetica,sans-Serif" font-size="11.00" fill="#000000">SOURCE_CODE_URL</text>
<polygon fill="none" stroke="#000000" points="406.5,-112 406.5,-134 473.5,-134 473.5,-112 406.5,-112"/>
<text text-anchor="start" x="409.4365" y="-119.7" font-family="Helvetica,sans-Serif" font-size="11.00" fill="#000000">varchar[255]</text>
<polygon fill="none" stroke="#000000" points="218.5,-90 218.5,-112 406.5,-112 406.5,-90 218.5,-90"/>
<text text-anchor="start" x="238.5" y="-97.1" font-family="Helvetica,sans-Serif" font-size="11.00" fill="#000000">COMPILED_FILE_URL</text>
<polygon fill="none" stroke="#000000" points="406.5,-90 406.5,-112 473.5,-112 473.5,-90 406.5,-90"/>
<text text-anchor="start" x="409.4365" y="-97.7" font-family="Helvetica,sans-Serif" font-size="11.00" fill="#000000">varchar[255]</text>
<polygon fill="none" stroke="#000000" points="218.5,-68 218.5,-90 406.5,-90 406.5,-68 218.5,-68"/>
<text text-anchor="start" x="238.5" y="-75.1" font-family="Helvetica,sans-Serif" font-size="11.00" fill="#000000">SOURCE_CODE_PATH</text>
<polygon fill="none" stroke="#000000" points="406.5,-68 406.5,-90 473.5,-90 473.5,-68 406.5,-68"/>
<text text-anchor="start" x="409.4365" y="-75.7" font-family="Helvetica,sans-Serif" font-size="11.00" fill="#000000">varchar[255]</text>
<polygon fill="none" stroke="#000000" points="218.5,-46 218.5,-68 406.5,-68 406.5,-46 218.5,-46"/>
<text text-anchor="start" x="238.5" y="-53.1" font-family="Helvetica,sans-Serif" font-size="11.00" fill="#000000">STATUS</text>
<polygon fill="none" stroke="#000000" points="406.5,-46 406.5,-68 473.5,-68 473.5,-46 406.5,-46"/>
<text text-anchor="start" x="409.5" y="-53.7" font-family="Helvetica,sans-Serif" font-size="11.00" fill="#000000">enum[4]</text>
<polygon fill="#ffffff" stroke="transparent" points="218.5,-27 218.5,-46 303.5,-46 303.5,-27 218.5,-27"/>
<polygon fill="none" stroke="#000000" points="218.5,-27 218.5,-46 303.5,-46 303.5,-27 218.5,-27"/>
<text text-anchor="start" x="221.5" y="-33.1" font-family="Helvetica,sans-Serif" font-size="11.00" fill="#000000">&lt; 1</text>
<polygon fill="#ffffff" stroke="transparent" points="303.5,-27 303.5,-46 406.5,-46 406.5,-27 303.5,-27"/>
<polygon fill="none" stroke="#000000" points="303.5,-27 303.5,-46 406.5,-46 406.5,-27 303.5,-27"/>
<text text-anchor="start" x="371.1105" y="-33.1" font-family="Helvetica,sans-Serif" font-size="11.00" fill="#000000">0 rows</text>
<polygon fill="#ffffff" stroke="transparent" points="406.5,-27 406.5,-46 473.5,-46 473.5,-27 406.5,-27"/>
<polygon fill="none" stroke="#000000" points="406.5,-27 406.5,-46 473.5,-46 473.5,-27 406.5,-27"/>
<text text-anchor="start" x="454.9053" y="-33.1" font-family="Helvetica,sans-Serif" font-size="11.00" fill="#000000">0 &gt;</text>
<polygon fill="none" stroke="#000000" stroke-width="2" points="217,-26 217,-246 474,-246 474,-26 217,-26"/>
</a>
</g>
</g>
<!-- MINIAPP_DETAILS -->
<g id="node2" class="node">
<title>MINIAPP_DETAILS</title>
<g id="a_node2"><a xlink:href="../../tables/MINIAPP_DETAILS.html" xlink:title="MINIAPP_DETAILS" target="_top">
<polygon fill="#ffffff" stroke="transparent" points="8,-96.5 8,-179.5 167,-179.5 167,-96.5 8,-96.5"/>
<polygon fill="#f5f5f5" stroke="transparent" points="8.5,-156 8.5,-179 167.5,-179 167.5,-156 8.5,-156"/>
<polygon fill="none" stroke="#000000" points="8.5,-156 8.5,-179 167.5,-179 167.5,-156 8.5,-156"/>
<text text-anchor="start" x="13.5" y="-164.6" font-family="Helvetica,sans-Serif" font-weight="bold" font-size="11.00" fill="#000000">MINIAPP_DETAILS</text>
<text text-anchor="start" x="133.0219" y="-164.1" font-family="Helvetica,sans-Serif" font-size="11.00" fill="#000000">[table]</text>
<polygon fill="none" stroke="#000000" points="8.5,-134 8.5,-156 167.5,-156 167.5,-134 8.5,-134"/>
<image xlink:href="../../images/primaryKeys.png" width="11px" height="12px" preserveAspectRatio="xMinYMin meet" x="13.5" y="-151"/>
<text text-anchor="start" x="36.5" y="-141.1" font-family="Helvetica,sans-Serif" font-size="11.00" fill="#000000">ID</text>
<polygon fill="none" stroke="#000000" points="8.5,-115 8.5,-134 167.5,-134 167.5,-115 8.5,-115"/>
<text text-anchor="start" x="11.5" y="-121.1" font-family="Helvetica,sans-Serif" font-size="11.00" fill="#000000">...</text>
<polygon fill="#ffffff" stroke="transparent" points="8.5,-96 8.5,-115 64.5,-115 64.5,-96 8.5,-96"/>
<polygon fill="none" stroke="#000000" points="8.5,-96 8.5,-115 64.5,-115 64.5,-96 8.5,-96"/>
<text text-anchor="start" x="11.5" y="-102.1" font-family="Helvetica,sans-Serif" font-size="11.00" fill="#000000"> &#160;</text>
<polygon fill="#ffffff" stroke="transparent" points="64.5,-96 64.5,-115 124.5,-115 124.5,-96 64.5,-96"/>
<polygon fill="none" stroke="#000000" points="64.5,-96 64.5,-115 124.5,-115 124.5,-96 64.5,-96"/>
<text text-anchor="start" x="89.1105" y="-102.1" font-family="Helvetica,sans-Serif" font-size="11.00" fill="#000000">0 rows</text>
<polygon fill="#ffffff" stroke="transparent" points="124.5,-96 124.5,-115 167.5,-115 167.5,-96 124.5,-96"/>
<polygon fill="none" stroke="#000000" points="124.5,-96 124.5,-115 167.5,-115 167.5,-96 124.5,-96"/>
<text text-anchor="start" x="148.9053" y="-102.1" font-family="Helvetica,sans-Serif" font-size="11.00" fill="#000000">2 &gt;</text>
</a>
</g>
</g>
<!-- MINIAPP_BUILD_DETAILS&#45;&gt;MINIAPP_DETAILS -->
<g id="edge1" class="edge">
<title>MINIAPP_BUILD_DETAILS:w&#45;&gt;MINIAPP_DETAILS:e</title>
<path fill="none" stroke="#000000" d="M203.776,-145C191.7815,-145 184.3229,-145 167.5,-145"/>
<polygon fill="#000000" stroke="#000000" points="210.5,-145.0001 218.5,-148.6 214.5,-145 218.5,-145 218.5,-145 218.5,-145 214.5,-145 218.5,-141.4 210.5,-145.0001 210.5,-145.0001"/>
<ellipse fill="none" stroke="#000000" cx="207.3" cy="-145.0001" rx="3.2" ry="3.2"/>
</g>
</g>
</svg>
