<?xml version="1.0" encoding="UTF-8" standalone="no"?>
<!DOCTYPE svg PUBLIC "-//W3C//DTD SVG 1.1//EN"
 "http://www.w3.org/Graphics/SVG/1.1/DTD/svg11.dtd">
<!-- Generated by graphviz version 2.40.1 (20161225.0304)
 -->
<!-- Title: oneDegreeRelationshipsDiagram Pages: 1 -->
<svg width="418pt" height="413pt"
 viewBox="0.00 0.00 418.00 413.00" xmlns="http://www.w3.org/2000/svg" xmlns:xlink="http://www.w3.org/1999/xlink">
<g id="graph0" class="graph" transform="scale(1 1) rotate(0) translate(4 409)">
<title>oneDegreeRelationshipsDiagram</title>
<polygon fill="#ffffff" stroke="transparent" points="-4,4 -4,-409 414,-409 414,4 -4,4"/>
<!-- MINIAPP_DETAILS_AUD -->
<g id="node1" class="node">
<title>MINIAPP_DETAILS_AUD</title>
<g id="a_node1"><a xlink:href="../../tables/MINIAPP_DETAILS_AUD.html" xlink:title="MINIAPP_DETAILS_AUD" target="_top">
<polygon fill="#ffffff" stroke="transparent" points="155,-25 155,-401 402,-401 402,-25 155,-25"/>
<polygon fill="#f5f5f5" stroke="transparent" points="157.5,-376 157.5,-399 400.5,-399 400.5,-376 157.5,-376"/>
<polygon fill="none" stroke="#000000" points="157.5,-376 157.5,-399 400.5,-399 400.5,-376 157.5,-376"/>
<text text-anchor="start" x="162.5" y="-384.6" font-family="Helvetica,sans-Serif" font-weight="bold" font-size="11.00" fill="#000000">MINIAPP_DETAILS_AUD</text>
<text text-anchor="start" x="365.5437" y="-384.1" font-family="Helvetica,sans-Serif" font-size="11.00" fill="#000000">[table]</text>
<polygon fill="none" stroke="#000000" points="157.5,-354 157.5,-376 333.5,-376 333.5,-354 157.5,-354"/>
<image xlink:href="../../images/primaryKeys.png" width="11px" height="12px" preserveAspectRatio="xMinYMin meet" x="162.5" y="-371"/>
<text text-anchor="start" x="177.5" y="-361.1" font-family="Helvetica,sans-Serif" font-size="11.00" fill="#000000">id</text>
<polygon fill="none" stroke="#000000" points="333.5,-354 333.5,-376 400.5,-376 400.5,-354 333.5,-354"/>
<text text-anchor="start" x="336.5" y="-361.7" font-family="Helvetica,sans-Serif" font-size="11.00" fill="#000000">int[10]</text>
<polygon fill="none" stroke="#000000" points="157.5,-332 157.5,-354 333.5,-354 333.5,-332 157.5,-332"/>
<image xlink:href="../../images/primaryKeys.png" width="11px" height="12px" preserveAspectRatio="xMinYMin meet" x="162.5" y="-349"/>
<text text-anchor="start" x="177.5" y="-339.1" font-family="Helvetica,sans-Serif" font-size="11.00" fill="#000000">REV</text>
<polygon fill="none" stroke="#000000" points="333.5,-332 333.5,-354 400.5,-354 400.5,-332 333.5,-332"/>
<text text-anchor="start" x="336.5" y="-339.7" font-family="Helvetica,sans-Serif" font-size="11.00" fill="#000000">int[10]</text>
<polygon fill="none" stroke="#000000" points="157.5,-310 157.5,-332 333.5,-332 333.5,-310 157.5,-310"/>
<text text-anchor="start" x="177.5" y="-317.1" font-family="Helvetica,sans-Serif" font-size="11.00" fill="#000000">REVTYPE</text>
<polygon fill="none" stroke="#000000" points="333.5,-310 333.5,-332 400.5,-332 400.5,-310 333.5,-310"/>
<text text-anchor="start" x="336.5" y="-317.7" font-family="Helvetica,sans-Serif" font-size="11.00" fill="#000000">tinyint[3]</text>
<polygon fill="none" stroke="#000000" points="157.5,-288 157.5,-310 333.5,-310 333.5,-288 157.5,-288"/>
<text text-anchor="start" x="177.5" y="-295.1" font-family="Helvetica,sans-Serif" font-size="11.00" fill="#000000">CREATED_TIME</text>
<polygon fill="none" stroke="#000000" points="333.5,-288 333.5,-310 400.5,-310 400.5,-288 333.5,-288"/>
<text text-anchor="start" x="336.5" y="-295.7" font-family="Helvetica,sans-Serif" font-size="11.00" fill="#000000">datetime[26]</text>
<polygon fill="none" stroke="#000000" points="157.5,-266 157.5,-288 333.5,-288 333.5,-266 157.5,-266"/>
<text text-anchor="start" x="177.5" y="-273.1" font-family="Helvetica,sans-Serif" font-size="11.00" fill="#000000">MODIFIED_TIME</text>
<polygon fill="none" stroke="#000000" points="333.5,-266 333.5,-288 400.5,-288 400.5,-266 333.5,-266"/>
<text text-anchor="start" x="336.5" y="-273.7" font-family="Helvetica,sans-Serif" font-size="11.00" fill="#000000">datetime[26]</text>
<polygon fill="none" stroke="#000000" points="157.5,-244 157.5,-266 333.5,-266 333.5,-244 157.5,-244"/>
<text text-anchor="start" x="177.5" y="-251.1" font-family="Helvetica,sans-Serif" font-size="11.00" fill="#000000">APPLICATION_KEY</text>
<polygon fill="none" stroke="#000000" points="333.5,-244 333.5,-266 400.5,-266 400.5,-244 333.5,-244"/>
<text text-anchor="start" x="336.4365" y="-251.7" font-family="Helvetica,sans-Serif" font-size="11.00" fill="#000000">varchar[100]</text>
<polygon fill="none" stroke="#000000" points="157.5,-222 157.5,-244 333.5,-244 333.5,-222 157.5,-222"/>
<text text-anchor="start" x="177.5" y="-229.1" font-family="Helvetica,sans-Serif" font-size="11.00" fill="#000000">CUSTOMER_ID</text>
<polygon fill="none" stroke="#000000" points="333.5,-222 333.5,-244 400.5,-244 400.5,-222 333.5,-222"/>
<text text-anchor="start" x="336.5" y="-229.7" font-family="Helvetica,sans-Serif" font-size="11.00" fill="#000000">int[10]</text>
<polygon fill="none" stroke="#000000" points="157.5,-200 157.5,-222 333.5,-222 333.5,-200 157.5,-200"/>
<text text-anchor="start" x="177.5" y="-207.1" font-family="Helvetica,sans-Serif" font-size="11.00" fill="#000000">deleted</text>
<polygon fill="none" stroke="#000000" points="333.5,-200 333.5,-222 400.5,-222 400.5,-200 333.5,-200"/>
<text text-anchor="start" x="336.5" y="-207.7" font-family="Helvetica,sans-Serif" font-size="11.00" fill="#000000">bit[1]</text>
<polygon fill="none" stroke="#000000" points="157.5,-178 157.5,-200 333.5,-200 333.5,-178 157.5,-178"/>
<text text-anchor="start" x="177.5" y="-185.1" font-family="Helvetica,sans-Serif" font-size="11.00" fill="#000000">description</text>
<polygon fill="none" stroke="#000000" points="333.5,-178 333.5,-200 400.5,-200 400.5,-178 333.5,-178"/>
<text text-anchor="start" x="336.4365" y="-185.7" font-family="Helvetica,sans-Serif" font-size="11.00" fill="#000000">varchar[255]</text>
<polygon fill="none" stroke="#000000" points="157.5,-156 157.5,-178 333.5,-178 333.5,-156 157.5,-156"/>
<text text-anchor="start" x="177.5" y="-163.1" font-family="Helvetica,sans-Serif" font-size="11.00" fill="#000000">ICON_URL</text>
<polygon fill="none" stroke="#000000" points="333.5,-156 333.5,-178 400.5,-178 400.5,-156 333.5,-156"/>
<text text-anchor="start" x="336.4365" y="-163.7" font-family="Helvetica,sans-Serif" font-size="11.00" fill="#000000">varchar[255]</text>
<polygon fill="none" stroke="#000000" points="157.5,-134 157.5,-156 333.5,-156 333.5,-134 157.5,-134"/>
<text text-anchor="start" x="177.5" y="-141.1" font-family="Helvetica,sans-Serif" font-size="11.00" fill="#000000">name</text>
<polygon fill="none" stroke="#000000" points="333.5,-134 333.5,-156 400.5,-156 400.5,-134 333.5,-134"/>
<text text-anchor="start" x="336.5" y="-141.7" font-family="Helvetica,sans-Serif" font-size="11.00" fill="#000000">varchar[50]</text>
<polygon fill="none" stroke="#000000" points="157.5,-112 157.5,-134 333.5,-134 333.5,-112 157.5,-112"/>
<text text-anchor="start" x="177.5" y="-119.1" font-family="Helvetica,sans-Serif" font-size="11.00" fill="#000000">tagging</text>
<polygon fill="none" stroke="#000000" points="333.5,-112 333.5,-134 400.5,-134 400.5,-112 333.5,-112"/>
<text text-anchor="start" x="336.5" y="-119.7" font-family="Helvetica,sans-Serif" font-size="11.00" fill="#000000">varchar[30]</text>
<polygon fill="none" stroke="#000000" points="157.5,-90 157.5,-112 333.5,-112 333.5,-90 157.5,-90"/>
<text text-anchor="start" x="177.5" y="-97.1" font-family="Helvetica,sans-Serif" font-size="11.00" fill="#000000">version</text>
<polygon fill="none" stroke="#000000" points="333.5,-90 333.5,-112 400.5,-112 400.5,-90 333.5,-90"/>
<text text-anchor="start" x="336.5" y="-97.7" font-family="Helvetica,sans-Serif" font-size="11.00" fill="#000000">varchar[15]</text>
<polygon fill="none" stroke="#000000" points="157.5,-68 157.5,-90 333.5,-90 333.5,-68 157.5,-68"/>
<text text-anchor="start" x="177.5" y="-75.1" font-family="Helvetica,sans-Serif" font-size="11.00" fill="#000000">CREATOR</text>
<polygon fill="none" stroke="#000000" points="333.5,-68 333.5,-90 400.5,-90 400.5,-68 333.5,-68"/>
<text text-anchor="start" x="336.5" y="-75.7" font-family="Helvetica,sans-Serif" font-size="11.00" fill="#000000">int[10]</text>
<polygon fill="none" stroke="#000000" points="157.5,-46 157.5,-68 333.5,-68 333.5,-46 157.5,-46"/>
<text text-anchor="start" x="177.5" y="-53.1" font-family="Helvetica,sans-Serif" font-size="11.00" fill="#000000">LAST_MODIFIER</text>
<polygon fill="none" stroke="#000000" points="333.5,-46 333.5,-68 400.5,-68 400.5,-46 333.5,-46"/>
<text text-anchor="start" x="336.5" y="-53.7" font-family="Helvetica,sans-Serif" font-size="11.00" fill="#000000">int[10]</text>
<polygon fill="#ffffff" stroke="transparent" points="157.5,-27 157.5,-46 236.5,-46 236.5,-27 157.5,-27"/>
<polygon fill="none" stroke="#000000" points="157.5,-27 157.5,-46 236.5,-46 236.5,-27 157.5,-27"/>
<text text-anchor="start" x="160.5" y="-33.1" font-family="Helvetica,sans-Serif" font-size="11.00" fill="#000000">&lt; 1</text>
<polygon fill="#ffffff" stroke="transparent" points="236.5,-27 236.5,-46 333.5,-46 333.5,-27 236.5,-27"/>
<polygon fill="none" stroke="#000000" points="236.5,-27 236.5,-46 333.5,-46 333.5,-27 236.5,-27"/>
<text text-anchor="start" x="298.1105" y="-33.1" font-family="Helvetica,sans-Serif" font-size="11.00" fill="#000000">0 rows</text>
<polygon fill="#ffffff" stroke="transparent" points="333.5,-27 333.5,-46 400.5,-46 400.5,-27 333.5,-27"/>
<polygon fill="none" stroke="#000000" points="333.5,-27 333.5,-46 400.5,-46 400.5,-27 333.5,-27"/>
<text text-anchor="start" x="381.9053" y="-33.1" font-family="Helvetica,sans-Serif" font-size="11.00" fill="#000000">0 &gt;</text>
<polygon fill="none" stroke="#000000" stroke-width="2" points="156,-26 156,-400 401,-400 401,-26 156,-26"/>
</a>
</g>
</g>
<!-- REVINFO -->
<g id="node2" class="node">
<title>REVINFO</title>
<g id="a_node2"><a xlink:href="../../tables/REVINFO.html" xlink:title="REVINFO" target="_top">
<polygon fill="#ffffff" stroke="transparent" points="8,-294.5 8,-377.5 106,-377.5 106,-294.5 8,-294.5"/>
<polygon fill="#f5f5f5" stroke="transparent" points="8,-354 8,-377 106,-377 106,-354 8,-354"/>
<polygon fill="none" stroke="#000000" points="8,-354 8,-377 106,-377 106,-354 8,-354"/>
<text text-anchor="start" x="13" y="-362.6" font-family="Helvetica,sans-Serif" font-weight="bold" font-size="11.00" fill="#000000">REVINFO</text>
<text text-anchor="start" x="71.5219" y="-362.1" font-family="Helvetica,sans-Serif" font-size="11.00" fill="#000000">[table]</text>
<polygon fill="none" stroke="#000000" points="8,-332 8,-354 106,-354 106,-332 8,-332"/>
<image xlink:href="../../images/primaryKeys.png" width="11px" height="12px" preserveAspectRatio="xMinYMin meet" x="13" y="-349"/>
<text text-anchor="start" x="31" y="-339.1" font-family="Helvetica,sans-Serif" font-size="11.00" fill="#000000">REV</text>
<polygon fill="none" stroke="#000000" points="8,-313 8,-332 106,-332 106,-313 8,-313"/>
<text text-anchor="start" x="11" y="-319.1" font-family="Helvetica,sans-Serif" font-size="11.00" fill="#000000">...</text>
<polygon fill="#ffffff" stroke="transparent" points="8,-294 8,-313 33,-313 33,-294 8,-294"/>
<polygon fill="none" stroke="#000000" points="8,-294 8,-313 33,-313 33,-294 8,-294"/>
<text text-anchor="start" x="11" y="-300.1" font-family="Helvetica,sans-Serif" font-size="11.00" fill="#000000"> &#160;</text>
<polygon fill="#ffffff" stroke="transparent" points="33,-294 33,-313 78,-313 78,-294 33,-294"/>
<polygon fill="none" stroke="#000000" points="33,-294 33,-313 78,-313 78,-294 33,-294"/>
<text text-anchor="start" x="42.6105" y="-300.1" font-family="Helvetica,sans-Serif" font-size="11.00" fill="#000000">0 rows</text>
<polygon fill="#ffffff" stroke="transparent" points="78,-294 78,-313 106,-313 106,-294 78,-294"/>
<polygon fill="none" stroke="#000000" points="78,-294 78,-313 106,-313 106,-294 78,-294"/>
<text text-anchor="start" x="87.4053" y="-300.1" font-family="Helvetica,sans-Serif" font-size="11.00" fill="#000000">4 &gt;</text>
</a>
</g>
</g>
<!-- MINIAPP_DETAILS_AUD&#45;&gt;REVINFO -->
<g id="edge1" class="edge">
<title>MINIAPP_DETAILS_AUD:w&#45;&gt;REVINFO:e</title>
<path fill="none" stroke="#000000" d="M143.0156,-343C130.6771,-343 123.1667,-343 106,-343"/>
<polygon fill="#000000" stroke="#000000" points="149.5,-343.0001 157.5,-346.6 153.5,-343 157.5,-343 157.5,-343 157.5,-343 153.5,-343 157.5,-339.4 149.5,-343.0001 149.5,-343.0001"/>
<ellipse fill="none" stroke="#000000" cx="146.3" cy="-343.0001" rx="3.2" ry="3.2"/>
</g>
</g>
</svg>
