<?xml version="1.0" encoding="UTF-8" standalone="no"?>
<!DOCTYPE svg PUBLIC "-//W3C//DTD SVG 1.1//EN"
 "http://www.w3.org/Graphics/SVG/1.1/DTD/svg11.dtd">
<!-- Generated by graphviz version 2.40.1 (20161225.0304)
 -->
<!-- Title: oneDegreeRelationshipsDiagram Pages: 1 -->
<svg width="493pt" height="365pt"
 viewBox="0.00 0.00 493.00 364.50" xmlns="http://www.w3.org/2000/svg" xmlns:xlink="http://www.w3.org/1999/xlink">
<g id="graph0" class="graph" transform="scale(1 1) rotate(0) translate(4 360.5)">
<title>oneDegreeRelationshipsDiagram</title>
<polygon fill="#ffffff" stroke="transparent" points="-4,4 -4,-360.5 489,-360.5 489,4 -4,4"/>
<!-- HOSTING_DETAILS -->
<g id="node1" class="node">
<title>HOSTING_DETAILS</title>
<g id="a_node1"><a xlink:href="../../tables/HOSTING_DETAILS.html" xlink:title="HOSTING_DETAILS" target="_top">
<polygon fill="#ffffff" stroke="transparent" points="293,-247.5 293,-352.5 455,-352.5 455,-247.5 293,-247.5"/>
<polygon fill="#f5f5f5" stroke="transparent" points="293,-329 293,-352 455,-352 455,-329 293,-329"/>
<polygon fill="none" stroke="#000000" points="293,-329 293,-352 455,-352 455,-329 293,-329"/>
<text text-anchor="start" x="298" y="-337.6" font-family="Helvetica,sans-Serif" font-weight="bold" font-size="11.00" fill="#000000">HOSTING_DETAILS</text>
<text text-anchor="start" x="420.5219" y="-337.1" font-family="Helvetica,sans-Serif" font-size="11.00" fill="#000000">[table]</text>
<polygon fill="none" stroke="#000000" points="293,-307 293,-329 455,-329 455,-307 293,-307"/>
<image xlink:href="../../images/primaryKeys.png" width="11px" height="12px" preserveAspectRatio="xMinYMin meet" x="298" y="-324"/>
<text text-anchor="start" x="322" y="-314.1" font-family="Helvetica,sans-Serif" font-size="11.00" fill="#000000">ID</text>
<polygon fill="#ffffff" stroke="transparent" points="293,-285 293,-307 455,-307 455,-285 293,-285"/>
<polygon fill="none" stroke="#000000" points="293,-285 293,-307 455,-307 455,-285 293,-285"/>
<image xlink:href="../../images/foreignKeys.png" width="11px" height="12px" preserveAspectRatio="xMinYMin meet" x="298" y="-302"/>
<text text-anchor="start" x="322" y="-292.1" font-family="Helvetica,sans-Serif" font-size="11.00" fill="#000000">APP_ID</text>
<polygon fill="none" stroke="#000000" points="293,-266 293,-285 455,-285 455,-266 293,-266"/>
<text text-anchor="start" x="296" y="-272.1" font-family="Helvetica,sans-Serif" font-size="11.00" fill="#000000">...</text>
<polygon fill="#ffffff" stroke="transparent" points="293,-247 293,-266 359,-266 359,-247 293,-247"/>
<polygon fill="none" stroke="#000000" points="293,-247 293,-266 359,-266 359,-247 293,-247"/>
<text text-anchor="start" x="296" y="-253.1" font-family="Helvetica,sans-Serif" font-size="11.00" fill="#000000">&lt; 1</text>
<polygon fill="#ffffff" stroke="transparent" points="359,-247 359,-266 420,-266 420,-247 359,-247"/>
<polygon fill="none" stroke="#000000" points="359,-247 359,-266 420,-266 420,-247 359,-247"/>
<text text-anchor="start" x="384.6105" y="-253.1" font-family="Helvetica,sans-Serif" font-size="11.00" fill="#000000">0 rows</text>
<polygon fill="#ffffff" stroke="transparent" points="420,-247 420,-266 455,-266 455,-247 420,-247"/>
<polygon fill="none" stroke="#000000" points="420,-247 420,-266 455,-266 455,-247 420,-247"/>
<text text-anchor="start" x="445.8862" y="-253.1" font-family="Helvetica,sans-Serif" font-size="11.00" fill="#000000"> &#160;</text>
</a>
</g>
</g>
<!-- MINIAPP_DETAILS -->
<g id="node2" class="node">
<title>MINIAPP_DETAILS</title>
<g id="a_node2"><a xlink:href="../../tables/MINIAPP_DETAILS.html" xlink:title="MINIAPP_DETAILS" target="_top">
<polygon fill="#ffffff" stroke="transparent" points="8,-25 8,-269 222,-269 222,-25 8,-25"/>
<polygon fill="#f5f5f5" stroke="transparent" points="10,-244 10,-267 220,-267 220,-244 10,-244"/>
<polygon fill="none" stroke="#000000" points="10,-244 10,-267 220,-267 220,-244 10,-244"/>
<text text-anchor="start" x="15" y="-252.6" font-family="Helvetica,sans-Serif" font-weight="bold" font-size="11.00" fill="#000000">MINIAPP_DETAILS</text>
<text text-anchor="start" x="185.0437" y="-252.1" font-family="Helvetica,sans-Serif" font-size="11.00" fill="#000000">[table]</text>
<polygon fill="none" stroke="#000000" points="10,-222 10,-244 153,-244 153,-222 10,-222"/>
<image xlink:href="../../images/primaryKeys.png" width="11px" height="12px" preserveAspectRatio="xMinYMin meet" x="15" y="-239"/>
<text text-anchor="start" x="30" y="-229.1" font-family="Helvetica,sans-Serif" font-size="11.00" fill="#000000">ID</text>
<polygon fill="none" stroke="#000000" points="153,-222 153,-244 220,-244 220,-222 153,-222"/>
<text text-anchor="start" x="156" y="-229.7" font-family="Helvetica,sans-Serif" font-size="11.00" fill="#000000">int[10]</text>
<polygon fill="none" stroke="#000000" points="10,-200 10,-222 153,-222 153,-200 10,-200"/>
<text text-anchor="start" x="30" y="-207.1" font-family="Helvetica,sans-Serif" font-size="11.00" fill="#000000">DELETED</text>
<polygon fill="none" stroke="#000000" points="153,-200 153,-222 220,-222 220,-200 153,-200"/>
<text text-anchor="start" x="156" y="-207.7" font-family="Helvetica,sans-Serif" font-size="11.00" fill="#000000">bit[1]</text>
<polygon fill="none" stroke="#000000" points="10,-178 10,-200 153,-200 153,-178 10,-178"/>
<text text-anchor="start" x="30" y="-185.1" font-family="Helvetica,sans-Serif" font-size="11.00" fill="#000000">CUSTOMER_ID</text>
<polygon fill="none" stroke="#000000" points="153,-178 153,-200 220,-200 220,-178 153,-178"/>
<text text-anchor="start" x="156" y="-185.7" font-family="Helvetica,sans-Serif" font-size="11.00" fill="#000000">int[10]</text>
<polygon fill="none" stroke="#000000" points="10,-156 10,-178 153,-178 153,-156 10,-156"/>
<text text-anchor="start" x="30" y="-163.1" font-family="Helvetica,sans-Serif" font-size="11.00" fill="#000000">NAME</text>
<polygon fill="none" stroke="#000000" points="153,-156 153,-178 220,-178 220,-156 153,-156"/>
<text text-anchor="start" x="156" y="-163.7" font-family="Helvetica,sans-Serif" font-size="11.00" fill="#000000">varchar[50]</text>
<polygon fill="none" stroke="#000000" points="10,-134 10,-156 153,-156 153,-134 10,-134"/>
<text text-anchor="start" x="30" y="-141.1" font-family="Helvetica,sans-Serif" font-size="11.00" fill="#000000">DESCRIPTION</text>
<polygon fill="none" stroke="#000000" points="153,-134 153,-156 220,-156 220,-134 153,-134"/>
<text text-anchor="start" x="155.9365" y="-141.7" font-family="Helvetica,sans-Serif" font-size="11.00" fill="#000000">varchar[255]</text>
<polygon fill="none" stroke="#000000" points="10,-112 10,-134 153,-134 153,-112 10,-112"/>
<text text-anchor="start" x="30" y="-119.1" font-family="Helvetica,sans-Serif" font-size="11.00" fill="#000000">ICON_URL</text>
<polygon fill="none" stroke="#000000" points="153,-112 153,-134 220,-134 220,-112 153,-112"/>
<text text-anchor="start" x="155.9365" y="-119.7" font-family="Helvetica,sans-Serif" font-size="11.00" fill="#000000">varchar[255]</text>
<polygon fill="none" stroke="#000000" points="10,-90 10,-112 153,-112 153,-90 10,-90"/>
<text text-anchor="start" x="30" y="-97.1" font-family="Helvetica,sans-Serif" font-size="11.00" fill="#000000">VERSION</text>
<polygon fill="none" stroke="#000000" points="153,-90 153,-112 220,-112 220,-90 153,-90"/>
<text text-anchor="start" x="156" y="-97.7" font-family="Helvetica,sans-Serif" font-size="11.00" fill="#000000">varchar[15]</text>
<polygon fill="none" stroke="#000000" points="10,-68 10,-90 153,-90 153,-68 10,-68"/>
<text text-anchor="start" x="30" y="-75.1" font-family="Helvetica,sans-Serif" font-size="11.00" fill="#000000">APPLICATION_KEY</text>
<polygon fill="none" stroke="#000000" points="153,-68 153,-90 220,-90 220,-68 153,-68"/>
<text text-anchor="start" x="155.9365" y="-75.7" font-family="Helvetica,sans-Serif" font-size="11.00" fill="#000000">varchar[100]</text>
<polygon fill="none" stroke="#000000" points="10,-46 10,-68 153,-68 153,-46 10,-46"/>
<text text-anchor="start" x="30" y="-53.1" font-family="Helvetica,sans-Serif" font-size="11.00" fill="#000000">TAGGING</text>
<polygon fill="none" stroke="#000000" points="153,-46 153,-68 220,-68 220,-46 153,-46"/>
<text text-anchor="start" x="156" y="-53.7" font-family="Helvetica,sans-Serif" font-size="11.00" fill="#000000">varchar[30]</text>
<polygon fill="#ffffff" stroke="transparent" points="10,-27 10,-46 73,-46 73,-27 10,-27"/>
<polygon fill="none" stroke="#000000" points="10,-27 10,-46 73,-46 73,-27 10,-27"/>
<text text-anchor="start" x="13" y="-33.1" font-family="Helvetica,sans-Serif" font-size="11.00" fill="#000000">&lt; 0</text>
<polygon fill="#ffffff" stroke="transparent" points="73,-27 73,-46 153,-46 153,-27 73,-27"/>
<polygon fill="none" stroke="#000000" points="73,-27 73,-46 153,-46 153,-27 73,-27"/>
<text text-anchor="start" x="117.6105" y="-33.1" font-family="Helvetica,sans-Serif" font-size="11.00" fill="#000000">0 rows</text>
<polygon fill="#ffffff" stroke="transparent" points="153,-27 153,-46 220,-46 220,-27 153,-27"/>
<polygon fill="none" stroke="#000000" points="153,-27 153,-46 220,-46 220,-27 153,-27"/>
<text text-anchor="start" x="201.4053" y="-33.1" font-family="Helvetica,sans-Serif" font-size="11.00" fill="#000000">2 &gt;</text>
<polygon fill="none" stroke="#000000" stroke-width="2" points="9,-26 9,-268 221,-268 221,-26 9,-26"/>
</a>
</g>
</g>
<!-- HOSTING_DETAILS&#45;&gt;MINIAPP_DETAILS -->
<g id="edge1" class="edge">
<title>HOSTING_DETAILS:w&#45;&gt;MINIAPP_DETAILS:e</title>
<path fill="none" stroke="#000000" d="M278.6047,-292.9614C252.5404,-280.3769 257.1642,-233 220,-233"/>
<polygon fill="#000000" stroke="#000000" points="285.1725,-294.3477 292.2565,-299.5224 289.0862,-295.1738 293,-296 293,-296 293,-296 289.0862,-295.1738 293.7435,-292.4776 285.1725,-294.3477 285.1725,-294.3477"/>
<ellipse fill="none" stroke="#000000" cx="282.0415" cy="-293.6868" rx="3.2" ry="3.2"/>
</g>
<!-- MINIAPP_BUILD_DETAILS -->
<g id="node3" class="node">
<title>MINIAPP_BUILD_DETAILS</title>
<g id="a_node3"><a xlink:href="../../tables/MINIAPP_BUILD_DETAILS.html" xlink:title="MINIAPP_BUILD_DETAILS" target="_top">
<polygon fill="#ffffff" stroke="transparent" points="271,-121.5 271,-226.5 477,-226.5 477,-121.5 271,-121.5"/>
<polygon fill="#f5f5f5" stroke="transparent" points="271,-203 271,-226 477,-226 477,-203 271,-203"/>
<polygon fill="none" stroke="#000000" points="271,-203 271,-226 477,-226 477,-203 271,-203"/>
<text text-anchor="start" x="276" y="-211.6" font-family="Helvetica,sans-Serif" font-weight="bold" font-size="11.00" fill="#000000">MINIAPP_BUILD_DETAILS</text>
<text text-anchor="start" x="442.5219" y="-211.1" font-family="Helvetica,sans-Serif" font-size="11.00" fill="#000000">[table]</text>
<polygon fill="none" stroke="#000000" points="271,-181 271,-203 477,-203 477,-181 271,-181"/>
<image xlink:href="../../images/primaryKeys.png" width="11px" height="12px" preserveAspectRatio="xMinYMin meet" x="276" y="-198"/>
<text text-anchor="start" x="300" y="-188.1" font-family="Helvetica,sans-Serif" font-size="11.00" fill="#000000">ID</text>
<polygon fill="#ffffff" stroke="transparent" points="271,-159 271,-181 477,-181 477,-159 271,-159"/>
<polygon fill="none" stroke="#000000" points="271,-159 271,-181 477,-181 477,-159 271,-159"/>
<image xlink:href="../../images/foreignKeys.png" width="11px" height="12px" preserveAspectRatio="xMinYMin meet" x="276" y="-176"/>
<text text-anchor="start" x="300" y="-166.1" font-family="Helvetica,sans-Serif" font-size="11.00" fill="#000000">APP_ID</text>
<polygon fill="none" stroke="#000000" points="271,-140 271,-159 477,-159 477,-140 271,-140"/>
<text text-anchor="start" x="274" y="-146.1" font-family="Helvetica,sans-Serif" font-size="11.00" fill="#000000">...</text>
<polygon fill="#ffffff" stroke="transparent" points="271,-121 271,-140 359,-140 359,-121 271,-121"/>
<polygon fill="none" stroke="#000000" points="271,-121 271,-140 359,-140 359,-121 271,-121"/>
<text text-anchor="start" x="274" y="-127.1" font-family="Helvetica,sans-Serif" font-size="11.00" fill="#000000">&lt; 1</text>
<polygon fill="#ffffff" stroke="transparent" points="359,-121 359,-140 431,-140 431,-121 359,-121"/>
<polygon fill="none" stroke="#000000" points="359,-121 359,-140 431,-140 431,-121 359,-121"/>
<text text-anchor="start" x="395.6105" y="-127.1" font-family="Helvetica,sans-Serif" font-size="11.00" fill="#000000">0 rows</text>
<polygon fill="#ffffff" stroke="transparent" points="431,-121 431,-140 477,-140 477,-121 431,-121"/>
<polygon fill="none" stroke="#000000" points="431,-121 431,-140 477,-140 477,-121 431,-121"/>
<text text-anchor="start" x="467.8862" y="-127.1" font-family="Helvetica,sans-Serif" font-size="11.00" fill="#000000"> &#160;</text>
</a>
</g>
</g>
<!-- MINIAPP_BUILD_DETAILS&#45;&gt;MINIAPP_DETAILS -->
<g id="edge2" class="edge">
<title>MINIAPP_BUILD_DETAILS:w&#45;&gt;MINIAPP_DETAILS:e</title>
<path fill="none" stroke="#000000" d="M256.9033,-174.9435C240.525,-189.7952 249.8329,-233 220,-233"/>
<polygon fill="#000000" stroke="#000000" points="263.4507,-172.6474 272.1913,-173.3972 267.2254,-171.3237 271,-170 271,-170 271,-170 267.2254,-171.3237 269.8087,-166.6028 263.4507,-172.6474 263.4507,-172.6474"/>
<ellipse fill="none" stroke="#000000" cx="260.431" cy="-173.7064" rx="3.2" ry="3.2"/>
</g>
</g>
</svg>
