<?xml version="1.0" encoding="UTF-8" standalone="no"?>
<!DOCTYPE svg PUBLIC "-//W3C//DTD SVG 1.1//EN"
 "http://www.w3.org/Graphics/SVG/1.1/DTD/svg11.dtd">
<!-- Generated by graphviz version 2.40.1 (20161225.0304)
 -->
<!-- Title: twoDegreesRelationshipsDiagram Pages: 1 -->
<svg width="418pt" height="660pt"
 viewBox="0.00 0.00 418.00 660.00" xmlns="http://www.w3.org/2000/svg" xmlns:xlink="http://www.w3.org/1999/xlink">
<g id="graph0" class="graph" transform="scale(1 1) rotate(0) translate(4 656)">
<title>twoDegreesRelationshipsDiagram</title>
<polygon fill="#ffffff" stroke="transparent" points="-4,4 -4,-656 414,-656 414,4 -4,4"/>
<!-- HOSTING_DETAILS_AUD -->
<g id="node1" class="node">
<title>HOSTING_DETAILS_AUD</title>
<g id="a_node1"><a xlink:href="../../tables/HOSTING_DETAILS_AUD.html" xlink:title="HOSTING_DETAILS_AUD" target="_top">
<polygon fill="#ffffff" stroke="transparent" points="180,-587 180,-648 377,-648 377,-587 180,-587"/>
<polygon fill="#f5f5f5" stroke="transparent" points="180.5,-624.5 180.5,-647.5 377.5,-647.5 377.5,-624.5 180.5,-624.5"/>
<polygon fill="none" stroke="#000000" points="180.5,-624.5 180.5,-647.5 377.5,-647.5 377.5,-624.5 180.5,-624.5"/>
<text text-anchor="start" x="185.5" y="-633.1" font-family="Helvetica,sans-Serif" font-weight="bold" font-size="11.00" fill="#000000">HOSTING_DETAILS_AUD</text>
<text text-anchor="start" x="343.0219" y="-632.6" font-family="Helvetica,sans-Serif" font-size="11.00" fill="#000000">[table]</text>
<polygon fill="none" stroke="#000000" points="180.5,-605.5 180.5,-624.5 377.5,-624.5 377.5,-605.5 180.5,-605.5"/>
<text text-anchor="start" x="183.5" y="-611.6" font-family="Helvetica,sans-Serif" font-size="11.00" fill="#000000">...</text>
<polygon fill="#ffffff" stroke="transparent" points="180.5,-586.5 180.5,-605.5 264.5,-605.5 264.5,-586.5 180.5,-586.5"/>
<polygon fill="none" stroke="#000000" points="180.5,-586.5 180.5,-605.5 264.5,-605.5 264.5,-586.5 180.5,-586.5"/>
<text text-anchor="start" x="183.5" y="-592.6" font-family="Helvetica,sans-Serif" font-size="11.00" fill="#000000">&lt; 1</text>
<polygon fill="#ffffff" stroke="transparent" points="264.5,-586.5 264.5,-605.5 333.5,-605.5 333.5,-586.5 264.5,-586.5"/>
<polygon fill="none" stroke="#000000" points="264.5,-586.5 264.5,-605.5 333.5,-605.5 333.5,-586.5 264.5,-586.5"/>
<text text-anchor="start" x="298.1105" y="-592.6" font-family="Helvetica,sans-Serif" font-size="11.00" fill="#000000">0 rows</text>
<polygon fill="#ffffff" stroke="transparent" points="333.5,-586.5 333.5,-605.5 377.5,-605.5 377.5,-586.5 333.5,-586.5"/>
<polygon fill="none" stroke="#000000" points="333.5,-586.5 333.5,-605.5 377.5,-605.5 377.5,-586.5 333.5,-586.5"/>
<text text-anchor="start" x="368.3862" y="-592.6" font-family="Helvetica,sans-Serif" font-size="11.00" fill="#000000"> &#160;</text>
</a>
</g>
</g>
<!-- REVINFO -->
<g id="node2" class="node">
<title>REVINFO</title>
<g id="a_node2"><a xlink:href="../../tables/REVINFO.html" xlink:title="REVINFO" target="_top">
<polygon fill="#ffffff" stroke="transparent" points="8,-430 8,-513 106,-513 106,-430 8,-430"/>
<polygon fill="#f5f5f5" stroke="transparent" points="8,-489.5 8,-512.5 106,-512.5 106,-489.5 8,-489.5"/>
<polygon fill="none" stroke="#000000" points="8,-489.5 8,-512.5 106,-512.5 106,-489.5 8,-489.5"/>
<text text-anchor="start" x="13" y="-498.1" font-family="Helvetica,sans-Serif" font-weight="bold" font-size="11.00" fill="#000000">REVINFO</text>
<text text-anchor="start" x="71.5219" y="-497.6" font-family="Helvetica,sans-Serif" font-size="11.00" fill="#000000">[table]</text>
<polygon fill="none" stroke="#000000" points="8,-467.5 8,-489.5 106,-489.5 106,-467.5 8,-467.5"/>
<image xlink:href="../../images/primaryKeys.png" width="11px" height="12px" preserveAspectRatio="xMinYMin meet" x="13" y="-484.5"/>
<text text-anchor="start" x="31" y="-474.6" font-family="Helvetica,sans-Serif" font-size="11.00" fill="#000000">REV</text>
<polygon fill="none" stroke="#000000" points="8,-448.5 8,-467.5 106,-467.5 106,-448.5 8,-448.5"/>
<text text-anchor="start" x="11" y="-454.6" font-family="Helvetica,sans-Serif" font-size="11.00" fill="#000000">...</text>
<polygon fill="#ffffff" stroke="transparent" points="8,-429.5 8,-448.5 33,-448.5 33,-429.5 8,-429.5"/>
<polygon fill="none" stroke="#000000" points="8,-429.5 8,-448.5 33,-448.5 33,-429.5 8,-429.5"/>
<text text-anchor="start" x="11" y="-435.6" font-family="Helvetica,sans-Serif" font-size="11.00" fill="#000000"> &#160;</text>
<polygon fill="#ffffff" stroke="transparent" points="33,-429.5 33,-448.5 78,-448.5 78,-429.5 33,-429.5"/>
<polygon fill="none" stroke="#000000" points="33,-429.5 33,-448.5 78,-448.5 78,-429.5 33,-429.5"/>
<text text-anchor="start" x="42.6105" y="-435.6" font-family="Helvetica,sans-Serif" font-size="11.00" fill="#000000">0 rows</text>
<polygon fill="#ffffff" stroke="transparent" points="78,-429.5 78,-448.5 106,-448.5 106,-429.5 78,-429.5"/>
<polygon fill="none" stroke="#000000" points="78,-429.5 78,-448.5 106,-448.5 106,-429.5 78,-429.5"/>
<text text-anchor="start" x="87.4053" y="-435.6" font-family="Helvetica,sans-Serif" font-size="11.00" fill="#000000">4 &gt;</text>
</a>
</g>
</g>
<!-- HOSTING_DETAILS_AUD&#45;&gt;REVINFO -->
<g id="edge1" class="edge">
<title>HOSTING_DETAILS_AUD:w&#45;&gt;REVINFO:e</title>
<path fill="none" stroke="#000000" d="M166.0633,-611.9047C121.0822,-593.1027 169.2658,-478.5 106,-478.5"/>
<polygon fill="#000000" stroke="#000000" points="172.6262,-613.0845 179.863,-618.0432 176.5631,-613.7922 180.5,-614.5 180.5,-614.5 180.5,-614.5 176.5631,-613.7922 181.137,-610.9568 172.6262,-613.0845 172.6262,-613.0845"/>
<ellipse fill="none" stroke="#000000" cx="169.4767" cy="-612.5182" rx="3.2" ry="3.2"/>
</g>
<!-- MINIAPP_BUILD_DETAILS_AUD -->
<g id="node3" class="node">
<title>MINIAPP_BUILD_DETAILS_AUD</title>
<g id="a_node3"><a xlink:href="../../tables/MINIAPP_BUILD_DETAILS_AUD.html" xlink:title="MINIAPP_BUILD_DETAILS_AUD" target="_top">
<polygon fill="#ffffff" stroke="transparent" points="158,-505 158,-566 399,-566 399,-505 158,-505"/>
<polygon fill="#f5f5f5" stroke="transparent" points="158.5,-542.5 158.5,-565.5 399.5,-565.5 399.5,-542.5 158.5,-542.5"/>
<polygon fill="none" stroke="#000000" points="158.5,-542.5 158.5,-565.5 399.5,-565.5 399.5,-542.5 158.5,-542.5"/>
<text text-anchor="start" x="163.5" y="-551.1" font-family="Helvetica,sans-Serif" font-weight="bold" font-size="11.00" fill="#000000">MINIAPP_BUILD_DETAILS_AUD</text>
<text text-anchor="start" x="365.0219" y="-550.6" font-family="Helvetica,sans-Serif" font-size="11.00" fill="#000000">[table]</text>
<polygon fill="none" stroke="#000000" points="158.5,-523.5 158.5,-542.5 399.5,-542.5 399.5,-523.5 158.5,-523.5"/>
<text text-anchor="start" x="161.5" y="-529.6" font-family="Helvetica,sans-Serif" font-size="11.00" fill="#000000">...</text>
<polygon fill="#ffffff" stroke="transparent" points="158.5,-504.5 158.5,-523.5 264.5,-523.5 264.5,-504.5 158.5,-504.5"/>
<polygon fill="none" stroke="#000000" points="158.5,-504.5 158.5,-523.5 264.5,-523.5 264.5,-504.5 158.5,-504.5"/>
<text text-anchor="start" x="161.5" y="-510.6" font-family="Helvetica,sans-Serif" font-size="11.00" fill="#000000">&lt; 1</text>
<polygon fill="#ffffff" stroke="transparent" points="264.5,-504.5 264.5,-523.5 344.5,-523.5 344.5,-504.5 264.5,-504.5"/>
<polygon fill="none" stroke="#000000" points="264.5,-504.5 264.5,-523.5 344.5,-523.5 344.5,-504.5 264.5,-504.5"/>
<text text-anchor="start" x="309.1105" y="-510.6" font-family="Helvetica,sans-Serif" font-size="11.00" fill="#000000">0 rows</text>
<polygon fill="#ffffff" stroke="transparent" points="344.5,-504.5 344.5,-523.5 399.5,-523.5 399.5,-504.5 344.5,-504.5"/>
<polygon fill="none" stroke="#000000" points="344.5,-504.5 344.5,-523.5 399.5,-523.5 399.5,-504.5 344.5,-504.5"/>
<text text-anchor="start" x="390.3862" y="-510.6" font-family="Helvetica,sans-Serif" font-size="11.00" fill="#000000"> &#160;</text>
</a>
</g>
</g>
<!-- MINIAPP_BUILD_DETAILS_AUD&#45;&gt;REVINFO -->
<g id="edge2" class="edge">
<title>MINIAPP_BUILD_DETAILS_AUD:w&#45;&gt;REVINFO:e</title>
<path fill="none" stroke="#000000" d="M144.5415,-527.896C128.6713,-514.8373 133.4584,-478.5 106,-478.5"/>
<polygon fill="#000000" stroke="#000000" points="150.9026,-529.9941 157.3723,-535.9188 154.7013,-531.247 158.5,-532.5 158.5,-532.5 158.5,-532.5 154.7013,-531.247 159.6277,-529.0812 150.9026,-529.9941 150.9026,-529.9941"/>
<ellipse fill="none" stroke="#000000" cx="147.8636" cy="-528.9917" rx="3.2" ry="3.2"/>
</g>
<!-- MINIAPP_DETAILS_AUD -->
<g id="node4" class="node">
<title>MINIAPP_DETAILS_AUD</title>
<g id="a_node4"><a xlink:href="../../tables/MINIAPP_DETAILS_AUD.html" xlink:title="MINIAPP_DETAILS_AUD" target="_top">
<polygon fill="#ffffff" stroke="transparent" points="155,-107.5 155,-483.5 402,-483.5 402,-107.5 155,-107.5"/>
<polygon fill="#f5f5f5" stroke="transparent" points="157.5,-458.5 157.5,-481.5 400.5,-481.5 400.5,-458.5 157.5,-458.5"/>
<polygon fill="none" stroke="#000000" points="157.5,-458.5 157.5,-481.5 400.5,-481.5 400.5,-458.5 157.5,-458.5"/>
<text text-anchor="start" x="162.5" y="-467.1" font-family="Helvetica,sans-Serif" font-weight="bold" font-size="11.00" fill="#000000">MINIAPP_DETAILS_AUD</text>
<text text-anchor="start" x="365.5437" y="-466.6" font-family="Helvetica,sans-Serif" font-size="11.00" fill="#000000">[table]</text>
<polygon fill="none" stroke="#000000" points="157.5,-436.5 157.5,-458.5 333.5,-458.5 333.5,-436.5 157.5,-436.5"/>
<image xlink:href="../../images/primaryKeys.png" width="11px" height="12px" preserveAspectRatio="xMinYMin meet" x="162.5" y="-453.5"/>
<text text-anchor="start" x="177.5" y="-443.6" font-family="Helvetica,sans-Serif" font-size="11.00" fill="#000000">id</text>
<polygon fill="none" stroke="#000000" points="333.5,-436.5 333.5,-458.5 400.5,-458.5 400.5,-436.5 333.5,-436.5"/>
<text text-anchor="start" x="336.5" y="-444.2" font-family="Helvetica,sans-Serif" font-size="11.00" fill="#000000">int[10]</text>
<polygon fill="none" stroke="#000000" points="157.5,-414.5 157.5,-436.5 333.5,-436.5 333.5,-414.5 157.5,-414.5"/>
<image xlink:href="../../images/primaryKeys.png" width="11px" height="12px" preserveAspectRatio="xMinYMin meet" x="162.5" y="-431.5"/>
<text text-anchor="start" x="177.5" y="-421.6" font-family="Helvetica,sans-Serif" font-size="11.00" fill="#000000">REV</text>
<polygon fill="none" stroke="#000000" points="333.5,-414.5 333.5,-436.5 400.5,-436.5 400.5,-414.5 333.5,-414.5"/>
<text text-anchor="start" x="336.5" y="-422.2" font-family="Helvetica,sans-Serif" font-size="11.00" fill="#000000">int[10]</text>
<polygon fill="none" stroke="#000000" points="157.5,-392.5 157.5,-414.5 333.5,-414.5 333.5,-392.5 157.5,-392.5"/>
<text text-anchor="start" x="177.5" y="-399.6" font-family="Helvetica,sans-Serif" font-size="11.00" fill="#000000">REVTYPE</text>
<polygon fill="none" stroke="#000000" points="333.5,-392.5 333.5,-414.5 400.5,-414.5 400.5,-392.5 333.5,-392.5"/>
<text text-anchor="start" x="336.5" y="-400.2" font-family="Helvetica,sans-Serif" font-size="11.00" fill="#000000">tinyint[3]</text>
<polygon fill="none" stroke="#000000" points="157.5,-370.5 157.5,-392.5 333.5,-392.5 333.5,-370.5 157.5,-370.5"/>
<text text-anchor="start" x="177.5" y="-377.6" font-family="Helvetica,sans-Serif" font-size="11.00" fill="#000000">CREATED_TIME</text>
<polygon fill="none" stroke="#000000" points="333.5,-370.5 333.5,-392.5 400.5,-392.5 400.5,-370.5 333.5,-370.5"/>
<text text-anchor="start" x="336.5" y="-378.2" font-family="Helvetica,sans-Serif" font-size="11.00" fill="#000000">datetime[26]</text>
<polygon fill="none" stroke="#000000" points="157.5,-348.5 157.5,-370.5 333.5,-370.5 333.5,-348.5 157.5,-348.5"/>
<text text-anchor="start" x="177.5" y="-355.6" font-family="Helvetica,sans-Serif" font-size="11.00" fill="#000000">MODIFIED_TIME</text>
<polygon fill="none" stroke="#000000" points="333.5,-348.5 333.5,-370.5 400.5,-370.5 400.5,-348.5 333.5,-348.5"/>
<text text-anchor="start" x="336.5" y="-356.2" font-family="Helvetica,sans-Serif" font-size="11.00" fill="#000000">datetime[26]</text>
<polygon fill="none" stroke="#000000" points="157.5,-326.5 157.5,-348.5 333.5,-348.5 333.5,-326.5 157.5,-326.5"/>
<text text-anchor="start" x="177.5" y="-333.6" font-family="Helvetica,sans-Serif" font-size="11.00" fill="#000000">APPLICATION_KEY</text>
<polygon fill="none" stroke="#000000" points="333.5,-326.5 333.5,-348.5 400.5,-348.5 400.5,-326.5 333.5,-326.5"/>
<text text-anchor="start" x="336.4365" y="-334.2" font-family="Helvetica,sans-Serif" font-size="11.00" fill="#000000">varchar[100]</text>
<polygon fill="none" stroke="#000000" points="157.5,-304.5 157.5,-326.5 333.5,-326.5 333.5,-304.5 157.5,-304.5"/>
<text text-anchor="start" x="177.5" y="-311.6" font-family="Helvetica,sans-Serif" font-size="11.00" fill="#000000">CUSTOMER_ID</text>
<polygon fill="none" stroke="#000000" points="333.5,-304.5 333.5,-326.5 400.5,-326.5 400.5,-304.5 333.5,-304.5"/>
<text text-anchor="start" x="336.5" y="-312.2" font-family="Helvetica,sans-Serif" font-size="11.00" fill="#000000">int[10]</text>
<polygon fill="none" stroke="#000000" points="157.5,-282.5 157.5,-304.5 333.5,-304.5 333.5,-282.5 157.5,-282.5"/>
<text text-anchor="start" x="177.5" y="-289.6" font-family="Helvetica,sans-Serif" font-size="11.00" fill="#000000">deleted</text>
<polygon fill="none" stroke="#000000" points="333.5,-282.5 333.5,-304.5 400.5,-304.5 400.5,-282.5 333.5,-282.5"/>
<text text-anchor="start" x="336.5" y="-290.2" font-family="Helvetica,sans-Serif" font-size="11.00" fill="#000000">bit[1]</text>
<polygon fill="none" stroke="#000000" points="157.5,-260.5 157.5,-282.5 333.5,-282.5 333.5,-260.5 157.5,-260.5"/>
<text text-anchor="start" x="177.5" y="-267.6" font-family="Helvetica,sans-Serif" font-size="11.00" fill="#000000">description</text>
<polygon fill="none" stroke="#000000" points="333.5,-260.5 333.5,-282.5 400.5,-282.5 400.5,-260.5 333.5,-260.5"/>
<text text-anchor="start" x="336.4365" y="-268.2" font-family="Helvetica,sans-Serif" font-size="11.00" fill="#000000">varchar[255]</text>
<polygon fill="none" stroke="#000000" points="157.5,-238.5 157.5,-260.5 333.5,-260.5 333.5,-238.5 157.5,-238.5"/>
<text text-anchor="start" x="177.5" y="-245.6" font-family="Helvetica,sans-Serif" font-size="11.00" fill="#000000">ICON_URL</text>
<polygon fill="none" stroke="#000000" points="333.5,-238.5 333.5,-260.5 400.5,-260.5 400.5,-238.5 333.5,-238.5"/>
<text text-anchor="start" x="336.4365" y="-246.2" font-family="Helvetica,sans-Serif" font-size="11.00" fill="#000000">varchar[255]</text>
<polygon fill="none" stroke="#000000" points="157.5,-216.5 157.5,-238.5 333.5,-238.5 333.5,-216.5 157.5,-216.5"/>
<text text-anchor="start" x="177.5" y="-223.6" font-family="Helvetica,sans-Serif" font-size="11.00" fill="#000000">name</text>
<polygon fill="none" stroke="#000000" points="333.5,-216.5 333.5,-238.5 400.5,-238.5 400.5,-216.5 333.5,-216.5"/>
<text text-anchor="start" x="336.5" y="-224.2" font-family="Helvetica,sans-Serif" font-size="11.00" fill="#000000">varchar[50]</text>
<polygon fill="none" stroke="#000000" points="157.5,-194.5 157.5,-216.5 333.5,-216.5 333.5,-194.5 157.5,-194.5"/>
<text text-anchor="start" x="177.5" y="-201.6" font-family="Helvetica,sans-Serif" font-size="11.00" fill="#000000">tagging</text>
<polygon fill="none" stroke="#000000" points="333.5,-194.5 333.5,-216.5 400.5,-216.5 400.5,-194.5 333.5,-194.5"/>
<text text-anchor="start" x="336.5" y="-202.2" font-family="Helvetica,sans-Serif" font-size="11.00" fill="#000000">varchar[30]</text>
<polygon fill="none" stroke="#000000" points="157.5,-172.5 157.5,-194.5 333.5,-194.5 333.5,-172.5 157.5,-172.5"/>
<text text-anchor="start" x="177.5" y="-179.6" font-family="Helvetica,sans-Serif" font-size="11.00" fill="#000000">version</text>
<polygon fill="none" stroke="#000000" points="333.5,-172.5 333.5,-194.5 400.5,-194.5 400.5,-172.5 333.5,-172.5"/>
<text text-anchor="start" x="336.5" y="-180.2" font-family="Helvetica,sans-Serif" font-size="11.00" fill="#000000">varchar[15]</text>
<polygon fill="none" stroke="#000000" points="157.5,-150.5 157.5,-172.5 333.5,-172.5 333.5,-150.5 157.5,-150.5"/>
<text text-anchor="start" x="177.5" y="-157.6" font-family="Helvetica,sans-Serif" font-size="11.00" fill="#000000">CREATOR</text>
<polygon fill="none" stroke="#000000" points="333.5,-150.5 333.5,-172.5 400.5,-172.5 400.5,-150.5 333.5,-150.5"/>
<text text-anchor="start" x="336.5" y="-158.2" font-family="Helvetica,sans-Serif" font-size="11.00" fill="#000000">int[10]</text>
<polygon fill="none" stroke="#000000" points="157.5,-128.5 157.5,-150.5 333.5,-150.5 333.5,-128.5 157.5,-128.5"/>
<text text-anchor="start" x="177.5" y="-135.6" font-family="Helvetica,sans-Serif" font-size="11.00" fill="#000000">LAST_MODIFIER</text>
<polygon fill="none" stroke="#000000" points="333.5,-128.5 333.5,-150.5 400.5,-150.5 400.5,-128.5 333.5,-128.5"/>
<text text-anchor="start" x="336.5" y="-136.2" font-family="Helvetica,sans-Serif" font-size="11.00" fill="#000000">int[10]</text>
<polygon fill="#ffffff" stroke="transparent" points="157.5,-109.5 157.5,-128.5 236.5,-128.5 236.5,-109.5 157.5,-109.5"/>
<polygon fill="none" stroke="#000000" points="157.5,-109.5 157.5,-128.5 236.5,-128.5 236.5,-109.5 157.5,-109.5"/>
<text text-anchor="start" x="160.5" y="-115.6" font-family="Helvetica,sans-Serif" font-size="11.00" fill="#000000">&lt; 1</text>
<polygon fill="#ffffff" stroke="transparent" points="236.5,-109.5 236.5,-128.5 333.5,-128.5 333.5,-109.5 236.5,-109.5"/>
<polygon fill="none" stroke="#000000" points="236.5,-109.5 236.5,-128.5 333.5,-128.5 333.5,-109.5 236.5,-109.5"/>
<text text-anchor="start" x="298.1105" y="-115.6" font-family="Helvetica,sans-Serif" font-size="11.00" fill="#000000">0 rows</text>
<polygon fill="#ffffff" stroke="transparent" points="333.5,-109.5 333.5,-128.5 400.5,-128.5 400.5,-109.5 333.5,-109.5"/>
<polygon fill="none" stroke="#000000" points="333.5,-109.5 333.5,-128.5 400.5,-128.5 400.5,-109.5 333.5,-109.5"/>
<text text-anchor="start" x="381.9053" y="-115.6" font-family="Helvetica,sans-Serif" font-size="11.00" fill="#000000">0 &gt;</text>
<polygon fill="none" stroke="#000000" stroke-width="2" points="156,-108.5 156,-482.5 401,-482.5 401,-108.5 156,-108.5"/>
</a>
</g>
</g>
<!-- MINIAPP_DETAILS_AUD&#45;&gt;REVINFO -->
<g id="edge3" class="edge">
<title>MINIAPP_DETAILS_AUD:w&#45;&gt;REVINFO:e</title>
<path fill="none" stroke="#000000" d="M143.8048,-430.0188C128.236,-442.8356 132.9428,-478.5 106,-478.5"/>
<polygon fill="#000000" stroke="#000000" points="149.9029,-428.0067 158.628,-428.9187 153.7014,-426.7534 157.5,-425.5 157.5,-425.5 157.5,-425.5 153.7014,-426.7534 156.372,-422.0813 149.9029,-428.0067 149.9029,-428.0067"/>
<ellipse fill="none" stroke="#000000" cx="146.864" cy="-429.0094" rx="3.2" ry="3.2"/>
</g>
<!-- User_AUD -->
<g id="node5" class="node">
<title>User_AUD</title>
<g id="a_node5"><a xlink:href="../../tables/User_AUD.html" xlink:title="User_AUD" target="_top">
<polygon fill="#ffffff" stroke="transparent" points="226.5,-25 226.5,-86 330.5,-86 330.5,-25 226.5,-25"/>
<polygon fill="#f5f5f5" stroke="transparent" points="226.5,-62.5 226.5,-85.5 330.5,-85.5 330.5,-62.5 226.5,-62.5"/>
<polygon fill="none" stroke="#000000" points="226.5,-62.5 226.5,-85.5 330.5,-85.5 330.5,-62.5 226.5,-62.5"/>
<text text-anchor="start" x="231.5" y="-71.1" font-family="Helvetica,sans-Serif" font-weight="bold" font-size="11.00" fill="#000000">User_AUD</text>
<text text-anchor="start" x="296.0219" y="-70.6" font-family="Helvetica,sans-Serif" font-size="11.00" fill="#000000">[table]</text>
<polygon fill="none" stroke="#000000" points="226.5,-43.5 226.5,-62.5 330.5,-62.5 330.5,-43.5 226.5,-43.5"/>
<text text-anchor="start" x="229.5" y="-49.6" font-family="Helvetica,sans-Serif" font-size="11.00" fill="#000000">...</text>
<polygon fill="#ffffff" stroke="transparent" points="226.5,-24.5 226.5,-43.5 263.5,-43.5 263.5,-24.5 226.5,-24.5"/>
<polygon fill="none" stroke="#000000" points="226.5,-24.5 226.5,-43.5 263.5,-43.5 263.5,-24.5 226.5,-24.5"/>
<text text-anchor="start" x="229.5" y="-30.6" font-family="Helvetica,sans-Serif" font-size="11.00" fill="#000000">&lt; 1</text>
<polygon fill="#ffffff" stroke="transparent" points="263.5,-24.5 263.5,-43.5 309.5,-43.5 309.5,-24.5 263.5,-24.5"/>
<polygon fill="none" stroke="#000000" points="263.5,-24.5 263.5,-43.5 309.5,-43.5 309.5,-24.5 263.5,-24.5"/>
<text text-anchor="start" x="274.1105" y="-30.6" font-family="Helvetica,sans-Serif" font-size="11.00" fill="#000000">0 rows</text>
<polygon fill="#ffffff" stroke="transparent" points="309.5,-24.5 309.5,-43.5 330.5,-43.5 330.5,-24.5 309.5,-24.5"/>
<polygon fill="none" stroke="#000000" points="309.5,-24.5 309.5,-43.5 330.5,-43.5 330.5,-24.5 309.5,-24.5"/>
<text text-anchor="start" x="321.3862" y="-30.6" font-family="Helvetica,sans-Serif" font-size="11.00" fill="#000000"> &#160;</text>
</a>
</g>
</g>
<!-- User_AUD&#45;&gt;REVINFO -->
<g id="edge4" class="edge">
<title>User_AUD:w&#45;&gt;REVINFO:e</title>
<path fill="none" stroke="#000000" d="M211.9317,-53.0772C181.5248,-55.7341 166.4253,-67.9449 147,-97.5 100.2287,-168.6611 191.1555,-478.5 106,-478.5"/>
<polygon fill="#000000" stroke="#000000" points="218.5063,-52.8167 226.6425,-56.0972 222.5031,-52.6584 226.5,-52.5 226.5,-52.5 226.5,-52.5 222.5031,-52.6584 226.3575,-48.9028 218.5063,-52.8167 218.5063,-52.8167"/>
<ellipse fill="none" stroke="#000000" cx="215.3088" cy="-52.9434" rx="3.2" ry="3.2"/>
</g>
</g>
</svg>
