<?xml version="1.0" encoding="UTF-8" standalone="no"?>
<!DOCTYPE svg PUBLIC "-//W3C//DTD SVG 1.1//EN"
 "http://www.w3.org/Graphics/SVG/1.1/DTD/svg11.dtd">
<!-- Generated by graphviz version 2.40.1 (20161225.0304)
 -->
<!-- Title: oneDegreeRelationshipsDiagram Pages: 1 -->
<svg width="275pt" height="347pt"
 viewBox="0.00 0.00 275.00 347.00" xmlns="http://www.w3.org/2000/svg" xmlns:xlink="http://www.w3.org/1999/xlink">
<g id="graph0" class="graph" transform="scale(1 1) rotate(0) translate(4 343)">
<title>oneDegreeRelationshipsDiagram</title>
<polygon fill="#ffffff" stroke="transparent" points="-4,4 -4,-343 271,-343 271,4 -4,4"/>
<!-- RESOURCE_JSON_AUDIT -->
<g id="node1" class="node">
<title>RESOURCE_JSON_AUDIT</title>
<g id="a_node1"><a xlink:href="../../tables/RESOURCE_JSON_AUDIT.html" xlink:title="RESOURCE_JSON_AUDIT" target="_top">
<polygon fill="#ffffff" stroke="transparent" points="8,-25 8,-335 259,-335 259,-25 8,-25"/>
<polygon fill="#f5f5f5" stroke="transparent" points="10.5,-310 10.5,-333 257.5,-333 257.5,-310 10.5,-310"/>
<polygon fill="none" stroke="#000000" points="10.5,-310 10.5,-333 257.5,-333 257.5,-310 10.5,-310"/>
<text text-anchor="start" x="15.5" y="-318.6" font-family="Helvetica,sans-Serif" font-weight="bold" font-size="11.00" fill="#000000">RESOURCE_JSON_AUDIT</text>
<text text-anchor="start" x="222.5437" y="-318.1" font-family="Helvetica,sans-Serif" font-size="11.00" fill="#000000">[table]</text>
<polygon fill="none" stroke="#000000" points="10.5,-288 10.5,-310 190.5,-310 190.5,-288 10.5,-288"/>
<image xlink:href="../../images/primaryKeys.png" width="11px" height="12px" preserveAspectRatio="xMinYMin meet" x="15.5" y="-305"/>
<text text-anchor="start" x="30.5" y="-295.1" font-family="Helvetica,sans-Serif" font-size="11.00" fill="#000000">ID</text>
<polygon fill="none" stroke="#000000" points="190.5,-288 190.5,-310 257.5,-310 257.5,-288 190.5,-288"/>
<text text-anchor="start" x="193.5" y="-295.7" font-family="Helvetica,sans-Serif" font-size="11.00" fill="#000000">int[10]</text>
<polygon fill="none" stroke="#000000" points="10.5,-266 10.5,-288 190.5,-288 190.5,-266 10.5,-266"/>
<text text-anchor="start" x="30.5" y="-273.1" font-family="Helvetica,sans-Serif" font-size="11.00" fill="#000000">CREATED_TIME</text>
<polygon fill="none" stroke="#000000" points="190.5,-266 190.5,-288 257.5,-288 257.5,-266 190.5,-266"/>
<text text-anchor="start" x="193.5" y="-273.7" font-family="Helvetica,sans-Serif" font-size="11.00" fill="#000000">datetime[26]</text>
<polygon fill="none" stroke="#000000" points="10.5,-244 10.5,-266 190.5,-266 190.5,-244 10.5,-244"/>
<text text-anchor="start" x="30.5" y="-251.1" font-family="Helvetica,sans-Serif" font-size="11.00" fill="#000000">CREATOR_FK</text>
<polygon fill="none" stroke="#000000" points="190.5,-244 190.5,-266 257.5,-266 257.5,-244 190.5,-244"/>
<text text-anchor="start" x="193.5" y="-251.7" font-family="Helvetica,sans-Serif" font-size="11.00" fill="#000000">int[10]</text>
<polygon fill="none" stroke="#000000" points="10.5,-222 10.5,-244 190.5,-244 190.5,-222 10.5,-222"/>
<text text-anchor="start" x="30.5" y="-229.1" font-family="Helvetica,sans-Serif" font-size="11.00" fill="#000000">CREATOR_NAME</text>
<polygon fill="none" stroke="#000000" points="190.5,-222 190.5,-244 257.5,-244 257.5,-222 190.5,-222"/>
<text text-anchor="start" x="193.4365" y="-229.7" font-family="Helvetica,sans-Serif" font-size="11.00" fill="#000000">varchar[100]</text>
<polygon fill="none" stroke="#000000" points="10.5,-200 10.5,-222 190.5,-222 190.5,-200 10.5,-200"/>
<text text-anchor="start" x="30.5" y="-207.1" font-family="Helvetica,sans-Serif" font-size="11.00" fill="#000000">MODIFIER_FK</text>
<polygon fill="none" stroke="#000000" points="190.5,-200 190.5,-222 257.5,-222 257.5,-200 190.5,-200"/>
<text text-anchor="start" x="193.5" y="-207.7" font-family="Helvetica,sans-Serif" font-size="11.00" fill="#000000">int[10]</text>
<polygon fill="none" stroke="#000000" points="10.5,-178 10.5,-200 190.5,-200 190.5,-178 10.5,-178"/>
<text text-anchor="start" x="30.5" y="-185.1" font-family="Helvetica,sans-Serif" font-size="11.00" fill="#000000">MODIFIER_NAME</text>
<polygon fill="none" stroke="#000000" points="190.5,-178 190.5,-200 257.5,-200 257.5,-178 190.5,-178"/>
<text text-anchor="start" x="193.4365" y="-185.7" font-family="Helvetica,sans-Serif" font-size="11.00" fill="#000000">varchar[100]</text>
<polygon fill="none" stroke="#000000" points="10.5,-156 10.5,-178 190.5,-178 190.5,-156 10.5,-156"/>
<text text-anchor="start" x="30.5" y="-163.1" font-family="Helvetica,sans-Serif" font-size="11.00" fill="#000000">MODIFIED_TIME</text>
<polygon fill="none" stroke="#000000" points="190.5,-156 190.5,-178 257.5,-178 257.5,-156 190.5,-156"/>
<text text-anchor="start" x="193.5" y="-163.7" font-family="Helvetica,sans-Serif" font-size="11.00" fill="#000000">datetime[26]</text>
<polygon fill="none" stroke="#000000" points="10.5,-134 10.5,-156 190.5,-156 190.5,-134 10.5,-134"/>
<text text-anchor="start" x="30.5" y="-141.1" font-family="Helvetica,sans-Serif" font-size="11.00" fill="#000000">USER_NAME</text>
<polygon fill="none" stroke="#000000" points="190.5,-134 190.5,-156 257.5,-156 257.5,-134 190.5,-134"/>
<text text-anchor="start" x="193.4365" y="-141.7" font-family="Helvetica,sans-Serif" font-size="11.00" fill="#000000">varchar[100]</text>
<polygon fill="none" stroke="#000000" points="10.5,-112 10.5,-134 190.5,-134 190.5,-112 10.5,-112"/>
<text text-anchor="start" x="30.5" y="-119.1" font-family="Helvetica,sans-Serif" font-size="11.00" fill="#000000">ACTION_TYPE</text>
<polygon fill="none" stroke="#000000" points="190.5,-112 190.5,-134 257.5,-134 257.5,-112 190.5,-112"/>
<text text-anchor="start" x="193.4365" y="-119.7" font-family="Helvetica,sans-Serif" font-size="11.00" fill="#000000">varchar[255]</text>
<polygon fill="none" stroke="#000000" points="10.5,-90 10.5,-112 190.5,-112 190.5,-90 10.5,-90"/>
<text text-anchor="start" x="30.5" y="-97.1" font-family="Helvetica,sans-Serif" font-size="11.00" fill="#000000">CONTEXT_JSON</text>
<polygon fill="none" stroke="#000000" points="190.5,-90 190.5,-112 257.5,-112 257.5,-90 190.5,-90"/>
<text text-anchor="start" x="193.4365" y="-97.7" font-family="Helvetica,sans-Serif" font-size="11.00" fill="#000000">varchar[255]</text>
<polygon fill="none" stroke="#000000" points="10.5,-68 10.5,-90 190.5,-90 190.5,-68 10.5,-68"/>
<text text-anchor="start" x="30.5" y="-75.1" font-family="Helvetica,sans-Serif" font-size="11.00" fill="#000000">PROCESS</text>
<polygon fill="none" stroke="#000000" points="190.5,-68 190.5,-90 257.5,-90 257.5,-68 190.5,-68"/>
<text text-anchor="start" x="193.5" y="-75.7" font-family="Helvetica,sans-Serif" font-size="11.00" fill="#000000">bit[1]</text>
<polygon fill="none" stroke="#000000" points="10.5,-46 10.5,-68 190.5,-68 190.5,-46 10.5,-46"/>
<text text-anchor="start" x="30.5" y="-53.1" font-family="Helvetica,sans-Serif" font-size="11.00" fill="#000000">VIEW_ID</text>
<polygon fill="none" stroke="#000000" points="190.5,-46 190.5,-68 257.5,-68 257.5,-46 190.5,-46"/>
<text text-anchor="start" x="193.5" y="-53.7" font-family="Helvetica,sans-Serif" font-size="11.00" fill="#000000">varchar[50]</text>
<polygon fill="#ffffff" stroke="transparent" points="10.5,-27 10.5,-46 91.5,-46 91.5,-27 10.5,-27"/>
<polygon fill="none" stroke="#000000" points="10.5,-27 10.5,-46 91.5,-46 91.5,-27 10.5,-27"/>
<text text-anchor="start" x="13.5" y="-33.1" font-family="Helvetica,sans-Serif" font-size="11.00" fill="#000000">&lt; 0</text>
<polygon fill="#ffffff" stroke="transparent" points="91.5,-27 91.5,-46 190.5,-46 190.5,-27 91.5,-27"/>
<polygon fill="none" stroke="#000000" points="91.5,-27 91.5,-46 190.5,-46 190.5,-27 91.5,-27"/>
<text text-anchor="start" x="155.1105" y="-33.1" font-family="Helvetica,sans-Serif" font-size="11.00" fill="#000000">0 rows</text>
<polygon fill="#ffffff" stroke="transparent" points="190.5,-27 190.5,-46 257.5,-46 257.5,-27 190.5,-27"/>
<polygon fill="none" stroke="#000000" points="190.5,-27 190.5,-46 257.5,-46 257.5,-27 190.5,-27"/>
<text text-anchor="start" x="238.9053" y="-33.1" font-family="Helvetica,sans-Serif" font-size="11.00" fill="#000000">0 &gt;</text>
<polygon fill="none" stroke="#000000" stroke-width="2" points="9,-26 9,-334 258,-334 258,-26 9,-26"/>
</a>
</g>
</g>
</g>
</svg>
