<?xml version="1.0" encoding="UTF-8" standalone="no"?>
<!DOCTYPE svg PUBLIC "-//W3C//DTD SVG 1.1//EN"
 "http://www.w3.org/Graphics/SVG/1.1/DTD/svg11.dtd">
<!-- Generated by graphviz version 2.40.1 (20161225.0304)
 -->
<!-- Title: oneDegreeRelationshipsDiagram Pages: 1 -->
<svg width="280pt" height="677pt"
 viewBox="0.00 0.00 280.00 677.00" xmlns="http://www.w3.org/2000/svg" xmlns:xlink="http://www.w3.org/1999/xlink">
<g id="graph0" class="graph" transform="scale(1 1) rotate(0) translate(4 673)">
<title>oneDegreeRelationshipsDiagram</title>
<polygon fill="#ffffff" stroke="transparent" points="-4,4 -4,-673 276,-673 276,4 -4,4"/>
<!-- RESOURCE_FIELD_AUDIT -->
<g id="node1" class="node">
<title>RESOURCE_FIELD_AUDIT</title>
<g id="a_node1"><a xlink:href="../../tables/RESOURCE_FIELD_AUDIT.html" xlink:title="RESOURCE_FIELD_AUDIT" target="_top">
<polygon fill="#ffffff" stroke="transparent" points="8,-25 8,-665 264,-665 264,-25 8,-25"/>
<polygon fill="#f5f5f5" stroke="transparent" points="10,-640 10,-663 262,-663 262,-640 10,-640"/>
<polygon fill="none" stroke="#000000" points="10,-640 10,-663 262,-663 262,-640 10,-640"/>
<text text-anchor="start" x="15" y="-648.6" font-family="Helvetica,sans-Serif" font-weight="bold" font-size="11.00" fill="#000000">RESOURCE_FIELD_AUDIT</text>
<text text-anchor="start" x="227.0437" y="-648.1" font-family="Helvetica,sans-Serif" font-size="11.00" fill="#000000">[table]</text>
<polygon fill="none" stroke="#000000" points="10,-618 10,-640 195,-640 195,-618 10,-618"/>
<image xlink:href="../../images/primaryKeys.png" width="11px" height="12px" preserveAspectRatio="xMinYMin meet" x="15" y="-635"/>
<text text-anchor="start" x="30" y="-625.1" font-family="Helvetica,sans-Serif" font-size="11.00" fill="#000000">ID</text>
<polygon fill="none" stroke="#000000" points="195,-618 195,-640 262,-640 262,-618 195,-618"/>
<text text-anchor="start" x="198" y="-625.7" font-family="Helvetica,sans-Serif" font-size="11.00" fill="#000000">int[10]</text>
<polygon fill="none" stroke="#000000" points="10,-596 10,-618 195,-618 195,-596 10,-596"/>
<text text-anchor="start" x="30" y="-603.1" font-family="Helvetica,sans-Serif" font-size="11.00" fill="#000000">CREATED_TIME</text>
<polygon fill="none" stroke="#000000" points="195,-596 195,-618 262,-618 262,-596 195,-596"/>
<text text-anchor="start" x="198" y="-603.7" font-family="Helvetica,sans-Serif" font-size="11.00" fill="#000000">datetime[26]</text>
<polygon fill="none" stroke="#000000" points="10,-574 10,-596 195,-596 195,-574 10,-574"/>
<text text-anchor="start" x="30" y="-581.1" font-family="Helvetica,sans-Serif" font-size="11.00" fill="#000000">CREATOR_FK</text>
<polygon fill="none" stroke="#000000" points="195,-574 195,-596 262,-596 262,-574 195,-574"/>
<text text-anchor="start" x="198" y="-581.7" font-family="Helvetica,sans-Serif" font-size="11.00" fill="#000000">int[10]</text>
<polygon fill="none" stroke="#000000" points="10,-552 10,-574 195,-574 195,-552 10,-552"/>
<text text-anchor="start" x="30" y="-559.1" font-family="Helvetica,sans-Serif" font-size="11.00" fill="#000000">CREATOR_NAME</text>
<polygon fill="none" stroke="#000000" points="195,-552 195,-574 262,-574 262,-552 195,-552"/>
<text text-anchor="start" x="197.9365" y="-559.7" font-family="Helvetica,sans-Serif" font-size="11.00" fill="#000000">varchar[100]</text>
<polygon fill="none" stroke="#000000" points="10,-530 10,-552 195,-552 195,-530 10,-530"/>
<text text-anchor="start" x="30" y="-537.1" font-family="Helvetica,sans-Serif" font-size="11.00" fill="#000000">MODIFIER_FK</text>
<polygon fill="none" stroke="#000000" points="195,-530 195,-552 262,-552 262,-530 195,-530"/>
<text text-anchor="start" x="198" y="-537.7" font-family="Helvetica,sans-Serif" font-size="11.00" fill="#000000">int[10]</text>
<polygon fill="none" stroke="#000000" points="10,-508 10,-530 195,-530 195,-508 10,-508"/>
<text text-anchor="start" x="30" y="-515.1" font-family="Helvetica,sans-Serif" font-size="11.00" fill="#000000">MODIFIER_NAME</text>
<polygon fill="none" stroke="#000000" points="195,-508 195,-530 262,-530 262,-508 195,-508"/>
<text text-anchor="start" x="197.9365" y="-515.7" font-family="Helvetica,sans-Serif" font-size="11.00" fill="#000000">varchar[100]</text>
<polygon fill="none" stroke="#000000" points="10,-486 10,-508 195,-508 195,-486 10,-486"/>
<text text-anchor="start" x="30" y="-493.1" font-family="Helvetica,sans-Serif" font-size="11.00" fill="#000000">MODIFIED_TIME</text>
<polygon fill="none" stroke="#000000" points="195,-486 195,-508 262,-508 262,-486 195,-486"/>
<text text-anchor="start" x="198" y="-493.7" font-family="Helvetica,sans-Serif" font-size="11.00" fill="#000000">datetime[26]</text>
<polygon fill="none" stroke="#000000" points="10,-464 10,-486 195,-486 195,-464 10,-464"/>
<text text-anchor="start" x="30" y="-471.1" font-family="Helvetica,sans-Serif" font-size="11.00" fill="#000000">USER_NAME</text>
<polygon fill="none" stroke="#000000" points="195,-464 195,-486 262,-486 262,-464 195,-464"/>
<text text-anchor="start" x="197.9365" y="-471.7" font-family="Helvetica,sans-Serif" font-size="11.00" fill="#000000">varchar[100]</text>
<polygon fill="none" stroke="#000000" points="10,-442 10,-464 195,-464 195,-442 10,-442"/>
<text text-anchor="start" x="30" y="-449.1" font-family="Helvetica,sans-Serif" font-size="11.00" fill="#000000">ACTION</text>
<polygon fill="none" stroke="#000000" points="195,-442 195,-464 262,-464 262,-442 195,-442"/>
<text text-anchor="start" x="197.9365" y="-449.7" font-family="Helvetica,sans-Serif" font-size="11.00" fill="#000000">varchar[255]</text>
<polygon fill="none" stroke="#000000" points="10,-420 10,-442 195,-442 195,-420 10,-420"/>
<text text-anchor="start" x="30" y="-427.1" font-family="Helvetica,sans-Serif" font-size="11.00" fill="#000000">APPLICATION_NAME</text>
<polygon fill="none" stroke="#000000" points="195,-420 195,-442 262,-442 262,-420 195,-420"/>
<text text-anchor="start" x="197.9365" y="-427.7" font-family="Helvetica,sans-Serif" font-size="11.00" fill="#000000">varchar[255]</text>
<polygon fill="none" stroke="#000000" points="10,-398 10,-420 195,-420 195,-398 10,-398"/>
<text text-anchor="start" x="30" y="-405.1" font-family="Helvetica,sans-Serif" font-size="11.00" fill="#000000">COLUMN_NAME</text>
<polygon fill="none" stroke="#000000" points="195,-398 195,-420 262,-420 262,-398 195,-398"/>
<text text-anchor="start" x="197.9365" y="-405.7" font-family="Helvetica,sans-Serif" font-size="11.00" fill="#000000">varchar[255]</text>
<polygon fill="none" stroke="#000000" points="10,-376 10,-398 195,-398 195,-376 10,-376"/>
<text text-anchor="start" x="30" y="-383.1" font-family="Helvetica,sans-Serif" font-size="11.00" fill="#000000">ENTITY_ID</text>
<polygon fill="none" stroke="#000000" points="195,-376 195,-398 262,-398 262,-376 195,-376"/>
<text text-anchor="start" x="197.9365" y="-383.7" font-family="Helvetica,sans-Serif" font-size="11.00" fill="#000000">varchar[255]</text>
<polygon fill="none" stroke="#000000" points="10,-354 10,-376 195,-376 195,-354 10,-354"/>
<text text-anchor="start" x="30" y="-361.1" font-family="Helvetica,sans-Serif" font-size="11.00" fill="#000000">ENTITY_NAME</text>
<polygon fill="none" stroke="#000000" points="195,-354 195,-376 262,-376 262,-354 195,-354"/>
<text text-anchor="start" x="197.9365" y="-361.7" font-family="Helvetica,sans-Serif" font-size="11.00" fill="#000000">varchar[255]</text>
<polygon fill="none" stroke="#000000" points="10,-332 10,-354 195,-354 195,-332 10,-332"/>
<text text-anchor="start" x="30" y="-339.1" font-family="Helvetica,sans-Serif" font-size="11.00" fill="#000000">ENTITY_TYPE</text>
<polygon fill="none" stroke="#000000" points="195,-332 195,-354 262,-354 262,-332 195,-332"/>
<text text-anchor="start" x="197.9365" y="-339.7" font-family="Helvetica,sans-Serif" font-size="11.00" fill="#000000">varchar[255]</text>
<polygon fill="none" stroke="#000000" points="10,-310 10,-332 195,-332 195,-310 10,-310"/>
<text text-anchor="start" x="30" y="-317.1" font-family="Helvetica,sans-Serif" font-size="11.00" fill="#000000">FIELD_KEY</text>
<polygon fill="none" stroke="#000000" points="195,-310 195,-332 262,-332 262,-310 195,-310"/>
<text text-anchor="start" x="197.9365" y="-317.7" font-family="Helvetica,sans-Serif" font-size="11.00" fill="#000000">varchar[255]</text>
<polygon fill="none" stroke="#000000" points="10,-288 10,-310 195,-310 195,-288 10,-288"/>
<text text-anchor="start" x="30" y="-295.1" font-family="Helvetica,sans-Serif" font-size="11.00" fill="#000000">FIELD_TYPE</text>
<polygon fill="none" stroke="#000000" points="195,-288 195,-310 262,-310 262,-288 195,-288"/>
<text text-anchor="start" x="197.9365" y="-295.7" font-family="Helvetica,sans-Serif" font-size="11.00" fill="#000000">varchar[255]</text>
<polygon fill="none" stroke="#000000" points="10,-266 10,-288 195,-288 195,-266 10,-266"/>
<text text-anchor="start" x="30" y="-273.1" font-family="Helvetica,sans-Serif" font-size="11.00" fill="#000000">IDENTIFIER1</text>
<polygon fill="none" stroke="#000000" points="195,-266 195,-288 262,-288 262,-266 195,-266"/>
<text text-anchor="start" x="197.9365" y="-273.7" font-family="Helvetica,sans-Serif" font-size="11.00" fill="#000000">varchar[255]</text>
<polygon fill="none" stroke="#000000" points="10,-244 10,-266 195,-266 195,-244 10,-244"/>
<text text-anchor="start" x="30" y="-251.1" font-family="Helvetica,sans-Serif" font-size="11.00" fill="#000000">IDENTIFIER2</text>
<polygon fill="none" stroke="#000000" points="195,-244 195,-266 262,-266 262,-244 195,-244"/>
<text text-anchor="start" x="197.9365" y="-251.7" font-family="Helvetica,sans-Serif" font-size="11.00" fill="#000000">varchar[255]</text>
<polygon fill="none" stroke="#000000" points="10,-222 10,-244 195,-244 195,-222 10,-222"/>
<text text-anchor="start" x="30" y="-229.1" font-family="Helvetica,sans-Serif" font-size="11.00" fill="#000000">IDENTIFIER3</text>
<polygon fill="none" stroke="#000000" points="195,-222 195,-244 262,-244 262,-222 195,-222"/>
<text text-anchor="start" x="197.9365" y="-229.7" font-family="Helvetica,sans-Serif" font-size="11.00" fill="#000000">varchar[255]</text>
<polygon fill="none" stroke="#000000" points="10,-200 10,-222 195,-222 195,-200 10,-200"/>
<text text-anchor="start" x="30" y="-207.1" font-family="Helvetica,sans-Serif" font-size="11.00" fill="#000000">IDENTIFIER4</text>
<polygon fill="none" stroke="#000000" points="195,-200 195,-222 262,-222 262,-200 195,-200"/>
<text text-anchor="start" x="197.9365" y="-207.7" font-family="Helvetica,sans-Serif" font-size="11.00" fill="#000000">varchar[255]</text>
<polygon fill="none" stroke="#000000" points="10,-178 10,-200 195,-200 195,-178 10,-178"/>
<text text-anchor="start" x="30" y="-185.1" font-family="Helvetica,sans-Serif" font-size="11.00" fill="#000000">LABEL</text>
<polygon fill="none" stroke="#000000" points="195,-178 195,-200 262,-200 262,-178 195,-178"/>
<text text-anchor="start" x="197.9365" y="-185.7" font-family="Helvetica,sans-Serif" font-size="11.00" fill="#000000">varchar[255]</text>
<polygon fill="none" stroke="#000000" points="10,-156 10,-178 195,-178 195,-156 10,-156"/>
<text text-anchor="start" x="30" y="-163.1" font-family="Helvetica,sans-Serif" font-size="11.00" fill="#000000">NEW_VALUE</text>
<polygon fill="none" stroke="#000000" points="195,-156 195,-178 262,-178 262,-156 195,-156"/>
<text text-anchor="start" x="197.9365" y="-163.7" font-family="Helvetica,sans-Serif" font-size="11.00" fill="#000000">varchar[255]</text>
<polygon fill="none" stroke="#000000" points="10,-134 10,-156 195,-156 195,-134 10,-134"/>
<text text-anchor="start" x="30" y="-141.1" font-family="Helvetica,sans-Serif" font-size="11.00" fill="#000000">OLD_VALUE</text>
<polygon fill="none" stroke="#000000" points="195,-134 195,-156 262,-156 262,-134 195,-134"/>
<text text-anchor="start" x="197.9365" y="-141.7" font-family="Helvetica,sans-Serif" font-size="11.00" fill="#000000">varchar[255]</text>
<polygon fill="none" stroke="#000000" points="10,-112 10,-134 195,-134 195,-112 10,-112"/>
<text text-anchor="start" x="30" y="-119.1" font-family="Helvetica,sans-Serif" font-size="11.00" fill="#000000">RESOURCE_NAME</text>
<polygon fill="none" stroke="#000000" points="195,-112 195,-134 262,-134 262,-112 195,-112"/>
<text text-anchor="start" x="197.9365" y="-119.7" font-family="Helvetica,sans-Serif" font-size="11.00" fill="#000000">varchar[255]</text>
<polygon fill="none" stroke="#000000" points="10,-90 10,-112 195,-112 195,-90 10,-90"/>
<text text-anchor="start" x="30" y="-97.1" font-family="Helvetica,sans-Serif" font-size="11.00" fill="#000000">SEQUENCE</text>
<polygon fill="none" stroke="#000000" points="195,-90 195,-112 262,-112 262,-90 195,-90"/>
<text text-anchor="start" x="197.9365" y="-97.7" font-family="Helvetica,sans-Serif" font-size="11.00" fill="#000000">varchar[255]</text>
<polygon fill="none" stroke="#000000" points="10,-68 10,-90 195,-90 195,-68 10,-68"/>
<text text-anchor="start" x="30" y="-75.1" font-family="Helvetica,sans-Serif" font-size="11.00" fill="#000000">TASK_CODE</text>
<polygon fill="none" stroke="#000000" points="195,-68 195,-90 262,-90 262,-68 195,-68"/>
<text text-anchor="start" x="197.9365" y="-75.7" font-family="Helvetica,sans-Serif" font-size="11.00" fill="#000000">varchar[255]</text>
<polygon fill="none" stroke="#000000" points="10,-46 10,-68 195,-68 195,-46 10,-46"/>
<text text-anchor="start" x="30" y="-53.1" font-family="Helvetica,sans-Serif" font-size="11.00" fill="#000000">VIEW_ID</text>
<polygon fill="none" stroke="#000000" points="195,-46 195,-68 262,-68 262,-46 195,-46"/>
<text text-anchor="start" x="197.9365" y="-53.7" font-family="Helvetica,sans-Serif" font-size="11.00" fill="#000000">varchar[255]</text>
<polygon fill="#ffffff" stroke="transparent" points="10,-27 10,-46 94,-46 94,-27 10,-27"/>
<polygon fill="none" stroke="#000000" points="10,-27 10,-46 94,-46 94,-27 10,-27"/>
<text text-anchor="start" x="13" y="-33.1" font-family="Helvetica,sans-Serif" font-size="11.00" fill="#000000">&lt; 0</text>
<polygon fill="#ffffff" stroke="transparent" points="94,-27 94,-46 195,-46 195,-27 94,-27"/>
<polygon fill="none" stroke="#000000" points="94,-27 94,-46 195,-46 195,-27 94,-27"/>
<text text-anchor="start" x="159.6105" y="-33.1" font-family="Helvetica,sans-Serif" font-size="11.00" fill="#000000">0 rows</text>
<polygon fill="#ffffff" stroke="transparent" points="195,-27 195,-46 262,-46 262,-27 195,-27"/>
<polygon fill="none" stroke="#000000" points="195,-27 195,-46 262,-46 262,-27 195,-27"/>
<text text-anchor="start" x="243.4053" y="-33.1" font-family="Helvetica,sans-Serif" font-size="11.00" fill="#000000">0 &gt;</text>
<polygon fill="none" stroke="#000000" stroke-width="2" points="9,-26 9,-664 263,-664 263,-26 9,-26"/>
</a>
</g>
</g>
</g>
</svg>
