<?xml version="1.0" encoding="UTF-8" standalone="no"?>
<!DOCTYPE svg PUBLIC "-//W3C//DTD SVG 1.1//EN"
 "http://www.w3.org/Graphics/SVG/1.1/DTD/svg11.dtd">
<!-- Generated by graphviz version 2.40.1 (20161225.0304)
 -->
<!-- Title: oneDegreeRelationshipsDiagram Pages: 1 -->
<svg width="461pt" height="520pt"
 viewBox="0.00 0.00 461.00 520.00" xmlns="http://www.w3.org/2000/svg" xmlns:xlink="http://www.w3.org/1999/xlink">
<g id="graph0" class="graph" transform="scale(1 1) rotate(0) translate(4 516)">
<title>oneDegreeRelationshipsDiagram</title>
<polygon fill="#ffffff" stroke="transparent" points="-4,4 -4,-516 457,-516 457,4 -4,4"/>
<!-- HOSTING_DETAILS_AUD -->
<g id="node1" class="node">
<title>HOSTING_DETAILS_AUD</title>
<g id="a_node1"><a xlink:href="../../tables/HOSTING_DETAILS_AUD.html" xlink:title="HOSTING_DETAILS_AUD" target="_top">
<polygon fill="#ffffff" stroke="transparent" points="226,-403 226,-508 423,-508 423,-403 226,-403"/>
<polygon fill="#f5f5f5" stroke="transparent" points="226.5,-484.5 226.5,-507.5 423.5,-507.5 423.5,-484.5 226.5,-484.5"/>
<polygon fill="none" stroke="#000000" points="226.5,-484.5 226.5,-507.5 423.5,-507.5 423.5,-484.5 226.5,-484.5"/>
<text text-anchor="start" x="231.5" y="-493.1" font-family="Helvetica,sans-Serif" font-weight="bold" font-size="11.00" fill="#000000">HOSTING_DETAILS_AUD</text>
<text text-anchor="start" x="389.0219" y="-492.6" font-family="Helvetica,sans-Serif" font-size="11.00" fill="#000000">[table]</text>
<polygon fill="none" stroke="#000000" points="226.5,-462.5 226.5,-484.5 423.5,-484.5 423.5,-462.5 226.5,-462.5"/>
<image xlink:href="../../images/primaryKeys.png" width="11px" height="12px" preserveAspectRatio="xMinYMin meet" x="231.5" y="-479.5"/>
<text text-anchor="start" x="255.5" y="-469.6" font-family="Helvetica,sans-Serif" font-size="11.00" fill="#000000">id</text>
<polygon fill="none" stroke="#000000" points="226.5,-440.5 226.5,-462.5 423.5,-462.5 423.5,-440.5 226.5,-440.5"/>
<image xlink:href="../../images/primaryKeys.png" width="11px" height="12px" preserveAspectRatio="xMinYMin meet" x="231.5" y="-457.5"/>
<text text-anchor="start" x="255.5" y="-447.6" font-family="Helvetica,sans-Serif" font-size="11.00" fill="#000000">REV</text>
<polygon fill="none" stroke="#000000" points="226.5,-421.5 226.5,-440.5 423.5,-440.5 423.5,-421.5 226.5,-421.5"/>
<text text-anchor="start" x="229.5" y="-427.6" font-family="Helvetica,sans-Serif" font-size="11.00" fill="#000000">...</text>
<polygon fill="#ffffff" stroke="transparent" points="226.5,-402.5 226.5,-421.5 310.5,-421.5 310.5,-402.5 226.5,-402.5"/>
<polygon fill="none" stroke="#000000" points="226.5,-402.5 226.5,-421.5 310.5,-421.5 310.5,-402.5 226.5,-402.5"/>
<text text-anchor="start" x="229.5" y="-408.6" font-family="Helvetica,sans-Serif" font-size="11.00" fill="#000000">&lt; 1</text>
<polygon fill="#ffffff" stroke="transparent" points="310.5,-402.5 310.5,-421.5 379.5,-421.5 379.5,-402.5 310.5,-402.5"/>
<polygon fill="none" stroke="#000000" points="310.5,-402.5 310.5,-421.5 379.5,-421.5 379.5,-402.5 310.5,-402.5"/>
<text text-anchor="start" x="344.1105" y="-408.6" font-family="Helvetica,sans-Serif" font-size="11.00" fill="#000000">0 rows</text>
<polygon fill="#ffffff" stroke="transparent" points="379.5,-402.5 379.5,-421.5 423.5,-421.5 423.5,-402.5 379.5,-402.5"/>
<polygon fill="none" stroke="#000000" points="379.5,-402.5 379.5,-421.5 423.5,-421.5 423.5,-402.5 379.5,-402.5"/>
<text text-anchor="start" x="414.3862" y="-408.6" font-family="Helvetica,sans-Serif" font-size="11.00" fill="#000000"> &#160;</text>
</a>
</g>
</g>
<!-- REVINFO -->
<g id="node2" class="node">
<title>REVINFO</title>
<g id="a_node2"><a xlink:href="../../tables/REVINFO.html" xlink:title="REVINFO" target="_top">
<polygon fill="#ffffff" stroke="transparent" points="8,-208.5 8,-298.5 155,-298.5 155,-208.5 8,-208.5"/>
<polygon fill="#f5f5f5" stroke="transparent" points="10.5,-273.5 10.5,-296.5 153.5,-296.5 153.5,-273.5 10.5,-273.5"/>
<polygon fill="none" stroke="#000000" points="10.5,-273.5 10.5,-296.5 153.5,-296.5 153.5,-273.5 10.5,-273.5"/>
<text text-anchor="start" x="15.5" y="-282.1" font-family="Helvetica,sans-Serif" font-weight="bold" font-size="11.00" fill="#000000">REVINFO</text>
<text text-anchor="start" x="118.5437" y="-281.6" font-family="Helvetica,sans-Serif" font-size="11.00" fill="#000000">[table]</text>
<polygon fill="none" stroke="#000000" points="10.5,-251.5 10.5,-273.5 103.5,-273.5 103.5,-251.5 10.5,-251.5"/>
<image xlink:href="../../images/primaryKeys.png" width="11px" height="12px" preserveAspectRatio="xMinYMin meet" x="15.5" y="-268.5"/>
<text text-anchor="start" x="30.5" y="-258.6" font-family="Helvetica,sans-Serif" font-size="11.00" fill="#000000">REV</text>
<polygon fill="none" stroke="#000000" points="103.5,-251.5 103.5,-273.5 153.5,-273.5 153.5,-251.5 103.5,-251.5"/>
<text text-anchor="start" x="106.5" y="-259.2" font-family="Helvetica,sans-Serif" font-size="11.00" fill="#000000">int[10]</text>
<polygon fill="none" stroke="#000000" points="10.5,-229.5 10.5,-251.5 103.5,-251.5 103.5,-229.5 10.5,-229.5"/>
<text text-anchor="start" x="30.5" y="-236.6" font-family="Helvetica,sans-Serif" font-size="11.00" fill="#000000">REVTSTMP</text>
<polygon fill="none" stroke="#000000" points="103.5,-229.5 103.5,-251.5 153.5,-251.5 153.5,-229.5 103.5,-229.5"/>
<text text-anchor="start" x="106.1865" y="-237.2" font-family="Helvetica,sans-Serif" font-size="11.00" fill="#000000">bigint[19]</text>
<polygon fill="#ffffff" stroke="transparent" points="10.5,-210.5 10.5,-229.5 48.5,-229.5 48.5,-210.5 10.5,-210.5"/>
<polygon fill="none" stroke="#000000" points="10.5,-210.5 10.5,-229.5 48.5,-229.5 48.5,-210.5 10.5,-210.5"/>
<text text-anchor="start" x="13.5" y="-216.6" font-family="Helvetica,sans-Serif" font-size="11.00" fill="#000000">&lt; 0</text>
<polygon fill="#ffffff" stroke="transparent" points="48.5,-210.5 48.5,-229.5 103.5,-229.5 103.5,-210.5 48.5,-210.5"/>
<polygon fill="none" stroke="#000000" points="48.5,-210.5 48.5,-229.5 103.5,-229.5 103.5,-210.5 48.5,-210.5"/>
<text text-anchor="start" x="68.1105" y="-216.6" font-family="Helvetica,sans-Serif" font-size="11.00" fill="#000000">0 rows</text>
<polygon fill="#ffffff" stroke="transparent" points="103.5,-210.5 103.5,-229.5 153.5,-229.5 153.5,-210.5 103.5,-210.5"/>
<polygon fill="none" stroke="#000000" points="103.5,-210.5 103.5,-229.5 153.5,-229.5 153.5,-210.5 103.5,-210.5"/>
<text text-anchor="start" x="134.9053" y="-216.6" font-family="Helvetica,sans-Serif" font-size="11.00" fill="#000000">4 &gt;</text>
<polygon fill="none" stroke="#000000" stroke-width="2" points="9,-209.5 9,-297.5 154,-297.5 154,-209.5 9,-209.5"/>
</a>
</g>
</g>
<!-- HOSTING_DETAILS_AUD&#45;&gt;REVINFO -->
<g id="edge1" class="edge">
<title>HOSTING_DETAILS_AUD:w&#45;&gt;REVINFO:e</title>
<path fill="none" stroke="#000000" d="M212.2243,-449.5053C148.6979,-429.3061 238.0959,-262.5 153.5,-262.5"/>
<polygon fill="#000000" stroke="#000000" points="218.577,-450.3929 226.0018,-455.0654 222.5385,-450.9465 226.5,-451.5 226.5,-451.5 226.5,-451.5 222.5385,-450.9465 226.9982,-447.9346 218.577,-450.3929 218.577,-450.3929"/>
<ellipse fill="none" stroke="#000000" cx="215.4078" cy="-449.9501" rx="3.2" ry="3.2"/>
</g>
<!-- MINIAPP_BUILD_DETAILS_AUD -->
<g id="node3" class="node">
<title>MINIAPP_BUILD_DETAILS_AUD</title>
<g id="a_node3"><a xlink:href="../../tables/MINIAPP_BUILD_DETAILS_AUD.html" xlink:title="MINIAPP_BUILD_DETAILS_AUD" target="_top">
<polygon fill="#ffffff" stroke="transparent" points="204,-277 204,-382 445,-382 445,-277 204,-277"/>
<polygon fill="#f5f5f5" stroke="transparent" points="204.5,-358.5 204.5,-381.5 445.5,-381.5 445.5,-358.5 204.5,-358.5"/>
<polygon fill="none" stroke="#000000" points="204.5,-358.5 204.5,-381.5 445.5,-381.5 445.5,-358.5 204.5,-358.5"/>
<text text-anchor="start" x="209.5" y="-367.1" font-family="Helvetica,sans-Serif" font-weight="bold" font-size="11.00" fill="#000000">MINIAPP_BUILD_DETAILS_AUD</text>
<text text-anchor="start" x="411.0219" y="-366.6" font-family="Helvetica,sans-Serif" font-size="11.00" fill="#000000">[table]</text>
<polygon fill="none" stroke="#000000" points="204.5,-336.5 204.5,-358.5 445.5,-358.5 445.5,-336.5 204.5,-336.5"/>
<image xlink:href="../../images/primaryKeys.png" width="11px" height="12px" preserveAspectRatio="xMinYMin meet" x="209.5" y="-353.5"/>
<text text-anchor="start" x="233.5" y="-343.6" font-family="Helvetica,sans-Serif" font-size="11.00" fill="#000000">id</text>
<polygon fill="none" stroke="#000000" points="204.5,-314.5 204.5,-336.5 445.5,-336.5 445.5,-314.5 204.5,-314.5"/>
<image xlink:href="../../images/primaryKeys.png" width="11px" height="12px" preserveAspectRatio="xMinYMin meet" x="209.5" y="-331.5"/>
<text text-anchor="start" x="233.5" y="-321.6" font-family="Helvetica,sans-Serif" font-size="11.00" fill="#000000">REV</text>
<polygon fill="none" stroke="#000000" points="204.5,-295.5 204.5,-314.5 445.5,-314.5 445.5,-295.5 204.5,-295.5"/>
<text text-anchor="start" x="207.5" y="-301.6" font-family="Helvetica,sans-Serif" font-size="11.00" fill="#000000">...</text>
<polygon fill="#ffffff" stroke="transparent" points="204.5,-276.5 204.5,-295.5 310.5,-295.5 310.5,-276.5 204.5,-276.5"/>
<polygon fill="none" stroke="#000000" points="204.5,-276.5 204.5,-295.5 310.5,-295.5 310.5,-276.5 204.5,-276.5"/>
<text text-anchor="start" x="207.5" y="-282.6" font-family="Helvetica,sans-Serif" font-size="11.00" fill="#000000">&lt; 1</text>
<polygon fill="#ffffff" stroke="transparent" points="310.5,-276.5 310.5,-295.5 390.5,-295.5 390.5,-276.5 310.5,-276.5"/>
<polygon fill="none" stroke="#000000" points="310.5,-276.5 310.5,-295.5 390.5,-295.5 390.5,-276.5 310.5,-276.5"/>
<text text-anchor="start" x="355.1105" y="-282.6" font-family="Helvetica,sans-Serif" font-size="11.00" fill="#000000">0 rows</text>
<polygon fill="#ffffff" stroke="transparent" points="390.5,-276.5 390.5,-295.5 445.5,-295.5 445.5,-276.5 390.5,-276.5"/>
<polygon fill="none" stroke="#000000" points="390.5,-276.5 390.5,-295.5 445.5,-295.5 445.5,-276.5 390.5,-276.5"/>
<text text-anchor="start" x="436.3862" y="-282.6" font-family="Helvetica,sans-Serif" font-size="11.00" fill="#000000"> &#160;</text>
</a>
</g>
</g>
<!-- MINIAPP_BUILD_DETAILS_AUD&#45;&gt;REVINFO -->
<g id="edge2" class="edge">
<title>MINIAPP_BUILD_DETAILS_AUD:w&#45;&gt;REVINFO:e</title>
<path fill="none" stroke="#000000" d="M190.4033,-320.5565C174.025,-305.7048 183.3329,-262.5 153.5,-262.5"/>
<polygon fill="#000000" stroke="#000000" points="196.9507,-322.8526 203.3087,-328.8972 200.7254,-324.1763 204.5,-325.5 204.5,-325.5 204.5,-325.5 200.7254,-324.1763 205.6913,-322.1028 196.9507,-322.8526 196.9507,-322.8526"/>
<ellipse fill="none" stroke="#000000" cx="193.931" cy="-321.7936" rx="3.2" ry="3.2"/>
</g>
<!-- MINIAPP_DETAILS_AUD -->
<g id="node4" class="node">
<title>MINIAPP_DETAILS_AUD</title>
<g id="a_node4"><a xlink:href="../../tables/MINIAPP_DETAILS_AUD.html" xlink:title="MINIAPP_DETAILS_AUD" target="_top">
<polygon fill="#ffffff" stroke="transparent" points="227.5,-151 227.5,-256 421.5,-256 421.5,-151 227.5,-151"/>
<polygon fill="#f5f5f5" stroke="transparent" points="227.5,-232.5 227.5,-255.5 421.5,-255.5 421.5,-232.5 227.5,-232.5"/>
<polygon fill="none" stroke="#000000" points="227.5,-232.5 227.5,-255.5 421.5,-255.5 421.5,-232.5 227.5,-232.5"/>
<text text-anchor="start" x="232.5" y="-241.1" font-family="Helvetica,sans-Serif" font-weight="bold" font-size="11.00" fill="#000000">MINIAPP_DETAILS_AUD</text>
<text text-anchor="start" x="387.0219" y="-240.6" font-family="Helvetica,sans-Serif" font-size="11.00" fill="#000000">[table]</text>
<polygon fill="none" stroke="#000000" points="227.5,-210.5 227.5,-232.5 421.5,-232.5 421.5,-210.5 227.5,-210.5"/>
<image xlink:href="../../images/primaryKeys.png" width="11px" height="12px" preserveAspectRatio="xMinYMin meet" x="232.5" y="-227.5"/>
<text text-anchor="start" x="256.5" y="-217.6" font-family="Helvetica,sans-Serif" font-size="11.00" fill="#000000">id</text>
<polygon fill="none" stroke="#000000" points="227.5,-188.5 227.5,-210.5 421.5,-210.5 421.5,-188.5 227.5,-188.5"/>
<image xlink:href="../../images/primaryKeys.png" width="11px" height="12px" preserveAspectRatio="xMinYMin meet" x="232.5" y="-205.5"/>
<text text-anchor="start" x="256.5" y="-195.6" font-family="Helvetica,sans-Serif" font-size="11.00" fill="#000000">REV</text>
<polygon fill="none" stroke="#000000" points="227.5,-169.5 227.5,-188.5 421.5,-188.5 421.5,-169.5 227.5,-169.5"/>
<text text-anchor="start" x="230.5" y="-175.6" font-family="Helvetica,sans-Serif" font-size="11.00" fill="#000000">...</text>
<polygon fill="#ffffff" stroke="transparent" points="227.5,-150.5 227.5,-169.5 309.5,-169.5 309.5,-150.5 227.5,-150.5"/>
<polygon fill="none" stroke="#000000" points="227.5,-150.5 227.5,-169.5 309.5,-169.5 309.5,-150.5 227.5,-150.5"/>
<text text-anchor="start" x="230.5" y="-156.6" font-family="Helvetica,sans-Serif" font-size="11.00" fill="#000000">&lt; 1</text>
<polygon fill="#ffffff" stroke="transparent" points="309.5,-150.5 309.5,-169.5 378.5,-169.5 378.5,-150.5 309.5,-150.5"/>
<polygon fill="none" stroke="#000000" points="309.5,-150.5 309.5,-169.5 378.5,-169.5 378.5,-150.5 309.5,-150.5"/>
<text text-anchor="start" x="343.1105" y="-156.6" font-family="Helvetica,sans-Serif" font-size="11.00" fill="#000000">0 rows</text>
<polygon fill="#ffffff" stroke="transparent" points="378.5,-150.5 378.5,-169.5 421.5,-169.5 421.5,-150.5 378.5,-150.5"/>
<polygon fill="none" stroke="#000000" points="378.5,-150.5 378.5,-169.5 421.5,-169.5 421.5,-150.5 378.5,-150.5"/>
<text text-anchor="start" x="412.3862" y="-156.6" font-family="Helvetica,sans-Serif" font-size="11.00" fill="#000000"> &#160;</text>
</a>
</g>
</g>
<!-- MINIAPP_DETAILS_AUD&#45;&gt;REVINFO -->
<g id="edge3" class="edge">
<title>MINIAPP_DETAILS_AUD:w&#45;&gt;REVINFO:e</title>
<path fill="none" stroke="#000000" d="M213.3289,-202.3707C186.5764,-214.6953 191.1256,-262.5 153.5,-262.5"/>
<polygon fill="#000000" stroke="#000000" points="219.6593,-201.0884 228.2148,-203.0283 223.5796,-200.2942 227.5,-199.5 227.5,-199.5 227.5,-199.5 223.5796,-200.2942 226.7852,-195.9717 219.6593,-201.0884 219.6593,-201.0884"/>
<ellipse fill="none" stroke="#000000" cx="216.523" cy="-201.7237" rx="3.2" ry="3.2"/>
</g>
<!-- User_AUD -->
<g id="node5" class="node">
<title>User_AUD</title>
<g id="a_node5"><a xlink:href="../../tables/User_AUD.html" xlink:title="User_AUD" target="_top">
<polygon fill="#ffffff" stroke="transparent" points="272.5,-25 272.5,-130 376.5,-130 376.5,-25 272.5,-25"/>
<polygon fill="#f5f5f5" stroke="transparent" points="272.5,-106.5 272.5,-129.5 376.5,-129.5 376.5,-106.5 272.5,-106.5"/>
<polygon fill="none" stroke="#000000" points="272.5,-106.5 272.5,-129.5 376.5,-129.5 376.5,-106.5 272.5,-106.5"/>
<text text-anchor="start" x="277.5" y="-115.1" font-family="Helvetica,sans-Serif" font-weight="bold" font-size="11.00" fill="#000000">User_AUD</text>
<text text-anchor="start" x="342.0219" y="-114.6" font-family="Helvetica,sans-Serif" font-size="11.00" fill="#000000">[table]</text>
<polygon fill="none" stroke="#000000" points="272.5,-84.5 272.5,-106.5 376.5,-106.5 376.5,-84.5 272.5,-84.5"/>
<image xlink:href="../../images/primaryKeys.png" width="11px" height="12px" preserveAspectRatio="xMinYMin meet" x="277.5" y="-101.5"/>
<text text-anchor="start" x="292.5" y="-91.6" font-family="Helvetica,sans-Serif" font-size="11.00" fill="#000000">userid_pk</text>
<polygon fill="none" stroke="#000000" points="272.5,-62.5 272.5,-84.5 376.5,-84.5 376.5,-62.5 272.5,-62.5"/>
<image xlink:href="../../images/primaryKeys.png" width="11px" height="12px" preserveAspectRatio="xMinYMin meet" x="277.5" y="-79.5"/>
<text text-anchor="start" x="292.5" y="-69.6" font-family="Helvetica,sans-Serif" font-size="11.00" fill="#000000">REV</text>
<polygon fill="none" stroke="#000000" points="272.5,-43.5 272.5,-62.5 376.5,-62.5 376.5,-43.5 272.5,-43.5"/>
<text text-anchor="start" x="275.5" y="-49.6" font-family="Helvetica,sans-Serif" font-size="11.00" fill="#000000">...</text>
<polygon fill="#ffffff" stroke="transparent" points="272.5,-24.5 272.5,-43.5 309.5,-43.5 309.5,-24.5 272.5,-24.5"/>
<polygon fill="none" stroke="#000000" points="272.5,-24.5 272.5,-43.5 309.5,-43.5 309.5,-24.5 272.5,-24.5"/>
<text text-anchor="start" x="275.5" y="-30.6" font-family="Helvetica,sans-Serif" font-size="11.00" fill="#000000">&lt; 1</text>
<polygon fill="#ffffff" stroke="transparent" points="309.5,-24.5 309.5,-43.5 355.5,-43.5 355.5,-24.5 309.5,-24.5"/>
<polygon fill="none" stroke="#000000" points="309.5,-24.5 309.5,-43.5 355.5,-43.5 355.5,-24.5 309.5,-24.5"/>
<text text-anchor="start" x="320.1105" y="-30.6" font-family="Helvetica,sans-Serif" font-size="11.00" fill="#000000">0 rows</text>
<polygon fill="#ffffff" stroke="transparent" points="355.5,-24.5 355.5,-43.5 376.5,-43.5 376.5,-24.5 355.5,-24.5"/>
<polygon fill="none" stroke="#000000" points="355.5,-24.5 355.5,-43.5 376.5,-43.5 376.5,-24.5 355.5,-24.5"/>
<text text-anchor="start" x="367.3862" y="-30.6" font-family="Helvetica,sans-Serif" font-size="11.00" fill="#000000"> &#160;</text>
</a>
</g>
</g>
<!-- User_AUD&#45;&gt;REVINFO -->
<g id="edge4" class="edge">
<title>User_AUD:w&#45;&gt;REVINFO:e</title>
<path fill="none" stroke="#000000" d="M258.1302,-74.6818C225.6256,-80.53 218.31,-107.4202 196,-140.5 163.8947,-188.1035 210.9181,-262.5 153.5,-262.5"/>
<polygon fill="#000000" stroke="#000000" points="264.5269,-74.1558 272.7951,-77.0879 268.5135,-73.8279 272.5,-73.5 272.5,-73.5 272.5,-73.5 268.5135,-73.8279 272.2049,-69.9121 264.5269,-74.1558 264.5269,-74.1558"/>
<ellipse fill="none" stroke="#000000" cx="261.3377" cy="-74.4181" rx="3.2" ry="3.2"/>
</g>
</g>
</svg>
