<?xml version="1.0" encoding="UTF-8" standalone="no"?>
<!DOCTYPE svg PUBLIC "-//W3C//DTD SVG 1.1//EN"
 "http://www.w3.org/Graphics/SVG/1.1/DTD/svg11.dtd">
<!-- Generated by graphviz version 2.40.1 (20161225.0304)
 -->
<!-- Title: oneDegreeRelationshipsDiagram Pages: 1 -->
<svg width="346pt" height="237pt"
 viewBox="0.00 0.00 346.00 237.00" xmlns="http://www.w3.org/2000/svg" xmlns:xlink="http://www.w3.org/1999/xlink">
<g id="graph0" class="graph" transform="scale(1 1) rotate(0) translate(4 233)">
<title>oneDegreeRelationshipsDiagram</title>
<polygon fill="#ffffff" stroke="transparent" points="-4,4 -4,-233 342,-233 342,4 -4,4"/>
<!-- User_AUD -->
<g id="node1" class="node">
<title>User_AUD</title>
<g id="a_node1"><a xlink:href="../../tables/User_AUD.html" xlink:title="User_AUD" target="_top">
<polygon fill="#ffffff" stroke="transparent" points="155,-25 155,-225 330,-225 330,-25 155,-25"/>
<polygon fill="#f5f5f5" stroke="transparent" points="157.5,-200 157.5,-223 328.5,-223 328.5,-200 157.5,-200"/>
<polygon fill="none" stroke="#000000" points="157.5,-200 157.5,-223 328.5,-223 328.5,-200 157.5,-200"/>
<text text-anchor="start" x="162.5" y="-208.6" font-family="Helvetica,sans-Serif" font-weight="bold" font-size="11.00" fill="#000000">User_AUD</text>
<text text-anchor="start" x="293.5437" y="-208.1" font-family="Helvetica,sans-Serif" font-size="11.00" fill="#000000">[table]</text>
<polygon fill="none" stroke="#000000" points="157.5,-178 157.5,-200 261.5,-200 261.5,-178 157.5,-178"/>
<image xlink:href="../../images/primaryKeys.png" width="11px" height="12px" preserveAspectRatio="xMinYMin meet" x="162.5" y="-195"/>
<text text-anchor="start" x="177.5" y="-185.1" font-family="Helvetica,sans-Serif" font-size="11.00" fill="#000000">userid_pk</text>
<polygon fill="none" stroke="#000000" points="261.5,-178 261.5,-200 328.5,-200 328.5,-178 261.5,-178"/>
<text text-anchor="start" x="264.5" y="-185.7" font-family="Helvetica,sans-Serif" font-size="11.00" fill="#000000">int[10]</text>
<polygon fill="none" stroke="#000000" points="157.5,-156 157.5,-178 261.5,-178 261.5,-156 157.5,-156"/>
<image xlink:href="../../images/primaryKeys.png" width="11px" height="12px" preserveAspectRatio="xMinYMin meet" x="162.5" y="-173"/>
<text text-anchor="start" x="177.5" y="-163.1" font-family="Helvetica,sans-Serif" font-size="11.00" fill="#000000">REV</text>
<polygon fill="none" stroke="#000000" points="261.5,-156 261.5,-178 328.5,-178 328.5,-156 261.5,-156"/>
<text text-anchor="start" x="264.5" y="-163.7" font-family="Helvetica,sans-Serif" font-size="11.00" fill="#000000">int[10]</text>
<polygon fill="none" stroke="#000000" points="157.5,-134 157.5,-156 261.5,-156 261.5,-134 157.5,-134"/>
<text text-anchor="start" x="177.5" y="-141.1" font-family="Helvetica,sans-Serif" font-size="11.00" fill="#000000">REVTYPE</text>
<polygon fill="none" stroke="#000000" points="261.5,-134 261.5,-156 328.5,-156 328.5,-134 261.5,-134"/>
<text text-anchor="start" x="264.5" y="-141.7" font-family="Helvetica,sans-Serif" font-size="11.00" fill="#000000">tinyint[3]</text>
<polygon fill="none" stroke="#000000" points="157.5,-112 157.5,-134 261.5,-134 261.5,-112 157.5,-112"/>
<text text-anchor="start" x="177.5" y="-119.1" font-family="Helvetica,sans-Serif" font-size="11.00" fill="#000000">firstname</text>
<polygon fill="none" stroke="#000000" points="261.5,-112 261.5,-134 328.5,-134 328.5,-112 261.5,-112"/>
<text text-anchor="start" x="264.5" y="-119.7" font-family="Helvetica,sans-Serif" font-size="11.00" fill="#000000">varchar[50]</text>
<polygon fill="none" stroke="#000000" points="157.5,-90 157.5,-112 261.5,-112 261.5,-90 157.5,-90"/>
<text text-anchor="start" x="177.5" y="-97.1" font-family="Helvetica,sans-Serif" font-size="11.00" fill="#000000">lastname</text>
<polygon fill="none" stroke="#000000" points="261.5,-90 261.5,-112 328.5,-112 328.5,-90 261.5,-90"/>
<text text-anchor="start" x="264.5" y="-97.7" font-family="Helvetica,sans-Serif" font-size="11.00" fill="#000000">varchar[50]</text>
<polygon fill="none" stroke="#000000" points="157.5,-68 157.5,-90 261.5,-90 261.5,-68 157.5,-68"/>
<text text-anchor="start" x="177.5" y="-75.1" font-family="Helvetica,sans-Serif" font-size="11.00" fill="#000000">middlename</text>
<polygon fill="none" stroke="#000000" points="261.5,-68 261.5,-90 328.5,-90 328.5,-68 261.5,-68"/>
<text text-anchor="start" x="264.5" y="-75.7" font-family="Helvetica,sans-Serif" font-size="11.00" fill="#000000">varchar[50]</text>
<polygon fill="none" stroke="#000000" points="157.5,-46 157.5,-68 261.5,-68 261.5,-46 157.5,-46"/>
<text text-anchor="start" x="177.5" y="-53.1" font-family="Helvetica,sans-Serif" font-size="11.00" fill="#000000">username</text>
<polygon fill="none" stroke="#000000" points="261.5,-46 261.5,-68 328.5,-68 328.5,-46 261.5,-46"/>
<text text-anchor="start" x="264.4365" y="-53.7" font-family="Helvetica,sans-Serif" font-size="11.00" fill="#000000">varchar[100]</text>
<polygon fill="#ffffff" stroke="transparent" points="157.5,-27 157.5,-46 200.5,-46 200.5,-27 157.5,-27"/>
<polygon fill="none" stroke="#000000" points="157.5,-27 157.5,-46 200.5,-46 200.5,-27 157.5,-27"/>
<text text-anchor="start" x="160.5" y="-33.1" font-family="Helvetica,sans-Serif" font-size="11.00" fill="#000000">&lt; 1</text>
<polygon fill="#ffffff" stroke="transparent" points="200.5,-27 200.5,-46 261.5,-46 261.5,-27 200.5,-27"/>
<polygon fill="none" stroke="#000000" points="200.5,-27 200.5,-46 261.5,-46 261.5,-27 200.5,-27"/>
<text text-anchor="start" x="226.1105" y="-33.1" font-family="Helvetica,sans-Serif" font-size="11.00" fill="#000000">0 rows</text>
<polygon fill="#ffffff" stroke="transparent" points="261.5,-27 261.5,-46 328.5,-46 328.5,-27 261.5,-27"/>
<polygon fill="none" stroke="#000000" points="261.5,-27 261.5,-46 328.5,-46 328.5,-27 261.5,-27"/>
<text text-anchor="start" x="309.9053" y="-33.1" font-family="Helvetica,sans-Serif" font-size="11.00" fill="#000000">0 &gt;</text>
<polygon fill="none" stroke="#000000" stroke-width="2" points="156,-26 156,-224 329,-224 329,-26 156,-26"/>
</a>
</g>
</g>
<!-- REVINFO -->
<g id="node2" class="node">
<title>REVINFO</title>
<g id="a_node2"><a xlink:href="../../tables/REVINFO.html" xlink:title="REVINFO" target="_top">
<polygon fill="#ffffff" stroke="transparent" points="8,-118.5 8,-201.5 106,-201.5 106,-118.5 8,-118.5"/>
<polygon fill="#f5f5f5" stroke="transparent" points="8,-178 8,-201 106,-201 106,-178 8,-178"/>
<polygon fill="none" stroke="#000000" points="8,-178 8,-201 106,-201 106,-178 8,-178"/>
<text text-anchor="start" x="13" y="-186.6" font-family="Helvetica,sans-Serif" font-weight="bold" font-size="11.00" fill="#000000">REVINFO</text>
<text text-anchor="start" x="71.5219" y="-186.1" font-family="Helvetica,sans-Serif" font-size="11.00" fill="#000000">[table]</text>
<polygon fill="none" stroke="#000000" points="8,-156 8,-178 106,-178 106,-156 8,-156"/>
<image xlink:href="../../images/primaryKeys.png" width="11px" height="12px" preserveAspectRatio="xMinYMin meet" x="13" y="-173"/>
<text text-anchor="start" x="31" y="-163.1" font-family="Helvetica,sans-Serif" font-size="11.00" fill="#000000">REV</text>
<polygon fill="none" stroke="#000000" points="8,-137 8,-156 106,-156 106,-137 8,-137"/>
<text text-anchor="start" x="11" y="-143.1" font-family="Helvetica,sans-Serif" font-size="11.00" fill="#000000">...</text>
<polygon fill="#ffffff" stroke="transparent" points="8,-118 8,-137 33,-137 33,-118 8,-118"/>
<polygon fill="none" stroke="#000000" points="8,-118 8,-137 33,-137 33,-118 8,-118"/>
<text text-anchor="start" x="11" y="-124.1" font-family="Helvetica,sans-Serif" font-size="11.00" fill="#000000"> &#160;</text>
<polygon fill="#ffffff" stroke="transparent" points="33,-118 33,-137 78,-137 78,-118 33,-118"/>
<polygon fill="none" stroke="#000000" points="33,-118 33,-137 78,-137 78,-118 33,-118"/>
<text text-anchor="start" x="42.6105" y="-124.1" font-family="Helvetica,sans-Serif" font-size="11.00" fill="#000000">0 rows</text>
<polygon fill="#ffffff" stroke="transparent" points="78,-118 78,-137 106,-137 106,-118 78,-118"/>
<polygon fill="none" stroke="#000000" points="78,-118 78,-137 106,-137 106,-118 78,-118"/>
<text text-anchor="start" x="87.4053" y="-124.1" font-family="Helvetica,sans-Serif" font-size="11.00" fill="#000000">4 &gt;</text>
</a>
</g>
</g>
<!-- User_AUD&#45;&gt;REVINFO -->
<g id="edge1" class="edge">
<title>User_AUD:w&#45;&gt;REVINFO:e</title>
<path fill="none" stroke="#000000" d="M143.0156,-167C130.6771,-167 123.1667,-167 106,-167"/>
<polygon fill="#000000" stroke="#000000" points="149.5,-167.0001 157.5,-170.6 153.5,-167 157.5,-167 157.5,-167 157.5,-167 153.5,-167 157.5,-163.4 149.5,-167.0001 149.5,-167.0001"/>
<ellipse fill="none" stroke="#000000" cx="146.3" cy="-167.0001" rx="3.2" ry="3.2"/>
</g>
</g>
</svg>
