<?xml version="1.0" encoding="UTF-8" standalone="no"?>
<!DOCTYPE svg PUBLIC "-//W3C//DTD SVG 1.1//EN"
 "http://www.w3.org/Graphics/SVG/1.1/DTD/svg11.dtd">
<!-- Generated by graphviz version 2.40.1 (20161225.0304)
 -->
<!-- Title: twoDegreesRelationshipsDiagram Pages: 1 -->
<svg width="412pt" height="484pt"
 viewBox="0.00 0.00 412.00 483.50" xmlns="http://www.w3.org/2000/svg" xmlns:xlink="http://www.w3.org/1999/xlink">
<g id="graph0" class="graph" transform="scale(1 1) rotate(0) translate(4 479.5)">
<title>twoDegreesRelationshipsDiagram</title>
<polygon fill="#ffffff" stroke="transparent" points="-4,4 -4,-479.5 408,-479.5 408,4 -4,4"/>
<!-- HOSTING_DETAILS_AUD -->
<g id="node1" class="node">
<title>HOSTING_DETAILS_AUD</title>
<g id="a_node1"><a xlink:href="../../tables/HOSTING_DETAILS_AUD.html" xlink:title="HOSTING_DETAILS_AUD" target="_top">
<polygon fill="#ffffff" stroke="transparent" points="177,-410.5 177,-471.5 374,-471.5 374,-410.5 177,-410.5"/>
<polygon fill="#f5f5f5" stroke="transparent" points="177.5,-448 177.5,-471 374.5,-471 374.5,-448 177.5,-448"/>
<polygon fill="none" stroke="#000000" points="177.5,-448 177.5,-471 374.5,-471 374.5,-448 177.5,-448"/>
<text text-anchor="start" x="182.5" y="-456.6" font-family="Helvetica,sans-Serif" font-weight="bold" font-size="11.00" fill="#000000">HOSTING_DETAILS_AUD</text>
<text text-anchor="start" x="340.0219" y="-456.1" font-family="Helvetica,sans-Serif" font-size="11.00" fill="#000000">[table]</text>
<polygon fill="none" stroke="#000000" points="177.5,-429 177.5,-448 374.5,-448 374.5,-429 177.5,-429"/>
<text text-anchor="start" x="180.5" y="-435.1" font-family="Helvetica,sans-Serif" font-size="11.00" fill="#000000">...</text>
<polygon fill="#ffffff" stroke="transparent" points="177.5,-410 177.5,-429 261.5,-429 261.5,-410 177.5,-410"/>
<polygon fill="none" stroke="#000000" points="177.5,-410 177.5,-429 261.5,-429 261.5,-410 177.5,-410"/>
<text text-anchor="start" x="180.5" y="-416.1" font-family="Helvetica,sans-Serif" font-size="11.00" fill="#000000">&lt; 1</text>
<polygon fill="#ffffff" stroke="transparent" points="261.5,-410 261.5,-429 330.5,-429 330.5,-410 261.5,-410"/>
<polygon fill="none" stroke="#000000" points="261.5,-410 261.5,-429 330.5,-429 330.5,-410 261.5,-410"/>
<text text-anchor="start" x="295.1105" y="-416.1" font-family="Helvetica,sans-Serif" font-size="11.00" fill="#000000">0 rows</text>
<polygon fill="#ffffff" stroke="transparent" points="330.5,-410 330.5,-429 374.5,-429 374.5,-410 330.5,-410"/>
<polygon fill="none" stroke="#000000" points="330.5,-410 330.5,-429 374.5,-429 374.5,-410 330.5,-410"/>
<text text-anchor="start" x="365.3862" y="-416.1" font-family="Helvetica,sans-Serif" font-size="11.00" fill="#000000"> &#160;</text>
</a>
</g>
</g>
<!-- REVINFO -->
<g id="node2" class="node">
<title>REVINFO</title>
<g id="a_node2"><a xlink:href="../../tables/REVINFO.html" xlink:title="REVINFO" target="_top">
<polygon fill="#ffffff" stroke="transparent" points="8,-266.5 8,-349.5 106,-349.5 106,-266.5 8,-266.5"/>
<polygon fill="#f5f5f5" stroke="transparent" points="8,-326 8,-349 106,-349 106,-326 8,-326"/>
<polygon fill="none" stroke="#000000" points="8,-326 8,-349 106,-349 106,-326 8,-326"/>
<text text-anchor="start" x="13" y="-334.6" font-family="Helvetica,sans-Serif" font-weight="bold" font-size="11.00" fill="#000000">REVINFO</text>
<text text-anchor="start" x="71.5219" y="-334.1" font-family="Helvetica,sans-Serif" font-size="11.00" fill="#000000">[table]</text>
<polygon fill="none" stroke="#000000" points="8,-304 8,-326 106,-326 106,-304 8,-304"/>
<image xlink:href="../../images/primaryKeys.png" width="11px" height="12px" preserveAspectRatio="xMinYMin meet" x="13" y="-321"/>
<text text-anchor="start" x="31" y="-311.1" font-family="Helvetica,sans-Serif" font-size="11.00" fill="#000000">REV</text>
<polygon fill="none" stroke="#000000" points="8,-285 8,-304 106,-304 106,-285 8,-285"/>
<text text-anchor="start" x="11" y="-291.1" font-family="Helvetica,sans-Serif" font-size="11.00" fill="#000000">...</text>
<polygon fill="#ffffff" stroke="transparent" points="8,-266 8,-285 33,-285 33,-266 8,-266"/>
<polygon fill="none" stroke="#000000" points="8,-266 8,-285 33,-285 33,-266 8,-266"/>
<text text-anchor="start" x="11" y="-272.1" font-family="Helvetica,sans-Serif" font-size="11.00" fill="#000000"> &#160;</text>
<polygon fill="#ffffff" stroke="transparent" points="33,-266 33,-285 78,-285 78,-266 33,-266"/>
<polygon fill="none" stroke="#000000" points="33,-266 33,-285 78,-285 78,-266 33,-266"/>
<text text-anchor="start" x="42.6105" y="-272.1" font-family="Helvetica,sans-Serif" font-size="11.00" fill="#000000">0 rows</text>
<polygon fill="#ffffff" stroke="transparent" points="78,-266 78,-285 106,-285 106,-266 78,-266"/>
<polygon fill="none" stroke="#000000" points="78,-266 78,-285 106,-285 106,-266 78,-266"/>
<text text-anchor="start" x="87.4053" y="-272.1" font-family="Helvetica,sans-Serif" font-size="11.00" fill="#000000">4 &gt;</text>
</a>
</g>
</g>
<!-- HOSTING_DETAILS_AUD&#45;&gt;REVINFO -->
<g id="edge1" class="edge">
<title>HOSTING_DETAILS_AUD:w&#45;&gt;REVINFO:e</title>
<path fill="none" stroke="#000000" d="M163.1478,-435.1999C123.1904,-416.8913 163.5509,-315 106,-315"/>
<polygon fill="#000000" stroke="#000000" points="169.648,-436.468 176.8106,-441.5334 173.574,-437.234 177.5,-438 177.5,-438 177.5,-438 173.574,-437.234 178.1894,-434.4666 169.648,-436.468 169.648,-436.468"/>
<ellipse fill="none" stroke="#000000" cx="166.5073" cy="-435.8552" rx="3.2" ry="3.2"/>
</g>
<!-- MINIAPP_BUILD_DETAILS_AUD -->
<g id="node3" class="node">
<title>MINIAPP_BUILD_DETAILS_AUD</title>
<g id="a_node3"><a xlink:href="../../tables/MINIAPP_BUILD_DETAILS_AUD.html" xlink:title="MINIAPP_BUILD_DETAILS_AUD" target="_top">
<polygon fill="#ffffff" stroke="transparent" points="155,-328.5 155,-389.5 396,-389.5 396,-328.5 155,-328.5"/>
<polygon fill="#f5f5f5" stroke="transparent" points="155.5,-366 155.5,-389 396.5,-389 396.5,-366 155.5,-366"/>
<polygon fill="none" stroke="#000000" points="155.5,-366 155.5,-389 396.5,-389 396.5,-366 155.5,-366"/>
<text text-anchor="start" x="160.5" y="-374.6" font-family="Helvetica,sans-Serif" font-weight="bold" font-size="11.00" fill="#000000">MINIAPP_BUILD_DETAILS_AUD</text>
<text text-anchor="start" x="362.0219" y="-374.1" font-family="Helvetica,sans-Serif" font-size="11.00" fill="#000000">[table]</text>
<polygon fill="none" stroke="#000000" points="155.5,-347 155.5,-366 396.5,-366 396.5,-347 155.5,-347"/>
<text text-anchor="start" x="158.5" y="-353.1" font-family="Helvetica,sans-Serif" font-size="11.00" fill="#000000">...</text>
<polygon fill="#ffffff" stroke="transparent" points="155.5,-328 155.5,-347 261.5,-347 261.5,-328 155.5,-328"/>
<polygon fill="none" stroke="#000000" points="155.5,-328 155.5,-347 261.5,-347 261.5,-328 155.5,-328"/>
<text text-anchor="start" x="158.5" y="-334.1" font-family="Helvetica,sans-Serif" font-size="11.00" fill="#000000">&lt; 1</text>
<polygon fill="#ffffff" stroke="transparent" points="261.5,-328 261.5,-347 341.5,-347 341.5,-328 261.5,-328"/>
<polygon fill="none" stroke="#000000" points="261.5,-328 261.5,-347 341.5,-347 341.5,-328 261.5,-328"/>
<text text-anchor="start" x="306.1105" y="-334.1" font-family="Helvetica,sans-Serif" font-size="11.00" fill="#000000">0 rows</text>
<polygon fill="#ffffff" stroke="transparent" points="341.5,-328 341.5,-347 396.5,-347 396.5,-328 341.5,-328"/>
<polygon fill="none" stroke="#000000" points="341.5,-328 341.5,-347 396.5,-347 396.5,-328 341.5,-328"/>
<text text-anchor="start" x="387.3862" y="-334.1" font-family="Helvetica,sans-Serif" font-size="11.00" fill="#000000"> &#160;</text>
</a>
</g>
</g>
<!-- MINIAPP_BUILD_DETAILS_AUD&#45;&gt;REVINFO -->
<g id="edge2" class="edge">
<title>MINIAPP_BUILD_DETAILS_AUD:w&#45;&gt;REVINFO:e</title>
<path fill="none" stroke="#000000" d="M141.5753,-351.2968C128.543,-340.5274 128.5408,-315 106,-315"/>
<polygon fill="#000000" stroke="#000000" points="147.9207,-353.44 154.348,-359.4107 151.7103,-354.72 155.5,-356 155.5,-356 155.5,-356 151.7103,-354.72 156.652,-352.5893 147.9207,-353.44 147.9207,-353.44"/>
<ellipse fill="none" stroke="#000000" cx="144.8889" cy="-352.4159" rx="3.2" ry="3.2"/>
</g>
<!-- MINIAPP_DETAILS_AUD -->
<g id="node4" class="node">
<title>MINIAPP_DETAILS_AUD</title>
<g id="a_node4"><a xlink:href="../../tables/MINIAPP_DETAILS_AUD.html" xlink:title="MINIAPP_DETAILS_AUD" target="_top">
<polygon fill="#ffffff" stroke="transparent" points="178.5,-246.5 178.5,-307.5 372.5,-307.5 372.5,-246.5 178.5,-246.5"/>
<polygon fill="#f5f5f5" stroke="transparent" points="178.5,-284 178.5,-307 372.5,-307 372.5,-284 178.5,-284"/>
<polygon fill="none" stroke="#000000" points="178.5,-284 178.5,-307 372.5,-307 372.5,-284 178.5,-284"/>
<text text-anchor="start" x="183.5" y="-292.6" font-family="Helvetica,sans-Serif" font-weight="bold" font-size="11.00" fill="#000000">MINIAPP_DETAILS_AUD</text>
<text text-anchor="start" x="338.0219" y="-292.1" font-family="Helvetica,sans-Serif" font-size="11.00" fill="#000000">[table]</text>
<polygon fill="none" stroke="#000000" points="178.5,-265 178.5,-284 372.5,-284 372.5,-265 178.5,-265"/>
<text text-anchor="start" x="181.5" y="-271.1" font-family="Helvetica,sans-Serif" font-size="11.00" fill="#000000">...</text>
<polygon fill="#ffffff" stroke="transparent" points="178.5,-246 178.5,-265 260.5,-265 260.5,-246 178.5,-246"/>
<polygon fill="none" stroke="#000000" points="178.5,-246 178.5,-265 260.5,-265 260.5,-246 178.5,-246"/>
<text text-anchor="start" x="181.5" y="-252.1" font-family="Helvetica,sans-Serif" font-size="11.00" fill="#000000">&lt; 1</text>
<polygon fill="#ffffff" stroke="transparent" points="260.5,-246 260.5,-265 329.5,-265 329.5,-246 260.5,-246"/>
<polygon fill="none" stroke="#000000" points="260.5,-246 260.5,-265 329.5,-265 329.5,-246 260.5,-246"/>
<text text-anchor="start" x="294.1105" y="-252.1" font-family="Helvetica,sans-Serif" font-size="11.00" fill="#000000">0 rows</text>
<polygon fill="#ffffff" stroke="transparent" points="329.5,-246 329.5,-265 372.5,-265 372.5,-246 329.5,-246"/>
<polygon fill="none" stroke="#000000" points="329.5,-246 329.5,-265 372.5,-265 372.5,-246 329.5,-246"/>
<text text-anchor="start" x="363.3862" y="-252.1" font-family="Helvetica,sans-Serif" font-size="11.00" fill="#000000"> &#160;</text>
</a>
</g>
</g>
<!-- MINIAPP_DETAILS_AUD&#45;&gt;REVINFO -->
<g id="edge3" class="edge">
<title>MINIAPP_DETAILS_AUD:w&#45;&gt;REVINFO:e</title>
<path fill="none" stroke="#000000" d="M163.9934,-276.5647C141.0553,-285.5406 137.3784,-315 106,-315"/>
<polygon fill="#000000" stroke="#000000" points="170.6222,-275.3928 179.1268,-277.545 174.5611,-274.6964 178.5,-274 178.5,-274 178.5,-274 174.5611,-274.6964 177.8732,-270.455 170.6222,-275.3928 170.6222,-275.3928"/>
<ellipse fill="none" stroke="#000000" cx="167.471" cy="-275.95" rx="3.2" ry="3.2"/>
</g>
<!-- User_AUD -->
<g id="node5" class="node">
<title>User_AUD</title>
<g id="a_node5"><a xlink:href="../../tables/User_AUD.html" xlink:title="User_AUD" target="_top">
<polygon fill="#ffffff" stroke="transparent" points="188,-25 188,-225 363,-225 363,-25 188,-25"/>
<polygon fill="#f5f5f5" stroke="transparent" points="190.5,-200 190.5,-223 361.5,-223 361.5,-200 190.5,-200"/>
<polygon fill="none" stroke="#000000" points="190.5,-200 190.5,-223 361.5,-223 361.5,-200 190.5,-200"/>
<text text-anchor="start" x="195.5" y="-208.6" font-family="Helvetica,sans-Serif" font-weight="bold" font-size="11.00" fill="#000000">User_AUD</text>
<text text-anchor="start" x="326.5437" y="-208.1" font-family="Helvetica,sans-Serif" font-size="11.00" fill="#000000">[table]</text>
<polygon fill="none" stroke="#000000" points="190.5,-178 190.5,-200 294.5,-200 294.5,-178 190.5,-178"/>
<image xlink:href="../../images/primaryKeys.png" width="11px" height="12px" preserveAspectRatio="xMinYMin meet" x="195.5" y="-195"/>
<text text-anchor="start" x="210.5" y="-185.1" font-family="Helvetica,sans-Serif" font-size="11.00" fill="#000000">userid_pk</text>
<polygon fill="none" stroke="#000000" points="294.5,-178 294.5,-200 361.5,-200 361.5,-178 294.5,-178"/>
<text text-anchor="start" x="297.5" y="-185.7" font-family="Helvetica,sans-Serif" font-size="11.00" fill="#000000">int[10]</text>
<polygon fill="none" stroke="#000000" points="190.5,-156 190.5,-178 294.5,-178 294.5,-156 190.5,-156"/>
<image xlink:href="../../images/primaryKeys.png" width="11px" height="12px" preserveAspectRatio="xMinYMin meet" x="195.5" y="-173"/>
<text text-anchor="start" x="210.5" y="-163.1" font-family="Helvetica,sans-Serif" font-size="11.00" fill="#000000">REV</text>
<polygon fill="none" stroke="#000000" points="294.5,-156 294.5,-178 361.5,-178 361.5,-156 294.5,-156"/>
<text text-anchor="start" x="297.5" y="-163.7" font-family="Helvetica,sans-Serif" font-size="11.00" fill="#000000">int[10]</text>
<polygon fill="none" stroke="#000000" points="190.5,-134 190.5,-156 294.5,-156 294.5,-134 190.5,-134"/>
<text text-anchor="start" x="210.5" y="-141.1" font-family="Helvetica,sans-Serif" font-size="11.00" fill="#000000">REVTYPE</text>
<polygon fill="none" stroke="#000000" points="294.5,-134 294.5,-156 361.5,-156 361.5,-134 294.5,-134"/>
<text text-anchor="start" x="297.5" y="-141.7" font-family="Helvetica,sans-Serif" font-size="11.00" fill="#000000">tinyint[3]</text>
<polygon fill="none" stroke="#000000" points="190.5,-112 190.5,-134 294.5,-134 294.5,-112 190.5,-112"/>
<text text-anchor="start" x="210.5" y="-119.1" font-family="Helvetica,sans-Serif" font-size="11.00" fill="#000000">firstname</text>
<polygon fill="none" stroke="#000000" points="294.5,-112 294.5,-134 361.5,-134 361.5,-112 294.5,-112"/>
<text text-anchor="start" x="297.5" y="-119.7" font-family="Helvetica,sans-Serif" font-size="11.00" fill="#000000">varchar[50]</text>
<polygon fill="none" stroke="#000000" points="190.5,-90 190.5,-112 294.5,-112 294.5,-90 190.5,-90"/>
<text text-anchor="start" x="210.5" y="-97.1" font-family="Helvetica,sans-Serif" font-size="11.00" fill="#000000">lastname</text>
<polygon fill="none" stroke="#000000" points="294.5,-90 294.5,-112 361.5,-112 361.5,-90 294.5,-90"/>
<text text-anchor="start" x="297.5" y="-97.7" font-family="Helvetica,sans-Serif" font-size="11.00" fill="#000000">varchar[50]</text>
<polygon fill="none" stroke="#000000" points="190.5,-68 190.5,-90 294.5,-90 294.5,-68 190.5,-68"/>
<text text-anchor="start" x="210.5" y="-75.1" font-family="Helvetica,sans-Serif" font-size="11.00" fill="#000000">middlename</text>
<polygon fill="none" stroke="#000000" points="294.5,-68 294.5,-90 361.5,-90 361.5,-68 294.5,-68"/>
<text text-anchor="start" x="297.5" y="-75.7" font-family="Helvetica,sans-Serif" font-size="11.00" fill="#000000">varchar[50]</text>
<polygon fill="none" stroke="#000000" points="190.5,-46 190.5,-68 294.5,-68 294.5,-46 190.5,-46"/>
<text text-anchor="start" x="210.5" y="-53.1" font-family="Helvetica,sans-Serif" font-size="11.00" fill="#000000">username</text>
<polygon fill="none" stroke="#000000" points="294.5,-46 294.5,-68 361.5,-68 361.5,-46 294.5,-46"/>
<text text-anchor="start" x="297.4365" y="-53.7" font-family="Helvetica,sans-Serif" font-size="11.00" fill="#000000">varchar[100]</text>
<polygon fill="#ffffff" stroke="transparent" points="190.5,-27 190.5,-46 233.5,-46 233.5,-27 190.5,-27"/>
<polygon fill="none" stroke="#000000" points="190.5,-27 190.5,-46 233.5,-46 233.5,-27 190.5,-27"/>
<text text-anchor="start" x="193.5" y="-33.1" font-family="Helvetica,sans-Serif" font-size="11.00" fill="#000000">&lt; 1</text>
<polygon fill="#ffffff" stroke="transparent" points="233.5,-27 233.5,-46 294.5,-46 294.5,-27 233.5,-27"/>
<polygon fill="none" stroke="#000000" points="233.5,-27 233.5,-46 294.5,-46 294.5,-27 233.5,-27"/>
<text text-anchor="start" x="259.1105" y="-33.1" font-family="Helvetica,sans-Serif" font-size="11.00" fill="#000000">0 rows</text>
<polygon fill="#ffffff" stroke="transparent" points="294.5,-27 294.5,-46 361.5,-46 361.5,-27 294.5,-27"/>
<polygon fill="none" stroke="#000000" points="294.5,-27 294.5,-46 361.5,-46 361.5,-27 294.5,-27"/>
<text text-anchor="start" x="342.9053" y="-33.1" font-family="Helvetica,sans-Serif" font-size="11.00" fill="#000000">0 &gt;</text>
<polygon fill="none" stroke="#000000" stroke-width="2" points="189,-26 189,-224 362,-224 362,-26 189,-26"/>
</a>
</g>
</g>
<!-- User_AUD&#45;&gt;REVINFO -->
<g id="edge4" class="edge">
<title>User_AUD:w&#45;&gt;REVINFO:e</title>
<path fill="none" stroke="#000000" d="M176.1203,-169.8394C157.0108,-179.1571 162.0738,-209.7103 147,-236 127.3235,-270.3172 145.5581,-315 106,-315"/>
<polygon fill="#000000" stroke="#000000" points="182.6515,-168.5498 191.1974,-170.5318 186.5758,-167.7749 190.5,-167 190.5,-167 190.5,-167 186.5758,-167.7749 189.8026,-163.4682 182.6515,-168.5498 182.6515,-168.5498"/>
<ellipse fill="none" stroke="#000000" cx="179.5122" cy="-169.1697" rx="3.2" ry="3.2"/>
</g>
</g>
</svg>
