<?xml version="1.0" encoding="UTF-8" standalone="no"?>
<!DOCTYPE svg PUBLIC "-//W3C//DTD SVG 1.1//EN"
 "http://www.w3.org/Graphics/SVG/1.1/DTD/svg11.dtd">
<!-- Generated by graphviz version 2.40.1 (20161225.0304)
 -->
<!-- Title: oneDegreeRelationshipsDiagram Pages: 1 -->
<svg width="199pt" height="193pt"
 viewBox="0.00 0.00 199.00 193.00" xmlns="http://www.w3.org/2000/svg" xmlns:xlink="http://www.w3.org/1999/xlink">
<g id="graph0" class="graph" transform="scale(1 1) rotate(0) translate(4 189)">
<title>oneDegreeRelationshipsDiagram</title>
<polygon fill="#ffffff" stroke="transparent" points="-4,4 -4,-189 195,-189 195,4 -4,4"/>
<!-- User -->
<g id="node1" class="node">
<title>User</title>
<g id="a_node1"><a xlink:href="../../tables/User.html" xlink:title="User" target="_top">
<polygon fill="#ffffff" stroke="transparent" points="8,-25 8,-181 183,-181 183,-25 8,-25"/>
<polygon fill="#f5f5f5" stroke="transparent" points="10.5,-156 10.5,-179 181.5,-179 181.5,-156 10.5,-156"/>
<polygon fill="none" stroke="#000000" points="10.5,-156 10.5,-179 181.5,-179 181.5,-156 10.5,-156"/>
<text text-anchor="start" x="15.5" y="-164.6" font-family="Helvetica,sans-Serif" font-weight="bold" font-size="11.00" fill="#000000">User</text>
<text text-anchor="start" x="146.5437" y="-164.1" font-family="Helvetica,sans-Serif" font-size="11.00" fill="#000000">[table]</text>
<polygon fill="none" stroke="#000000" points="10.5,-134 10.5,-156 114.5,-156 114.5,-134 10.5,-134"/>
<image xlink:href="../../images/primaryKeys.png" width="11px" height="12px" preserveAspectRatio="xMinYMin meet" x="15.5" y="-151"/>
<text text-anchor="start" x="30.5" y="-141.1" font-family="Helvetica,sans-Serif" font-size="11.00" fill="#000000">userid_pk</text>
<polygon fill="none" stroke="#000000" points="114.5,-134 114.5,-156 181.5,-156 181.5,-134 114.5,-134"/>
<text text-anchor="start" x="117.5" y="-141.7" font-family="Helvetica,sans-Serif" font-size="11.00" fill="#000000">int[10]</text>
<polygon fill="none" stroke="#000000" points="10.5,-112 10.5,-134 114.5,-134 114.5,-112 10.5,-112"/>
<text text-anchor="start" x="30.5" y="-119.1" font-family="Helvetica,sans-Serif" font-size="11.00" fill="#000000">firstname</text>
<polygon fill="none" stroke="#000000" points="114.5,-112 114.5,-134 181.5,-134 181.5,-112 114.5,-112"/>
<text text-anchor="start" x="117.5" y="-119.7" font-family="Helvetica,sans-Serif" font-size="11.00" fill="#000000">varchar[50]</text>
<polygon fill="none" stroke="#000000" points="10.5,-90 10.5,-112 114.5,-112 114.5,-90 10.5,-90"/>
<text text-anchor="start" x="30.5" y="-97.1" font-family="Helvetica,sans-Serif" font-size="11.00" fill="#000000">lastname</text>
<polygon fill="none" stroke="#000000" points="114.5,-90 114.5,-112 181.5,-112 181.5,-90 114.5,-90"/>
<text text-anchor="start" x="117.5" y="-97.7" font-family="Helvetica,sans-Serif" font-size="11.00" fill="#000000">varchar[50]</text>
<polygon fill="none" stroke="#000000" points="10.5,-68 10.5,-90 114.5,-90 114.5,-68 10.5,-68"/>
<text text-anchor="start" x="30.5" y="-75.1" font-family="Helvetica,sans-Serif" font-size="11.00" fill="#000000">middlename</text>
<polygon fill="none" stroke="#000000" points="114.5,-68 114.5,-90 181.5,-90 181.5,-68 114.5,-68"/>
<text text-anchor="start" x="117.5" y="-75.7" font-family="Helvetica,sans-Serif" font-size="11.00" fill="#000000">varchar[50]</text>
<polygon fill="none" stroke="#000000" points="10.5,-46 10.5,-68 114.5,-68 114.5,-46 10.5,-46"/>
<text text-anchor="start" x="30.5" y="-53.1" font-family="Helvetica,sans-Serif" font-size="11.00" fill="#000000">username</text>
<polygon fill="none" stroke="#000000" points="114.5,-46 114.5,-68 181.5,-68 181.5,-46 114.5,-46"/>
<text text-anchor="start" x="117.4365" y="-53.7" font-family="Helvetica,sans-Serif" font-size="11.00" fill="#000000">varchar[100]</text>
<polygon fill="#ffffff" stroke="transparent" points="10.5,-27 10.5,-46 53.5,-46 53.5,-27 10.5,-27"/>
<polygon fill="none" stroke="#000000" points="10.5,-27 10.5,-46 53.5,-46 53.5,-27 10.5,-27"/>
<text text-anchor="start" x="13.5" y="-33.1" font-family="Helvetica,sans-Serif" font-size="11.00" fill="#000000">&lt; 0</text>
<polygon fill="#ffffff" stroke="transparent" points="53.5,-27 53.5,-46 114.5,-46 114.5,-27 53.5,-27"/>
<polygon fill="none" stroke="#000000" points="53.5,-27 53.5,-46 114.5,-46 114.5,-27 53.5,-27"/>
<text text-anchor="start" x="79.1105" y="-33.1" font-family="Helvetica,sans-Serif" font-size="11.00" fill="#000000">0 rows</text>
<polygon fill="#ffffff" stroke="transparent" points="114.5,-27 114.5,-46 181.5,-46 181.5,-27 114.5,-27"/>
<polygon fill="none" stroke="#000000" points="114.5,-27 114.5,-46 181.5,-46 181.5,-27 114.5,-27"/>
<text text-anchor="start" x="162.9053" y="-33.1" font-family="Helvetica,sans-Serif" font-size="11.00" fill="#000000">0 &gt;</text>
<polygon fill="none" stroke="#000000" stroke-width="2" points="9,-26 9,-180 182,-180 182,-26 9,-26"/>
</a>
</g>
</g>
</g>
</svg>
